<svg width="46" height="46" viewBox="0 0 46 46" fill="none" xmlns="http://www.w3.org/2000/svg">
<g id="Frame">
<g id="Electric Plug-ev-electric car-vehicle-plug">
<path id="Vector" d="M40.5444 35.2484C41.0988 35.918 41.3787 36.7655 41.3295 37.6259C41.2803 38.4863 40.9057 39.298 40.2784 39.9031L38.2444 41.8929C38.1085 42.0215 37.9268 42.0934 37.7377 42.0934C37.5486 42.0934 37.3669 42.0215 37.2309 41.8929L36.7206 41.3937L34.6866 43.3835L33.6731 42.3921L35.7072 40.4023L34.6866 39.4039L32.6597 41.3937L31.6391 40.4023L33.6731 38.4125L33.1628 37.9132C33.096 37.8491 33.0431 37.7725 33.0073 37.6879C32.9714 37.6034 32.9535 37.5126 32.9544 37.421C32.9534 37.3285 32.9714 37.2366 33.0072 37.1509C33.043 37.0652 33.0959 36.9873 33.1628 36.9218L35.1969 34.932C35.7414 34.3949 36.4503 34.0466 37.2158 33.94C37.9813 33.8333 38.7614 33.9743 39.4375 34.3414C41.8461 31.0298 43.1353 27.0642 43.1247 23C43.1217 19.7693 42.3068 16.5888 40.7517 13.7387C39.1967 10.8887 36.9491 8.45632 34.207 6.65593C31.4648 4.85554 28.3122 3.74233 25.0268 3.41432C21.7414 3.08631 18.4239 3.55357 15.3666 4.77495L14.8203 3.47417C18.096 2.16504 21.6506 1.66398 25.1708 2.01513C28.6911 2.36627 32.0691 3.55884 35.0073 5.4878C37.9455 7.41676 40.3538 10.0229 42.02 13.0767C43.6862 16.1306 44.5592 19.5384 44.5622 23C44.5742 27.3947 43.1681 31.6811 40.5444 35.2484Z" fill="white"/>
<path id="Vector_2" d="M9.34375 23C9.34375 20.3578 10.1447 17.7749 11.6452 15.5779C13.1458 13.381 15.2786 11.6687 17.774 10.6575C20.2693 9.64641 23.0151 9.38185 25.6642 9.89732C28.3133 10.4128 30.7466 11.6852 32.6564 13.5535C34.5663 15.4218 35.8669 17.8023 36.3939 20.3937C36.9208 22.9852 36.6503 25.6713 35.6167 28.1124C34.5831 30.5535 32.8328 32.64 30.587 34.1079C28.3412 35.5759 25.701 36.3594 23 36.3594C19.3791 36.3562 15.9075 34.9477 13.3471 32.443C10.7868 29.9383 9.34699 26.5422 9.34375 23ZM23.7188 30.0312V25.1094H27.3125C27.435 25.109 27.5554 25.078 27.6622 25.0193C27.7691 24.9606 27.8588 24.8762 27.9229 24.7741C27.987 24.6719 28.0233 24.5554 28.0284 24.4357C28.0336 24.3159 28.0073 24.1969 27.9522 24.0898L23.6397 15.6523C23.58 15.5364 23.4886 15.4389 23.3757 15.3706C23.2628 15.3024 23.1327 15.266 23 15.2656C22.9442 15.2657 22.8886 15.2728 22.8347 15.2867C22.6775 15.3231 22.5375 15.4101 22.4371 15.5338C22.3366 15.6576 22.2818 15.8108 22.2812 15.9688V20.8906H18.6875C18.565 20.891 18.4446 20.922 18.3378 20.9807C18.2309 21.0394 18.1412 21.1238 18.0771 21.2259C18.013 21.3281 17.9767 21.4446 17.9716 21.5643C17.9664 21.6841 17.9927 21.8031 18.0478 21.9102L22.3603 30.3477C22.4337 30.4878 22.553 30.5998 22.6992 30.6657C22.8454 30.7316 23.0099 30.7476 23.1665 30.7111C23.3231 30.6746 23.4626 30.5878 23.5627 30.4645C23.6629 30.3413 23.7178 30.1887 23.7188 30.0312Z" fill="white"/>
<path id="Vector_3" d="M12.837 8.08674C12.9038 8.15083 12.9567 8.22746 12.9925 8.31203C13.0283 8.39661 13.0463 8.48739 13.0454 8.57893C13.0463 8.67152 13.0284 8.76337 12.9926 8.84909C12.9568 8.93481 12.9039 9.01268 12.837 9.07815L10.8029 11.068C10.2584 11.6051 9.54947 11.9534 8.78397 12.06C8.01848 12.1666 7.23833 12.0257 6.56226 11.6586C4.15369 14.9701 2.86442 18.9358 2.87508 23C2.87803 26.2307 3.69293 29.4111 5.24802 32.2612C6.80311 35.1113 9.05068 37.5437 11.7928 39.344C14.5349 41.1444 17.6875 42.2576 20.9729 42.5857C24.2584 42.9137 27.5758 42.4464 30.6332 41.225L31.1795 42.5258C27.9037 43.8349 24.3492 44.336 20.8289 43.9848C17.3087 43.6337 13.9307 42.4411 10.9924 40.5122C8.05423 38.5832 5.64597 35.9771 3.97976 32.9232C2.31355 29.8694 1.44053 26.4616 1.43758 23C1.42559 18.6053 2.83163 14.3189 5.45539 10.7516C4.90098 10.0819 4.62111 9.23444 4.67027 8.37405C4.71943 7.51366 5.09409 6.70194 5.72133 6.0969L7.75539 4.10706C7.89131 3.97844 8.07301 3.90654 8.26211 3.90653C8.45121 3.90654 8.63291 3.97844 8.76883 4.10706L9.27914 4.60627L11.3132 2.61643L12.3266 3.60783L10.2926 5.59768L11.3132 6.59612L13.3401 4.60627L14.3607 5.59768L12.3266 7.58752L12.837 8.08674Z" fill="white"/>
</g>
</g>
</svg>
