<svg width="50" height="50" viewBox="0 0 50 50" fill="none" xmlns="http://www.w3.org/2000/svg">
<g id="Frame">
<path id="Vector" d="M16.1642 13.4258C16.4003 13.4258 16.6372 13.3408 16.8249 13.1683C16.8383 13.1561 16.8524 13.1424 16.865 13.1294C17.2464 12.7483 17.2464 12.13 16.865 11.7485C16.4835 11.367 15.8655 11.367 15.4841 11.7485C15.4829 11.7496 15.481 11.7512 15.4791 11.7531C15.1053 12.1204 15.0877 12.7213 15.4448 13.11C15.6374 13.3198 15.9006 13.4258 16.1642 13.4258Z" fill="url(#paint0_linear_13242_29544)"/>
<path id="Vector_2" d="M25.0004 7.8125C22.8672 7.8125 20.742 8.32443 18.8545 9.2926C18.3746 9.53865 18.1854 10.1273 18.4315 10.6071C18.6775 11.087 19.2661 11.2766 19.746 11.0306C21.3821 10.1913 23.1499 9.76562 25.0004 9.76562C31.3541 9.76562 36.5238 14.9353 36.5238 21.2894C36.5238 23.6336 35.8238 25.8892 34.5001 27.813C34.2937 28.1132 34.0824 28.4172 33.8692 28.7247C31.654 31.9153 29.1691 35.4958 28.7685 39.0625H21.2318C20.8313 35.4958 18.3464 31.9153 16.1312 28.7247C15.9176 28.4172 15.7066 28.1132 15.4999 27.813C14.1766 25.8892 13.4766 23.6336 13.4766 21.2894C13.4766 19.1441 14.0701 17.0509 15.1924 15.2363C15.4762 14.7778 15.3343 14.1762 14.8758 13.8924C14.4169 13.6082 13.8153 13.7505 13.5315 14.209C12.2177 16.3322 11.5234 18.7805 11.5234 21.2894C11.5234 24.0303 12.3421 26.6693 13.8912 28.9204C14.0991 29.2229 14.312 29.5288 14.5271 29.8386C16.6176 32.8491 18.9651 36.232 19.2951 39.3192C18.6226 39.6824 18.1644 40.3942 18.1644 41.2109V44.7266C18.1644 45.5597 18.6413 46.283 19.3359 46.6393V47.4609C19.3359 48.8609 20.475 50 21.875 50H28.1254C29.5254 50 30.6644 48.8609 30.6644 47.4609V46.6393C31.3591 46.283 31.8359 45.5597 31.8359 44.7266V41.2109C31.8359 40.3942 31.3778 39.6824 30.7053 39.3192C31.0356 36.232 33.3832 32.8491 35.4733 29.8386C35.6884 29.5288 35.9013 29.2225 36.1092 28.9204C37.6583 26.6693 38.4769 24.0307 38.4769 21.2894C38.4769 13.8584 32.4314 7.8125 25.0004 7.8125ZM29.8828 41.2109V41.9922H26.8524C26.313 41.9922 25.8759 42.4294 25.8759 42.9688C25.8759 43.5078 26.313 43.9453 26.8524 43.9453H29.8828V44.7266C29.8828 44.8326 29.7935 44.9219 29.6879 44.9219H20.3125C20.2068 44.9219 20.1176 44.8326 20.1176 44.7266V41.2109C20.1176 41.1049 20.2068 41.0156 20.3125 41.0156H29.6879C29.7935 41.0156 29.8828 41.1049 29.8828 41.2109ZM28.1254 48.0469H21.875C21.5576 48.0469 21.2891 47.7787 21.2891 47.4609V46.875H28.7113V47.4609C28.7113 47.7787 28.4428 48.0469 28.1254 48.0469Z" fill="url(#paint1_linear_13242_29544)"/>
<path id="Vector_3" d="M25 5.04684C25.539 5.04684 25.9766 4.6093 25.9766 4.07028V0.976562C25.9766 0.437164 25.539 0 25 0C24.4606 0 24.0234 0.437164 24.0234 0.976562V4.07028C24.0234 4.6093 24.4606 5.04684 25 5.04684Z" fill="url(#paint2_linear_13242_29544)"/>
<path id="Vector_4" d="M12.1336 9.80417C12.3243 9.99453 12.5742 10.0903 12.8241 10.0903C13.0739 10.0903 13.3242 9.99453 13.5149 9.80417C13.896 9.4227 13.896 8.80434 13.5149 8.42287L11.3272 6.23552C10.9457 5.85443 10.3277 5.85443 9.94626 6.23552C9.56479 6.61699 9.56479 7.23536 9.94626 7.61683L12.1336 9.80417Z" fill="url(#paint3_linear_13242_29544)"/>
<path id="Vector_5" d="M7.78122 20.313H4.6875C4.1481 20.313 3.71094 20.7502 3.71094 21.2896C3.71094 21.8286 4.1481 22.2661 4.6875 22.2661H7.78122C8.32024 22.2661 8.75778 21.8286 8.75778 21.2896C8.75778 20.7502 8.32024 20.313 7.78122 20.313Z" fill="url(#paint4_linear_13242_29544)"/>
<path id="Vector_6" d="M12.1336 32.7749L9.94626 34.9622C9.56479 35.3433 9.56479 35.9617 9.94626 36.3431C10.137 36.5339 10.3869 36.6292 10.6367 36.6292C10.8866 36.6292 11.1364 36.5339 11.3272 36.3431L13.5149 34.1558C13.896 33.7747 13.896 33.1563 13.5149 32.7749C13.1334 32.3934 12.5151 32.3934 12.1336 32.7749Z" fill="url(#paint5_linear_13242_29544)"/>
<path id="Vector_7" d="M37.8663 32.7749C37.4849 32.3934 36.8669 32.3934 36.485 32.7749C36.1039 33.156 36.1039 33.7743 36.485 34.1558L38.6724 36.3431C38.8631 36.5339 39.1134 36.6292 39.3632 36.6292C39.6131 36.6292 39.8629 36.5339 40.0537 36.3431C40.4348 35.9621 40.4348 35.3437 40.0537 34.9622L37.8663 32.7749Z" fill="url(#paint6_linear_13242_29544)"/>
<path id="Vector_8" d="M45.3121 20.313H42.2188C41.6794 20.313 41.2422 20.7502 41.2422 21.2896C41.2422 21.8286 41.6794 22.2661 42.2188 22.2661H45.3121C45.8515 22.2661 46.2887 21.8286 46.2887 21.2896C46.2887 20.7502 45.8515 20.313 45.3121 20.313Z" fill="url(#paint7_linear_13242_29544)"/>
<path id="Vector_9" d="M38.6728 6.23532L36.485 8.42267C36.1039 8.80414 36.1039 9.4225 36.485 9.80397C36.6758 9.99432 36.9256 10.0901 37.1759 10.0901C37.4257 10.0901 37.6756 9.99432 37.8663 9.80397L40.0537 7.61662C40.4348 7.23515 40.4348 6.61679 40.0537 6.23532C39.6722 5.85385 39.0542 5.85385 38.6728 6.23532Z" fill="url(#paint8_linear_13242_29544)"/>
<path id="Vector_10" d="M24.0234 43.9453H24.0463C24.5857 43.9453 25.0229 43.5081 25.0229 42.9688C25.0229 42.4297 24.5857 41.9922 24.0463 41.9922H24.0234C23.484 41.9922 23.0469 42.4297 23.0469 42.9688C23.0469 43.5081 23.484 43.9453 24.0234 43.9453Z" fill="url(#paint9_linear_13242_29544)"/>
<path id="Vector_11" d="M25.6906 27.1416C25.3091 26.7601 24.6907 26.7601 24.3093 27.1416C23.9282 27.523 23.9282 28.1414 24.3093 28.5225C24.6907 28.904 25.3091 28.904 25.6906 28.5225C26.072 28.1414 26.072 27.523 25.6906 27.1416Z" fill="url(#paint10_linear_13242_29544)"/>
<path id="Vector_12" d="M30.5251 23.2843C30.7749 23.2843 31.0248 23.189 31.2155 22.9982C31.597 22.6168 31.597 21.9984 31.2155 21.6169C27.7888 18.1902 22.2128 18.1902 18.7861 21.6169C18.4046 21.9984 18.4046 22.6168 18.7861 22.9982C19.1676 23.3793 19.7856 23.3793 20.167 22.9982C22.8324 20.3329 27.1693 20.3329 29.8346 22.9982C30.0253 23.189 30.2752 23.2843 30.5251 23.2843Z" fill="url(#paint11_linear_13242_29544)"/>
<path id="Vector_13" d="M27.7624 26.0467C28.0127 26.0467 28.2622 25.951 28.4529 25.7606C28.8344 25.3791 28.8344 24.7608 28.4529 24.3793C26.549 22.4758 23.4515 22.4758 21.5475 24.3793C21.1664 24.7608 21.1664 25.3791 21.5475 25.7606C21.929 26.1417 22.5474 26.1417 22.9288 25.7606C24.071 24.6181 25.9299 24.6181 27.072 25.7606C27.2627 25.951 27.5126 26.0467 27.7624 26.0467Z" fill="url(#paint12_linear_13242_29544)"/>
</g>
<defs>
<linearGradient id="paint0_linear_13242_29544" x1="15.2731" y1="11.6682" x2="16.3081" y2="11.7068" gradientUnits="userSpaceOnUse">
<stop stop-color="#92D839"/>
<stop offset="1" stop-color="#84BE4A"/>
</linearGradient>
<linearGradient id="paint1_linear_13242_29544" x1="12.6987" y1="12.2354" x2="26.9177" y2="12.5736" gradientUnits="userSpaceOnUse">
<stop stop-color="#92D839"/>
<stop offset="1" stop-color="#84BE4A"/>
</linearGradient>
<linearGradient id="paint2_linear_13242_29544" x1="24.1086" y1="0.529105" x2="25.1393" y2="0.543956" gradientUnits="userSpaceOnUse">
<stop stop-color="#92D839"/>
<stop offset="1" stop-color="#84BE4A"/>
</linearGradient>
<linearGradient id="paint3_linear_13242_29544" x1="9.8407" y1="6.3838" x2="12.0232" y2="6.46506" gradientUnits="userSpaceOnUse">
<stop stop-color="#92D839"/>
<stop offset="1" stop-color="#84BE4A"/>
</linearGradient>
<linearGradient id="paint4_linear_13242_29544" x1="3.931" y1="20.5178" x2="6.57047" y2="20.7717" gradientUnits="userSpaceOnUse">
<stop stop-color="#92D839"/>
<stop offset="1" stop-color="#84BE4A"/>
</linearGradient>
<linearGradient id="paint5_linear_13242_29544" x1="9.8407" y1="32.9229" x2="12.0232" y2="33.0041" gradientUnits="userSpaceOnUse">
<stop stop-color="#92D839"/>
<stop offset="1" stop-color="#84BE4A"/>
</linearGradient>
<linearGradient id="paint6_linear_13242_29544" x1="36.3798" y1="32.9229" x2="38.5621" y2="33.0041" gradientUnits="userSpaceOnUse">
<stop stop-color="#92D839"/>
<stop offset="1" stop-color="#84BE4A"/>
</linearGradient>
<linearGradient id="paint7_linear_13242_29544" x1="41.4622" y1="20.5178" x2="44.1015" y2="20.7716" gradientUnits="userSpaceOnUse">
<stop stop-color="#92D839"/>
<stop offset="1" stop-color="#84BE4A"/>
</linearGradient>
<linearGradient id="paint8_linear_13242_29544" x1="36.3798" y1="6.38334" x2="38.5621" y2="6.46458" gradientUnits="userSpaceOnUse">
<stop stop-color="#92D839"/>
<stop offset="1" stop-color="#84BE4A"/>
</linearGradient>
<linearGradient id="paint9_linear_13242_29544" x1="23.133" y1="42.197" x2="24.1746" y2="42.2362" gradientUnits="userSpaceOnUse">
<stop stop-color="#92D839"/>
<stop offset="1" stop-color="#84BE4A"/>
</linearGradient>
<linearGradient id="paint10_linear_13242_29544" x1="24.1086" y1="27.0602" x2="25.1382" y2="27.0986" gradientUnits="userSpaceOnUse">
<stop stop-color="#92D839"/>
<stop offset="1" stop-color="#84BE4A"/>
</linearGradient>
<linearGradient id="paint11_linear_13242_29544" x1="19.0669" y1="19.4911" x2="25.8412" y2="20.265" gradientUnits="userSpaceOnUse">
<stop stop-color="#92D839"/>
<stop offset="1" stop-color="#84BE4A"/>
</linearGradient>
<linearGradient id="paint12_linear_13242_29544" x1="21.5878" y1="23.2761" x2="25.5029" y2="23.6283" gradientUnits="userSpaceOnUse">
<stop stop-color="#92D839"/>
<stop offset="1" stop-color="#84BE4A"/>
</linearGradient>
</defs>
</svg>
