<svg width="40" height="32" viewBox="0 0 40 32" fill="none" xmlns="http://www.w3.org/2000/svg">
<g id="Group">
<g id="Group_2">
<g id="Group_3">
<path id="Vector" d="M2.27538 3.63412C2.45327 3.47725 2.64725 3.3185 2.85209 3.16233C2.96358 3.07725 2.98498 2.91803 2.90006 2.80655C2.81475 2.69491 2.65577 2.67358 2.54428 2.75858C2.32991 2.92209 2.12639 3.08858 1.93944 3.25342C1.83436 3.34616 1.8242 3.50655 1.91702 3.6117C2.00928 3.71631 2.16944 3.72725 2.27538 3.63412Z" fill="#0C1101"/>
</g>
<g id="Group_4">
<path id="Vector_2" d="M4.00206 2.37255C5.06035 1.72255 6.23956 1.20216 7.50738 0.825753C7.64183 0.785909 7.71839 0.644581 7.67855 0.510128C7.6387 0.375675 7.49628 0.299425 7.363 0.339112C6.05245 0.728097 4.83245 1.26677 3.73628 1.94005C3.61691 2.01341 3.57941 2.16974 3.65277 2.28919C3.72636 2.4088 3.88285 2.44583 4.00206 2.37255Z" fill="#0C1101"/>
</g>
<g id="Group_5">
<path id="Vector_3" d="M39.704 19.9201C39.5652 19.9149 39.4452 20.0217 39.4385 20.1617C39.427 20.4067 39.4032 20.6555 39.3679 20.9012C39.3479 21.0399 39.4442 21.1686 39.583 21.1885C39.5953 21.1903 39.6074 21.1911 39.6195 21.1911C39.7436 21.1911 39.8522 21.0999 39.8704 20.9734C39.908 20.7118 39.9333 20.4467 39.9458 20.1856C39.9524 20.0456 39.8443 19.9267 39.704 19.9201Z" fill="#0C1101"/>
</g>
<g id="Group_6">
<path id="Vector_4" d="M39.3834 22.0598C39.2478 22.0172 39.1072 22.0924 39.0653 22.2262C38.6978 23.3994 38.0711 24.501 37.2029 25.5005C37.1109 25.6063 37.1222 25.7667 37.228 25.8588C37.276 25.9005 37.3353 25.9209 37.3942 25.9209C37.4652 25.9209 37.5359 25.8914 37.586 25.8336C38.5005 24.7809 39.1612 23.6184 39.5496 22.378C39.5917 22.2441 39.5171 22.1017 39.3834 22.0598Z" fill="#0C1101"/>
</g>
<g id="Group_7">
<path id="Vector_5" d="M38.3335 19.7445C38.3335 14.6552 32.8178 10.5164 26.0349 10.5164C25.5658 10.5164 25.1008 10.5367 24.6438 10.5753C24.6459 10.5448 24.6479 10.5144 24.6479 10.4839C24.6479 5.39469 19.1322 1.25586 12.3513 1.25586C5.57039 1.25586 0.0527344 5.39469 0.0527344 10.4839C0.0527344 13.2397 1.66109 15.8148 4.47586 17.5755L3.47672 21.4381C3.29594 22.1367 4.08797 22.683 4.67492 22.2667L8.83203 19.3322C9.97742 19.586 11.1614 19.714 12.3515 19.714C12.8206 19.714 13.2856 19.6896 13.7405 19.649C13.7405 19.6815 13.7385 19.712 13.7385 19.7445C13.7385 24.8337 19.2542 28.9745 26.0351 28.9745C27.2292 28.9745 28.4131 28.8466 29.5545 28.5927L33.7116 31.5273C34.2985 31.9416 35.0926 31.4013 34.9098 30.6987L33.9106 26.8361C36.7252 25.0754 38.3335 22.5003 38.3335 19.7445ZM2.23789 12.2528C2.21352 12.2609 2.18711 12.263 2.16273 12.263C2.05516 12.263 1.95359 12.1939 1.92109 12.0842C1.84797 11.8507 1.79117 11.613 1.75453 11.3734C1.73219 11.2353 1.82562 11.1054 1.96375 11.083C2.10187 11.0607 2.2318 11.1541 2.25414 11.2923C2.28867 11.5075 2.33945 11.7248 2.40445 11.934C2.44703 12.068 2.37187 12.2102 2.23789 12.2528ZM3.78328 14.6471C3.73453 14.6918 3.67156 14.7141 3.6107 14.7141C3.54164 14.7141 3.47461 14.6877 3.42383 14.6329C3.04406 14.2206 2.71914 13.7779 2.45719 13.317C2.38609 13.1951 2.42875 13.0408 2.55062 12.9717C2.67242 12.9027 2.8268 12.9433 2.89789 13.0652C3.14156 13.4937 3.44414 13.9039 3.7975 14.2898C3.89297 14.3933 3.88484 14.5538 3.78328 14.6471ZM17.1562 6.6518H19.4774C19.6176 6.6518 19.7312 6.76555 19.7312 6.90562C19.7312 7.04578 19.6175 7.15945 19.4774 7.15945H17.1562C17.0162 7.15945 16.9024 7.0457 16.9024 6.90562C16.9023 6.76555 17.0161 6.6518 17.1562 6.6518ZM5.22312 6.6518H15.1802C15.3203 6.6518 15.4341 6.76555 15.4341 6.90562C15.4341 7.04578 15.3203 7.15945 15.1802 7.15945H5.22312C5.08305 7.15945 4.9693 7.0457 4.9693 6.90562C4.9693 6.76555 5.08305 6.6518 5.22312 6.6518ZM7.08539 14.312H5.22312C5.08305 14.312 4.9693 14.1983 4.9693 14.0582C4.9693 13.9181 5.08305 13.8044 5.22312 13.8044H7.08539C7.22555 13.8044 7.33922 13.9181 7.33922 14.0582C7.33922 14.1983 7.22555 14.312 7.08539 14.312ZM5.22312 10.7358C5.08305 10.7358 4.9693 10.622 4.9693 10.482C4.9693 10.3419 5.08305 10.2281 5.22312 10.2281H19.4774C19.6176 10.2281 19.7312 10.3419 19.7312 10.482C19.7312 10.6221 19.6175 10.7358 19.4774 10.7358H5.22312ZM33.486 26.501C33.3905 26.5599 33.3439 26.6737 33.3723 26.7812L34.4181 30.8246C34.4811 31.0683 34.2069 31.2552 34.0038 31.1109L29.7554 28.1134C29.7127 28.083 29.6599 28.0667 29.6091 28.0667C29.5888 28.0667 29.5705 28.0688 29.5523 28.0728C28.413 28.3348 27.229 28.4668 26.0348 28.4668C19.5342 28.4668 14.2459 24.5534 14.2459 19.7445C14.2459 14.9355 19.5342 11.0241 26.0348 11.0241C32.5375 11.0241 37.8258 14.9355 37.8258 19.7445C37.8259 22.3703 36.2438 24.8337 33.486 26.501Z" fill="#0C1101"/>
</g>
<g id="Group_8">
<path id="Vector_6" d="M19.8039 24.9937L21.0204 24.9937C21.4245 24.9937 21.7576 24.6911 21.8124 24.3012C21.914 24.3113 22.4704 24.2301 23.1041 24.6037C23.5143 24.8454 23.9854 24.9754 24.4647 24.9754L29.5153 24.9754C30.1226 24.9754 30.6201 24.4859 30.6201 23.8787C30.6201 23.6635 30.5571 23.4583 30.4454 23.2858C31.008 23.237 31.4527 22.7619 31.4527 22.1871C31.4527 21.9658 31.3856 21.7586 31.2739 21.586C31.8385 21.5372 32.2832 21.0621 32.2832 20.4853C32.2832 19.9106 31.8405 19.4354 31.2759 19.3866C31.3877 19.216 31.4527 19.0129 31.4527 18.7937C31.4527 18.1905 30.9571 17.699 30.3479 17.699C27.9577 17.695 27.3057 17.6929 27.1555 17.6929L27.1148 17.6929C27.519 16.8278 27.6631 15.8693 27.5454 14.8397C27.4032 13.8263 25.9938 13.6943 25.6608 14.6406C25.543 14.9208 25.3684 15.8652 24.4666 16.8278L23.1609 18.1925C22.8034 18.5662 22.3221 18.7997 21.8103 18.8504C21.7514 18.4666 21.4204 18.1701 21.0203 18.1701L19.8038 18.1701C19.3611 18.1701 18.9996 18.5296 18.9996 18.9723L18.9996 24.1915C18.9997 24.6342 19.3612 24.9937 19.8039 24.9937ZM21.8225 19.3582C22.4683 19.3013 23.0795 19.0129 23.5284 18.5438L24.8342 17.1771C25.8334 16.1109 26.0385 15.0407 26.1298 14.8335C26.3533 14.3136 26.9808 14.4679 27.0416 14.9046C27.1493 15.8326 27.0193 16.6978 26.6538 17.4797C26.4953 17.8188 26.7431 18.2047 27.1168 18.2047C27.1371 18.2047 27.0335 18.2047 30.3478 18.2067C30.6768 18.2067 30.9449 18.4707 30.9449 18.7936C30.9449 19.1185 30.6769 19.3825 30.3478 19.3825L28.711 19.3825C28.5709 19.3825 28.4572 19.4962 28.4572 19.6363C28.4572 19.7765 28.5709 19.8901 28.711 19.8901L31.1784 19.8901C31.5074 19.8901 31.7755 20.1562 31.7755 20.4851C31.7755 20.8141 31.5074 21.0822 31.1784 21.0822L28.711 21.0822C28.5709 21.0822 28.4572 21.1959 28.4572 21.336C28.4572 21.4762 28.5709 21.5898 28.711 21.5898L30.3478 21.5898C30.6768 21.5898 30.9449 21.8579 30.9449 22.1869C30.9449 22.5158 30.6769 22.7819 30.3478 22.7819L28.711 22.7819C28.4247 22.7819 28.3191 23.2408 28.711 23.2774C29.4076 23.2794 29.6512 23.3058 29.6736 23.3119C29.9315 23.381 30.1123 23.6145 30.1123 23.8786C30.1123 24.2055 29.8442 24.4675 29.5152 24.4675L24.4645 24.4675C24.0766 24.4675 23.6948 24.3619 23.3618 24.1669C22.6205 23.7283 21.8874 23.7994 21.8224 23.7933L21.8224 19.3582L21.8225 19.3582Z" fill="#0C1101"/>
</g>
</g>
</g>
</svg>
