<svg width="20" height="26" viewBox="0 0 20 26" fill="none" xmlns="http://www.w3.org/2000/svg">
<g id="Group">
<path id="Vector" fill-rule="evenodd" clip-rule="evenodd" d="M10.0812 19.7772C11.3879 19.7917 12.6844 19.5544 13.8945 19.0791C15.1046 18.6038 16.204 17.9002 17.128 17.0095C18.052 16.1189 18.782 15.0592 19.2751 13.8928C19.7682 12.7263 20.0144 11.4767 19.9993 10.2172C19.9544 4.89326 15.4421 0.542783 9.91875 0.500615C8.61215 0.486246 7.31574 0.723709 6.10569 1.19906C4.89563 1.6744 3.79633 2.37804 2.87236 3.26865C1.9484 4.15925 1.2184 5.21885 0.725243 6.38521C0.23209 7.55157 -0.014269 8.80117 0.000638268 10.0606C0.0456354 15.3845 4.55784 19.735 10.0812 19.7772ZM11.7174 5.87035C12.0924 6.21491 12.1061 6.78598 11.7499 7.14742L9.68751 9.23531H12.4998C12.6832 9.23539 12.8626 9.28732 13.0156 9.38466C13.1687 9.482 13.2888 9.62048 13.3611 9.78296C13.4333 9.94544 13.4545 10.1248 13.4221 10.2987C13.3896 10.4727 13.305 10.6337 13.1785 10.7618L9.60752 14.3761C9.52266 14.4621 9.42105 14.5312 9.30851 14.5793C9.19597 14.6274 9.0747 14.6537 8.95161 14.6567C8.82852 14.6597 8.70603 14.6392 8.59114 14.5966C8.47624 14.5539 8.37119 14.4899 8.28198 14.4081C8.19277 14.3263 8.12115 14.2283 8.0712 14.1199C8.02125 14.0114 7.99397 13.8945 7.99089 13.7758C7.98781 13.6572 8.00901 13.5391 8.05327 13.4284C8.09754 13.3176 8.16399 13.2164 8.24886 13.1304L10.3112 11.0425H7.50015C7.31676 11.0424 7.13742 10.9905 6.98434 10.8931C6.83127 10.7958 6.71117 10.6573 6.63893 10.4948C6.56669 10.3324 6.54547 10.153 6.57792 9.97905C6.61036 9.80507 6.69503 9.64409 6.82145 9.51603L10.3937 5.90167C10.5651 5.72824 10.801 5.62751 11.0494 5.62164C11.2979 5.61576 11.5386 5.70522 11.7186 5.87035H11.7174Z" fill="white" fill-opacity="0.75"/>
<path id="Vector_2" d="M8.8962 23.3C8.94997 23.321 9.00562 23.3371 9.06244 23.3482V24.5964C9.06244 24.836 9.16121 25.0659 9.33701 25.2353C9.51281 25.4048 9.75125 25.5 9.99988 25.5C10.2485 25.5 10.4869 25.4048 10.6627 25.2353C10.8386 25.0659 10.9373 24.836 10.9373 24.5964V23.3494C10.9941 23.3383 11.0498 23.3222 11.1036 23.3012C11.4095 23.1784 11.6522 22.9436 11.7785 22.6483C11.8748 22.4266 11.8748 22.1459 11.8748 21.5844V20.8567C10.6306 21.0413 9.36317 21.0237 8.125 20.8049V21.5844C8.125 22.1459 8.125 22.4278 8.21999 22.6483C8.34685 22.9433 8.59007 23.1778 8.8962 23.3Z" fill="white" fill-opacity="0.75"/>
</g>
</svg>
