<svg width="86" height="86" viewBox="0 0 86 86" fill="none" xmlns="http://www.w3.org/2000/svg">
<g id="Frame" clip-path="url(#clip0_12206_158966)">
<g id="_x30_5_Renewable_energy">
<g id="Group">
<g id="Group_2">
<path id="Vector" d="M38.1618 51.8089C37.863 51.8089 37.6211 51.5668 37.6211 51.2682V47.4C37.6211 47.1013 37.8632 46.8594 38.1618 46.8594C38.4603 46.8594 38.7024 47.1015 38.7024 47.4V51.2682C38.7024 51.5668 38.4603 51.8089 38.1618 51.8089Z" fill="#0C1101"/>
</g>
<g id="Group_3">
<path id="Vector_2" d="M80.7826 68.6348C80.4831 69.0586 80.1785 69.4824 79.8664 69.8977C79.6869 70.1363 79.735 70.4754 79.9736 70.6549C80.2124 70.8351 80.5515 70.7856 80.7307 70.5478C81.0497 70.124 81.36 69.6913 81.6655 69.2587C81.8379 69.0148 81.7799 68.6775 81.5364 68.5052C81.2916 68.3331 80.955 68.3912 80.7826 68.6348Z" fill="#0C1101"/>
<path id="Vector_3" d="M78.0341 72.1702C76.2311 74.2493 74.2327 76.1477 72.0934 77.8117C71.8576 77.9952 71.8155 78.3349 71.9988 78.5705C72.1811 78.8053 72.5204 78.8492 72.7575 78.6654C74.952 76.9577 77.0025 75.0109 78.851 72.8784C79.0466 72.6529 79.0225 72.3113 78.7965 72.1157C78.5705 71.9196 78.2293 71.9445 78.0341 72.1702Z" fill="#0C1101"/>
<path id="Vector_4" d="M14.5116 16.242C14.8766 15.8301 15.212 15.4685 15.5365 15.1364C15.7452 14.9228 15.7409 14.5804 15.5277 14.3717C15.3143 14.1633 14.9722 14.1668 14.7627 14.3805C14.4264 14.7251 14.0795 15.099 13.7024 15.5239C13.5043 15.7474 13.5251 16.0892 13.7484 16.2873C13.9698 16.4851 14.3125 16.4663 14.5116 16.242Z" fill="#0C1101"/>
<path id="Vector_5" d="M17.576 13.139C19.5406 11.3558 21.6175 9.77382 24.0962 8.25576C24.3504 8.09984 24.4308 7.76707 24.2749 7.51234C24.1186 7.25762 23.7857 7.17758 23.531 7.33367C21.0103 8.87746 18.8717 10.502 16.8493 12.3387C16.628 12.5393 16.6116 12.8813 16.8121 13.1023C17.0137 13.3235 17.3551 13.3396 17.576 13.139Z" fill="#0C1101"/>
<path id="Vector_6" d="M85.9552 43.4814C85.4449 22.0477 67.7355 4.51562 46.0508 4.51562C28.6355 4.51562 13.0113 16.0003 7.86794 32.6629C1.46162 41.669 -0.497975 49.5633 2.04562 56.1254C6.18532 66.8099 20.5986 70.0238 21.2085 70.1535C21.7362 70.2659 22.0822 69.6301 21.7146 69.2494C17.4279 64.7983 19.7248 58.0805 20.9101 55.3986C21.8011 53.3828 22.4112 51.4882 22.7743 49.5978C23.7909 44.3119 23.008 40.1159 20.4514 37.1269C16.9346 33.0131 11.1729 32.4379 9.1052 32.3687C14.3003 16.4892 29.3233 5.59713 46.0508 5.59713C66.8401 5.59713 84.3765 22.6836 84.8738 43.5075C85.2503 59.1449 76.2917 73.4153 62.0558 79.8693C58.6904 81.3963 54.806 81.1021 51.6742 79.082C48.4775 77.023 46.5699 73.5279 46.5699 69.7386V64.4699C52.7946 64.154 57.7649 58.985 57.7649 52.6824V43.0316C59.1448 42.8327 60.2131 41.6431 60.2131 40.2112C60.2131 38.6367 58.9327 37.3519 57.3582 37.3519H54.7369V27.0784C54.7369 25.7936 53.6901 24.7468 52.4053 24.7468C51.1206 24.7468 50.0738 25.7936 50.0738 27.0784V37.3519H41.8507V27.0784C41.8507 25.7936 40.8039 24.7468 39.5191 24.7468C38.2344 24.7468 37.1876 25.7936 37.1876 27.0784V37.3519H34.5663C32.9917 37.3519 31.7113 38.6367 31.7113 40.2112C31.7113 41.6431 32.7797 42.8325 34.1596 43.0316V52.6823C34.1596 59.0323 39.199 64.2233 45.4886 64.474V69.7384C45.4886 73.8997 47.5822 77.7322 51.086 79.9903C54.5466 82.2224 58.816 82.5251 62.5015 80.8555C77.1353 74.2198 86.3402 59.5514 85.9552 43.4814ZM51.1551 27.0784C51.1551 26.3906 51.7175 25.8282 52.4052 25.8282C53.093 25.8282 53.6554 26.3904 53.6554 27.0784V37.3519H51.1551V27.0784ZM38.2689 27.0784C38.2689 26.3906 38.8313 25.8282 39.5191 25.8282C40.2069 25.8282 40.7693 26.3904 40.7693 27.0784V37.3519H38.2689V27.0784ZM35.2409 52.6821V43.0661H56.6833V52.6821C56.6833 58.5952 51.8731 63.4055 45.96 63.4055C40.051 63.4055 35.2409 58.5954 35.2409 52.6821Z" fill="#0C1101"/>
<path id="Vector_7" d="M50.7996 52.0416C50.7996 54.7063 48.6281 56.8777 45.9592 56.8777C43.2945 56.8777 41.123 54.7063 41.123 52.0416C41.123 49.3726 43.2945 47.2012 45.9592 47.2012C48.628 47.2012 50.7996 49.3726 50.7996 52.0416Z" fill="#ABE138"/>
</g>
</g>
</g>
</g>
<defs>
<clipPath id="clip0_12206_158966">
<rect width="85" height="85" fill="white" transform="translate(0.966797 0.716797)"/>
</clipPath>
</defs>
</svg>
