<svg width="102" height="101" viewBox="0 0 102 101" fill="none" xmlns="http://www.w3.org/2000/svg">
<g id="Layer_3">
<path id="Vector" d="M51 2.9541L13.125 16.728V50.0454C13.1341 56.548 14.6768 62.9569 17.6278 68.7514C20.5788 74.5459 24.8549 79.5627 30.1088 83.3943L51 98.5885L71.8912 83.3943C77.1451 79.5627 81.4212 74.5459 84.3722 68.7514C87.3232 62.9569 88.8659 56.548 88.875 50.0454V16.728L51 2.9541ZM82.5625 50.0454C82.5538 55.5525 81.2469 60.9801 78.7479 65.8876C76.2489 70.7951 72.6282 75.0444 68.1795 78.2906L51 90.7862L33.8205 78.2906C29.3718 75.0444 25.7511 70.7951 23.2521 65.8876C20.7531 60.9801 19.4462 55.5525 19.4375 50.0454V21.1467L51 9.6706L82.5625 21.1467V50.0454Z" fill="black"/>
<path id="Vector_2" d="M37.4493 42.7451L32.9863 47.2081L47.0537 61.2755L69.0118 39.3174L64.5488 34.8545L47.0537 52.3496L37.4493 42.7451Z" fill="black"/>
</g>
</svg>
