<svg width="58" height="59" viewBox="0 0 58 59" fill="none" xmlns="http://www.w3.org/2000/svg">
<g id="Layer_3">
<path id="Vector" d="M29 2.24683L7.25 10.1566V29.2893C7.25521 33.0235 8.14111 36.7039 9.83575 40.0314C11.5304 43.3589 13.986 46.2399 17.0031 48.4402L29 57.1656L40.9969 48.4402C44.014 46.2399 46.4696 43.3589 48.1642 40.0314C49.8589 36.7039 50.7448 33.0235 50.75 29.2893V10.1566L29 2.24683ZM47.125 29.2893C47.12 32.4519 46.3695 35.5687 44.9344 38.3868C43.4994 41.205 41.4201 43.6452 38.8654 45.5094L29 52.6851L19.1346 45.5094C16.5799 43.6452 14.5006 41.205 13.0656 38.3868C11.6305 35.5687 10.88 32.4519 10.875 29.2893V12.6941L29 6.10383L47.125 12.6941V29.2893Z" fill="white"/>
<path id="Vector_2" d="M21.2191 25.0969L18.6562 27.6598L26.7346 35.7381L39.3441 23.1285L36.7812 20.5657L26.7346 30.6124L21.2191 25.0969Z" fill="white"/>
</g>
</svg>
