<svg width="17" height="18" viewBox="0 0 17 18" fill="none" xmlns="http://www.w3.org/2000/svg">
<g id="Capa_1" clip-path="url(#clip0_8576_9764)">
<g id="Group">
<path id="Vector" d="M7.88641 15.0677C7.15999 15.8258 6.16034 16.2559 5.10239 16.2559C2.97493 16.2559 1.24409 14.525 1.24409 12.3975C1.24409 11.3396 1.6741 10.34 2.43226 9.61353C2.41201 9.41169 2.40152 9.20703 2.40152 8.99994C2.40152 8.66778 2.42884 8.3401 2.4813 8.01929C0.965813 8.92852 0 10.5845 0 12.3975C0 15.211 2.28892 17.4999 5.10239 17.4999C6.91538 17.4999 8.57139 16.5341 9.48065 15.0186C9.15985 15.0711 8.83216 15.0984 8.50003 15.0984C8.29291 15.0984 8.08821 15.0879 7.88641 15.0677Z" fill="#0C1101"/>
<path id="Vector_2" d="M5.10248 15.2598C5.65647 15.2598 6.18892 15.1007 6.64387 14.8093C4.77161 14.2097 3.29038 12.7285 2.69077 10.8562C2.39934 11.3112 2.24023 11.8436 2.24023 12.3976C2.24027 13.9758 3.52427 15.2598 5.10248 15.2598Z" fill="#0C1101"/>
<path id="Vector_3" d="M11.2838 11.6701C10.5574 12.4282 9.55777 12.8582 8.49985 12.8582C6.37239 12.8582 4.64155 11.1274 4.64155 8.99994C4.64155 7.94202 5.07153 6.94237 5.82969 6.21595C5.80944 6.01411 5.79894 5.80941 5.79894 5.60233C5.79894 5.26867 5.8263 4.94132 5.8781 4.62207C4.36297 5.53144 3.39746 7.18721 3.39746 8.99994C3.39746 11.8134 5.68638 14.1023 8.49985 14.1023C10.3126 14.1023 11.9684 13.1368 12.8777 11.6217C12.5585 11.6735 12.2311 11.7008 11.8975 11.7008C11.6904 11.7008 11.4857 11.6904 11.2838 11.6701Z" fill="#0C1101"/>
<path id="Vector_4" d="M8.4999 11.8621C9.05387 11.8621 9.58631 11.703 10.0413 11.4116C8.16904 10.812 6.68781 9.33075 6.0882 7.4585C5.79677 7.91345 5.6377 8.44592 5.6377 8.99988C5.6377 10.5781 6.92169 11.8621 8.4999 11.8621Z" fill="#0C1101"/>
<path id="Vector_5" d="M11.8974 2.74023C10.3192 2.74023 9.03516 4.02423 9.03516 5.60248C9.03516 7.18072 10.3192 8.46469 11.8974 8.46469C13.4756 8.46469 14.7596 7.18072 14.7596 5.60248C14.7596 4.02423 13.4756 2.74023 11.8974 2.74023ZM12.3954 7.28259H11.3994V3.9223H12.3954V7.28259Z" fill="#0C1101"/>
<path id="Vector_6" d="M11.8973 0.5C9.08388 0.5 6.79492 2.78892 6.79492 5.60239C6.79492 8.41586 9.08388 10.7048 11.8973 10.7048C14.7108 10.7048 16.9997 8.41586 16.9997 5.60239C16.9997 2.78892 14.7108 0.5 11.8973 0.5ZM11.8973 9.46069C9.76986 9.46069 8.03901 7.72988 8.03901 5.60239C8.03901 3.4749 9.76986 1.74409 11.8973 1.74409C14.0248 1.74409 15.7556 3.47493 15.7556 5.60242C15.7556 7.72991 14.0248 9.46069 11.8973 9.46069Z" fill="#0C1101"/>
</g>
</g>
<defs>
<clipPath id="clip0_8576_9764">
<rect width="17" height="17" fill="white" transform="translate(0 0.5)"/>
</clipPath>
</defs>
</svg>
