<svg width="44" height="44" viewBox="0 0 44 44" fill="none" xmlns="http://www.w3.org/2000/svg">
<g id="Frame" clip-path="url(#clip0_8646_9832)">
<g id="Group">
<path id="Vector" d="M37.5563 4.61024C37.0194 4.07328 36.1487 4.07328 35.6117 4.61024C35.0747 5.14723 35.0747 6.01782 35.6117 6.55479C39.0969 10.0399 41.25 14.8505 41.25 20.1666C41.25 25.4828 39.0969 30.2932 35.6117 33.7784C35.0747 34.3154 35.0747 35.186 35.6117 35.723C36.1487 36.2598 37.0194 36.2598 37.5563 35.723C41.536 31.7432 44 26.2414 44 20.1666C44 14.0918 41.536 8.58995 37.5563 4.61024Z" fill="url(#paint0_linear_8646_9832)"/>
<path id="Vector_2" d="M8.3882 6.55479C8.92516 6.01782 8.92516 5.14723 8.3882 4.61024C7.85123 4.07328 6.98062 4.07328 6.44365 4.61024C2.46395 8.58995 0 14.0918 0 20.1666C0 26.2414 2.46395 31.7432 6.44365 35.723C6.98062 36.2598 7.85123 36.2598 8.3882 35.723C8.92516 35.186 8.92516 34.3154 8.3882 33.7784C4.90312 30.2932 2.75 25.4828 2.75 20.1666C2.75 14.8505 4.90312 10.0399 8.3882 6.55479Z" fill="url(#paint1_linear_8646_9832)"/>
<path id="Vector_3" d="M14.8703 13.0367C15.4073 12.4998 15.4073 11.6292 14.8703 11.0922C14.3334 10.5552 13.4628 10.5552 12.9258 11.0922C10.6049 13.4131 9.16699 16.6233 9.16699 20.1668C9.16699 23.7102 10.6049 26.9204 12.9258 29.2412C13.4628 29.7782 14.3334 29.7782 14.8703 29.2412C15.4073 28.7042 15.4073 27.8338 14.8703 27.2968C13.0441 25.4704 11.917 22.9516 11.917 20.1668C11.917 17.3819 13.0441 14.863 14.8703 13.0367Z" fill="url(#paint2_linear_8646_9832)"/>
<path id="Vector_4" d="M31.0747 11.0922C30.5379 10.5552 29.6673 10.5552 29.1303 11.0922C28.5933 11.6292 28.5933 12.4998 29.1303 13.0367C30.9565 14.863 32.0836 17.3819 32.0836 20.1668C32.0836 22.9516 30.9565 25.4704 29.1303 27.2968C28.5933 27.8338 28.5933 28.7042 29.1303 29.2412C29.6673 29.7782 30.5379 29.7782 31.0747 29.2412C33.3957 26.9204 34.8336 23.7102 34.8336 20.1668C34.8336 16.6233 33.3957 13.4131 31.0747 11.0922Z" fill="url(#paint3_linear_8646_9832)"/>
<path id="Vector_5" d="M25.6663 20.1667C25.6663 21.7054 24.7185 23.0228 23.3747 23.5668V38.9583C23.3747 39.7177 22.759 40.3333 21.9997 40.3333C21.2403 40.3333 20.6247 39.7177 20.6247 38.9583V23.5668C19.2808 23.0228 18.333 21.7054 18.333 20.1667C18.333 18.1416 19.9746 16.5 21.9997 16.5C24.0248 16.5 25.6663 18.1416 25.6663 20.1667Z" fill="url(#paint4_linear_8646_9832)"/>
</g>
</g>
<defs>
<linearGradient id="paint0_linear_8646_9832" x1="35.5923" y1="7.55377" x2="40.232" y2="7.60135" gradientUnits="userSpaceOnUse">
<stop stop-color="#92D839"/>
<stop offset="1" stop-color="#84BE4A"/>
</linearGradient>
<linearGradient id="paint1_linear_8646_9832" x1="0.383325" y1="7.55377" x2="5.02299" y2="7.60135" gradientUnits="userSpaceOnUse">
<stop stop-color="#92D839"/>
<stop offset="1" stop-color="#84BE4A"/>
</linearGradient>
<linearGradient id="paint2_linear_8646_9832" x1="9.43324" y1="12.6766" x2="12.6558" y2="12.7153" gradientUnits="userSpaceOnUse">
<stop stop-color="#92D839"/>
<stop offset="1" stop-color="#84BE4A"/>
</linearGradient>
<linearGradient id="paint3_linear_8646_9832" x1="28.9938" y1="12.6766" x2="32.2163" y2="12.7153" gradientUnits="userSpaceOnUse">
<stop stop-color="#92D839"/>
<stop offset="1" stop-color="#84BE4A"/>
</linearGradient>
<linearGradient id="paint4_linear_8646_9832" x1="18.6528" y1="18.9987" x2="22.5231" y2="19.043" gradientUnits="userSpaceOnUse">
<stop stop-color="#92D839"/>
<stop offset="1" stop-color="#84BE4A"/>
</linearGradient>
<clipPath id="clip0_8646_9832">
<rect width="44" height="44" fill="white"/>
</clipPath>
</defs>
</svg>
