<svg width="36" height="36" viewBox="0 0 36 36" fill="none" xmlns="http://www.w3.org/2000/svg">
<g id="Layer_1">
<path id="Vector" d="M33.4678 18.7031C33.0178 18.6469 32.5959 18.9844 32.5397 19.4625C32.3709 21.0938 31.9491 22.6969 31.2459 24.2156C29.5866 27.7594 26.6616 30.4313 23.0053 31.7813C19.3491 33.1031 15.3553 32.9344 11.8397 31.3031C11.3053 31.05 10.7991 30.7688 10.2928 30.4594C10.7709 30.4313 11.2772 30.2906 11.6991 30.0375C12.2053 29.7563 12.7397 29.4188 13.3022 29.025C13.6959 28.7438 14.0334 28.3781 14.2866 27.9563C14.5678 27.45 14.9053 26.9156 15.0741 26.2969C16.1709 22.0781 12.5147 21.9094 12.4022 20.9813C12.2897 19.9406 13.6397 19.1531 14.4553 18.3375C15.2709 17.5219 15.5241 16.2563 15.1022 15.525C13.7522 13.1063 10.5459 14.3719 10.2366 16.9594C10.0678 18.5063 9.13969 20.0813 8.35219 20.8969C7.56469 21.7125 6.01782 21.2625 5.59594 20.1094C5.11782 18.8156 6.77719 18.3375 6.52407 16.6781C6.46782 16.2281 5.98969 16.0031 5.39907 15.9188L3.48656 15.975C3.68344 14.5969 4.07719 13.2188 4.69594 11.8969C6.83344 7.28438 11.1366 4.19063 16.1709 3.57188C16.6209 3.51563 16.9584 3.09376 16.9022 2.64376C16.8459 2.19376 16.4241 1.85626 15.9741 1.91251C10.4053 2.53126 5.62407 5.99063 3.23344 11.1375C-0.563435 19.2938 2.98032 28.9969 11.1084 32.7938C13.3022 33.8063 15.6366 34.3406 17.9991 34.3406C19.8834 34.3406 21.7678 34.0031 23.5959 33.3563C27.7022 31.8656 30.9647 28.8844 32.7928 24.9188C33.5803 23.2313 34.0584 21.4594 34.2553 19.6313C34.2834 19.1531 33.9459 18.7313 33.4678 18.7031Z" fill="#0C1101"/>
<path id="Vector_2" d="M25.0317 21.4875C25.7067 21.4875 26.3254 21.1781 26.7754 20.6719C29.1098 17.8312 33.0473 12.4875 32.9067 8.40937C32.766 4.02187 29.3067 0.5625 25.0317 0.5625C20.7567 0.5625 17.2973 4.02187 17.1567 8.40937C17.0442 12.4875 20.9535 17.8594 23.2879 20.6719C23.7379 21.2062 24.3567 21.4875 25.0317 21.4875ZM22.2192 8.4375C22.2192 6.89062 23.4848 5.625 25.0317 5.625C26.5785 5.625 27.8442 6.89062 27.8442 8.4375C27.8442 9.98438 26.5785 11.25 25.0317 11.25C23.4848 11.25 22.2192 9.98438 22.2192 8.4375Z" fill="#0C1101"/>
</g>
</svg>
