<svg width="29" height="28" viewBox="0 0 29 28" fill="none" xmlns="http://www.w3.org/2000/svg">
<g id="_x34_4_Forgiveness">
<g id="Group">
<path id="Vector" d="M14.4996 0.00817871C6.78223 0.00817871 0.507812 6.28696 0.507812 13.9999C0.507812 21.7173 6.78223 27.9917 14.4996 27.9917C22.2126 27.9917 28.4913 21.7173 28.4913 13.9999C28.4913 6.28696 22.2126 0.00817871 14.4996 0.00817871ZM14.4996 27.1172C7.26753 27.1172 1.38229 21.2319 1.38229 13.9999C1.38229 6.76795 7.26753 0.882653 14.4996 0.882653C21.7316 0.882653 27.6169 6.76795 27.6169 13.9999C27.6169 21.2319 21.7316 27.1172 14.4996 27.1172Z" fill="#0C1101"/>
<path id="Vector_2" d="M14.4991 4.35437C9.18222 4.35437 4.85352 8.68307 4.85352 14C4.85352 19.3168 9.18222 23.6456 14.4991 23.6456C19.816 23.6456 24.1447 19.3169 24.1447 14C24.1447 8.68307 19.816 4.35437 14.4991 4.35437ZM14.4991 13.5627C15.7453 13.5627 16.7597 14.5772 16.7597 15.8232C16.7597 16.9557 15.9726 17.8739 14.9363 18.0794V18.8183C14.9363 19.0632 14.7396 19.2556 14.4991 19.2556C14.2586 19.2556 14.0618 19.0632 14.0618 18.8183V18.1231H12.6758C12.4353 18.1231 12.2385 17.9264 12.2385 17.6859C12.2385 17.4454 12.4353 17.2486 12.6758 17.2486H14.4904H14.4991C14.4991 17.2486 14.5035 17.2486 14.5079 17.2486C15.2643 17.2442 15.8852 16.6234 15.8852 15.8626C15.8852 15.058 15.2643 14.4371 14.4991 14.4371C13.253 14.4371 12.2385 13.4227 12.2385 12.1766C12.2385 11.0441 13.0256 10.1259 14.0619 9.92044V9.18157C14.0619 8.94107 14.2586 8.7443 14.4991 8.7443C14.7396 8.7443 14.9364 8.94107 14.9364 9.18157V9.87677H16.3224C16.5629 9.87677 16.7597 10.0735 16.7597 10.314C16.7597 10.5589 16.5629 10.7513 16.3224 10.7513H14.4991C13.734 10.7513 13.1131 11.3722 13.1131 12.1374C13.1131 12.9419 13.734 13.5627 14.4991 13.5627Z" fill="#0C1101"/>
</g>
</g>
</svg>
