<svg width="30" height="22" viewBox="0 0 30 22" fill="none" xmlns="http://www.w3.org/2000/svg">
<g id="Group">
<g id="Group_2">
<path id="Vector" d="M27.7215 10.0846C27.815 9.58354 27.8623 9.07493 27.863 8.56518C27.8573 3.83094 24.0148 -0.00228902 19.2805 0.00342435C15.6766 0.00775646 12.4603 2.26579 11.232 5.65394C9.03272 4.77848 6.54012 5.85159 5.6646 8.05086C5.58882 8.24122 5.52678 8.43673 5.47901 8.63594C1.96736 9.16113 -0.453601 12.4336 0.071589 15.9453C0.542596 19.0947 3.24822 21.4248 6.43264 21.4235H15.0048V10.7083C15.0048 10.1165 15.4845 9.63672 16.0763 9.63672C16.6681 9.63672 17.1478 10.1165 17.1478 10.7083V21.4235H23.5769C27.1276 21.4201 30.0033 18.539 30 14.9883C29.9981 13.0983 29.1649 11.3048 27.7215 10.0846Z" fill="#0C1101"/>
</g>
</g>
</svg>
