<svg width="24" height="21" viewBox="0 0 24 21" fill="none" xmlns="http://www.w3.org/2000/svg">
<g id="3-Download">
<path id="Vector" d="M12.8125 20.373H11.1875C8.38615 20.373 5.69954 19.2602 3.71868 17.2794C1.73783 15.2985 0.625 12.6119 0.625 9.81055C0.625 9.59506 0.710602 9.3884 0.862976 9.23602C1.01535 9.08365 1.22201 8.99805 1.4375 8.99805C1.65299 8.99805 1.85965 9.08365 2.01202 9.23602C2.1644 9.3884 2.25 9.59506 2.25 9.81055C2.25 12.1809 3.19163 14.4542 4.86773 16.1303C6.54384 17.8064 8.81713 18.748 11.1875 18.748H12.8125C15.1829 18.748 17.4562 17.8064 19.1323 16.1303C20.8084 14.4542 21.75 12.1809 21.75 9.81055C21.75 9.59506 21.8356 9.3884 21.988 9.23602C22.1403 9.08365 22.347 8.99805 22.5625 8.99805C22.778 8.99805 22.9847 9.08365 23.137 9.23602C23.2894 9.3884 23.375 9.59506 23.375 9.81055C23.375 11.1976 23.1018 12.5711 22.571 13.8526C22.0402 15.1341 21.2621 16.2985 20.2813 17.2794C19.3005 18.2602 18.1361 19.0382 16.8546 19.569C15.5731 20.0998 14.1996 20.373 12.8125 20.373ZM12.8125 12.963V4.12305C12.8125 3.90756 12.7269 3.7009 12.5745 3.54852C12.4222 3.39615 12.2155 3.31055 12 3.31055C11.7845 3.31055 11.5778 3.39615 11.4255 3.54852C11.2731 3.7009 11.1875 3.90756 11.1875 4.12305V12.963C11.1875 13.1785 11.2731 13.3852 11.4255 13.5376C11.5778 13.6899 11.7845 13.7755 12 13.7755C12.2155 13.7755 12.4222 13.6899 12.5745 13.5376C12.7269 13.3852 12.8125 13.1785 12.8125 12.963ZM12.585 14.4418L16.6475 10.2818C16.7983 10.1266 16.8814 9.91793 16.8783 9.70156C16.8753 9.48519 16.7864 9.27889 16.6313 9.12805C16.4761 8.97721 16.2674 8.89418 16.051 8.89722C15.8346 8.90027 15.6283 8.98915 15.4775 9.1443L12 12.7112L8.5225 9.1443C8.37166 8.98915 8.16536 8.90027 7.94899 8.89722C7.73262 8.89417 7.5239 8.97721 7.36875 9.12805C7.2136 9.27889 7.12472 9.48519 7.12168 9.70156C7.11863 9.91793 7.20166 10.1266 7.3525 10.2818L11.415 14.4418C11.4908 14.5204 11.5817 14.583 11.6822 14.6257C11.7827 14.6684 11.8908 14.6904 12 14.6904C12.1092 14.6904 12.2173 14.6684 12.3178 14.6257C12.4183 14.583 12.5092 14.5204 12.585 14.4418ZM12.8125 1.68555V0.873047C12.8125 0.657558 12.7269 0.450896 12.5745 0.298523C12.4222 0.146149 12.2155 0.0605469 12 0.0605469C11.7845 0.0605469 11.5778 0.146149 11.4255 0.298523C11.2731 0.450896 11.1875 0.657558 11.1875 0.873047V1.68555C11.1875 1.90104 11.2731 2.1077 11.4255 2.26007C11.5778 2.41244 11.7845 2.49805 12 2.49805C12.2155 2.49805 12.4222 2.41244 12.5745 2.26007C12.7269 2.1077 12.8125 1.90104 12.8125 1.68555Z" fill="white"/>
</g>
</svg>
