<svg width="38" height="39" viewBox="0 0 38 39" fill="none" xmlns="http://www.w3.org/2000/svg">
<g id="Frame" clip-path="url(#clip0_13524_8947)">
<g id="Layer_x0020_1">
<path id="Vector" d="M0.00366592 19.4984C0.00366592 9.00736 8.50834 0.502689 18.9994 0.502689C29.4904 0.502689 37.9951 9.00736 37.9951 19.4984C37.9951 29.9895 29.4904 38.4941 18.9994 38.4941C8.50834 38.4941 0.00366592 29.9895 0.00366592 19.4984Z" fill="#4A46FB" fill-opacity="0.5"/>
</g>
<path id="Vector_2" d="M18.25 27.5241C17.7 27.5241 17.1457 27.4615 16.587 27.3361C16.0283 27.2108 15.4577 27.0318 14.875 26.7991C15.075 24.7825 15.6583 22.8991 16.625 21.1491C17.5917 19.3991 18.8333 17.8575 20.35 16.5241C18.5167 17.4575 16.929 18.6908 15.587 20.2241C14.245 21.7575 13.3077 23.5075 12.775 25.4741C12.7083 25.4241 12.6457 25.3701 12.587 25.3121L12.4 25.1241C11.6167 24.3408 11.0207 23.4658 10.612 22.4991C10.2033 21.5325 9.99933 20.5241 10 19.4741C10 18.3408 10.225 17.2575 10.675 16.2241C11.125 15.1908 11.75 14.2741 12.55 13.4741C13.9 12.1241 15.65 11.2451 17.8 10.8371C19.95 10.4291 22.9667 10.3915 26.85 10.7241C27.15 14.7075 27.1 17.7451 26.7 19.8371C26.3 21.9291 25.4333 23.6415 24.1 24.9741C23.2833 25.7908 22.3707 26.4201 21.362 26.8621C20.3533 27.3041 19.316 27.5248 18.25 27.5241Z" fill="white" fill-opacity="0.75"/>
</g>
<defs>
<clipPath id="clip0_13524_8947">
<rect width="38" height="38" fill="white" transform="translate(0 0.5)"/>
</clipPath>
</defs>
</svg>
