<svg width="44" height="44" viewBox="0 0 44 44" fill="none" xmlns="http://www.w3.org/2000/svg">
<g id="Frame" clip-path="url(#clip0_8528_20039)">
<path id="Vector" d="M14.2656 22.8594C13.7913 22.8594 13.4062 23.2444 13.4062 23.7188C13.4062 24.1931 13.7913 24.5781 14.2656 24.5781C14.74 24.5781 15.125 24.1931 15.125 23.7188C15.125 23.2444 14.74 22.8594 14.2656 22.8594Z" fill="url(#paint0_linear_8528_20039)"/>
<path id="Vector_2" d="M21.9999 13.4062C17.9246 13.4062 14.4888 16.2643 13.6194 20.0963C13.4972 20.6337 13.9064 21.146 14.4579 21.146C14.8503 21.146 15.2048 20.8754 15.2955 20.4766C15.9991 17.3755 18.8186 15.125 21.9999 15.125C22.4746 15.125 22.8593 14.7403 22.8593 14.2656C22.8593 13.791 22.4746 13.4062 21.9999 13.4062Z" fill="url(#paint1_linear_8528_20039)"/>
<path id="Vector_3" d="M40.5625 18.5625C38.9636 18.5625 37.6165 19.6595 37.2338 21.1406H34.0007C33.8181 18.535 32.8066 16.0928 31.0933 14.1219L33.5301 11.6852C34.8174 12.4475 36.551 12.3105 37.7078 11.1537C39.0475 9.814 39.0475 7.63333 37.7081 6.29257C37.7078 6.29224 37.7078 6.29224 37.7074 6.2919C36.3667 4.95248 34.186 4.95248 32.8463 6.29224C31.6871 7.45139 31.5542 9.18558 32.3145 10.4699L29.8781 12.9067C27.9069 11.1934 25.465 10.1819 22.8594 9.9993V6.76624C24.3405 6.38354 25.4375 5.03641 25.4375 3.4375C25.4375 1.54218 23.8953 0 22 0C20.1047 0 18.5625 1.54218 18.5625 3.4375C18.5625 5.03641 19.6595 6.38354 21.1406 6.76624V9.9993C18.535 10.1819 16.0928 11.1934 14.1219 12.9067L11.6852 10.4699C12.4462 9.18524 12.3129 7.45105 11.1537 6.29224C9.814 4.95248 7.63333 4.95248 6.2919 6.29257C4.95248 7.63333 4.95248 9.814 6.29224 11.1537C7.45139 12.3129 9.18558 12.4458 10.4699 11.6852L12.9067 14.1219C11.1934 16.0928 10.1819 18.535 9.9993 21.1406H6.76624C6.38354 19.6595 5.03641 18.5625 3.4375 18.5625C1.54218 18.5625 0 20.1043 0 22C0 23.8953 1.54218 25.4375 3.4375 25.4375C5.03641 25.4375 6.38354 24.3401 6.76624 22.8594H9.9993C10.1819 25.465 11.1937 27.9072 12.9067 29.8781L10.4699 32.3145C9.18256 31.5522 7.44904 31.6891 6.29224 32.8459C4.95248 34.186 4.95248 36.3667 6.29257 37.7078C7.633 39.0472 9.81366 39.0479 11.1537 37.7078C12.3129 36.5486 12.4458 34.8144 11.6852 33.5301L14.123 31.0926C16.1422 32.8439 18.6088 33.8211 21.1406 34.0007V37.2338C19.6595 37.6165 18.5625 38.9636 18.5625 40.5625C18.5625 42.4578 20.1047 44 22 44C23.8953 44 25.4375 42.4578 25.4375 40.5625C25.4375 38.9636 24.3405 37.6165 22.8594 37.2338V34.0007C25.4328 33.8181 27.8891 32.817 29.8774 31.0926L32.3148 33.5301C31.5538 34.8144 31.6871 36.5486 32.8463 37.7078C34.186 39.0475 36.3667 39.0475 37.7081 37.7074C39.0475 36.3667 39.0475 34.186 37.7078 32.8459C36.5486 31.6871 34.8144 31.5542 33.5301 32.3145L31.0933 29.8781C32.8066 27.9069 33.8181 25.465 34.0007 22.8594H37.2338C37.6165 24.3405 38.9636 25.4375 40.5625 25.4375C42.4578 25.4375 44 23.8953 44 22C44 20.1047 42.4578 18.5625 40.5625 18.5625ZM34.0615 7.50745C34.7315 6.83774 35.8218 6.83774 36.4926 7.50745C37.1623 8.17816 37.1623 9.26883 36.4926 9.93854C35.8208 10.6103 34.7335 10.6113 34.0611 9.9382C33.3894 9.26715 33.3891 8.17984 34.0615 7.50745ZM20.2812 3.4375C20.2812 2.48984 21.0523 1.71875 22 1.71875C22.9477 1.71875 23.7188 2.48984 23.7188 3.4375C23.7188 4.38516 22.9477 5.15625 22 5.15625C21.0523 5.15625 20.2812 4.38516 20.2812 3.4375ZM7.50745 9.93854C6.83774 9.26849 6.83774 8.17783 7.50745 7.50778C8.17715 6.83841 9.26816 6.83707 9.93854 7.50745C10.6089 8.17783 10.6126 9.26514 9.9382 9.93887C9.26715 10.6106 8.17984 10.6106 7.50745 9.93854ZM3.4375 23.7188C2.48984 23.7188 1.71875 22.9477 1.71875 22C1.71875 21.0523 2.48984 20.2812 3.4375 20.2812C4.38516 20.2812 5.15625 21.0523 5.15625 22C5.15625 22.9477 4.38516 23.7188 3.4375 23.7188ZM9.93854 36.4926C9.26849 37.1626 8.17783 37.1623 7.50778 36.4926C6.83774 35.8222 6.83774 34.7315 7.50745 34.0615C8.17883 33.3901 9.26648 33.3887 9.9382 34.0611C9.93854 34.0615 9.93854 34.0615 9.93887 34.0618C10.6106 34.7328 10.6109 35.8202 9.93854 36.4926ZM19.4219 22C19.4219 20.5783 20.5783 19.4219 22 19.4219C23.4217 19.4219 24.5781 20.5783 24.5781 22C24.5781 23.4217 23.4217 24.5781 22 24.5781C20.5783 24.5781 19.4219 23.4217 19.4219 22ZM22 32.3125C20.1893 32.3125 18.4262 31.8405 16.8696 30.9459C17.1261 28.3426 19.3346 26.2969 22 26.2969C24.6654 26.2969 26.8739 28.3426 27.1304 30.9459C25.5738 31.8405 23.8107 32.3125 22 32.3125ZM23.7188 40.5625C23.7188 41.5102 22.9477 42.2812 22 42.2812C21.0523 42.2812 20.2812 41.5102 20.2812 40.5625C20.2812 39.6148 21.0523 38.8438 22 38.8438C22.9477 38.8438 23.7188 39.6148 23.7188 40.5625ZM36.4926 34.0615C37.1623 34.7315 37.1623 35.8222 36.4926 36.4922C35.8222 37.1623 34.7315 37.1623 34.0615 36.4926C33.3911 35.8222 33.3874 34.7349 34.0618 34.0611C34.7328 33.3894 35.8202 33.3894 36.4926 34.0615ZM29.2913 29.2923C29.0966 29.487 28.8938 29.674 28.684 29.8529C28.1872 27.7853 26.7517 26.077 24.8578 25.2052C25.74 24.4177 26.2969 23.2729 26.2969 22C26.2969 19.6307 24.3693 17.7031 22 17.7031C19.6307 17.7031 17.7031 19.6307 17.7031 22C17.7031 23.2729 18.26 24.4177 19.1422 25.2052C17.2483 26.077 15.8128 27.7853 15.316 29.8529C13.0424 27.9153 11.6875 25.0974 11.6875 22C11.6875 16.3117 16.2989 11.6875 22 11.6875C27.6981 11.6875 32.3125 16.2989 32.3125 22C32.3125 26.5886 29.3688 29.1754 29.2913 29.2923ZM40.5625 23.7188C39.6148 23.7188 38.8438 22.9477 38.8438 22C38.8438 21.0523 39.6148 20.2812 40.5625 20.2812C41.5102 20.2812 42.2812 21.0523 42.2812 22C42.2812 22.9477 41.5102 23.7188 40.5625 23.7188Z" fill="url(#paint2_linear_8528_20039)"/>
</g>
<defs>
<linearGradient id="paint0_linear_8528_20039" x1="13.4812" y1="23.0396" x2="14.3872" y2="23.0733" gradientUnits="userSpaceOnUse">
<stop stop-color="#92D839"/>
<stop offset="1" stop-color="#84BE4A"/>
</linearGradient>
<linearGradient id="paint1_linear_8528_20039" x1="14.0015" y1="14.2177" x2="18.8805" y2="14.435" gradientUnits="userSpaceOnUse">
<stop stop-color="#92D839"/>
<stop offset="1" stop-color="#84BE4A"/>
</linearGradient>
<linearGradient id="paint2_linear_8528_20039" x1="1.9186" y1="4.6129" x2="25.1112" y2="5.4764" gradientUnits="userSpaceOnUse">
<stop stop-color="#92D839"/>
<stop offset="1" stop-color="#84BE4A"/>
</linearGradient>
<clipPath id="clip0_8528_20039">
<rect width="44" height="44" fill="white"/>
</clipPath>
</defs>
</svg>
