<svg width="24" height="24" viewBox="0 0 24 24" fill="none" xmlns="http://www.w3.org/2000/svg">
<g id="Layer_1" clip-path="url(#clip0_6907_5854)">
<g id="Group">
<g id="Group_2">
<path id="Vector" d="M15.7952 0.000366211C14.3889 0.000366211 13.2051 0.969929 12.8763 2.27568H0.734672C0.328969 2.27568 0 2.6046 0 3.01035C0 3.4161 0.328969 3.74507 0.734672 3.74507H12.8763C13.2051 5.05077 14.3889 6.02038 15.7952 6.02038C17.4549 6.02038 18.8052 4.6701 18.8052 3.0104C18.8052 1.35069 17.4549 0.000366211 15.7952 0.000366211Z" fill="black"/>
</g>
</g>
<g id="Group_3">
<g id="Group_4">
<path id="Vector_2" d="M8.20481 8.99017C6.79851 8.99017 5.61469 9.95974 5.28586 11.2655H0.734672C0.328969 11.2655 0 11.5944 0 12.0002C0 12.4059 0.328969 12.7348 0.734672 12.7348H5.28586C5.61464 14.0405 6.79847 15.0101 8.20481 15.0101C9.86451 15.0101 11.2147 13.6598 11.2147 12.0001C11.2147 10.3404 9.86447 8.99017 8.20481 8.99017Z" fill="black"/>
</g>
</g>
<g id="Group_5">
<g id="Group_6">
<path id="Vector_3" d="M23.2652 2.27545H20.2139C20.2946 2.7629 20.2947 3.25725 20.2139 3.74484H23.2652C23.6709 3.74484 23.9999 3.41587 23.9999 3.01017C23.9999 2.60447 23.6709 2.27545 23.2652 2.27545Z" fill="black"/>
</g>
</g>
<g id="Group_7">
<g id="Group_8">
<path id="Vector_4" d="M15.7952 17.9799C14.3889 17.9799 13.2051 18.9495 12.8763 20.2552H0.734672C0.328969 20.2552 0 20.5842 0 20.9899C0 21.3957 0.328969 21.7246 0.734672 21.7246H12.8763C13.2051 23.0303 14.3889 23.9999 15.7952 23.9999C17.4549 23.9999 18.8052 22.6496 18.8052 20.9899C18.8052 19.3302 17.4549 17.9799 15.7952 17.9799Z" fill="black"/>
</g>
</g>
<g id="Group_9">
<g id="Group_10">
<path id="Vector_5" d="M23.2652 20.2551H20.2139C20.2946 20.7426 20.2947 21.2369 20.2139 21.7245H23.2652C23.6709 21.7245 23.9999 21.3955 23.9999 20.9898C23.9999 20.5841 23.6709 20.2551 23.2652 20.2551Z" fill="black"/>
</g>
</g>
<g id="Group_11">
<g id="Group_12">
<path id="Vector_6" d="M23.2658 11.2655H12.624C12.7048 11.7529 12.7048 12.2473 12.624 12.7349H23.2658C23.6715 12.7349 24.0004 12.4059 24.0004 12.0002C24.0004 11.5945 23.6715 11.2655 23.2658 11.2655Z" fill="black"/>
</g>
</g>
</g>
<defs>
<clipPath id="clip0_6907_5854">
<rect width="24" height="24" fill="white"/>
</clipPath>
</defs>
</svg>
