<svg width="70" height="70" viewBox="0 0 70 70" fill="none" xmlns="http://www.w3.org/2000/svg">
<g id="Frame" clip-path="url(#clip0_8646_9735)">
<g id="_x31_3_Eco_Energy">
<g id="Group">
<path id="Vector" d="M56.5375 34.8437C56.2289 34.8058 48.8856 33.9652 42.5859 36.8491C42.0368 37.1006 41.7955 37.7495 42.0466 38.2986C42.2976 38.8464 42.9449 39.0906 43.496 38.8379C48.0206 36.7668 53.327 36.824 55.3927 36.9452C55.5518 39.6497 55.6063 47.9068 50.8916 52.7069C50.4676 53.1379 50.474 53.83 50.9045 54.2535C51.3367 54.677 52.0287 54.6705 52.4511 54.2396C58.8502 47.7268 57.5514 36.2825 57.4937 35.7986C57.4325 35.2982 57.0384 34.9036 56.5375 34.8437Z" fill="url(#paint0_linear_8646_9735)"/>
<path id="Vector_2" d="M49.5592 44.3189L36.4671 57.4112C37.7577 57.4221 39.442 57.3564 41.2795 57.072C41.8701 56.9845 42.4279 57.3892 42.5264 57.9908C42.614 58.5813 42.2092 59.1392 41.6076 59.2377C39.3874 59.5767 37.0357 59.6751 34.9248 59.5549V68.9064C34.9248 69.508 34.4326 70.0002 33.831 70.0002C33.2185 70.0002 32.7372 69.508 32.7372 68.9064V59.5549C28.767 59.6862 24.2825 58.8001 21.4717 55.9893C17.0748 51.5924 17.9499 43.8267 17.9936 43.4986C18.0482 42.9955 18.4421 42.6017 18.9452 42.547C19.2733 42.5033 27.0389 41.6173 31.4358 46.0251C32.2889 46.8782 32.9451 47.8626 33.4373 48.8908C33.9514 46.6158 34.8155 44.2314 36.2373 42.1315C36.5763 41.6284 37.2544 41.4971 37.7575 41.8362C38.2607 42.1752 38.3919 42.8533 38.0529 43.3564C35.7123 46.8126 34.8592 51.6252 34.9904 55.7923L48.0169 42.7767C48.4434 42.35 49.1325 42.35 49.559 42.7767C49.9858 43.2033 49.9858 43.8923 49.5592 44.3189Z" fill="url(#paint1_linear_8646_9735)"/>
<path id="Vector_3" d="M44.5819 16.0346L31.8288 34.6282C31.5445 35.0548 30.9975 35.2188 30.5381 35.0328C30.0569 34.8469 29.7726 34.3657 29.8491 33.8626L31.7741 19.7641L25.1898 19.7532C24.796 19.7532 24.4242 19.5235 24.2273 19.1736C24.0414 18.8127 24.0632 18.3751 24.2929 18.047L36.171 0.481391C36.4445 0.0767774 36.9476 -0.098211 37.4179 0.0549225C37.8773 0.208056 38.1836 0.645452 38.1726 1.12671L37.8008 14.3173H43.6852C44.0898 14.3173 44.4617 14.5471 44.6477 14.8969C44.8334 15.258 44.8116 15.6955 44.5819 16.0346Z" fill="url(#paint2_linear_8646_9735)"/>
<path id="Vector_4" d="M50.4983 4.70404L46.652 7.81012C46.1832 8.18989 46.1094 8.87817 46.4886 9.3482C46.8661 9.81418 47.5527 9.89412 48.0277 9.51166L51.8719 6.40558C52.3419 6.02641 52.4156 5.33753 52.0364 4.86751C51.6562 4.39867 50.9694 4.32278 50.4983 4.70404Z" fill="url(#paint3_linear_8646_9735)"/>
<path id="Vector_5" d="M55.4266 16.4614H50.4844C49.8798 16.4614 49.3906 16.9512 49.3906 17.5552C49.3906 18.1592 49.8798 18.649 50.4844 18.649H55.4266C56.0312 18.649 56.5204 18.1592 56.5204 17.5552C56.5204 16.9512 56.0312 16.4614 55.4266 16.4614Z" fill="url(#paint4_linear_8646_9735)"/>
<path id="Vector_6" d="M52.0364 30.2426C52.4156 29.7726 52.342 29.0837 51.8719 28.7045L48.0277 25.5985C47.5567 25.2193 46.8699 25.2914 46.4886 25.7619C46.1094 26.232 46.1831 26.9202 46.6521 27.3L50.4984 30.4061C50.9657 30.7845 51.6544 30.714 52.0364 30.2426Z" fill="url(#paint5_linear_8646_9735)"/>
<path id="Vector_7" d="M18.3827 30.4067L22.2273 27.3006C22.6974 26.9208 22.7704 26.2325 22.3908 25.7625C22.0112 25.2925 21.3221 25.2199 20.8527 25.5991L17.0081 28.7051C16.538 29.0849 16.465 29.7732 16.8446 30.2432C17.2239 30.7125 17.9119 30.7867 18.3827 30.4067Z" fill="url(#paint6_linear_8646_9735)"/>
<path id="Vector_8" d="M12.3604 17.5552C12.3604 18.1592 12.8501 18.649 13.4541 18.649H18.3963C19.0003 18.649 19.4901 18.1592 19.4901 17.5552C19.4901 16.9512 19.0003 16.4614 18.3963 16.4614H13.4541C12.8501 16.4614 12.3604 16.9512 12.3604 17.5552Z" fill="url(#paint7_linear_8646_9735)"/>
<path id="Vector_9" d="M22.3915 9.34805C22.7712 8.87802 22.698 8.18974 22.228 7.80997L18.3827 4.70389C17.9133 4.32577 17.2249 4.39792 16.8447 4.86735C16.4649 5.33738 16.5381 6.02566 17.0081 6.40543L20.8534 9.51151C21.3245 9.89187 22.0123 9.81703 22.3915 9.34805Z" fill="url(#paint8_linear_8646_9735)"/>
</g>
</g>
</g>
<defs>
<linearGradient id="paint0_linear_8646_9735" x1="46.5312" y1="29.9661" x2="59.66" y2="43.5191" gradientUnits="userSpaceOnUse">
<stop stop-color="#D9FF8A"/>
<stop offset="1" stop-color="#97CB63"/>
</linearGradient>
<linearGradient id="paint1_linear_8646_9735" x1="27.2377" y1="34.8902" x2="44.6556" y2="60.5694" gradientUnits="userSpaceOnUse">
<stop stop-color="#D9FF8A"/>
<stop offset="1" stop-color="#97CB63"/>
</linearGradient>
<linearGradient id="paint2_linear_8646_9735" x1="30.1405" y1="-8.3682" x2="52.5793" y2="8.89625" gradientUnits="userSpaceOnUse">
<stop stop-color="#D9FF8A"/>
<stop offset="1" stop-color="#97CB63"/>
</linearGradient>
<linearGradient id="paint3_linear_8646_9735" x1="48.0083" y1="3.19888" x2="51.2484" y2="8.02408" gradientUnits="userSpaceOnUse">
<stop stop-color="#D9FF8A"/>
<stop offset="1" stop-color="#97CB63"/>
</linearGradient>
<linearGradient id="paint4_linear_8646_9735" x1="51.4733" y1="15.94" x2="52.117" y2="18.6818" gradientUnits="userSpaceOnUse">
<stop stop-color="#D9FF8A"/>
<stop offset="1" stop-color="#97CB63"/>
</linearGradient>
<linearGradient id="paint5_linear_8646_9735" x1="48.0084" y1="24.0937" x2="51.2481" y2="28.9188" gradientUnits="userSpaceOnUse">
<stop stop-color="#D9FF8A"/>
<stop offset="1" stop-color="#97CB63"/>
</linearGradient>
<linearGradient id="paint6_linear_8646_9735" x1="18.3637" y1="24.0945" x2="21.6034" y2="28.9193" gradientUnits="userSpaceOnUse">
<stop stop-color="#D9FF8A"/>
<stop offset="1" stop-color="#97CB63"/>
</linearGradient>
<linearGradient id="paint7_linear_8646_9735" x1="14.4431" y1="15.94" x2="15.0868" y2="18.6818" gradientUnits="userSpaceOnUse">
<stop stop-color="#D9FF8A"/>
<stop offset="1" stop-color="#97CB63"/>
</linearGradient>
<linearGradient id="paint8_linear_8646_9735" x1="18.3639" y1="3.20011" x2="21.603" y2="8.02507" gradientUnits="userSpaceOnUse">
<stop stop-color="#D9FF8A"/>
<stop offset="1" stop-color="#97CB63"/>
</linearGradient>
<clipPath id="clip0_8646_9735">
<rect width="70" height="70" fill="white"/>
</clipPath>
</defs>
</svg>
