<svg width="44" height="44" viewBox="0 0 44 44" fill="none" xmlns="http://www.w3.org/2000/svg">
<g id="glipy" clip-path="url(#clip0_8646_9828)">
<path id="Vector" d="M22.1254 35.7026C24.8605 35.7026 27.5341 34.8989 29.8082 33.3932C32.0823 31.8876 33.8547 29.7475 34.9014 27.2436C35.948 24.7397 36.2219 21.9845 35.6883 19.3264C35.1547 16.6683 33.8377 14.2267 31.9037 12.3104C29.9698 10.394 27.5057 9.08891 24.8233 8.56018C22.1408 8.03145 19.3603 8.30281 16.8335 9.33995C14.3066 10.3771 12.1469 12.1334 10.6274 14.3868C9.10791 16.6403 8.29688 19.2896 8.29688 21.9997C8.3009 25.6327 9.75912 29.1158 12.3516 31.6847C14.9441 34.2536 18.4591 35.6986 22.1254 35.7026ZM21.3352 12.9167C21.3352 12.709 21.4185 12.5099 21.5667 12.363C21.7149 12.2162 21.9159 12.1337 22.1254 12.1337C22.335 12.1337 22.536 12.2162 22.6842 12.363C22.8324 12.5099 22.9156 12.709 22.9156 12.9167V21.2167H28.0994C28.309 21.2167 28.51 21.2992 28.6581 21.4461C28.8063 21.5929 28.8896 21.7921 28.8896 21.9997C28.8896 22.2074 28.8063 22.4066 28.6581 22.5534C28.51 22.7003 28.309 22.7828 28.0994 22.7828H22.1254C21.9161 22.7821 21.7154 22.6994 21.5674 22.5527C21.4193 22.406 21.3359 22.2072 21.3352 21.9997V12.9167Z" fill="url(#paint0_linear_8646_9828)"/>
<path id="Vector_2" d="M43.7304 9.44646C43.5726 9.30777 43.3665 9.23762 43.1572 9.25143C42.948 9.26525 42.7528 9.36189 42.6145 9.52012L40.9495 11.4271C41.3687 6.6833 38.5898 2.32443 34.0585 2.2627H9.65654C5.857 2.2627 2.76562 5.75301 2.76562 10.0435V13.5373C2.76562 13.7479 2.84894 13.9498 2.99724 14.0987C3.14555 14.2476 3.34669 14.3313 3.55642 14.3313C3.76616 14.3313 3.9673 14.2476 4.1156 14.0987C4.26391 13.9498 4.34722 13.7479 4.34722 13.5373V10.0435C4.34722 6.62876 6.72889 3.85064 9.65654 3.85064H34.0585C36.9862 3.85064 39.3679 6.62876 39.3679 10.0435V11.4267L37.7036 9.52013C37.5642 9.3663 37.3701 9.27356 37.1633 9.26186C36.9564 9.25016 36.7532 9.32043 36.5974 9.45757C36.4416 9.5947 36.3456 9.78774 36.3301 9.99519C36.3146 10.2026 36.3808 10.4079 36.5144 10.5669L39.564 14.0607C39.6395 14.1436 39.7313 14.2099 39.8337 14.2552C39.9361 14.3006 40.0468 14.324 40.1587 14.324C40.2706 14.324 40.3812 14.3005 40.4836 14.2552C40.586 14.2099 40.6779 14.1436 40.7533 14.0606L43.8038 10.5669C43.942 10.4085 44.012 10.2015 43.9982 9.9914C43.9844 9.78128 43.8881 9.58526 43.7304 9.44646Z" fill="url(#paint1_linear_8646_9828)"/>
<path id="Vector_3" d="M40.4435 29.6685C40.3396 29.6684 40.2367 29.6889 40.1408 29.7288C40.0448 29.7687 39.9576 29.8271 39.8841 29.9009C39.8107 29.9746 39.7525 30.0622 39.7127 30.1585C39.673 30.2549 39.6526 30.3581 39.6527 30.4624V33.9562C39.6527 37.371 37.271 40.1491 34.3432 40.1491H9.94077C7.01306 40.1491 4.63135 37.371 4.63135 33.9562V32.573L6.29561 34.4796C6.43518 34.6331 6.62913 34.7256 6.83582 34.7371C7.04252 34.7486 7.24549 34.6784 7.40116 34.5414C7.55683 34.4043 7.65279 34.2115 7.66844 34.0043C7.68409 33.797 7.61819 33.5919 7.48487 33.4328L4.43519 29.9391C4.35951 29.8565 4.26759 29.7905 4.16523 29.7454C4.06287 29.7003 3.95231 29.6771 3.84053 29.6771C3.72875 29.6771 3.61818 29.7004 3.51583 29.7455C3.41347 29.7906 3.32155 29.8565 3.24588 29.9391L0.19538 33.4328C0.0574865 33.5912 -0.012157 33.7981 0.00174354 34.008C0.015644 34.2179 0.111952 34.4137 0.269518 34.5524C0.427084 34.6911 0.633027 34.7613 0.842122 34.7477C1.05122 34.734 1.24637 34.6376 1.38472 34.4796L3.04976 32.5726V33.9562C3.04972 38.2463 6.14115 41.737 9.94077 41.737H34.3432C38.1429 41.737 41.2343 38.2463 41.2343 33.9562V30.4624C41.2343 30.3581 41.2139 30.2549 41.1742 30.1585C41.1345 30.0622 41.0762 29.9746 41.0028 29.9009C40.9293 29.8271 40.8421 29.7687 40.7462 29.7288C40.6502 29.6889 40.5473 29.6684 40.4435 29.6685Z" fill="url(#paint2_linear_8646_9828)"/>
</g>
<defs>
<linearGradient id="paint0_linear_8646_9828" x1="9.50286" y1="11.1701" x2="24.0807" y2="11.7178" gradientUnits="userSpaceOnUse">
<stop stop-color="#92D839"/>
<stop offset="1" stop-color="#84BE4A"/>
</linearGradient>
<linearGradient id="paint1_linear_8646_9828" x1="4.56363" y1="3.52795" x2="25.9819" y2="6.25251" gradientUnits="userSpaceOnUse">
<stop stop-color="#92D839"/>
<stop offset="1" stop-color="#84BE4A"/>
</linearGradient>
<linearGradient id="paint2_linear_8646_9828" x1="1.79801" y1="30.9337" x2="23.2163" y2="33.6583" gradientUnits="userSpaceOnUse">
<stop stop-color="#92D839"/>
<stop offset="1" stop-color="#84BE4A"/>
</linearGradient>
<clipPath id="clip0_8646_9828">
<rect width="44" height="44" fill="white"/>
</clipPath>
</defs>
</svg>
