<svg width="44" height="44" viewBox="0 0 44 44" fill="none" xmlns="http://www.w3.org/2000/svg">
<g id="Capa_1" clip-path="url(#clip0_8528_20016)">
<g id="Group">
<g id="Group_2">
<g id="Group_3">
<g id="Group_4">
<g id="Group_5">
<g id="Group_6">
<g id="Group_7">
<g id="Group_8">
<g id="Group_9">
<path id="Vector" d="M21.9999 44C20.6448 44 19.2907 43.8759 17.9751 43.6312C17.6468 43.5701 17.3835 43.3244 17.3001 43.0011L16.7447 40.8494C15.2346 40.4295 13.7831 39.8291 12.4173 39.0594L10.6068 40.2206C10.317 40.4064 9.94415 40.4014 9.6596 40.2079C7.34754 38.6356 5.37872 36.6649 3.8078 34.3505C3.61478 34.066 3.6098 33.694 3.79517 33.4045L4.95589 31.5912C4.18672 30.2238 3.58659 28.7703 3.16703 27.2583L1.01773 26.7025C0.694425 26.6189 0.448892 26.3556 0.38796 26.0274C0.143458 24.7106 0.0195312 23.3553 0.0195312 21.9991C0.0195312 20.643 0.143458 19.2877 0.387874 17.9709C0.448806 17.6426 0.694339 17.3793 1.01765 17.2958L3.16694 16.74C3.58651 15.2279 4.18655 13.7746 4.9558 12.4071L3.79508 10.5939C3.6098 10.3044 3.6147 9.93235 3.80772 9.64789C5.37855 7.3335 7.34745 5.36279 9.65952 3.7905C9.94424 3.59679 10.317 3.59189 10.6067 3.77778L12.4172 4.93893C13.7831 4.16924 15.2345 3.56886 16.7447 3.14895L17.3 0.997251C17.3835 0.673941 17.6466 0.428236 17.975 0.367132C20.6064 -0.122215 23.3931 -0.122215 26.0245 0.367132C26.3528 0.428236 26.6161 0.673941 26.6994 0.997251L27.2548 3.14895C28.7649 3.56886 30.2164 4.16924 31.5823 4.93893L33.3928 3.77778C33.6825 3.59189 34.0554 3.59688 34.3399 3.7905C36.652 5.36279 38.6209 7.3335 40.1917 9.64789C40.3848 9.93235 40.3897 10.3044 40.2044 10.5939L39.0437 12.4072C39.8129 13.7746 40.413 15.228 40.8326 16.7401L42.9819 17.2959C43.3052 17.3795 43.5507 17.6428 43.6117 17.971C43.8561 19.2878 43.98 20.6431 43.98 21.9992C43.98 23.3554 43.8561 24.7107 43.6117 26.0274C43.5507 26.3557 43.3052 26.6191 42.9819 26.7026L40.8326 27.2584C40.413 28.7704 39.813 30.2238 39.0437 31.5913L40.2044 33.4046C40.3897 33.6941 40.3848 34.0662 40.1917 34.3506C38.6208 36.6649 36.652 38.6356 34.3399 40.2079C34.0552 40.4016 33.6825 40.4066 33.3928 40.2207L31.5823 39.0595C30.2163 39.8292 28.7649 40.4296 27.2548 40.8495L26.6994 43.0012C26.616 43.3245 26.3528 43.5702 26.0245 43.6313C24.7089 43.8759 23.3548 44 21.9999 44ZM18.8255 42.0334C20.911 42.3624 23.0886 42.3624 25.1741 42.0334L25.7164 39.9322C25.7952 39.6271 26.0346 39.3895 26.3404 39.3131C28.0386 38.889 29.6608 38.2169 31.162 37.3156C31.442 37.1474 31.7934 37.1526 32.0683 37.329L33.8361 38.4627C35.6171 37.179 37.1645 35.6298 38.447 33.8469L37.3137 32.0762C37.1377 31.8015 37.1327 31.4509 37.3003 31.1711C38.2009 29.6685 38.8724 28.0446 39.2961 26.3444C39.3724 26.0386 39.6097 25.7991 39.9148 25.7202L42.0138 25.1775C42.1782 24.1335 42.2614 23.0668 42.2614 21.9991C42.2614 20.9315 42.1782 19.8648 42.0138 18.8208L39.9148 18.2781C39.6097 18.1992 39.3723 17.9597 39.2961 17.6539C38.8724 15.9538 38.2009 14.3299 37.3003 12.8272C37.1327 12.5474 37.1377 12.1968 37.3137 11.9221L38.447 10.1515C37.1645 8.36857 35.617 6.8194 33.8361 5.53562L32.0683 6.66935C31.7934 6.84578 31.4421 6.85085 31.162 6.68275C29.6608 5.78141 28.0386 5.10926 26.3404 4.68523C26.0346 4.60883 25.7952 4.37129 25.7164 4.0662L25.1741 1.96495C23.0886 1.63596 20.911 1.63596 18.8255 1.96495L18.2832 4.0662C18.2044 4.37129 17.965 4.60883 17.6592 4.68523C15.961 5.10935 14.3388 5.78141 12.8376 6.68275C12.5576 6.85094 12.2062 6.8457 11.9313 6.66935L10.1636 5.53562C8.38252 6.8194 6.83516 8.36857 5.55258 10.1515L6.68596 11.9221C6.86189 12.1968 6.86696 12.5474 6.69929 12.8272C5.79871 14.3298 5.12725 15.9537 4.70348 17.6539C4.62725 17.9597 4.38988 18.1992 4.08479 18.2781L1.98586 18.8208C1.82145 19.8648 1.73826 20.9315 1.73826 21.9991C1.73826 23.0668 1.82145 24.1335 1.98586 25.1775L4.08479 25.7202C4.38988 25.7991 4.62734 26.0386 4.70348 26.3444C5.12725 28.0445 5.79871 29.6684 6.69929 31.1711C6.86696 31.4508 6.86189 31.8015 6.68596 32.0762L5.55258 33.8469C6.83516 35.6298 8.38261 37.179 10.1636 38.4627L11.9313 37.329C12.2063 37.1527 12.5575 37.1475 12.8376 37.3156C14.3388 38.2169 15.961 38.8891 17.6592 39.3131C17.965 39.3895 18.2044 39.6271 18.2832 39.9322L18.8255 42.0334Z" fill="url(#paint0_linear_8528_20016)"/>
</g>
</g>
</g>
</g>
</g>
</g>
</g>
<g id="Group_10">
<g id="Group_11">
<g id="Group_12">
<g id="Group_13">
<path id="Vector_2" d="M37.0949 23.2134C36.7468 23.2134 36.4215 22.9898 36.2945 22.666C36.1612 22.3263 36.2669 21.922 36.549 21.6906C36.8352 21.4557 37.2605 21.4333 37.5696 21.6375C37.8693 21.8354 38.0169 22.2212 37.9263 22.5686C37.8296 22.9399 37.4791 23.2134 37.0949 23.2134Z" fill="url(#paint1_linear_8528_20016)"/>
</g>
</g>
</g>
</g>
</g>
<g id="Group_14">
<g id="Group_15">
<g id="Group_16">
<g id="Group_17">
<path id="Vector_3" d="M22.0004 24.6435C18.2259 24.6435 15.1553 21.5727 15.1553 17.7984C15.1553 14.024 18.2259 10.9532 22.0004 10.9532C25.7748 10.9532 28.8455 14.024 28.8455 17.7984C28.8455 21.5727 25.7748 24.6435 22.0004 24.6435ZM22.0004 12.672C19.1737 12.672 16.8741 14.9716 16.8741 17.7983C16.8741 20.6249 19.1738 22.9246 22.0004 22.9246C24.827 22.9246 27.1267 20.6249 27.1267 17.7983C27.1267 14.9717 24.827 12.672 22.0004 12.672Z" fill="url(#paint2_linear_8528_20016)"/>
</g>
</g>
</g>
<g id="Group_18">
<path id="Vector_4" d="M36.7461 25.3571C36.2899 25.2255 35.8136 25.4886 35.6822 25.9447C35.0194 28.2432 33.7685 30.3592 32.0647 32.0637C31.4738 32.6546 30.8362 33.1901 30.1595 33.6651V28.9776C30.1595 27.4033 28.8788 26.1226 27.3045 26.1226H16.6961C15.1219 26.1226 13.8411 27.4033 13.8411 28.9776V33.6818C13.1598 33.205 12.5188 32.6672 11.9256 32.0739C9.23742 29.3858 7.75803 25.8106 7.75975 22.0069C7.76155 18.2029 9.24463 14.6259 11.9359 11.9346C14.6269 9.2435 18.204 7.76042 22.0081 7.75861H22.0149C25.8159 7.75861 29.3885 9.23791 32.075 11.9244C33.8007 13.6501 35.0588 15.7973 35.713 18.1341C35.8411 18.5912 36.3161 18.8576 36.7724 18.7299C37.2294 18.6019 37.4962 18.1276 37.3683 17.6706C36.6345 15.0502 35.2244 12.6429 33.2905 10.709C30.2791 7.69759 26.2754 6.03979 22.015 6.03979H22.0073C17.7444 6.04177 13.7361 7.7037 10.7205 10.7193C7.70492 13.7349 6.04299 17.7434 6.04102 22.0061C6.03904 26.2692 7.69718 30.2763 10.7102 33.2892C11.7753 34.3544 12.9782 35.2601 14.2853 35.9813C14.2858 35.9816 14.2864 35.9818 14.287 35.9821C16.6314 37.275 19.293 37.9581 21.9856 37.9581H22.0012C24.6991 37.9555 27.3666 37.2668 29.7151 35.9666C29.7155 35.9665 29.7157 35.9664 29.716 35.9662C31.0175 35.2465 32.2166 34.3424 33.2802 33.2787C35.1891 31.3691 36.5908 28.9976 37.3337 26.4207C37.4652 25.9648 37.2021 25.4885 36.7461 25.3571ZM15.5599 34.711V28.9776C15.5599 28.3511 16.0696 27.8414 16.6961 27.8414H27.3046C27.931 27.8414 28.4407 28.3512 28.4407 28.9776V34.6975C24.4244 36.7354 19.5773 36.7404 15.5599 34.711Z" fill="url(#paint3_linear_8528_20016)"/>
</g>
</g>
</g>
</g>
<defs>
<linearGradient id="paint0_linear_8528_20016" x1="1.93641" y1="4.61301" x2="25.1082" y2="5.47496" gradientUnits="userSpaceOnUse">
<stop stop-color="#92D839"/>
<stop offset="1" stop-color="#84BE4A"/>
</linearGradient>
<linearGradient id="paint1_linear_8528_20016" x1="36.3121" y1="21.678" x2="37.2163" y2="21.7117" gradientUnits="userSpaceOnUse">
<stop stop-color="#92D839"/>
<stop offset="1" stop-color="#84BE4A"/>
</linearGradient>
<linearGradient id="paint2_linear_8528_20016" x1="15.7522" y1="12.3885" x2="22.9684" y2="12.6572" gradientUnits="userSpaceOnUse">
<stop stop-color="#92D839"/>
<stop offset="1" stop-color="#84BE4A"/>
</linearGradient>
<linearGradient id="paint3_linear_8528_20016" x1="7.40843" y1="9.38607" x2="23.9388" y2="9.99074" gradientUnits="userSpaceOnUse">
<stop stop-color="#92D839"/>
<stop offset="1" stop-color="#84BE4A"/>
</linearGradient>
<clipPath id="clip0_8528_20016">
<rect width="44" height="44" fill="white"/>
</clipPath>
</defs>
</svg>
