<svg width="30" height="30" viewBox="0 0 30 30" fill="none" xmlns="http://www.w3.org/2000/svg">
<g id="Group">
<g id="Group_2">
<path id="Vector" d="M0.951301 15.7039C1.01128 15.6858 1.55871 15.5258 2.29147 15.4849C2.9685 15.4472 3.5737 15.5266 4.0944 15.7204C4.12034 15.045 4.20955 14.3816 4.35744 13.7369C3.4321 13.3046 2.76544 12.7047 2.42962 12.0022C2.09346 11.299 2.04537 10.4027 2.29051 9.41028C2.46978 8.68443 2.7425 8.15632 2.75406 8.13406C2.84072 7.96759 3.02973 7.87719 3.2137 7.91429C3.26898 7.92545 3.77132 8.0312 4.39063 8.30613C5.17816 8.65068 5.84488 9.16407 6.22443 9.73738C6.7347 9.06353 7.32926 8.44518 8.0021 7.89747C7.41558 7.13645 7.10859 6.34535 7.11414 5.60205C7.12003 4.82279 7.46945 3.99606 8.12461 3.21125C8.60368 2.63742 9.08031 2.28195 9.10041 2.26705C9.24915 2.15507 9.46325 2.15649 9.61007 2.27102C9.62989 2.28614 10.1006 2.64824 10.5713 3.2296C11.2146 4.02416 11.5516 4.85609 11.5458 5.63541C11.5399 6.41467 11.179 7.23206 10.5353 8.02621C10.1368 8.51785 9.54612 8.97919 9.54612 8.97919C7.34591 10.6501 5.92344 13.3194 5.90277 16.0711C5.88068 18.9955 7.3057 21.7317 9.71564 23.3946C10.114 23.6695 10.2468 24.2117 9.99562 24.6253C9.99046 24.6338 9.682 25.1126 9.47821 25.3518C8.81511 26.1299 8.05908 26.6136 7.29199 26.7508C6.53454 26.9035 5.52752 26.6456 4.75636 26.1959C4.11598 25.8367 3.69509 25.4525 3.64926 25.4099C3.5118 25.2821 3.47487 25.0758 3.55943 24.9085C3.58775 24.8526 3.85017 24.3454 4.32578 23.7874C4.8927 23.1221 5.52764 22.6729 6.17929 22.4706C5.67502 21.7914 5.2544 21.0552 4.92555 20.2782C3.89203 20.3642 2.96199 20.2253 2.19354 19.6767C1.56489 19.216 1.09879 18.4491 0.845496 17.4586C0.660111 16.7339 0.650709 16.14 0.650426 16.1149C0.64799 15.9272 0.771807 15.7581 0.951301 15.7039Z" fill="white"/>
<path id="Vector_2" d="M29.3494 15.7039C29.2894 15.6858 28.742 15.5258 28.0092 15.4849C27.3322 15.4472 26.727 15.5266 26.2063 15.7204C26.1804 15.045 26.0912 14.3816 25.9433 13.7369C26.8686 13.3046 27.5353 12.7047 27.8711 12.0022C28.2073 11.299 28.2553 10.4027 28.0102 9.41028C27.8309 8.68443 27.5582 8.15632 27.5467 8.13406C27.46 7.96759 27.271 7.87719 27.087 7.91429C27.0317 7.92545 26.5294 8.0312 25.9101 8.30613C25.1226 8.65068 24.4558 9.16407 24.0763 9.73738C23.566 9.06353 22.9715 8.44518 22.2986 7.89747C22.8851 7.13645 23.1921 6.34535 23.1866 5.60205C23.1807 4.82279 22.8313 3.99606 22.1761 3.21125C21.697 2.63742 21.2204 2.28195 21.2003 2.26705C21.0516 2.15507 20.8375 2.15649 20.6906 2.27102C20.6708 2.28614 20.2001 2.64824 19.7294 3.2296C19.0861 4.02416 18.7491 4.85609 18.755 5.63541C18.7608 6.41467 19.1217 7.23206 19.7654 8.02621C20.1639 8.51785 20.7546 8.97919 20.7546 8.97919C22.9548 10.6501 24.3773 13.3194 24.3979 16.0711C24.42 18.9955 22.995 21.7317 20.5851 23.3946C20.1868 23.6695 20.054 24.2117 20.3052 24.6253C20.3103 24.6338 20.6188 25.1126 20.8226 25.3518C21.4857 26.1299 22.2417 26.6136 23.0088 26.7508C23.7662 26.9035 24.7732 26.6456 25.5444 26.1959C26.1848 25.8367 26.6057 25.4525 26.6515 25.4099C26.789 25.2821 26.8259 25.0758 26.7413 24.9085C26.713 24.8526 26.4506 24.3454 25.975 23.7874C25.4081 23.1221 24.7731 22.6729 24.1215 22.4706C24.6258 21.7914 25.0464 21.0552 25.3752 20.2782C26.4087 20.3642 27.3388 20.2253 28.1072 19.6767C28.7359 19.216 29.202 18.4491 29.4553 17.4586C29.6407 16.7339 29.6501 16.14 29.6503 16.1149C29.6528 15.9272 29.529 15.7581 29.3494 15.7039Z" fill="white"/>
</g>
<g id="Group_3">
<path id="Vector_3" d="M12.4531 21.6038L13.0714 28.3127C13.1117 28.7493 13.4788 29.0834 13.9183 29.0834H16.3808C16.8203 29.0834 17.1875 28.7494 17.2278 28.3127L17.846 21.6038H12.4531Z" fill="white"/>
<path id="Vector_4" d="M17.9177 10.2598C17.2434 11.0307 16.2531 11.5192 15.1501 11.5192C14.0471 11.5192 13.0567 11.0307 12.3825 10.2598C11.8086 10.6822 11.4355 11.361 11.4355 12.1254V19.0563C11.4355 19.5248 11.8163 19.9046 12.286 19.9046H18.0141C18.4837 19.9046 18.8645 19.5248 18.8645 19.0563V12.1253C18.8645 11.361 18.4915 10.6821 17.9177 10.2598Z" fill="white"/>
<path id="Vector_5" d="M15.1499 5.74167C14.4829 5.74167 13.8573 5.5628 13.317 5.25195C13.225 5.47931 13.1738 5.72734 13.1738 5.98721V7.84898C13.1738 8.93586 14.0603 9.82008 15.1499 9.82008C16.2394 9.82008 17.1259 8.93586 17.1259 7.84898V5.98721C17.1259 5.72734 17.0748 5.47931 16.9827 5.25195C16.4426 5.56274 15.8169 5.74167 15.1499 5.74167Z" fill="white"/>
<path id="Vector_6" d="M15.1504 4.04245C16.2464 4.04245 17.1348 3.15621 17.1348 2.06297C17.1348 0.969738 16.2464 0.0834961 15.1504 0.0834961C14.0545 0.0834961 13.166 0.969738 13.166 2.06297C13.166 3.15621 14.0545 4.04245 15.1504 4.04245Z" fill="white"/>
</g>
</g>
</svg>
