<svg width="65" height="66" viewBox="0 0 65 66" fill="none" xmlns="http://www.w3.org/2000/svg">
<g id="iconoir:user">
<path id="Vector" d="M11 57.5503V54.5503C11 48.9807 13.2125 43.6393 17.1508 39.7011C21.089 35.7628 26.4305 33.5503 32 33.5503M32 33.5503C37.5695 33.5503 42.911 35.7628 46.8492 39.7011C50.7875 43.6393 53 48.9807 53 54.5503V57.5503M32 33.5503C35.1826 33.5503 38.2348 32.286 40.4853 30.0356C42.7357 27.7851 44 24.7329 44 21.5503C44 18.3677 42.7357 15.3154 40.4853 13.065C38.2348 10.8146 35.1826 9.55029 32 9.55029C28.8174 9.55029 25.7652 10.8146 23.5147 13.065C21.2643 15.3154 20 18.3677 20 21.5503C20 24.7329 21.2643 27.7851 23.5147 30.0356C25.7652 32.286 28.8174 33.5503 32 33.5503Z" stroke="white" stroke-width="3" stroke-linecap="round" stroke-linejoin="round"/>
</g>
</svg>
