<svg width="24" height="24" viewBox="0 0 24 24" fill="none" xmlns="http://www.w3.org/2000/svg">
<g id="material-symbols-light:mail">
<path id="Vector" d="M12.1674 8.57222C10.423 8.57222 8.99941 9.99581 8.99941 11.7402C8.99941 13.4847 10.423 14.9082 12.1674 14.9082C13.9118 14.9082 15.3353 13.4847 15.3353 11.7402C15.3353 9.99581 13.9118 8.57222 12.1674 8.57222ZM21.6689 11.7402C21.6689 10.4283 21.6807 9.12834 21.6071 7.81883C21.5334 6.29781 21.1864 4.9479 20.0742 3.83564C18.9596 2.72102 17.6121 2.37641 16.0911 2.30273C14.7792 2.22906 13.4792 2.24094 12.1697 2.24094C10.8579 2.24094 9.5579 2.22906 8.24842 2.30273C6.72742 2.37641 5.37753 2.72339 4.2653 3.83564C3.15069 4.95027 2.80609 6.29781 2.73242 7.81883C2.65875 9.13072 2.67063 10.4307 2.67063 11.7402C2.67063 13.0497 2.65875 14.3521 2.73242 15.6616C2.80609 17.1827 3.15307 18.5326 4.2653 19.6448C5.37991 20.7595 6.72742 21.1041 8.24842 21.1777C9.56028 21.2514 10.8603 21.2395 12.1697 21.2395C13.4816 21.2395 14.7816 21.2514 16.0911 21.1777C17.6121 21.1041 18.962 20.7571 20.0742 19.6448C21.1888 18.5302 21.5334 17.1827 21.6071 15.6616C21.6831 14.3521 21.6689 13.0521 21.6689 11.7402ZM12.1674 16.6147C9.46997 16.6147 7.29304 14.4377 7.29304 11.7402C7.29304 9.04279 9.46997 6.86582 12.1674 6.86582C14.8648 6.86582 17.0417 9.04279 17.0417 11.7402C17.0417 14.4377 14.8648 16.6147 12.1674 16.6147ZM17.2413 7.80457C16.6115 7.80457 16.103 7.29598 16.103 6.66618C16.103 6.03638 16.6115 5.52779 17.2413 5.52779C17.8711 5.52779 18.3797 6.03638 18.3797 6.66618C18.3799 6.81573 18.3506 6.96385 18.2934 7.10205C18.2363 7.24025 18.1524 7.36582 18.0467 7.47157C17.941 7.57731 17.8154 7.66116 17.6772 7.7183C17.539 7.77545 17.3909 7.80476 17.2413 7.80457Z" fill="white" fill-opacity="0.92"/>
</g>
</svg>
