<svg width="50" height="50" viewBox="0 0 50 50" fill="none" xmlns="http://www.w3.org/2000/svg">
<g id="Capa_1">
<path id="Vector" d="M46.5411 15.9589C44.2783 13.6961 41.152 12.5 37.5 12.5C30.0421 12.5 26.4258 18.6387 23.2351 24.0547C20.2197 29.1732 17.6155 33.5938 12.5 33.5938C7.19922 33.5938 3.90625 30.3008 3.90625 25C3.90625 19.6992 7.19922 16.4062 12.5 16.4062C14.7666 16.4062 16.8161 17.3146 18.7656 19.1834C19.5443 19.9298 20.7807 19.9038 21.5271 19.125C22.2736 18.3463 22.2475 17.11 21.4688 16.3635C18.7943 13.7999 15.7769 12.5 12.5 12.5C8.84814 12.5 5.72178 13.6961 3.45889 15.9589C1.19609 18.2218 0 21.3481 0 25C0 28.6519 1.19609 31.7782 3.45889 34.0411C5.72178 36.3039 8.84814 37.5 12.5 37.5C18.5061 37.5 21.9996 33.4313 24.8038 29.0113C25.2588 29.7832 25.8109 30.6261 26.4656 31.4703C29.5245 35.4149 33.3401 37.5 37.5 37.5C38.9358 37.5 40.3082 37.311 41.5788 36.9385C42.614 36.6351 43.207 35.5498 42.9035 34.5147C42.6 33.4796 41.5148 32.8866 40.4798 33.19C39.5662 33.4579 38.5637 33.5938 37.5 33.5938C31.5805 33.5938 28.177 27.3107 27.1597 25.0908C29.9792 20.3362 32.5967 16.4062 37.5 16.4062C42.8008 16.4062 46.0938 19.6992 46.0938 25C46.0938 26.1924 45.927 27.3 45.5985 28.2921C45.2594 29.316 45.8145 30.4211 46.8384 30.7603C47.8626 31.0996 48.9674 30.5442 49.3065 29.5204C49.7667 28.1313 50 26.6105 50 25C50 21.348 48.8039 18.2218 46.5411 15.9589Z" fill="url(#paint0_linear_13242_29565)"/>
</g>
<defs>
<linearGradient id="paint0_linear_13242_29565" x1="2.18023" y1="15.121" x2="28.4264" y2="17.0753" gradientUnits="userSpaceOnUse">
<stop stop-color="#92D839"/>
<stop offset="1" stop-color="#84BE4A"/>
</linearGradient>
</defs>
</svg>
