<svg width="27" height="26" viewBox="0 0 27 26" fill="none" xmlns="http://www.w3.org/2000/svg">
<g id="Group">
<path id="Vector" d="M9.25173 9.08118C9.33601 9.13563 9.4349 9.16441 9.53781 9.16441H9.53904C9.82002 9.16441 10.0486 8.94785 10.0486 8.68165C10.0486 8.63545 10.0418 8.58994 10.0283 8.54584C9.73492 7.32798 9.87394 6.34714 10.4414 5.63048C11.1101 4.78593 11.4063 3.70226 11.2337 2.73177C11.0813 1.87174 10.5936 1.15686 9.82355 0.664848C9.65311 0.555555 9.41882 0.556411 9.24886 0.667259C9.07554 0.78052 8.99422 0.979503 9.04198 1.1753C9.35874 2.45663 9.0707 3.26835 8.3483 4.50021C7.89843 5.26721 7.71469 6.12887 7.83089 6.92636C7.96252 7.82824 8.45457 8.57384 9.25173 9.08118Z" fill="white"/>
<path id="Vector_2" d="M13.4312 8.87434C13.511 8.92615 13.6042 8.95353 13.7008 8.95353H13.7014C13.9658 8.95353 14.1809 8.74957 14.1809 8.49893C14.1809 8.45638 14.1746 8.4143 14.1621 8.37338C13.9397 7.44653 14.0437 6.70264 14.4714 6.1624C15.0068 5.48649 15.2439 4.61806 15.1055 3.83955C14.9827 3.14677 14.5897 2.57075 13.9692 2.17402C13.8095 2.07181 13.5933 2.07025 13.4277 2.17714C13.2664 2.28316 13.189 2.47584 13.2345 2.65429C13.4759 3.63038 13.2548 4.2516 12.7007 5.19611C12.3407 5.80994 12.1939 6.49992 12.2872 7.1388C12.393 7.8655 12.7896 8.46634 13.4312 8.87434Z" fill="white"/>
<path id="Vector_3" d="M26.5664 11.8019C26.2488 11.4475 25.7947 11.2523 25.2877 11.2523H22.9365C22.9609 10.8702 22.8867 10.3936 22.5994 10.0729C22.3869 9.83577 22.0842 9.71045 21.7238 9.71045H1.34493C0.811515 9.71045 0.504188 9.92818 0.340389 10.1108C0.00483173 10.4848 -0.0413699 11.0449 0.027153 11.4444C0.588467 14.7133 1.80112 17.6828 3.44189 19.8058C4.65619 21.377 6.07884 22.4967 7.69417 23.1592H2.01777C1.31259 23.1592 0.738971 23.703 0.738971 24.3714C0.738971 25.0398 1.31268 25.5836 2.01777 25.5836H20.9236C21.6288 25.5836 22.2025 25.0398 22.2025 24.3714C22.2025 23.703 21.6288 23.1592 20.9236 23.1592H15.2772C16.6074 22.6163 17.8029 21.7658 18.8555 20.6117C20.6607 20.4652 22.4737 19.648 24.0182 18.2732C25.5975 16.8675 26.674 15.073 26.9719 13.3503C27.0093 13.1347 27.0901 12.3862 26.5664 11.8019ZM20.945 17.5568C21.6313 16.2227 22.112 14.8466 22.4479 13.586H24.3877C23.8953 15.0828 22.5703 16.6585 20.945 17.5568Z" fill="white"/>
</g>
</svg>
