<svg width="77" height="70" viewBox="0 0 77 70" fill="none" xmlns="http://www.w3.org/2000/svg">
<g id="Layer_1">
<path id="Vector" d="M31.0922 39.994L18.1594 47.8461C17.6461 48.1571 17.1256 48.2569 16.5181 48.1579L15.251 47.9541C14.1591 47.7777 13.3945 46.9495 13.3945 45.942V34.6143C13.3945 33.1994 14.8835 32.2473 16.3241 32.6669L23.4045 34.7094C24.512 35.0294 25.6023 34.9699 26.6442 34.5346L31.7512 32.4012C32.5032 32.0869 33.29 32.1574 33.9719 32.5981C33.9771 32.6014 33.9814 32.6044 33.9863 32.6081L45.0863 40.8025C45.2291 40.9079 45.227 41.1049 45.0818 41.2076C41.8814 43.4764 39.7908 42.2131 36.5584 40.2598L36.1001 39.9838C34.5522 39.055 32.6336 39.0587 31.0922 39.994ZM35.1753 23.8823C35.2786 23.856 35.3822 23.8816 35.4567 23.9517L37.2824 25.6718C37.3357 25.722 37.3623 25.7818 37.3623 25.8514V31.1381C37.3623 31.6541 37.8253 32.0749 38.3929 32.0749H38.6098C39.1774 32.0749 39.6404 31.6541 39.6404 31.1381V25.8513C39.6404 25.7817 39.667 25.7218 39.7201 25.6716L41.5442 23.9516C41.6186 23.8813 41.7221 23.8559 41.8256 23.8821C47.6245 25.3531 53.7078 22.4295 55.632 17.165C55.8253 16.6344 55.5207 16.0599 54.9445 15.8673C49.0368 13.8911 42.5216 16.6802 40.3704 22.0429L40.1301 22.3018C39.9523 22.4698 39.6403 22.3555 39.6403 22.1223V18.9162C39.6403 18.8487 39.6652 18.7907 39.7154 18.741C43.8925 14.6177 43.7264 8.18491 39.298 4.24016C38.8551 3.84573 38.1463 3.84573 37.7034 4.24016C33.2751 8.18559 33.1067 14.6178 37.2866 18.741C37.337 18.7906 37.362 18.8488 37.362 18.9164V22.1235C37.362 22.3565 37.0504 22.4708 36.8725 22.3032C36.7934 22.2287 36.6631 22.1246 36.6303 22.0429C34.4782 16.6773 27.9662 13.8932 22.0579 15.8674C21.4801 16.06 21.1747 16.6345 21.3703 17.1651C23.3095 22.4418 29.382 25.352 35.1753 23.8823ZM40.3842 58.5207C40.0183 57.9931 39.3888 57.7028 38.7472 57.7028C37.2378 57.7028 36.3047 59.2246 37.1159 60.3944L40.4769 65.2408C41.3819 66.5422 43.6088 66.2316 43.9926 64.6916C44.1063 64.231 44.0195 63.7615 43.7461 63.3671L40.3842 58.5207ZM60.454 33.0439L56.345 34.6825C55.1294 35.1662 53.8501 35.1572 52.6444 34.6549L46.0937 31.9299C45.3136 31.6062 44.5033 31.6844 43.8149 32.1495L40.5427 34.3661C40.3934 34.4673 40.3887 34.6679 40.5334 34.7745L47.8192 40.1518C48.3432 40.539 48.3841 41.2557 47.9044 41.6892C45.6297 43.746 43.6381 44.4848 41.8169 44.4848C39.2625 44.4852 37.015 43.0185 34.8446 41.7115C34.0645 41.2427 33.1347 41.2442 32.3579 41.7167L19.4234 49.5672C19.2044 49.7005 18.9814 49.8125 18.7536 49.9064C18.6743 49.9391 18.6206 49.9961 18.597 50.0721C18.3269 50.9463 18.8315 51.8726 19.7819 52.1902C21.2463 52.6783 22.2874 53.752 22.6345 55.134C22.7795 55.7104 23.2322 56.175 23.8411 56.3788C25.3064 56.8677 26.3466 57.9407 26.6946 59.324C26.8372 59.8895 27.2807 60.352 27.8758 60.5601C29.3328 61.0668 30.3569 62.1525 30.6842 63.5403C30.7317 63.7417 30.9023 64.0401 31.1215 64.212C32.1361 65.008 33.3085 64.7006 34.1188 64.2992L36.0946 63.3188C36.2396 63.2469 36.2871 63.0805 36.199 62.9536L35.1902 61.4991C33.9517 59.7146 34.5428 57.3468 36.5057 56.221C37.4453 55.6816 38.5317 55.525 39.5455 55.7029C39.6939 55.7289 39.8385 55.6455 39.8755 55.512C40.409 53.5883 42.5401 52.3415 44.7408 52.7265C44.8883 52.7522 45.0321 52.6698 45.07 52.5376C45.6214 50.6119 47.7459 49.3537 49.9331 49.7474C50.082 49.7742 50.2275 49.6904 50.2645 49.5567C50.5227 48.623 51.196 47.7992 52.0903 47.287C54.0517 46.164 56.6589 46.7019 57.8954 48.4843L58.3625 49.1572C58.4495 49.2823 58.631 49.3161 58.765 49.232C59.7037 48.6427 60.9593 47.9142 62.5226 47.0527C63.2216 46.6673 63.6056 46.0474 63.6056 45.3047V34.916C63.6053 33.4295 61.9512 32.4467 60.454 33.0439ZM55.9692 49.5881C55.6958 49.1937 55.2661 48.9192 54.7611 48.8158C53.0617 48.4681 51.8002 50.161 52.7009 51.4619L56.0619 56.3083C56.6299 57.1268 57.8258 57.3732 58.7271 56.8567C59.6275 56.3403 59.8976 55.2531 59.3303 54.4345L55.9692 49.5881ZM50.774 52.5653C50.5006 52.1709 50.0724 51.8964 49.5666 51.793C47.883 51.4481 46.5951 53.1261 47.5055 54.4391L50.8674 59.2856C51.7665 60.581 53.9929 60.2841 54.3821 58.7357C54.4958 58.2766 54.4091 57.8063 54.1358 57.4119L50.774 52.5653ZM45.5795 55.5433C45.3061 55.1497 44.8764 54.8744 44.3714 54.771C42.6726 54.4235 41.4109 56.1163 42.3119 57.4171L45.6721 62.2628C46.2401 63.082 47.436 63.3284 48.3373 62.8112C49.2377 62.2955 49.5087 61.2083 48.9406 60.3891L45.5795 55.5433Z" fill="url(#paint0_linear_13694_6657)"/>
</g>
<defs>
<linearGradient id="paint0_linear_13694_6657" x1="28.0619" y1="-10.8601" x2="69.0689" y2="32.4627" gradientUnits="userSpaceOnUse">
<stop stop-color="#D9FF8A"/>
<stop offset="1" stop-color="#91C65C"/>
</linearGradient>
</defs>
</svg>
