<svg width="24" height="24" viewBox="0 0 24 24" fill="none" xmlns="http://www.w3.org/2000/svg">
<g id="mdi:linkedin">
<g id="Vector" filter="url(#filter0_d_4821_37595)">
<path d="M19.6701 2.24023C20.23 2.24023 20.767 2.46265 21.1629 2.85856C21.5588 3.25447 21.7812 3.79144 21.7812 4.35135V19.1291C21.7812 19.689 21.5588 20.226 21.1629 20.6219C20.767 21.0178 20.23 21.2402 19.6701 21.2402H4.89236C4.33246 21.2402 3.79549 21.0178 3.39958 20.6219C3.00367 20.226 2.78125 19.689 2.78125 19.1291V4.35135C2.78125 3.79144 3.00367 3.25447 3.39958 2.85856C3.79549 2.46265 4.33246 2.24023 4.89236 2.24023H19.6701ZM19.1424 18.6013V13.0069C19.1424 12.0943 18.7798 11.219 18.1345 10.5737C17.4892 9.92833 16.6139 9.56579 15.7013 9.56579C14.804 9.56579 13.759 10.1147 13.2524 10.938V9.76635H10.3074V18.6013H13.2524V13.3975C13.2524 12.5847 13.9068 11.9197 14.7196 11.9197C15.1115 11.9197 15.4874 12.0754 15.7645 12.3525C16.0417 12.6296 16.1974 13.0055 16.1974 13.3975V18.6013H19.1424ZM6.87681 8.10912C7.34712 8.10912 7.79818 7.92229 8.13074 7.58973C8.46331 7.25716 8.65014 6.80611 8.65014 6.33579C8.65014 5.35412 7.85847 4.5519 6.87681 4.5519C6.40369 4.5519 5.94995 4.73985 5.61541 5.07439C5.28086 5.40893 5.09292 5.86267 5.09292 6.33579C5.09292 7.31746 5.89514 8.10912 6.87681 8.10912ZM8.34403 18.6013V9.76635H5.42014V18.6013H8.34403Z" fill="white" fill-opacity="0.92" shape-rendering="crispEdges"/>
</g>
</g>
<defs>
<filter id="filter0_d_4821_37595" x="2.78125" y="2.24023" width="21" height="21" filterUnits="userSpaceOnUse" color-interpolation-filters="sRGB">
<feFlood flood-opacity="0" result="BackgroundImageFix"/>
<feColorMatrix in="SourceAlpha" type="matrix" values="0 0 0 0 0 0 0 0 0 0 0 0 0 0 0 0 0 0 127 0" result="hardAlpha"/>
<feOffset dx="1" dy="1"/>
<feGaussianBlur stdDeviation="0.5"/>
<feComposite in2="hardAlpha" operator="out"/>
<feColorMatrix type="matrix" values="0 0 0 0 0.028006 0 0 0 0 0.01805 0 0 0 0 0.1425 0 0 0 0.12 0"/>
<feBlend mode="normal" in2="BackgroundImageFix" result="effect1_dropShadow_4821_37595"/>
<feBlend mode="normal" in="SourceGraphic" in2="effect1_dropShadow_4821_37595" result="shape"/>
</filter>
</defs>
</svg>
