<svg width="50" height="50" viewBox="0 0 50 50" fill="none" xmlns="http://www.w3.org/2000/svg">
<g id="Capa_1" clip-path="url(#clip0_13242_29533)">
<g id="Group">
<path id="Vector" d="M23.7812 49.3477C24.0528 49.7552 24.5103 50 25 50C25.4897 50 25.9472 49.7553 26.2188 49.3477C29.6855 44.1478 34.7917 37.7258 38.3499 31.1944C41.195 25.9722 42.5781 21.5182 42.5781 17.5781C42.5781 7.88555 34.6926 0 25 0C15.3074 0 7.42188 7.88555 7.42188 17.5781C7.42188 21.5182 8.80498 25.9722 11.6501 31.1944C15.2057 37.7208 20.3216 44.1585 23.7812 49.3477ZM25 2.92969C33.0771 2.92969 39.6484 9.50098 39.6484 17.5781C39.6484 21.016 38.3821 25.0115 35.7772 29.7929C32.7102 35.4227 28.3334 41.1335 25 45.9345C21.6671 41.1342 17.29 35.423 14.2228 29.7929C11.6179 25.0115 10.3516 21.016 10.3516 17.5781C10.3516 9.50098 16.9229 2.92969 25 2.92969Z" fill="url(#paint0_linear_13242_29533)"/>
<path id="Vector_2" d="M25 26.3672C29.8463 26.3672 33.7891 22.4244 33.7891 17.5781C33.7891 12.7318 29.8463 8.78906 25 8.78906C20.1537 8.78906 16.2109 12.7318 16.2109 17.5781C16.2109 22.4244 20.1537 26.3672 25 26.3672ZM25 11.7188C28.2309 11.7188 30.8594 14.3473 30.8594 17.5781C30.8594 20.809 28.2309 23.4375 25 23.4375C21.7691 23.4375 19.1406 20.809 19.1406 17.5781C19.1406 14.3473 21.7691 11.7188 25 11.7188Z" fill="url(#paint1_linear_13242_29533)"/>
</g>
</g>
<defs>
<linearGradient id="paint0_linear_13242_29533" x1="8.95485" y1="5.24194" x2="27.4988" y2="5.72739" gradientUnits="userSpaceOnUse">
<stop stop-color="#92D839"/>
<stop offset="1" stop-color="#84BE4A"/>
</linearGradient>
<linearGradient id="paint1_linear_13242_29533" x1="16.9774" y1="10.6319" x2="26.2429" y2="10.9769" gradientUnits="userSpaceOnUse">
<stop stop-color="#92D839"/>
<stop offset="1" stop-color="#84BE4A"/>
</linearGradient>
<clipPath id="clip0_13242_29533">
<rect width="50" height="50" fill="white"/>
</clipPath>
</defs>
</svg>
