<svg width="16" height="17" viewBox="0 0 16 17" fill="none" xmlns="http://www.w3.org/2000/svg">
<g id="icon" clip-path="url(#clip0_4821_9942)">
<path id="Vector" d="M8 8.1C7.43168 8.1 6.88663 7.88929 6.48477 7.51421C6.08291 7.13914 5.85714 6.63043 5.85714 6.1C5.85714 5.56957 6.08291 5.06086 6.48477 4.68579C6.88663 4.31071 7.43168 4.1 8 4.1C8.56832 4.1 9.11337 4.31071 9.51523 4.68579C9.91709 5.06086 10.1429 5.56957 10.1429 6.1C10.1429 6.36264 10.0874 6.62272 9.97974 6.86537C9.87205 7.10802 9.71421 7.3285 9.51523 7.51421C9.31625 7.69993 9.08002 7.84725 8.82004 7.94776C8.56005 8.04827 8.2814 8.1 8 8.1ZM8 0.5C6.4087 0.5 4.88258 1.09 3.75736 2.1402C2.63214 3.19041 2 4.61479 2 6.1C2 10.3 8 16.5 8 16.5C8 16.5 14 10.3 14 6.1C14 4.61479 13.3679 3.19041 12.2426 2.1402C11.1174 1.09 9.5913 0.5 8 0.5Z" fill="#E0E0E0"/>
</g>
<defs>
<clipPath id="clip0_4821_9942">
<rect width="16" height="16" fill="white" transform="translate(0 0.5)"/>
</clipPath>
</defs>
</svg>
