<svg width="30" height="30" viewBox="0 0 30 30" fill="none" xmlns="http://www.w3.org/2000/svg">
<g id="Capa_1">
<g id="Group">
<g id="Group_2">
<path id="Vector" d="M14.9995 0C8.29023 0 4.28516 4.40573 4.28516 11.7858C4.28516 19.8365 13.8424 29.2952 14.2495 29.6937C14.6661 30.1021 15.3329 30.1021 15.7495 29.6937C16.1566 29.2951 25.7138 19.8365 25.7138 11.7858C25.7139 4.40573 21.7089 0 14.9995 0ZM14.9995 15.0001C12.0409 15.0001 9.64237 12.6016 9.64237 9.64291C9.64237 6.68425 12.0409 4.28576 14.9995 4.28576C17.9582 4.28576 20.3567 6.68425 20.3567 9.64291C20.3532 12.6001 17.9567 14.9965 14.9995 15.0001Z" fill="black"/>
</g>
</g>
</g>
</svg>
