<svg width="65" height="65" viewBox="0 0 65 65" fill="none" xmlns="http://www.w3.org/2000/svg">
<g id="manage" clip-path="url(#clip0_6188_1347)">
<g id="_x34_2_Green_Energy">
<g id="Group">
<path id="Vector" d="M64.3739 35.3641V47.7243C64.3739 51.482 61.327 54.5289 57.5692 54.5289H55.0504V62.9688H59.1332C59.6918 62.9688 60.1489 63.4258 60.1489 63.9845C60.1489 64.5533 59.6918 65.0001 59.1332 65.0001H1.63871C1.08007 65.0001 0.623047 64.5533 0.623047 63.9845C0.623047 63.4258 1.08007 62.9688 1.63871 62.9688H5.72152V54.986C5.72152 54.4273 6.17855 53.9703 6.73719 53.9703C7.29582 53.9703 7.75285 54.4273 7.75285 54.986V62.9688H53.0192V41.8945C53.0192 41.3359 53.4762 40.8788 54.0349 40.8788C54.5935 40.8788 55.0505 41.3359 55.0505 41.8945V52.4976H57.5693C60.1997 52.4976 62.3428 50.3547 62.3428 47.7243V35.3641C62.3428 33.1602 61.774 30.9664 60.7076 29.0367L59.3061 26.5179C58.5241 28.214 56.9498 29.4632 55.0507 29.7984V37.3445C55.0507 37.9032 54.5936 38.3602 54.035 38.3602C53.4764 38.3602 53.0193 37.9032 53.0193 37.3445V7.36332C53.0193 4.42822 50.6326 2.03133 47.6975 2.03133H13.0746C10.1393 2.03133 7.75271 4.42822 7.75271 7.36332V50.436C7.75271 50.9946 7.29568 51.4517 6.73705 51.4517C6.17841 51.4517 5.72138 50.9946 5.72138 50.436V7.36332C5.72152 3.3008 9.02233 0 13.0746 0H47.6972C51.7496 0 55.0504 3.3008 55.0504 7.36332V10.8368C57.7723 11.3141 59.8543 13.6907 59.8543 16.5548V23.4102C60.1387 23.7047 59.702 23.1055 62.4847 28.0515C63.7238 30.2859 64.3739 32.8148 64.3739 35.3641Z" fill="url(#paint0_linear_6188_1347)"/>
<path id="Vector_2" d="M47.7002 32.2636V8.3726C47.7002 7.81118 47.2454 7.35693 46.6845 7.35693H14.0879C13.5271 7.35693 13.0723 7.81118 13.0723 8.3726V32.2636C13.0723 32.825 13.5271 33.2792 14.0879 33.2792H46.6847C47.2455 33.2791 47.7002 32.8248 47.7002 32.2636ZM45.669 31.2479H15.1035V9.38812H45.669V31.2479Z" fill="url(#paint1_linear_6188_1347)"/>
<path id="Vector_3" d="M41.4899 54.6303C38.0571 58.053 32.0751 59.0482 27.4743 58.5506C24.4071 58.8756 20.3446 58.2155 18.0086 55.8693C14.6368 52.4975 15.307 46.5764 15.3375 46.3326C15.3882 45.8655 15.764 45.4999 16.2211 45.4389C16.475 45.4084 22.3961 44.738 25.7679 48.1099C26.296 48.6381 26.7226 49.2373 27.0678 49.867C27.6265 47.6528 28.632 45.3576 30.4194 43.57C35.3757 38.6137 44.1405 39.6193 44.5061 39.6599C44.9732 39.7106 45.339 40.0864 45.3998 40.5435C45.4407 40.9193 46.4361 49.6842 41.4899 54.6303Z" fill="url(#paint2_linear_6188_1347)"/>
<path id="Vector_4" d="M27.9065 21.0689H30.8373L27.0927 26.0836C26.757 26.5328 26.8492 27.1695 27.299 27.5058C27.746 27.8395 28.3836 27.75 28.7202 27.2995L33.6768 20.6612C33.9068 20.3528 33.9431 19.9412 33.771 19.598C33.599 19.2548 33.2473 19.0376 32.863 19.0376H30.0388L33.6515 14.5853C34.0051 14.15 33.9387 13.5101 33.5032 13.1571C33.0673 12.804 32.429 12.8685 32.0744 13.3058L27.1179 19.4134C26.8709 19.7169 26.8208 20.1365 26.9894 20.4895C27.1583 20.8437 27.5148 21.0689 27.9065 21.0689Z" fill="url(#paint3_linear_6188_1347)"/>
</g>
</g>
</g>
<defs>
<linearGradient id="paint0_linear_6188_1347" x1="32.6263" y1="65.0002" x2="13.1375" y2="26.6366" gradientUnits="userSpaceOnUse">
<stop stop-color="#7615C2"/>
<stop offset="1" stop-color="#C397EE"/>
</linearGradient>
<linearGradient id="paint1_linear_6188_1347" x1="30.4557" y1="33.2792" x2="24.1534" y2="16.382" gradientUnits="userSpaceOnUse">
<stop stop-color="#7615C2"/>
<stop offset="1" stop-color="#C397EE"/>
</linearGradient>
<linearGradient id="paint2_linear_6188_1347" x1="30.4466" y1="58.671" x2="26.378" y2="45.7547" gradientUnits="userSpaceOnUse">
<stop stop-color="#7615C2"/>
<stop offset="1" stop-color="#C397EE"/>
</linearGradient>
<linearGradient id="paint3_linear_6188_1347" x1="30.3987" y1="27.7071" x2="24.9199" y2="22.5071" gradientUnits="userSpaceOnUse">
<stop stop-color="#7615C2"/>
<stop offset="1" stop-color="#C397EE"/>
</linearGradient>
<clipPath id="clip0_6188_1347">
<rect width="65" height="65" fill="white"/>
</clipPath>
</defs>
</svg>
