<svg width="24" height="3" viewBox="0 0 24 3" fill="none" xmlns="http://www.w3.org/2000/svg">
<g id="Vector">
<path d="M23 2.2168H1C0.734784 2.2168 0.48043 2.11144 0.292893 1.9239C0.105357 1.73637 0 1.48201 0 1.2168C0 0.95158 0.105357 0.697227 0.292893 0.50969C0.48043 0.322154 0.734784 0.216797 1 0.216797H23C23.2652 0.216797 23.5196 0.322154 23.7071 0.50969C23.8946 0.697227 24 0.95158 24 1.2168C24 1.48201 23.8946 1.73637 23.7071 1.9239C23.5196 2.11144 23.2652 2.2168 23 2.2168Z" fill="#7F847D"/>
<path d="M23 2.2168H1C0.734784 2.2168 0.48043 2.11144 0.292893 1.9239C0.105357 1.73637 0 1.48201 0 1.2168C0 0.95158 0.105357 0.697227 0.292893 0.50969C0.48043 0.322154 0.734784 0.216797 1 0.216797H23C23.2652 0.216797 23.5196 0.322154 23.7071 0.50969C23.8946 0.697227 24 0.95158 24 1.2168C24 1.48201 23.8946 1.73637 23.7071 1.9239C23.5196 2.11144 23.2652 2.2168 23 2.2168Z" fill="black" fill-opacity="0.2"/>
<path d="M23 2.2168H1C0.734784 2.2168 0.48043 2.11144 0.292893 1.9239C0.105357 1.73637 0 1.48201 0 1.2168C0 0.95158 0.105357 0.697227 0.292893 0.50969C0.48043 0.322154 0.734784 0.216797 1 0.216797H23C23.2652 0.216797 23.5196 0.322154 23.7071 0.50969C23.8946 0.697227 24 0.95158 24 1.2168C24 1.48201 23.8946 1.73637 23.7071 1.9239C23.5196 2.11144 23.2652 2.2168 23 2.2168Z" fill="black" fill-opacity="0.2"/>
</g>
</svg>
