<svg width="36" height="36" viewBox="0 0 36 36" fill="none" xmlns="http://www.w3.org/2000/svg">
<g id="Circular_Glyph" clip-path="url(#clip0_8565_86800)">
<path id="Vector" d="M26.7138 23.7712L24.0363 26.4544C23.9598 26.5275 23.8581 26.5683 23.7522 26.5683C23.6464 26.5683 23.5447 26.5275 23.4682 26.4544L22.1294 25.1156C22.0533 25.0403 22.0103 24.9378 22.0098 24.8307C22.0092 24.7237 22.0513 24.6208 22.1266 24.5447C22.2019 24.4686 22.3044 24.4255 22.4115 24.425C22.5186 24.4245 22.6215 24.4665 22.6975 24.5419L23.7494 25.5994L26.1457 23.2087C26.2208 23.1357 26.3215 23.0951 26.4262 23.0956C26.5309 23.0961 26.6313 23.1376 26.7057 23.2113C26.7801 23.285 26.8226 23.3849 26.8242 23.4896C26.8257 23.5943 26.786 23.6954 26.7138 23.7712Z" fill="#0C1101"/>
<path id="Vector_2" d="M16.3631 19.935H15.4519C15.1994 19.9321 14.9583 19.8298 14.7807 19.6503C14.6032 19.4707 14.5037 19.2284 14.5037 18.9759C14.5037 18.7234 14.6032 18.4811 14.7807 18.3016C14.9583 18.122 15.1994 18.0197 15.4519 18.0169H17.7244C17.7772 18.0165 17.8294 18.0058 17.8781 17.9852C17.9268 17.9647 17.9709 17.9347 18.008 17.8971C18.0451 17.8595 18.0744 17.815 18.0942 17.766C18.1141 17.7171 18.1241 17.6647 18.1238 17.6119C18.124 17.5594 18.1139 17.5073 18.0939 17.4587C18.0739 17.4101 18.0445 17.366 18.0074 17.3289C17.9703 17.2917 17.9261 17.2623 17.8775 17.2423C17.829 17.2224 17.7769 17.2122 17.7244 17.2125H16.3069V16.605C16.3069 16.4991 16.2648 16.3975 16.1899 16.3226C16.115 16.2477 16.0134 16.2056 15.9075 16.2056C15.8016 16.2056 15.7 16.2477 15.6251 16.3226C15.5502 16.3975 15.5081 16.4991 15.5081 16.605V17.2125C15.2757 17.2073 15.0444 17.2482 14.8278 17.3327C14.6112 17.4173 14.4134 17.5438 14.2459 17.7051C14.0783 17.8663 13.9443 18.0591 13.8516 18.2724C13.7589 18.4856 13.7092 18.7151 13.7055 18.9476C13.7018 19.1801 13.7441 19.4111 13.83 19.6272C13.9159 19.8433 14.0437 20.0403 14.206 20.2068C14.3683 20.3733 14.5619 20.5061 14.7757 20.5975C14.9896 20.6889 15.2194 20.7371 15.4519 20.7394H16.3631C16.6159 20.7418 16.8575 20.8439 17.0353 21.0235C17.2132 21.2031 17.313 21.4457 17.313 21.6984C17.313 21.9512 17.2132 22.1937 17.0353 22.3733C16.8575 22.5529 16.6159 22.6551 16.3631 22.6575H14.0906C13.9857 22.66 13.8858 22.7035 13.8125 22.7787C13.7391 22.8538 13.6981 22.9547 13.6981 23.0597C13.6981 23.1647 13.7391 23.2655 13.8125 23.3407C13.8858 23.4158 13.9857 23.4593 14.0906 23.4619H15.5081V24.0637C15.5081 24.1697 15.5502 24.2713 15.6251 24.3462C15.7 24.421 15.8016 24.4631 15.9075 24.4631C16.0134 24.4631 16.115 24.421 16.1899 24.3462C16.2648 24.2713 16.3069 24.1697 16.3069 24.0637V23.4619H16.3631C16.828 23.4576 17.2725 23.27 17.5997 22.9397C17.927 22.6095 18.1106 22.1634 18.1106 21.6984C18.1106 21.2335 17.927 20.7874 17.5997 20.4571C17.2725 20.1269 16.828 19.9392 16.3631 19.935ZM16.3631 19.935H15.4519C15.1994 19.9321 14.9583 19.8298 14.7807 19.6503C14.6032 19.4707 14.5037 19.2284 14.5037 18.9759C14.5037 18.7234 14.6032 18.4811 14.7807 18.3016C14.9583 18.122 15.1994 18.0197 15.4519 18.0169H17.7244C17.7772 18.0165 17.8294 18.0058 17.8781 17.9852C17.9268 17.9647 17.9709 17.9347 18.008 17.8971C18.0451 17.8595 18.0744 17.815 18.0942 17.766C18.1141 17.7171 18.1241 17.6647 18.1238 17.6119C18.124 17.5594 18.1139 17.5073 18.0939 17.4587C18.0739 17.4101 18.0445 17.366 18.0074 17.3289C17.9703 17.2917 17.9261 17.2623 17.8775 17.2423C17.829 17.2224 17.7769 17.2122 17.7244 17.2125H16.3069V16.605C16.3069 16.4991 16.2648 16.3975 16.1899 16.3226C16.115 16.2477 16.0134 16.2056 15.9075 16.2056C15.8016 16.2056 15.7 16.2477 15.6251 16.3226C15.5502 16.3975 15.5081 16.4991 15.5081 16.605V17.2125C15.2757 17.2073 15.0444 17.2482 14.8278 17.3327C14.6112 17.4173 14.4134 17.5438 14.2459 17.7051C14.0783 17.8663 13.9443 18.0591 13.8516 18.2724C13.7589 18.4856 13.7092 18.7151 13.7055 18.9476C13.7018 19.1801 13.7441 19.4111 13.83 19.6272C13.9159 19.8433 14.0437 20.0403 14.206 20.2068C14.3683 20.3733 14.5619 20.5061 14.7757 20.5975C14.9896 20.6889 15.2194 20.7371 15.4519 20.7394H16.3631C16.6159 20.7418 16.8575 20.8439 17.0353 21.0235C17.2132 21.2031 17.313 21.4457 17.313 21.6984C17.313 21.9512 17.2132 22.1937 17.0353 22.3733C16.8575 22.5529 16.6159 22.6551 16.3631 22.6575H14.0906C13.9857 22.66 13.8858 22.7035 13.8125 22.7787C13.7391 22.8538 13.6981 22.9547 13.6981 23.0597C13.6981 23.1647 13.7391 23.2655 13.8125 23.3407C13.8858 23.4158 13.9857 23.4593 14.0906 23.4619H15.5081V24.0637C15.5081 24.1697 15.5502 24.2713 15.6251 24.3462C15.7 24.421 15.8016 24.4631 15.9075 24.4631C16.0134 24.4631 16.115 24.421 16.1899 24.3462C16.2648 24.2713 16.3069 24.1697 16.3069 24.0637V23.4619H16.3631C16.828 23.4576 17.2725 23.27 17.5997 22.9397C17.927 22.6095 18.1106 22.1634 18.1106 21.6984C18.1106 21.2335 17.927 20.7874 17.5997 20.4571C17.2725 20.1269 16.828 19.9392 16.3631 19.935ZM16.3631 19.935H15.4519C15.1994 19.9321 14.9583 19.8298 14.7807 19.6503C14.6032 19.4707 14.5037 19.2284 14.5037 18.9759C14.5037 18.7234 14.6032 18.4811 14.7807 18.3016C14.9583 18.122 15.1994 18.0197 15.4519 18.0169H17.7244C17.7772 18.0165 17.8294 18.0058 17.8781 17.9852C17.9268 17.9647 17.9709 17.9347 18.008 17.8971C18.0451 17.8595 18.0744 17.815 18.0942 17.766C18.1141 17.7171 18.1241 17.6647 18.1238 17.6119C18.124 17.5594 18.1139 17.5073 18.0939 17.4587C18.0739 17.4101 18.0445 17.366 18.0074 17.3289C17.9703 17.2917 17.9261 17.2623 17.8775 17.2423C17.829 17.2224 17.7769 17.2122 17.7244 17.2125H16.3069V16.605C16.3069 16.4991 16.2648 16.3975 16.1899 16.3226C16.115 16.2477 16.0134 16.2056 15.9075 16.2056C15.8016 16.2056 15.7 16.2477 15.6251 16.3226C15.5502 16.3975 15.5081 16.4991 15.5081 16.605V17.2125C15.2757 17.2073 15.0444 17.2482 14.8278 17.3327C14.6112 17.4173 14.4134 17.5438 14.2459 17.7051C14.0783 17.8663 13.9443 18.0591 13.8516 18.2724C13.7589 18.4856 13.7092 18.7151 13.7055 18.9476C13.7018 19.1801 13.7441 19.4111 13.83 19.6272C13.9159 19.8433 14.0437 20.0403 14.206 20.2068C14.3683 20.3733 14.5619 20.5061 14.7757 20.5975C14.9896 20.6889 15.2194 20.7371 15.4519 20.7394H16.3631C16.6159 20.7418 16.8575 20.8439 17.0353 21.0235C17.2132 21.2031 17.313 21.4457 17.313 21.6984C17.313 21.9512 17.2132 22.1937 17.0353 22.3733C16.8575 22.5529 16.6159 22.6551 16.3631 22.6575H14.0906C13.9857 22.66 13.8858 22.7035 13.8125 22.7787C13.7391 22.8538 13.6981 22.9547 13.6981 23.0597C13.6981 23.1647 13.7391 23.2655 13.8125 23.3407C13.8858 23.4158 13.9857 23.4593 14.0906 23.4619H15.5081V24.0637C15.5081 24.1697 15.5502 24.2713 15.6251 24.3462C15.7 24.421 15.8016 24.4631 15.9075 24.4631C16.0134 24.4631 16.115 24.421 16.1899 24.3462C16.2648 24.2713 16.3069 24.1697 16.3069 24.0637V23.4619H16.3631C16.828 23.4576 17.2725 23.27 17.5997 22.9397C17.927 22.6095 18.1106 22.1634 18.1106 21.6984C18.1106 21.2335 17.927 20.7874 17.5997 20.4571C17.2725 20.1269 16.828 19.9392 16.3631 19.935ZM16.3631 19.935H15.4519C15.1994 19.9321 14.9583 19.8298 14.7807 19.6503C14.6032 19.4707 14.5037 19.2284 14.5037 18.9759C14.5037 18.7234 14.6032 18.4811 14.7807 18.3016C14.9583 18.122 15.1994 18.0197 15.4519 18.0169H17.7244C17.7772 18.0165 17.8294 18.0058 17.8781 17.9852C17.9268 17.9647 17.9709 17.9347 18.008 17.8971C18.0451 17.8595 18.0744 17.815 18.0942 17.766C18.1141 17.7171 18.1241 17.6647 18.1238 17.6119C18.124 17.5594 18.1139 17.5073 18.0939 17.4587C18.0739 17.4101 18.0445 17.366 18.0074 17.3289C17.9703 17.2917 17.9261 17.2623 17.8775 17.2423C17.829 17.2224 17.7769 17.2122 17.7244 17.2125H16.3069V16.605C16.3069 16.4991 16.2648 16.3975 16.1899 16.3226C16.115 16.2477 16.0134 16.2056 15.9075 16.2056C15.8016 16.2056 15.7 16.2477 15.6251 16.3226C15.5502 16.3975 15.5081 16.4991 15.5081 16.605V17.2125C15.2757 17.2073 15.0444 17.2482 14.8278 17.3327C14.6112 17.4173 14.4134 17.5438 14.2459 17.7051C14.0783 17.8663 13.9443 18.0591 13.8516 18.2724C13.7589 18.4856 13.7092 18.7151 13.7055 18.9476C13.7018 19.1801 13.7441 19.4111 13.83 19.6272C13.9159 19.8433 14.0437 20.0403 14.206 20.2068C14.3683 20.3733 14.5619 20.5061 14.7757 20.5975C14.9896 20.6889 15.2194 20.7371 15.4519 20.7394H16.3631C16.6159 20.7418 16.8575 20.8439 17.0353 21.0235C17.2132 21.2031 17.313 21.4457 17.313 21.6984C17.313 21.9512 17.2132 22.1937 17.0353 22.3733C16.8575 22.5529 16.6159 22.6551 16.3631 22.6575H14.0906C13.9857 22.66 13.8858 22.7035 13.8125 22.7787C13.7391 22.8538 13.6981 22.9547 13.6981 23.0597C13.6981 23.1647 13.7391 23.2655 13.8125 23.3407C13.8858 23.4158 13.9857 23.4593 14.0906 23.4619H15.5081V24.0637C15.5081 24.1697 15.5502 24.2713 15.6251 24.3462C15.7 24.421 15.8016 24.4631 15.9075 24.4631C16.0134 24.4631 16.115 24.421 16.1899 24.3462C16.2648 24.2713 16.3069 24.1697 16.3069 24.0637V23.4619H16.3631C16.828 23.4576 17.2725 23.27 17.5997 22.9397C17.927 22.6095 18.1106 22.1634 18.1106 21.6984C18.1106 21.2335 17.927 20.7874 17.5997 20.4571C17.2725 20.1269 16.828 19.9392 16.3631 19.935ZM16.3631 19.935H15.4519C15.1994 19.9321 14.9583 19.8298 14.7807 19.6503C14.6032 19.4707 14.5037 19.2284 14.5037 18.9759C14.5037 18.7234 14.6032 18.4811 14.7807 18.3016C14.9583 18.122 15.1994 18.0197 15.4519 18.0169H17.7244C17.7772 18.0165 17.8294 18.0058 17.8781 17.9852C17.9268 17.9647 17.9709 17.9347 18.008 17.8971C18.0451 17.8595 18.0744 17.815 18.0942 17.766C18.1141 17.7171 18.1241 17.6647 18.1238 17.6119C18.124 17.5594 18.1139 17.5073 18.0939 17.4587C18.0739 17.4101 18.0445 17.366 18.0074 17.3289C17.9703 17.2917 17.9261 17.2623 17.8775 17.2423C17.829 17.2224 17.7769 17.2122 17.7244 17.2125H16.3069V16.605C16.3069 16.4991 16.2648 16.3975 16.1899 16.3226C16.115 16.2477 16.0134 16.2056 15.9075 16.2056C15.8016 16.2056 15.7 16.2477 15.6251 16.3226C15.5502 16.3975 15.5081 16.4991 15.5081 16.605V17.2125C15.2757 17.2073 15.0444 17.2482 14.8278 17.3327C14.6112 17.4173 14.4134 17.5438 14.2459 17.7051C14.0783 17.8663 13.9443 18.0591 13.8516 18.2724C13.7589 18.4856 13.7092 18.7151 13.7055 18.9476C13.7018 19.1801 13.7441 19.4111 13.83 19.6272C13.9159 19.8433 14.0437 20.0403 14.206 20.2068C14.3683 20.3733 14.5619 20.5061 14.7757 20.5975C14.9896 20.6889 15.2194 20.7371 15.4519 20.7394H16.3631C16.6159 20.7418 16.8575 20.8439 17.0353 21.0235C17.2132 21.2031 17.313 21.4457 17.313 21.6984C17.313 21.9512 17.2132 22.1937 17.0353 22.3733C16.8575 22.5529 16.6159 22.6551 16.3631 22.6575H14.0906C13.9857 22.66 13.8858 22.7035 13.8125 22.7787C13.7391 22.8538 13.6981 22.9547 13.6981 23.0597C13.6981 23.1647 13.7391 23.2655 13.8125 23.3407C13.8858 23.4158 13.9857 23.4593 14.0906 23.4619H15.5081V24.0637C15.5081 24.1697 15.5502 24.2713 15.6251 24.3462C15.7 24.421 15.8016 24.4631 15.9075 24.4631C16.0134 24.4631 16.115 24.421 16.1899 24.3462C16.2648 24.2713 16.3069 24.1697 16.3069 24.0637V23.4619H16.3631C16.828 23.4576 17.2725 23.27 17.5997 22.9397C17.927 22.6095 18.1106 22.1634 18.1106 21.6984C18.1106 21.2335 17.927 20.7874 17.5997 20.4571C17.2725 20.1269 16.828 19.9392 16.3631 19.935ZM16.3631 19.935H15.4519C15.1994 19.9321 14.9583 19.8298 14.7807 19.6503C14.6032 19.4707 14.5037 19.2284 14.5037 18.9759C14.5037 18.7234 14.6032 18.4811 14.7807 18.3016C14.9583 18.122 15.1994 18.0197 15.4519 18.0169H17.7244C17.7772 18.0165 17.8294 18.0058 17.8781 17.9852C17.9268 17.9647 17.9709 17.9347 18.008 17.8971C18.0451 17.8595 18.0744 17.815 18.0942 17.766C18.1141 17.7171 18.1241 17.6647 18.1238 17.6119C18.124 17.5594 18.1139 17.5073 18.0939 17.4587C18.0739 17.4101 18.0445 17.366 18.0074 17.3289C17.9703 17.2917 17.9261 17.2623 17.8775 17.2423C17.829 17.2224 17.7769 17.2122 17.7244 17.2125H16.3069V16.605C16.3069 16.4991 16.2648 16.3975 16.1899 16.3226C16.115 16.2477 16.0134 16.2056 15.9075 16.2056C15.8016 16.2056 15.7 16.2477 15.6251 16.3226C15.5502 16.3975 15.5081 16.4991 15.5081 16.605V17.2125C15.2757 17.2073 15.0444 17.2482 14.8278 17.3327C14.6112 17.4173 14.4134 17.5438 14.2459 17.7051C14.0783 17.8663 13.9443 18.0591 13.8516 18.2724C13.7589 18.4856 13.7092 18.7151 13.7055 18.9476C13.7018 19.1801 13.7441 19.4111 13.83 19.6272C13.9159 19.8433 14.0437 20.0403 14.206 20.2068C14.3683 20.3733 14.5619 20.5061 14.7757 20.5975C14.9896 20.6889 15.2194 20.7371 15.4519 20.7394H16.3631C16.6159 20.7418 16.8575 20.8439 17.0353 21.0235C17.2132 21.2031 17.313 21.4457 17.313 21.6984C17.313 21.9512 17.2132 22.1937 17.0353 22.3733C16.8575 22.5529 16.6159 22.6551 16.3631 22.6575H14.0906C13.9857 22.66 13.8858 22.7035 13.8125 22.7787C13.7391 22.8538 13.6981 22.9547 13.6981 23.0597C13.6981 23.1647 13.7391 23.2655 13.8125 23.3407C13.8858 23.4158 13.9857 23.4593 14.0906 23.4619H15.5081V24.0637C15.5081 24.1697 15.5502 24.2713 15.6251 24.3462C15.7 24.421 15.8016 24.4631 15.9075 24.4631C16.0134 24.4631 16.115 24.421 16.1899 24.3462C16.2648 24.2713 16.3069 24.1697 16.3069 24.0637V23.4619H16.3631C16.828 23.4576 17.2725 23.27 17.5997 22.9397C17.927 22.6095 18.1106 22.1634 18.1106 21.6984C18.1106 21.2335 17.927 20.7874 17.5997 20.4571C17.2725 20.1269 16.828 19.9392 16.3631 19.935ZM16.3631 19.935H15.4519C15.1994 19.9321 14.9583 19.8298 14.7807 19.6503C14.6032 19.4707 14.5037 19.2284 14.5037 18.9759C14.5037 18.7234 14.6032 18.4811 14.7807 18.3016C14.9583 18.122 15.1994 18.0197 15.4519 18.0169H17.7244C17.7772 18.0165 17.8294 18.0058 17.8781 17.9852C17.9268 17.9647 17.9709 17.9347 18.008 17.8971C18.0451 17.8595 18.0744 17.815 18.0942 17.766C18.1141 17.7171 18.1241 17.6647 18.1238 17.6119C18.124 17.5594 18.1139 17.5073 18.0939 17.4587C18.0739 17.4101 18.0445 17.366 18.0074 17.3289C17.9703 17.2917 17.9261 17.2623 17.8775 17.2423C17.829 17.2224 17.7769 17.2122 17.7244 17.2125H16.3069V16.605C16.3069 16.4991 16.2648 16.3975 16.1899 16.3226C16.115 16.2477 16.0134 16.2056 15.9075 16.2056C15.8016 16.2056 15.7 16.2477 15.6251 16.3226C15.5502 16.3975 15.5081 16.4991 15.5081 16.605V17.2125C15.2757 17.2073 15.0444 17.2482 14.8278 17.3327C14.6112 17.4173 14.4134 17.5438 14.2459 17.7051C14.0783 17.8663 13.9443 18.0591 13.8516 18.2724C13.7589 18.4856 13.7092 18.7151 13.7055 18.9476C13.7018 19.1801 13.7441 19.4111 13.83 19.6272C13.9159 19.8433 14.0437 20.0403 14.206 20.2068C14.3683 20.3733 14.5619 20.5061 14.7757 20.5975C14.9896 20.6889 15.2194 20.7371 15.4519 20.7394H16.3631C16.6159 20.7418 16.8575 20.8439 17.0353 21.0235C17.2132 21.2031 17.313 21.4457 17.313 21.6984C17.313 21.9512 17.2132 22.1937 17.0353 22.3733C16.8575 22.5529 16.6159 22.6551 16.3631 22.6575H14.0906C13.9857 22.66 13.8858 22.7035 13.8125 22.7787C13.7391 22.8538 13.6981 22.9547 13.6981 23.0597C13.6981 23.1647 13.7391 23.2655 13.8125 23.3407C13.8858 23.4158 13.9857 23.4593 14.0906 23.4619H15.5081V24.0637C15.5081 24.1697 15.5502 24.2713 15.6251 24.3462C15.7 24.421 15.8016 24.4631 15.9075 24.4631C16.0134 24.4631 16.115 24.421 16.1899 24.3462C16.2648 24.2713 16.3069 24.1697 16.3069 24.0637V23.4619H16.3631C16.828 23.4576 17.2725 23.27 17.5997 22.9397C17.927 22.6095 18.1106 22.1634 18.1106 21.6984C18.1106 21.2335 17.927 20.7874 17.5997 20.4571C17.2725 20.1269 16.828 19.9392 16.3631 19.935ZM16.3631 19.935H15.4519C15.1994 19.9321 14.9583 19.8298 14.7807 19.6503C14.6032 19.4707 14.5037 19.2284 14.5037 18.9759C14.5037 18.7234 14.6032 18.4811 14.7807 18.3016C14.9583 18.122 15.1994 18.0197 15.4519 18.0169H17.7244C17.7772 18.0165 17.8294 18.0058 17.8781 17.9852C17.9268 17.9647 17.9709 17.9347 18.008 17.8971C18.0451 17.8595 18.0744 17.815 18.0942 17.766C18.1141 17.7171 18.1241 17.6647 18.1238 17.6119C18.124 17.5594 18.1139 17.5073 18.0939 17.4587C18.0739 17.4101 18.0445 17.366 18.0074 17.3289C17.9703 17.2917 17.9261 17.2623 17.8775 17.2423C17.829 17.2224 17.7769 17.2122 17.7244 17.2125H16.3069V16.605C16.3069 16.4991 16.2648 16.3975 16.1899 16.3226C16.115 16.2477 16.0134 16.2056 15.9075 16.2056C15.8016 16.2056 15.7 16.2477 15.6251 16.3226C15.5502 16.3975 15.5081 16.4991 15.5081 16.605V17.2125C15.2757 17.2073 15.0444 17.2482 14.8278 17.3327C14.6112 17.4173 14.4134 17.5438 14.2459 17.7051C14.0783 17.8663 13.9443 18.0591 13.8516 18.2724C13.7589 18.4856 13.7092 18.7151 13.7055 18.9476C13.7018 19.1801 13.7441 19.4111 13.83 19.6272C13.9159 19.8433 14.0437 20.0403 14.206 20.2068C14.3683 20.3733 14.5619 20.5061 14.7757 20.5975C14.9896 20.6889 15.2194 20.7371 15.4519 20.7394H16.3631C16.6159 20.7418 16.8575 20.8439 17.0353 21.0235C17.2132 21.2031 17.313 21.4457 17.313 21.6984C17.313 21.9512 17.2132 22.1937 17.0353 22.3733C16.8575 22.5529 16.6159 22.6551 16.3631 22.6575H14.0906C13.9857 22.66 13.8858 22.7035 13.8125 22.7787C13.7391 22.8538 13.6981 22.9547 13.6981 23.0597C13.6981 23.1647 13.7391 23.2655 13.8125 23.3407C13.8858 23.4158 13.9857 23.4593 14.0906 23.4619H15.5081V24.0637C15.5081 24.1697 15.5502 24.2713 15.6251 24.3462C15.7 24.421 15.8016 24.4631 15.9075 24.4631C16.0134 24.4631 16.115 24.421 16.1899 24.3462C16.2648 24.2713 16.3069 24.1697 16.3069 24.0637V23.4619H16.3631C16.828 23.4576 17.2725 23.27 17.5997 22.9397C17.927 22.6095 18.1106 22.1634 18.1106 21.6984C18.1106 21.2335 17.927 20.7874 17.5997 20.4571C17.2725 20.1269 16.828 19.9392 16.3631 19.935ZM16.3631 19.935H15.4519C15.1994 19.9321 14.9583 19.8298 14.7807 19.6503C14.6032 19.4707 14.5037 19.2284 14.5037 18.9759C14.5037 18.7234 14.6032 18.4811 14.7807 18.3016C14.9583 18.122 15.1994 18.0197 15.4519 18.0169H17.7244C17.7772 18.0165 17.8294 18.0058 17.8781 17.9852C17.9268 17.9647 17.9709 17.9347 18.008 17.8971C18.0451 17.8595 18.0744 17.815 18.0942 17.766C18.1141 17.7171 18.1241 17.6647 18.1238 17.6119C18.124 17.5594 18.1139 17.5073 18.0939 17.4587C18.0739 17.4101 18.0445 17.366 18.0074 17.3289C17.9703 17.2917 17.9261 17.2623 17.8775 17.2423C17.829 17.2224 17.7769 17.2122 17.7244 17.2125H16.3069V16.605C16.3069 16.4991 16.2648 16.3975 16.1899 16.3226C16.115 16.2477 16.0134 16.2056 15.9075 16.2056C15.8016 16.2056 15.7 16.2477 15.6251 16.3226C15.5502 16.3975 15.5081 16.4991 15.5081 16.605V17.2125C15.2757 17.2073 15.0444 17.2482 14.8278 17.3327C14.6112 17.4173 14.4134 17.5438 14.2459 17.7051C14.0783 17.8663 13.9443 18.0591 13.8516 18.2724C13.7589 18.4856 13.7092 18.7151 13.7055 18.9476C13.7018 19.1801 13.7441 19.4111 13.83 19.6272C13.9159 19.8433 14.0437 20.0403 14.206 20.2068C14.3683 20.3733 14.5619 20.5061 14.7757 20.5975C14.9896 20.6889 15.2194 20.7371 15.4519 20.7394H16.3631C16.6159 20.7418 16.8575 20.8439 17.0353 21.0235C17.2132 21.2031 17.313 21.4457 17.313 21.6984C17.313 21.9512 17.2132 22.1937 17.0353 22.3733C16.8575 22.5529 16.6159 22.6551 16.3631 22.6575H14.0906C13.9857 22.66 13.8858 22.7035 13.8125 22.7787C13.7391 22.8538 13.6981 22.9547 13.6981 23.0597C13.6981 23.1647 13.7391 23.2655 13.8125 23.3407C13.8858 23.4158 13.9857 23.4593 14.0906 23.4619H15.5081V24.0637C15.5081 24.1697 15.5502 24.2713 15.6251 24.3462C15.7 24.421 15.8016 24.4631 15.9075 24.4631C16.0134 24.4631 16.115 24.421 16.1899 24.3462C16.2648 24.2713 16.3069 24.1697 16.3069 24.0637V23.4619H16.3631C16.828 23.4576 17.2725 23.27 17.5997 22.9397C17.927 22.6095 18.1106 22.1634 18.1106 21.6984C18.1106 21.2335 17.927 20.7874 17.5997 20.4571C17.2725 20.1269 16.828 19.9392 16.3631 19.935ZM16.3631 19.935H15.4519C15.1994 19.9321 14.9583 19.8298 14.7807 19.6503C14.6032 19.4707 14.5037 19.2284 14.5037 18.9759C14.5037 18.7234 14.6032 18.4811 14.7807 18.3016C14.9583 18.122 15.1994 18.0197 15.4519 18.0169H17.7244C17.7772 18.0165 17.8294 18.0058 17.8781 17.9852C17.9268 17.9647 17.9709 17.9347 18.008 17.8971C18.0451 17.8595 18.0744 17.815 18.0942 17.766C18.1141 17.7171 18.1241 17.6647 18.1238 17.6119C18.124 17.5594 18.1139 17.5073 18.0939 17.4587C18.0739 17.4101 18.0445 17.366 18.0074 17.3289C17.9703 17.2917 17.9261 17.2623 17.8775 17.2423C17.829 17.2224 17.7769 17.2122 17.7244 17.2125H16.3069V16.605C16.3069 16.4991 16.2648 16.3975 16.1899 16.3226C16.115 16.2477 16.0134 16.2056 15.9075 16.2056C15.8016 16.2056 15.7 16.2477 15.6251 16.3226C15.5502 16.3975 15.5081 16.4991 15.5081 16.605V17.2125C15.2757 17.2073 15.0444 17.2482 14.8278 17.3327C14.6112 17.4173 14.4134 17.5438 14.2459 17.7051C14.0783 17.8663 13.9443 18.0591 13.8516 18.2724C13.7589 18.4856 13.7092 18.7151 13.7055 18.9476C13.7018 19.1801 13.7441 19.4111 13.83 19.6272C13.9159 19.8433 14.0437 20.0403 14.206 20.2068C14.3683 20.3733 14.5619 20.5061 14.7757 20.5975C14.9896 20.6889 15.2194 20.7371 15.4519 20.7394H16.3631C16.6159 20.7418 16.8575 20.8439 17.0353 21.0235C17.2132 21.2031 17.313 21.4457 17.313 21.6984C17.313 21.9512 17.2132 22.1937 17.0353 22.3733C16.8575 22.5529 16.6159 22.6551 16.3631 22.6575H14.0906C13.9857 22.66 13.8858 22.7035 13.8125 22.7787C13.7391 22.8538 13.6981 22.9547 13.6981 23.0597C13.6981 23.1647 13.7391 23.2655 13.8125 23.3407C13.8858 23.4158 13.9857 23.4593 14.0906 23.4619H15.5081V24.0637C15.5081 24.1697 15.5502 24.2713 15.6251 24.3462C15.7 24.421 15.8016 24.4631 15.9075 24.4631C16.0134 24.4631 16.115 24.421 16.1899 24.3462C16.2648 24.2713 16.3069 24.1697 16.3069 24.0637V23.4619H16.3631C16.828 23.4576 17.2725 23.27 17.5997 22.9397C17.927 22.6095 18.1106 22.1634 18.1106 21.6984C18.1106 21.2335 17.927 20.7874 17.5997 20.4571C17.2725 20.1269 16.828 19.9392 16.3631 19.935ZM16.3631 19.935H15.4519C15.1994 19.9321 14.9583 19.8298 14.7807 19.6503C14.6032 19.4707 14.5037 19.2284 14.5037 18.9759C14.5037 18.7234 14.6032 18.4811 14.7807 18.3016C14.9583 18.122 15.1994 18.0197 15.4519 18.0169H17.7244C17.7772 18.0165 17.8294 18.0058 17.8781 17.9852C17.9268 17.9647 17.9709 17.9347 18.008 17.8971C18.0451 17.8595 18.0744 17.815 18.0942 17.766C18.1141 17.7171 18.1241 17.6647 18.1238 17.6119C18.124 17.5594 18.1139 17.5073 18.0939 17.4587C18.0739 17.4101 18.0445 17.366 18.0074 17.3289C17.9703 17.2917 17.9261 17.2623 17.8775 17.2423C17.829 17.2224 17.7769 17.2122 17.7244 17.2125H16.3069V16.605C16.3069 16.4991 16.2648 16.3975 16.1899 16.3226C16.115 16.2477 16.0134 16.2056 15.9075 16.2056C15.8016 16.2056 15.7 16.2477 15.6251 16.3226C15.5502 16.3975 15.5081 16.4991 15.5081 16.605V17.2125C15.2757 17.2073 15.0444 17.2482 14.8278 17.3327C14.6112 17.4173 14.4134 17.5438 14.2459 17.7051C14.0783 17.8663 13.9443 18.0591 13.8516 18.2724C13.7589 18.4856 13.7092 18.7151 13.7055 18.9476C13.7018 19.1801 13.7441 19.4111 13.83 19.6272C13.9159 19.8433 14.0437 20.0403 14.206 20.2068C14.3683 20.3733 14.5619 20.5061 14.7757 20.5975C14.9896 20.6889 15.2194 20.7371 15.4519 20.7394H16.3631C16.6159 20.7418 16.8575 20.8439 17.0353 21.0235C17.2132 21.2031 17.313 21.4457 17.313 21.6984C17.313 21.9512 17.2132 22.1937 17.0353 22.3733C16.8575 22.5529 16.6159 22.6551 16.3631 22.6575H14.0906C13.9857 22.66 13.8858 22.7035 13.8125 22.7787C13.7391 22.8538 13.6981 22.9547 13.6981 23.0597C13.6981 23.1647 13.7391 23.2655 13.8125 23.3407C13.8858 23.4158 13.9857 23.4593 14.0906 23.4619H15.5081V24.0637C15.5081 24.1697 15.5502 24.2713 15.6251 24.3462C15.7 24.421 15.8016 24.4631 15.9075 24.4631C16.0134 24.4631 16.115 24.421 16.1899 24.3462C16.2648 24.2713 16.3069 24.1697 16.3069 24.0637V23.4619H16.3631C16.828 23.4576 17.2725 23.27 17.5997 22.9397C17.927 22.6095 18.1106 22.1634 18.1106 21.6984C18.1106 21.2335 17.927 20.7874 17.5997 20.4571C17.2725 20.1269 16.828 19.9392 16.3631 19.935ZM16.3631 19.935H15.4519C15.1994 19.9321 14.9583 19.8298 14.7807 19.6503C14.6032 19.4707 14.5037 19.2284 14.5037 18.9759C14.5037 18.7234 14.6032 18.4811 14.7807 18.3016C14.9583 18.122 15.1994 18.0197 15.4519 18.0169H17.7244C17.7772 18.0165 17.8294 18.0058 17.8781 17.9852C17.9268 17.9647 17.9709 17.9347 18.008 17.8971C18.0451 17.8595 18.0744 17.815 18.0942 17.766C18.1141 17.7171 18.1241 17.6647 18.1238 17.6119C18.124 17.5594 18.1139 17.5073 18.0939 17.4587C18.0739 17.4101 18.0445 17.366 18.0074 17.3289C17.9703 17.2917 17.9261 17.2623 17.8775 17.2423C17.829 17.2224 17.7769 17.2122 17.7244 17.2125H16.3069V16.605C16.3069 16.4991 16.2648 16.3975 16.1899 16.3226C16.115 16.2477 16.0134 16.2056 15.9075 16.2056C15.8016 16.2056 15.7 16.2477 15.6251 16.3226C15.5502 16.3975 15.5081 16.4991 15.5081 16.605V17.2125C15.2757 17.2073 15.0444 17.2482 14.8278 17.3327C14.6112 17.4173 14.4134 17.5438 14.2459 17.7051C14.0783 17.8663 13.9443 18.0591 13.8516 18.2724C13.7589 18.4856 13.7092 18.7151 13.7055 18.9476C13.7018 19.1801 13.7441 19.4111 13.83 19.6272C13.9159 19.8433 14.0437 20.0403 14.206 20.2068C14.3683 20.3733 14.5619 20.5061 14.7757 20.5975C14.9896 20.6889 15.2194 20.7371 15.4519 20.7394H16.3631C16.6159 20.7418 16.8575 20.8439 17.0353 21.0235C17.2132 21.2031 17.313 21.4457 17.313 21.6984C17.313 21.9512 17.2132 22.1937 17.0353 22.3733C16.8575 22.5529 16.6159 22.6551 16.3631 22.6575H14.0906C13.9857 22.66 13.8858 22.7035 13.8125 22.7787C13.7391 22.8538 13.6981 22.9547 13.6981 23.0597C13.6981 23.1647 13.7391 23.2655 13.8125 23.3407C13.8858 23.4158 13.9857 23.4593 14.0906 23.4619H15.5081V24.0637C15.5081 24.1697 15.5502 24.2713 15.6251 24.3462C15.7 24.421 15.8016 24.4631 15.9075 24.4631C16.0134 24.4631 16.115 24.421 16.1899 24.3462C16.2648 24.2713 16.3069 24.1697 16.3069 24.0637V23.4619H16.3631C16.828 23.4576 17.2725 23.27 17.5997 22.9397C17.927 22.6095 18.1106 22.1634 18.1106 21.6984C18.1106 21.2335 17.927 20.7874 17.5997 20.4571C17.2725 20.1269 16.828 19.9392 16.3631 19.935ZM16.3631 19.935H15.4519C15.1994 19.9321 14.9583 19.8298 14.7807 19.6503C14.6032 19.4707 14.5037 19.2284 14.5037 18.9759C14.5037 18.7234 14.6032 18.4811 14.7807 18.3016C14.9583 18.122 15.1994 18.0197 15.4519 18.0169H17.7244C17.7772 18.0165 17.8294 18.0058 17.8781 17.9852C17.9268 17.9647 17.9709 17.9347 18.008 17.8971C18.0451 17.8595 18.0744 17.815 18.0942 17.766C18.1141 17.7171 18.1241 17.6647 18.1238 17.6119C18.124 17.5594 18.1139 17.5073 18.0939 17.4587C18.0739 17.4101 18.0445 17.366 18.0074 17.3289C17.9703 17.2917 17.9261 17.2623 17.8775 17.2423C17.829 17.2224 17.7769 17.2122 17.7244 17.2125H16.3069V16.605C16.3069 16.4991 16.2648 16.3975 16.1899 16.3226C16.115 16.2477 16.0134 16.2056 15.9075 16.2056C15.8016 16.2056 15.7 16.2477 15.6251 16.3226C15.5502 16.3975 15.5081 16.4991 15.5081 16.605V17.2125C15.2757 17.2073 15.0444 17.2482 14.8278 17.3327C14.6112 17.4173 14.4134 17.5438 14.2459 17.7051C14.0783 17.8663 13.9443 18.0591 13.8516 18.2724C13.7589 18.4856 13.7092 18.7151 13.7055 18.9476C13.7018 19.1801 13.7441 19.4111 13.83 19.6272C13.9159 19.8433 14.0437 20.0403 14.206 20.2068C14.3683 20.3733 14.5619 20.5061 14.7757 20.5975C14.9896 20.6889 15.2194 20.7371 15.4519 20.7394H16.3631C16.6159 20.7418 16.8575 20.8439 17.0353 21.0235C17.2132 21.2031 17.313 21.4457 17.313 21.6984C17.313 21.9512 17.2132 22.1937 17.0353 22.3733C16.8575 22.5529 16.6159 22.6551 16.3631 22.6575H14.0906C13.9857 22.66 13.8858 22.7035 13.8125 22.7787C13.7391 22.8538 13.6981 22.9547 13.6981 23.0597C13.6981 23.1647 13.7391 23.2655 13.8125 23.3407C13.8858 23.4158 13.9857 23.4593 14.0906 23.4619H15.5081V24.0637C15.5081 24.1697 15.5502 24.2713 15.6251 24.3462C15.7 24.421 15.8016 24.4631 15.9075 24.4631C16.0134 24.4631 16.115 24.421 16.1899 24.3462C16.2648 24.2713 16.3069 24.1697 16.3069 24.0637V23.4619H16.3631C16.828 23.4576 17.2725 23.27 17.5997 22.9397C17.927 22.6095 18.1106 22.1634 18.1106 21.6984C18.1106 21.2335 17.927 20.7874 17.5997 20.4571C17.2725 20.1269 16.828 19.9392 16.3631 19.935ZM16.3631 19.935H15.4519C15.1994 19.9321 14.9583 19.8298 14.7807 19.6503C14.6032 19.4707 14.5037 19.2284 14.5037 18.9759C14.5037 18.7234 14.6032 18.4811 14.7807 18.3016C14.9583 18.122 15.1994 18.0197 15.4519 18.0169H17.7244C17.7772 18.0165 17.8294 18.0058 17.8781 17.9852C17.9268 17.9647 17.9709 17.9347 18.008 17.8971C18.0451 17.8595 18.0744 17.815 18.0942 17.766C18.1141 17.7171 18.1241 17.6647 18.1238 17.6119C18.124 17.5594 18.1139 17.5073 18.0939 17.4587C18.0739 17.4101 18.0445 17.366 18.0074 17.3289C17.9703 17.2917 17.9261 17.2623 17.8775 17.2423C17.829 17.2224 17.7769 17.2122 17.7244 17.2125H16.3069V16.605C16.3069 16.4991 16.2648 16.3975 16.1899 16.3226C16.115 16.2477 16.0134 16.2056 15.9075 16.2056C15.8016 16.2056 15.7 16.2477 15.6251 16.3226C15.5502 16.3975 15.5081 16.4991 15.5081 16.605V17.2125C15.2757 17.2073 15.0444 17.2482 14.8278 17.3327C14.6112 17.4173 14.4134 17.5438 14.2459 17.7051C14.0783 17.8663 13.9443 18.0591 13.8516 18.2724C13.7589 18.4856 13.7092 18.7151 13.7055 18.9476C13.7018 19.1801 13.7441 19.4111 13.83 19.6272C13.9159 19.8433 14.0437 20.0403 14.206 20.2068C14.3683 20.3733 14.5619 20.5061 14.7757 20.5975C14.9896 20.6889 15.2194 20.7371 15.4519 20.7394H16.3631C16.6159 20.7418 16.8575 20.8439 17.0353 21.0235C17.2132 21.2031 17.313 21.4457 17.313 21.6984C17.313 21.9512 17.2132 22.1937 17.0353 22.3733C16.8575 22.5529 16.6159 22.6551 16.3631 22.6575H14.0906C13.9857 22.66 13.8858 22.7035 13.8125 22.7787C13.7391 22.8538 13.6981 22.9547 13.6981 23.0597C13.6981 23.1647 13.7391 23.2655 13.8125 23.3407C13.8858 23.4158 13.9857 23.4593 14.0906 23.4619H15.5081V24.0637C15.5081 24.1697 15.5502 24.2713 15.6251 24.3462C15.7 24.421 15.8016 24.4631 15.9075 24.4631C16.0134 24.4631 16.115 24.421 16.1899 24.3462C16.2648 24.2713 16.3069 24.1697 16.3069 24.0637V23.4619H16.3631C16.828 23.4576 17.2725 23.27 17.5997 22.9397C17.927 22.6095 18.1106 22.1634 18.1106 21.6984C18.1106 21.2335 17.927 20.7874 17.5997 20.4571C17.2725 20.1269 16.828 19.9392 16.3631 19.935ZM18 0C14.4399 0 10.9598 1.05568 7.99974 3.03355C5.03966 5.01141 2.73255 7.82263 1.37018 11.1117C0.00779906 14.4008 -0.348661 18.02 0.345873 21.5116C1.04041 25.0033 2.75474 28.2106 5.27209 30.7279C7.78943 33.2453 10.9967 34.9596 14.4884 35.6541C17.98 36.3487 21.5992 35.9922 24.8883 34.6298C28.1774 33.2675 30.9886 30.9604 32.9665 28.0003C34.9443 25.0402 36 21.5601 36 18C35.9994 13.2263 34.1028 8.64826 30.7273 5.27274C27.3517 1.89721 22.7737 0.000596602 18 0ZM11.7056 7.55438C11.7056 7.44874 11.7264 7.34413 11.7668 7.24653C11.8072 7.14893 11.8665 7.06025 11.9412 6.98555C12.0159 6.91085 12.1046 6.8516 12.2022 6.81119C12.2998 6.77077 12.4044 6.74998 12.51 6.75H19.305C19.5175 6.75113 19.7208 6.83642 19.8705 6.98719C20.0203 7.13795 20.1041 7.34191 20.1038 7.55438V8.78062C20.1012 9.74512 19.7653 10.6791 19.1531 11.4244H12.6563C12.0424 10.68 11.7063 9.74545 11.7056 8.78062V7.55438ZM21.015 29.25H10.8C10.2914 29.2484 9.78877 29.141 9.32394 28.9347C8.85912 28.7283 8.44232 28.4275 8.10003 28.0514C7.75775 27.6752 7.49747 27.232 7.33574 26.7498C7.17402 26.2676 7.11438 25.7571 7.16063 25.2506L7.80188 18.4669C7.92404 17.1894 8.34579 15.9587 9.03288 14.8748C9.71997 13.7909 10.653 12.8843 11.7563 12.2288H20.0644C22.7531 13.815 24.0244 16.515 24.12 19.6369C19.305 19.8506 17.4319 26.1 21.2569 28.98C21.78 29.2894 21.3863 29.2219 21.015 29.25ZM24.4238 29.25C23.4975 29.2445 22.5963 28.9489 21.8468 28.4046C21.0973 27.8603 20.5373 27.0947 20.2455 26.2156C19.9537 25.3365 19.9448 24.388 20.22 23.5036C20.4953 22.6192 21.0409 21.8433 21.78 21.285C24.075 19.485 27.9394 20.7 28.665 23.6025C28.8495 24.2602 28.88 24.9515 28.7542 25.6229C28.6283 26.2943 28.3495 26.9276 27.9393 27.4738C27.5291 28.02 26.9986 28.4643 26.3889 28.7724C25.7792 29.0804 25.1068 29.2438 24.4238 29.25ZM15.4519 18.0169H17.7244C17.7772 18.0165 17.8294 18.0058 17.8781 17.9852C17.9268 17.9647 17.9709 17.9347 18.008 17.8971C18.0451 17.8595 18.0744 17.815 18.0942 17.766C18.1141 17.7171 18.1241 17.6647 18.1238 17.6119C18.124 17.5594 18.1139 17.5073 18.0939 17.4587C18.0739 17.4101 18.0445 17.366 18.0074 17.3289C17.9703 17.2917 17.9261 17.2623 17.8775 17.2423C17.829 17.2224 17.7769 17.2122 17.7244 17.2125H16.3069V16.605C16.3069 16.4991 16.2648 16.3975 16.1899 16.3226C16.115 16.2477 16.0134 16.2056 15.9075 16.2056C15.8016 16.2056 15.7 16.2477 15.6251 16.3226C15.5502 16.3975 15.5081 16.4991 15.5081 16.605V17.2125C15.2757 17.2073 15.0444 17.2482 14.8278 17.3327C14.6112 17.4173 14.4134 17.5438 14.2459 17.7051C14.0783 17.8663 13.9443 18.0591 13.8516 18.2724C13.7589 18.4856 13.7092 18.7151 13.7055 18.9476C13.7018 19.1801 13.7441 19.4111 13.83 19.6272C13.9159 19.8433 14.0437 20.0403 14.206 20.2068C14.3683 20.3733 14.5619 20.5061 14.7757 20.5975C14.9896 20.6889 15.2194 20.7371 15.4519 20.7394H16.3631C16.6159 20.7418 16.8575 20.8439 17.0353 21.0235C17.2132 21.2031 17.313 21.4457 17.313 21.6984C17.313 21.9512 17.2132 22.1937 17.0353 22.3733C16.8575 22.5529 16.6159 22.6551 16.3631 22.6575H14.0906C13.9857 22.66 13.8858 22.7035 13.8125 22.7787C13.7391 22.8538 13.6981 22.9547 13.6981 23.0597C13.6981 23.1647 13.7391 23.2655 13.8125 23.3407C13.8858 23.4158 13.9857 23.4593 14.0906 23.4619H15.5081V24.0637C15.5081 24.1697 15.5502 24.2713 15.6251 24.3462C15.7 24.421 15.8016 24.4631 15.9075 24.4631C16.0134 24.4631 16.115 24.421 16.1899 24.3462C16.2648 24.2713 16.3069 24.1697 16.3069 24.0637V23.4619H16.3631C16.828 23.4576 17.2725 23.27 17.5997 22.9397C17.927 22.6095 18.1106 22.1634 18.1106 21.6984C18.1106 21.2335 17.927 20.7874 17.5997 20.4571C17.2725 20.1269 16.828 19.9392 16.3631 19.935H15.4519C15.1994 19.9321 14.9583 19.8298 14.7807 19.6503C14.6032 19.4707 14.5037 19.2284 14.5037 18.9759C14.5037 18.7234 14.6032 18.4811 14.7807 18.3016C14.9583 18.122 15.1994 18.0197 15.4519 18.0169ZM16.3631 19.935H15.4519C15.1994 19.9321 14.9583 19.8298 14.7807 19.6503C14.6032 19.4707 14.5037 19.2284 14.5037 18.9759C14.5037 18.7234 14.6032 18.4811 14.7807 18.3016C14.9583 18.122 15.1994 18.0197 15.4519 18.0169H17.7244C17.7772 18.0165 17.8294 18.0058 17.8781 17.9852C17.9268 17.9647 17.9709 17.9347 18.008 17.8971C18.0451 17.8595 18.0744 17.815 18.0942 17.766C18.1141 17.7171 18.1241 17.6647 18.1238 17.6119C18.124 17.5594 18.1139 17.5073 18.0939 17.4587C18.0739 17.4101 18.0445 17.366 18.0074 17.3289C17.9703 17.2917 17.9261 17.2623 17.8775 17.2423C17.829 17.2224 17.7769 17.2122 17.7244 17.2125H16.3069V16.605C16.3069 16.4991 16.2648 16.3975 16.1899 16.3226C16.115 16.2477 16.0134 16.2056 15.9075 16.2056C15.8016 16.2056 15.7 16.2477 15.6251 16.3226C15.5502 16.3975 15.5081 16.4991 15.5081 16.605V17.2125C15.2757 17.2073 15.0444 17.2482 14.8278 17.3327C14.6112 17.4173 14.4134 17.5438 14.2459 17.7051C14.0783 17.8663 13.9443 18.0591 13.8516 18.2724C13.7589 18.4856 13.7092 18.7151 13.7055 18.9476C13.7018 19.1801 13.7441 19.4111 13.83 19.6272C13.9159 19.8433 14.0437 20.0403 14.206 20.2068C14.3683 20.3733 14.5619 20.5061 14.7757 20.5975C14.9896 20.6889 15.2194 20.7371 15.4519 20.7394H16.3631C16.6159 20.7418 16.8575 20.8439 17.0353 21.0235C17.2132 21.2031 17.313 21.4457 17.313 21.6984C17.313 21.9512 17.2132 22.1937 17.0353 22.3733C16.8575 22.5529 16.6159 22.6551 16.3631 22.6575H14.0906C13.9857 22.66 13.8858 22.7035 13.8125 22.7787C13.7391 22.8538 13.6981 22.9547 13.6981 23.0597C13.6981 23.1647 13.7391 23.2655 13.8125 23.3407C13.8858 23.4158 13.9857 23.4593 14.0906 23.4619H15.5081V24.0637C15.5081 24.1697 15.5502 24.2713 15.6251 24.3462C15.7 24.421 15.8016 24.4631 15.9075 24.4631C16.0134 24.4631 16.115 24.421 16.1899 24.3462C16.2648 24.2713 16.3069 24.1697 16.3069 24.0637V23.4619H16.3631C16.828 23.4576 17.2725 23.27 17.5997 22.9397C17.927 22.6095 18.1106 22.1634 18.1106 21.6984C18.1106 21.2335 17.927 20.7874 17.5997 20.4571C17.2725 20.1269 16.828 19.9392 16.3631 19.935ZM16.3631 19.935H15.4519C15.1994 19.9321 14.9583 19.8298 14.7807 19.6503C14.6032 19.4707 14.5037 19.2284 14.5037 18.9759C14.5037 18.7234 14.6032 18.4811 14.7807 18.3016C14.9583 18.122 15.1994 18.0197 15.4519 18.0169H17.7244C17.7772 18.0165 17.8294 18.0058 17.8781 17.9852C17.9268 17.9647 17.9709 17.9347 18.008 17.8971C18.0451 17.8595 18.0744 17.815 18.0942 17.766C18.1141 17.7171 18.1241 17.6647 18.1238 17.6119C18.124 17.5594 18.1139 17.5073 18.0939 17.4587C18.0739 17.4101 18.0445 17.366 18.0074 17.3289C17.9703 17.2917 17.9261 17.2623 17.8775 17.2423C17.829 17.2224 17.7769 17.2122 17.7244 17.2125H16.3069V16.605C16.3069 16.4991 16.2648 16.3975 16.1899 16.3226C16.115 16.2477 16.0134 16.2056 15.9075 16.2056C15.8016 16.2056 15.7 16.2477 15.6251 16.3226C15.5502 16.3975 15.5081 16.4991 15.5081 16.605V17.2125C15.2757 17.2073 15.0444 17.2482 14.8278 17.3327C14.6112 17.4173 14.4134 17.5438 14.2459 17.7051C14.0783 17.8663 13.9443 18.0591 13.8516 18.2724C13.7589 18.4856 13.7092 18.7151 13.7055 18.9476C13.7018 19.1801 13.7441 19.4111 13.83 19.6272C13.9159 19.8433 14.0437 20.0403 14.206 20.2068C14.3683 20.3733 14.5619 20.5061 14.7757 20.5975C14.9896 20.6889 15.2194 20.7371 15.4519 20.7394H16.3631C16.6159 20.7418 16.8575 20.8439 17.0353 21.0235C17.2132 21.2031 17.313 21.4457 17.313 21.6984C17.313 21.9512 17.2132 22.1937 17.0353 22.3733C16.8575 22.5529 16.6159 22.6551 16.3631 22.6575H14.0906C13.9857 22.66 13.8858 22.7035 13.8125 22.7787C13.7391 22.8538 13.6981 22.9547 13.6981 23.0597C13.6981 23.1647 13.7391 23.2655 13.8125 23.3407C13.8858 23.4158 13.9857 23.4593 14.0906 23.4619H15.5081V24.0637C15.5081 24.1697 15.5502 24.2713 15.6251 24.3462C15.7 24.421 15.8016 24.4631 15.9075 24.4631C16.0134 24.4631 16.115 24.421 16.1899 24.3462C16.2648 24.2713 16.3069 24.1697 16.3069 24.0637V23.4619H16.3631C16.828 23.4576 17.2725 23.27 17.5997 22.9397C17.927 22.6095 18.1106 22.1634 18.1106 21.6984C18.1106 21.2335 17.927 20.7874 17.5997 20.4571C17.2725 20.1269 16.828 19.9392 16.3631 19.935ZM16.3631 19.935H15.4519C15.1994 19.9321 14.9583 19.8298 14.7807 19.6503C14.6032 19.4707 14.5037 19.2284 14.5037 18.9759C14.5037 18.7234 14.6032 18.4811 14.7807 18.3016C14.9583 18.122 15.1994 18.0197 15.4519 18.0169H17.7244C17.7772 18.0165 17.8294 18.0058 17.8781 17.9852C17.9268 17.9647 17.9709 17.9347 18.008 17.8971C18.0451 17.8595 18.0744 17.815 18.0942 17.766C18.1141 17.7171 18.1241 17.6647 18.1238 17.6119C18.124 17.5594 18.1139 17.5073 18.0939 17.4587C18.0739 17.4101 18.0445 17.366 18.0074 17.3289C17.9703 17.2917 17.9261 17.2623 17.8775 17.2423C17.829 17.2224 17.7769 17.2122 17.7244 17.2125H16.3069V16.605C16.3069 16.4991 16.2648 16.3975 16.1899 16.3226C16.115 16.2477 16.0134 16.2056 15.9075 16.2056C15.8016 16.2056 15.7 16.2477 15.6251 16.3226C15.5502 16.3975 15.5081 16.4991 15.5081 16.605V17.2125C15.2757 17.2073 15.0444 17.2482 14.8278 17.3327C14.6112 17.4173 14.4134 17.5438 14.2459 17.7051C14.0783 17.8663 13.9443 18.0591 13.8516 18.2724C13.7589 18.4856 13.7092 18.7151 13.7055 18.9476C13.7018 19.1801 13.7441 19.4111 13.83 19.6272C13.9159 19.8433 14.0437 20.0403 14.206 20.2068C14.3683 20.3733 14.5619 20.5061 14.7757 20.5975C14.9896 20.6889 15.2194 20.7371 15.4519 20.7394H16.3631C16.6159 20.7418 16.8575 20.8439 17.0353 21.0235C17.2132 21.2031 17.313 21.4457 17.313 21.6984C17.313 21.9512 17.2132 22.1937 17.0353 22.3733C16.8575 22.5529 16.6159 22.6551 16.3631 22.6575H14.0906C13.9857 22.66 13.8858 22.7035 13.8125 22.7787C13.7391 22.8538 13.6981 22.9547 13.6981 23.0597C13.6981 23.1647 13.7391 23.2655 13.8125 23.3407C13.8858 23.4158 13.9857 23.4593 14.0906 23.4619H15.5081V24.0637C15.5081 24.1697 15.5502 24.2713 15.6251 24.3462C15.7 24.421 15.8016 24.4631 15.9075 24.4631C16.0134 24.4631 16.115 24.421 16.1899 24.3462C16.2648 24.2713 16.3069 24.1697 16.3069 24.0637V23.4619H16.3631C16.828 23.4576 17.2725 23.27 17.5997 22.9397C17.927 22.6095 18.1106 22.1634 18.1106 21.6984C18.1106 21.2335 17.927 20.7874 17.5997 20.4571C17.2725 20.1269 16.828 19.9392 16.3631 19.935ZM16.3631 19.935H15.4519C15.1994 19.9321 14.9583 19.8298 14.7807 19.6503C14.6032 19.4707 14.5037 19.2284 14.5037 18.9759C14.5037 18.7234 14.6032 18.4811 14.7807 18.3016C14.9583 18.122 15.1994 18.0197 15.4519 18.0169H17.7244C17.7772 18.0165 17.8294 18.0058 17.8781 17.9852C17.9268 17.9647 17.9709 17.9347 18.008 17.8971C18.0451 17.8595 18.0744 17.815 18.0942 17.766C18.1141 17.7171 18.1241 17.6647 18.1238 17.6119C18.124 17.5594 18.1139 17.5073 18.0939 17.4587C18.0739 17.4101 18.0445 17.366 18.0074 17.3289C17.9703 17.2917 17.9261 17.2623 17.8775 17.2423C17.829 17.2224 17.7769 17.2122 17.7244 17.2125H16.3069V16.605C16.3069 16.4991 16.2648 16.3975 16.1899 16.3226C16.115 16.2477 16.0134 16.2056 15.9075 16.2056C15.8016 16.2056 15.7 16.2477 15.6251 16.3226C15.5502 16.3975 15.5081 16.4991 15.5081 16.605V17.2125C15.2757 17.2073 15.0444 17.2482 14.8278 17.3327C14.6112 17.4173 14.4134 17.5438 14.2459 17.7051C14.0783 17.8663 13.9443 18.0591 13.8516 18.2724C13.7589 18.4856 13.7092 18.7151 13.7055 18.9476C13.7018 19.1801 13.7441 19.4111 13.83 19.6272C13.9159 19.8433 14.0437 20.0403 14.206 20.2068C14.3683 20.3733 14.5619 20.5061 14.7757 20.5975C14.9896 20.6889 15.2194 20.7371 15.4519 20.7394H16.3631C16.6159 20.7418 16.8575 20.8439 17.0353 21.0235C17.2132 21.2031 17.313 21.4457 17.313 21.6984C17.313 21.9512 17.2132 22.1937 17.0353 22.3733C16.8575 22.5529 16.6159 22.6551 16.3631 22.6575H14.0906C13.9857 22.66 13.8858 22.7035 13.8125 22.7787C13.7391 22.8538 13.6981 22.9547 13.6981 23.0597C13.6981 23.1647 13.7391 23.2655 13.8125 23.3407C13.8858 23.4158 13.9857 23.4593 14.0906 23.4619H15.5081V24.0637C15.5081 24.1697 15.5502 24.2713 15.6251 24.3462C15.7 24.421 15.8016 24.4631 15.9075 24.4631C16.0134 24.4631 16.115 24.421 16.1899 24.3462C16.2648 24.2713 16.3069 24.1697 16.3069 24.0637V23.4619H16.3631C16.828 23.4576 17.2725 23.27 17.5997 22.9397C17.927 22.6095 18.1106 22.1634 18.1106 21.6984C18.1106 21.2335 17.927 20.7874 17.5997 20.4571C17.2725 20.1269 16.828 19.9392 16.3631 19.935ZM16.3631 19.935H15.4519C15.1994 19.9321 14.9583 19.8298 14.7807 19.6503C14.6032 19.4707 14.5037 19.2284 14.5037 18.9759C14.5037 18.7234 14.6032 18.4811 14.7807 18.3016C14.9583 18.122 15.1994 18.0197 15.4519 18.0169H17.7244C17.7772 18.0165 17.8294 18.0058 17.8781 17.9852C17.9268 17.9647 17.9709 17.9347 18.008 17.8971C18.0451 17.8595 18.0744 17.815 18.0942 17.766C18.1141 17.7171 18.1241 17.6647 18.1238 17.6119C18.124 17.5594 18.1139 17.5073 18.0939 17.4587C18.0739 17.4101 18.0445 17.366 18.0074 17.3289C17.9703 17.2917 17.9261 17.2623 17.8775 17.2423C17.829 17.2224 17.7769 17.2122 17.7244 17.2125H16.3069V16.605C16.3069 16.4991 16.2648 16.3975 16.1899 16.3226C16.115 16.2477 16.0134 16.2056 15.9075 16.2056C15.8016 16.2056 15.7 16.2477 15.6251 16.3226C15.5502 16.3975 15.5081 16.4991 15.5081 16.605V17.2125C15.2757 17.2073 15.0444 17.2482 14.8278 17.3327C14.6112 17.4173 14.4134 17.5438 14.2459 17.7051C14.0783 17.8663 13.9443 18.0591 13.8516 18.2724C13.7589 18.4856 13.7092 18.7151 13.7055 18.9476C13.7018 19.1801 13.7441 19.4111 13.83 19.6272C13.9159 19.8433 14.0437 20.0403 14.206 20.2068C14.3683 20.3733 14.5619 20.5061 14.7757 20.5975C14.9896 20.6889 15.2194 20.7371 15.4519 20.7394H16.3631C16.6159 20.7418 16.8575 20.8439 17.0353 21.0235C17.2132 21.2031 17.313 21.4457 17.313 21.6984C17.313 21.9512 17.2132 22.1937 17.0353 22.3733C16.8575 22.5529 16.6159 22.6551 16.3631 22.6575H14.0906C13.9857 22.66 13.8858 22.7035 13.8125 22.7787C13.7391 22.8538 13.6981 22.9547 13.6981 23.0597C13.6981 23.1647 13.7391 23.2655 13.8125 23.3407C13.8858 23.4158 13.9857 23.4593 14.0906 23.4619H15.5081V24.0637C15.5081 24.1697 15.5502 24.2713 15.6251 24.3462C15.7 24.421 15.8016 24.4631 15.9075 24.4631C16.0134 24.4631 16.115 24.421 16.1899 24.3462C16.2648 24.2713 16.3069 24.1697 16.3069 24.0637V23.4619H16.3631C16.828 23.4576 17.2725 23.27 17.5997 22.9397C17.927 22.6095 18.1106 22.1634 18.1106 21.6984C18.1106 21.2335 17.927 20.7874 17.5997 20.4571C17.2725 20.1269 16.828 19.9392 16.3631 19.935ZM16.3631 19.935H15.4519C15.1994 19.9321 14.9583 19.8298 14.7807 19.6503C14.6032 19.4707 14.5037 19.2284 14.5037 18.9759C14.5037 18.7234 14.6032 18.4811 14.7807 18.3016C14.9583 18.122 15.1994 18.0197 15.4519 18.0169H17.7244C17.7772 18.0165 17.8294 18.0058 17.8781 17.9852C17.9268 17.9647 17.9709 17.9347 18.008 17.8971C18.0451 17.8595 18.0744 17.815 18.0942 17.766C18.1141 17.7171 18.1241 17.6647 18.1238 17.6119C18.124 17.5594 18.1139 17.5073 18.0939 17.4587C18.0739 17.4101 18.0445 17.366 18.0074 17.3289C17.9703 17.2917 17.9261 17.2623 17.8775 17.2423C17.829 17.2224 17.7769 17.2122 17.7244 17.2125H16.3069V16.605C16.3069 16.4991 16.2648 16.3975 16.1899 16.3226C16.115 16.2477 16.0134 16.2056 15.9075 16.2056C15.8016 16.2056 15.7 16.2477 15.6251 16.3226C15.5502 16.3975 15.5081 16.4991 15.5081 16.605V17.2125C15.2757 17.2073 15.0444 17.2482 14.8278 17.3327C14.6112 17.4173 14.4134 17.5438 14.2459 17.7051C14.0783 17.8663 13.9443 18.0591 13.8516 18.2724C13.7589 18.4856 13.7092 18.7151 13.7055 18.9476C13.7018 19.1801 13.7441 19.4111 13.83 19.6272C13.9159 19.8433 14.0437 20.0403 14.206 20.2068C14.3683 20.3733 14.5619 20.5061 14.7757 20.5975C14.9896 20.6889 15.2194 20.7371 15.4519 20.7394H16.3631C16.6159 20.7418 16.8575 20.8439 17.0353 21.0235C17.2132 21.2031 17.313 21.4457 17.313 21.6984C17.313 21.9512 17.2132 22.1937 17.0353 22.3733C16.8575 22.5529 16.6159 22.6551 16.3631 22.6575H14.0906C13.9857 22.66 13.8858 22.7035 13.8125 22.7787C13.7391 22.8538 13.6981 22.9547 13.6981 23.0597C13.6981 23.1647 13.7391 23.2655 13.8125 23.3407C13.8858 23.4158 13.9857 23.4593 14.0906 23.4619H15.5081V24.0637C15.5081 24.1697 15.5502 24.2713 15.6251 24.3462C15.7 24.421 15.8016 24.4631 15.9075 24.4631C16.0134 24.4631 16.115 24.421 16.1899 24.3462C16.2648 24.2713 16.3069 24.1697 16.3069 24.0637V23.4619H16.3631C16.828 23.4576 17.2725 23.27 17.5997 22.9397C17.927 22.6095 18.1106 22.1634 18.1106 21.6984C18.1106 21.2335 17.927 20.7874 17.5997 20.4571C17.2725 20.1269 16.828 19.9392 16.3631 19.935ZM16.3631 19.935H15.4519C15.1994 19.9321 14.9583 19.8298 14.7807 19.6503C14.6032 19.4707 14.5037 19.2284 14.5037 18.9759C14.5037 18.7234 14.6032 18.4811 14.7807 18.3016C14.9583 18.122 15.1994 18.0197 15.4519 18.0169H17.7244C17.7772 18.0165 17.8294 18.0058 17.8781 17.9852C17.9268 17.9647 17.9709 17.9347 18.008 17.8971C18.0451 17.8595 18.0744 17.815 18.0942 17.766C18.1141 17.7171 18.1241 17.6647 18.1238 17.6119C18.124 17.5594 18.1139 17.5073 18.0939 17.4587C18.0739 17.4101 18.0445 17.366 18.0074 17.3289C17.9703 17.2917 17.9261 17.2623 17.8775 17.2423C17.829 17.2224 17.7769 17.2122 17.7244 17.2125H16.3069V16.605C16.3069 16.4991 16.2648 16.3975 16.1899 16.3226C16.115 16.2477 16.0134 16.2056 15.9075 16.2056C15.8016 16.2056 15.7 16.2477 15.6251 16.3226C15.5502 16.3975 15.5081 16.4991 15.5081 16.605V17.2125C15.2757 17.2073 15.0444 17.2482 14.8278 17.3327C14.6112 17.4173 14.4134 17.5438 14.2459 17.7051C14.0783 17.8663 13.9443 18.0591 13.8516 18.2724C13.7589 18.4856 13.7092 18.7151 13.7055 18.9476C13.7018 19.1801 13.7441 19.4111 13.83 19.6272C13.9159 19.8433 14.0437 20.0403 14.206 20.2068C14.3683 20.3733 14.5619 20.5061 14.7757 20.5975C14.9896 20.6889 15.2194 20.7371 15.4519 20.7394H16.3631C16.6159 20.7418 16.8575 20.8439 17.0353 21.0235C17.2132 21.2031 17.313 21.4457 17.313 21.6984C17.313 21.9512 17.2132 22.1937 17.0353 22.3733C16.8575 22.5529 16.6159 22.6551 16.3631 22.6575H14.0906C13.9857 22.66 13.8858 22.7035 13.8125 22.7787C13.7391 22.8538 13.6981 22.9547 13.6981 23.0597C13.6981 23.1647 13.7391 23.2655 13.8125 23.3407C13.8858 23.4158 13.9857 23.4593 14.0906 23.4619H15.5081V24.0637C15.5081 24.1697 15.5502 24.2713 15.6251 24.3462C15.7 24.421 15.8016 24.4631 15.9075 24.4631C16.0134 24.4631 16.115 24.421 16.1899 24.3462C16.2648 24.2713 16.3069 24.1697 16.3069 24.0637V23.4619H16.3631C16.828 23.4576 17.2725 23.27 17.5997 22.9397C17.927 22.6095 18.1106 22.1634 18.1106 21.6984C18.1106 21.2335 17.927 20.7874 17.5997 20.4571C17.2725 20.1269 16.828 19.9392 16.3631 19.935ZM16.3631 19.935H15.4519C15.1994 19.9321 14.9583 19.8298 14.7807 19.6503C14.6032 19.4707 14.5037 19.2284 14.5037 18.9759C14.5037 18.7234 14.6032 18.4811 14.7807 18.3016C14.9583 18.122 15.1994 18.0197 15.4519 18.0169H17.7244C17.7772 18.0165 17.8294 18.0058 17.8781 17.9852C17.9268 17.9647 17.9709 17.9347 18.008 17.8971C18.0451 17.8595 18.0744 17.815 18.0942 17.766C18.1141 17.7171 18.1241 17.6647 18.1238 17.6119C18.124 17.5594 18.1139 17.5073 18.0939 17.4587C18.0739 17.4101 18.0445 17.366 18.0074 17.3289C17.9703 17.2917 17.9261 17.2623 17.8775 17.2423C17.829 17.2224 17.7769 17.2122 17.7244 17.2125H16.3069V16.605C16.3069 16.4991 16.2648 16.3975 16.1899 16.3226C16.115 16.2477 16.0134 16.2056 15.9075 16.2056C15.8016 16.2056 15.7 16.2477 15.6251 16.3226C15.5502 16.3975 15.5081 16.4991 15.5081 16.605V17.2125C15.2757 17.2073 15.0444 17.2482 14.8278 17.3327C14.6112 17.4173 14.4134 17.5438 14.2459 17.7051C14.0783 17.8663 13.9443 18.0591 13.8516 18.2724C13.7589 18.4856 13.7092 18.7151 13.7055 18.9476C13.7018 19.1801 13.7441 19.4111 13.83 19.6272C13.9159 19.8433 14.0437 20.0403 14.206 20.2068C14.3683 20.3733 14.5619 20.5061 14.7757 20.5975C14.9896 20.6889 15.2194 20.7371 15.4519 20.7394H16.3631C16.6159 20.7418 16.8575 20.8439 17.0353 21.0235C17.2132 21.2031 17.313 21.4457 17.313 21.6984C17.313 21.9512 17.2132 22.1937 17.0353 22.3733C16.8575 22.5529 16.6159 22.6551 16.3631 22.6575H14.0906C13.9857 22.66 13.8858 22.7035 13.8125 22.7787C13.7391 22.8538 13.6981 22.9547 13.6981 23.0597C13.6981 23.1647 13.7391 23.2655 13.8125 23.3407C13.8858 23.4158 13.9857 23.4593 14.0906 23.4619H15.5081V24.0637C15.5081 24.1697 15.5502 24.2713 15.6251 24.3462C15.7 24.421 15.8016 24.4631 15.9075 24.4631C16.0134 24.4631 16.115 24.421 16.1899 24.3462C16.2648 24.2713 16.3069 24.1697 16.3069 24.0637V23.4619H16.3631C16.828 23.4576 17.2725 23.27 17.5997 22.9397C17.927 22.6095 18.1106 22.1634 18.1106 21.6984C18.1106 21.2335 17.927 20.7874 17.5997 20.4571C17.2725 20.1269 16.828 19.9392 16.3631 19.935ZM16.3631 19.935H15.4519C15.1994 19.9321 14.9583 19.8298 14.7807 19.6503C14.6032 19.4707 14.5037 19.2284 14.5037 18.9759C14.5037 18.7234 14.6032 18.4811 14.7807 18.3016C14.9583 18.122 15.1994 18.0197 15.4519 18.0169H17.7244C17.7772 18.0165 17.8294 18.0058 17.8781 17.9852C17.9268 17.9647 17.9709 17.9347 18.008 17.8971C18.0451 17.8595 18.0744 17.815 18.0942 17.766C18.1141 17.7171 18.1241 17.6647 18.1238 17.6119C18.124 17.5594 18.1139 17.5073 18.0939 17.4587C18.0739 17.4101 18.0445 17.366 18.0074 17.3289C17.9703 17.2917 17.9261 17.2623 17.8775 17.2423C17.829 17.2224 17.7769 17.2122 17.7244 17.2125H16.3069V16.605C16.3069 16.4991 16.2648 16.3975 16.1899 16.3226C16.115 16.2477 16.0134 16.2056 15.9075 16.2056C15.8016 16.2056 15.7 16.2477 15.6251 16.3226C15.5502 16.3975 15.5081 16.4991 15.5081 16.605V17.2125C15.2757 17.2073 15.0444 17.2482 14.8278 17.3327C14.6112 17.4173 14.4134 17.5438 14.2459 17.7051C14.0783 17.8663 13.9443 18.0591 13.8516 18.2724C13.7589 18.4856 13.7092 18.7151 13.7055 18.9476C13.7018 19.1801 13.7441 19.4111 13.83 19.6272C13.9159 19.8433 14.0437 20.0403 14.206 20.2068C14.3683 20.3733 14.5619 20.5061 14.7757 20.5975C14.9896 20.6889 15.2194 20.7371 15.4519 20.7394H16.3631C16.6159 20.7418 16.8575 20.8439 17.0353 21.0235C17.2132 21.2031 17.313 21.4457 17.313 21.6984C17.313 21.9512 17.2132 22.1937 17.0353 22.3733C16.8575 22.5529 16.6159 22.6551 16.3631 22.6575H14.0906C13.9857 22.66 13.8858 22.7035 13.8125 22.7787C13.7391 22.8538 13.6981 22.9547 13.6981 23.0597C13.6981 23.1647 13.7391 23.2655 13.8125 23.3407C13.8858 23.4158 13.9857 23.4593 14.0906 23.4619H15.5081V24.0637C15.5081 24.1697 15.5502 24.2713 15.6251 24.3462C15.7 24.421 15.8016 24.4631 15.9075 24.4631C16.0134 24.4631 16.115 24.421 16.1899 24.3462C16.2648 24.2713 16.3069 24.1697 16.3069 24.0637V23.4619H16.3631C16.828 23.4576 17.2725 23.27 17.5997 22.9397C17.927 22.6095 18.1106 22.1634 18.1106 21.6984C18.1106 21.2335 17.927 20.7874 17.5997 20.4571C17.2725 20.1269 16.828 19.9392 16.3631 19.935ZM16.3631 19.935H15.4519C15.1994 19.9321 14.9583 19.8298 14.7807 19.6503C14.6032 19.4707 14.5037 19.2284 14.5037 18.9759C14.5037 18.7234 14.6032 18.4811 14.7807 18.3016C14.9583 18.122 15.1994 18.0197 15.4519 18.0169H17.7244C17.7772 18.0165 17.8294 18.0058 17.8781 17.9852C17.9268 17.9647 17.9709 17.9347 18.008 17.8971C18.0451 17.8595 18.0744 17.815 18.0942 17.766C18.1141 17.7171 18.1241 17.6647 18.1238 17.6119C18.124 17.5594 18.1139 17.5073 18.0939 17.4587C18.0739 17.4101 18.0445 17.366 18.0074 17.3289C17.9703 17.2917 17.9261 17.2623 17.8775 17.2423C17.829 17.2224 17.7769 17.2122 17.7244 17.2125H16.3069V16.605C16.3069 16.4991 16.2648 16.3975 16.1899 16.3226C16.115 16.2477 16.0134 16.2056 15.9075 16.2056C15.8016 16.2056 15.7 16.2477 15.6251 16.3226C15.5502 16.3975 15.5081 16.4991 15.5081 16.605V17.2125C15.2757 17.2073 15.0444 17.2482 14.8278 17.3327C14.6112 17.4173 14.4134 17.5438 14.2459 17.7051C14.0783 17.8663 13.9443 18.0591 13.8516 18.2724C13.7589 18.4856 13.7092 18.7151 13.7055 18.9476C13.7018 19.1801 13.7441 19.4111 13.83 19.6272C13.9159 19.8433 14.0437 20.0403 14.206 20.2068C14.3683 20.3733 14.5619 20.5061 14.7757 20.5975C14.9896 20.6889 15.2194 20.7371 15.4519 20.7394H16.3631C16.6159 20.7418 16.8575 20.8439 17.0353 21.0235C17.2132 21.2031 17.313 21.4457 17.313 21.6984C17.313 21.9512 17.2132 22.1937 17.0353 22.3733C16.8575 22.5529 16.6159 22.6551 16.3631 22.6575H14.0906C13.9857 22.66 13.8858 22.7035 13.8125 22.7787C13.7391 22.8538 13.6981 22.9547 13.6981 23.0597C13.6981 23.1647 13.7391 23.2655 13.8125 23.3407C13.8858 23.4158 13.9857 23.4593 14.0906 23.4619H15.5081V24.0637C15.5081 24.1697 15.5502 24.2713 15.6251 24.3462C15.7 24.421 15.8016 24.4631 15.9075 24.4631C16.0134 24.4631 16.115 24.421 16.1899 24.3462C16.2648 24.2713 16.3069 24.1697 16.3069 24.0637V23.4619H16.3631C16.828 23.4576 17.2725 23.27 17.5997 22.9397C17.927 22.6095 18.1106 22.1634 18.1106 21.6984C18.1106 21.2335 17.927 20.7874 17.5997 20.4571C17.2725 20.1269 16.828 19.9392 16.3631 19.935ZM16.3631 19.935H15.4519C15.1994 19.9321 14.9583 19.8298 14.7807 19.6503C14.6032 19.4707 14.5037 19.2284 14.5037 18.9759C14.5037 18.7234 14.6032 18.4811 14.7807 18.3016C14.9583 18.122 15.1994 18.0197 15.4519 18.0169H17.7244C17.7772 18.0165 17.8294 18.0058 17.8781 17.9852C17.9268 17.9647 17.9709 17.9347 18.008 17.8971C18.0451 17.8595 18.0744 17.815 18.0942 17.766C18.1141 17.7171 18.1241 17.6647 18.1238 17.6119C18.124 17.5594 18.1139 17.5073 18.0939 17.4587C18.0739 17.4101 18.0445 17.366 18.0074 17.3289C17.9703 17.2917 17.9261 17.2623 17.8775 17.2423C17.829 17.2224 17.7769 17.2122 17.7244 17.2125H16.3069V16.605C16.3069 16.4991 16.2648 16.3975 16.1899 16.3226C16.115 16.2477 16.0134 16.2056 15.9075 16.2056C15.8016 16.2056 15.7 16.2477 15.6251 16.3226C15.5502 16.3975 15.5081 16.4991 15.5081 16.605V17.2125C15.2757 17.2073 15.0444 17.2482 14.8278 17.3327C14.6112 17.4173 14.4134 17.5438 14.2459 17.7051C14.0783 17.8663 13.9443 18.0591 13.8516 18.2724C13.7589 18.4856 13.7092 18.7151 13.7055 18.9476C13.7018 19.1801 13.7441 19.4111 13.83 19.6272C13.9159 19.8433 14.0437 20.0403 14.206 20.2068C14.3683 20.3733 14.5619 20.5061 14.7757 20.5975C14.9896 20.6889 15.2194 20.7371 15.4519 20.7394H16.3631C16.6159 20.7418 16.8575 20.8439 17.0353 21.0235C17.2132 21.2031 17.313 21.4457 17.313 21.6984C17.313 21.9512 17.2132 22.1937 17.0353 22.3733C16.8575 22.5529 16.6159 22.6551 16.3631 22.6575H14.0906C13.9857 22.66 13.8858 22.7035 13.8125 22.7787C13.7391 22.8538 13.6981 22.9547 13.6981 23.0597C13.6981 23.1647 13.7391 23.2655 13.8125 23.3407C13.8858 23.4158 13.9857 23.4593 14.0906 23.4619H15.5081V24.0637C15.5081 24.1697 15.5502 24.2713 15.6251 24.3462C15.7 24.421 15.8016 24.4631 15.9075 24.4631C16.0134 24.4631 16.115 24.421 16.1899 24.3462C16.2648 24.2713 16.3069 24.1697 16.3069 24.0637V23.4619H16.3631C16.828 23.4576 17.2725 23.27 17.5997 22.9397C17.927 22.6095 18.1106 22.1634 18.1106 21.6984C18.1106 21.2335 17.927 20.7874 17.5997 20.4571C17.2725 20.1269 16.828 19.9392 16.3631 19.935ZM16.3631 19.935H15.4519C15.1994 19.9321 14.9583 19.8298 14.7807 19.6503C14.6032 19.4707 14.5037 19.2284 14.5037 18.9759C14.5037 18.7234 14.6032 18.4811 14.7807 18.3016C14.9583 18.122 15.1994 18.0197 15.4519 18.0169H17.7244C17.7772 18.0165 17.8294 18.0058 17.8781 17.9852C17.9268 17.9647 17.9709 17.9347 18.008 17.8971C18.0451 17.8595 18.0744 17.815 18.0942 17.766C18.1141 17.7171 18.1241 17.6647 18.1238 17.6119C18.124 17.5594 18.1139 17.5073 18.0939 17.4587C18.0739 17.4101 18.0445 17.366 18.0074 17.3289C17.9703 17.2917 17.9261 17.2623 17.8775 17.2423C17.829 17.2224 17.7769 17.2122 17.7244 17.2125H16.3069V16.605C16.3069 16.4991 16.2648 16.3975 16.1899 16.3226C16.115 16.2477 16.0134 16.2056 15.9075 16.2056C15.8016 16.2056 15.7 16.2477 15.6251 16.3226C15.5502 16.3975 15.5081 16.4991 15.5081 16.605V17.2125C15.2757 17.2073 15.0444 17.2482 14.8278 17.3327C14.6112 17.4173 14.4134 17.5438 14.2459 17.7051C14.0783 17.8663 13.9443 18.0591 13.8516 18.2724C13.7589 18.4856 13.7092 18.7151 13.7055 18.9476C13.7018 19.1801 13.7441 19.4111 13.83 19.6272C13.9159 19.8433 14.0437 20.0403 14.206 20.2068C14.3683 20.3733 14.5619 20.5061 14.7757 20.5975C14.9896 20.6889 15.2194 20.7371 15.4519 20.7394H16.3631C16.6159 20.7418 16.8575 20.8439 17.0353 21.0235C17.2132 21.2031 17.313 21.4457 17.313 21.6984C17.313 21.9512 17.2132 22.1937 17.0353 22.3733C16.8575 22.5529 16.6159 22.6551 16.3631 22.6575H14.0906C13.9857 22.66 13.8858 22.7035 13.8125 22.7787C13.7391 22.8538 13.6981 22.9547 13.6981 23.0597C13.6981 23.1647 13.7391 23.2655 13.8125 23.3407C13.8858 23.4158 13.9857 23.4593 14.0906 23.4619H15.5081V24.0637C15.5081 24.1697 15.5502 24.2713 15.6251 24.3462C15.7 24.421 15.8016 24.4631 15.9075 24.4631C16.0134 24.4631 16.115 24.421 16.1899 24.3462C16.2648 24.2713 16.3069 24.1697 16.3069 24.0637V23.4619H16.3631C16.828 23.4576 17.2725 23.27 17.5997 22.9397C17.927 22.6095 18.1106 22.1634 18.1106 21.6984C18.1106 21.2335 17.927 20.7874 17.5997 20.4571C17.2725 20.1269 16.828 19.9392 16.3631 19.935ZM16.3631 19.935H15.4519C15.1994 19.9321 14.9583 19.8298 14.7807 19.6503C14.6032 19.4707 14.5037 19.2284 14.5037 18.9759C14.5037 18.7234 14.6032 18.4811 14.7807 18.3016C14.9583 18.122 15.1994 18.0197 15.4519 18.0169H17.7244C17.7772 18.0165 17.8294 18.0058 17.8781 17.9852C17.9268 17.9647 17.9709 17.9347 18.008 17.8971C18.0451 17.8595 18.0744 17.815 18.0942 17.766C18.1141 17.7171 18.1241 17.6647 18.1238 17.6119C18.124 17.5594 18.1139 17.5073 18.0939 17.4587C18.0739 17.4101 18.0445 17.366 18.0074 17.3289C17.9703 17.2917 17.9261 17.2623 17.8775 17.2423C17.829 17.2224 17.7769 17.2122 17.7244 17.2125H16.3069V16.605C16.3069 16.4991 16.2648 16.3975 16.1899 16.3226C16.115 16.2477 16.0134 16.2056 15.9075 16.2056C15.8016 16.2056 15.7 16.2477 15.6251 16.3226C15.5502 16.3975 15.5081 16.4991 15.5081 16.605V17.2125C15.2757 17.2073 15.0444 17.2482 14.8278 17.3327C14.6112 17.4173 14.4134 17.5438 14.2459 17.7051C14.0783 17.8663 13.9443 18.0591 13.8516 18.2724C13.7589 18.4856 13.7092 18.7151 13.7055 18.9476C13.7018 19.1801 13.7441 19.4111 13.83 19.6272C13.9159 19.8433 14.0437 20.0403 14.206 20.2068C14.3683 20.3733 14.5619 20.5061 14.7757 20.5975C14.9896 20.6889 15.2194 20.7371 15.4519 20.7394H16.3631C16.6159 20.7418 16.8575 20.8439 17.0353 21.0235C17.2132 21.2031 17.313 21.4457 17.313 21.6984C17.313 21.9512 17.2132 22.1937 17.0353 22.3733C16.8575 22.5529 16.6159 22.6551 16.3631 22.6575H14.0906C13.9857 22.66 13.8858 22.7035 13.8125 22.7787C13.7391 22.8538 13.6981 22.9547 13.6981 23.0597C13.6981 23.1647 13.7391 23.2655 13.8125 23.3407C13.8858 23.4158 13.9857 23.4593 14.0906 23.4619H15.5081V24.0637C15.5081 24.1697 15.5502 24.2713 15.6251 24.3462C15.7 24.421 15.8016 24.4631 15.9075 24.4631C16.0134 24.4631 16.115 24.421 16.1899 24.3462C16.2648 24.2713 16.3069 24.1697 16.3069 24.0637V23.4619H16.3631C16.828 23.4576 17.2725 23.27 17.5997 22.9397C17.927 22.6095 18.1106 22.1634 18.1106 21.6984C18.1106 21.2335 17.927 20.7874 17.5997 20.4571C17.2725 20.1269 16.828 19.9392 16.3631 19.935ZM16.3631 19.935H15.4519C15.1994 19.9321 14.9583 19.8298 14.7807 19.6503C14.6032 19.4707 14.5037 19.2284 14.5037 18.9759C14.5037 18.7234 14.6032 18.4811 14.7807 18.3016C14.9583 18.122 15.1994 18.0197 15.4519 18.0169H17.7244C17.7772 18.0165 17.8294 18.0058 17.8781 17.9852C17.9268 17.9647 17.9709 17.9347 18.008 17.8971C18.0451 17.8595 18.0744 17.815 18.0942 17.766C18.1141 17.7171 18.1241 17.6647 18.1238 17.6119C18.124 17.5594 18.1139 17.5073 18.0939 17.4587C18.0739 17.4101 18.0445 17.366 18.0074 17.3289C17.9703 17.2917 17.9261 17.2623 17.8775 17.2423C17.829 17.2224 17.7769 17.2122 17.7244 17.2125H16.3069V16.605C16.3069 16.4991 16.2648 16.3975 16.1899 16.3226C16.115 16.2477 16.0134 16.2056 15.9075 16.2056C15.8016 16.2056 15.7 16.2477 15.6251 16.3226C15.5502 16.3975 15.5081 16.4991 15.5081 16.605V17.2125C15.2757 17.2073 15.0444 17.2482 14.8278 17.3327C14.6112 17.4173 14.4134 17.5438 14.2459 17.7051C14.0783 17.8663 13.9443 18.0591 13.8516 18.2724C13.7589 18.4856 13.7092 18.7151 13.7055 18.9476C13.7018 19.1801 13.7441 19.4111 13.83 19.6272C13.9159 19.8433 14.0437 20.0403 14.206 20.2068C14.3683 20.3733 14.5619 20.5061 14.7757 20.5975C14.9896 20.6889 15.2194 20.7371 15.4519 20.7394H16.3631C16.6159 20.7418 16.8575 20.8439 17.0353 21.0235C17.2132 21.2031 17.313 21.4457 17.313 21.6984C17.313 21.9512 17.2132 22.1937 17.0353 22.3733C16.8575 22.5529 16.6159 22.6551 16.3631 22.6575H14.0906C13.9857 22.66 13.8858 22.7035 13.8125 22.7787C13.7391 22.8538 13.6981 22.9547 13.6981 23.0597C13.6981 23.1647 13.7391 23.2655 13.8125 23.3407C13.8858 23.4158 13.9857 23.4593 14.0906 23.4619H15.5081V24.0637C15.5081 24.1697 15.5502 24.2713 15.6251 24.3462C15.7 24.421 15.8016 24.4631 15.9075 24.4631C16.0134 24.4631 16.115 24.421 16.1899 24.3462C16.2648 24.2713 16.3069 24.1697 16.3069 24.0637V23.4619H16.3631C16.828 23.4576 17.2725 23.27 17.5997 22.9397C17.927 22.6095 18.1106 22.1634 18.1106 21.6984C18.1106 21.2335 17.927 20.7874 17.5997 20.4571C17.2725 20.1269 16.828 19.9392 16.3631 19.935Z" fill="#0C1101"/>
</g>
<defs>
<clipPath id="clip0_8565_86800">
<rect width="36" height="36" fill="white"/>
</clipPath>
</defs>
</svg>
