<svg width="181" height="37" viewBox="0 0 181 37" fill="none" xmlns="http://www.w3.org/2000/svg">
<g id="NextGen">
<g id="EN">
<path d="M130.145 30.4336V0.546875H150.876V6.41332H137.331V12.5424H149.816V18.4235H137.331V24.5672H150.876V30.4336H130.145Z" fill="#3C96E8"/>
<path d="M180.68 0.546875V30.4336H174.583L162.751 13.1845H162.562V30.4336H155.376V0.546875H161.561L173.262 17.7668H173.509V0.546875H180.68Z" fill="#3C96E8"/>
</g>
<path id="G" d="M117.036 10.4459C116.87 9.833 116.626 9.29309 116.303 8.82614C115.98 8.34946 115.584 7.94575 115.115 7.61499C114.645 7.28424 114.107 7.03617 113.501 6.87079C112.894 6.69569 112.229 6.60813 111.506 6.60813C110.048 6.60813 108.787 6.95834 107.72 7.65877C106.664 8.35919 105.847 9.38064 105.27 10.7231C104.693 12.0559 104.405 13.6756 104.405 15.5823C104.405 17.4987 104.684 19.133 105.241 20.4853C105.799 21.8375 106.605 22.8686 107.662 23.5788C108.718 24.2889 109.999 24.644 111.506 24.644C112.836 24.644 113.96 24.43 114.88 24.002C115.809 23.5642 116.513 22.9465 116.992 22.1488C117.472 21.3511 117.711 20.4123 117.711 19.3325L119.061 19.493H111.755V14.2252H124.709V18.1797C124.709 20.8549 124.137 23.1459 122.993 25.0526C121.858 26.9593 120.293 28.4234 118.298 29.4448C116.313 30.4663 114.029 30.977 111.447 30.977C108.581 30.977 106.063 30.3593 103.891 29.1238C101.72 27.8883 100.028 26.1275 98.8153 23.8414C97.6025 21.5456 96.9961 18.8217 96.9961 15.6698C96.9961 13.2184 97.3629 11.0441 98.0964 9.14717C98.8299 7.24046 99.852 5.6256 101.163 4.30258C102.483 2.97956 104.009 1.97756 105.74 1.2966C107.481 0.615629 109.354 0.275146 111.359 0.275146C113.1 0.275146 114.718 0.523213 116.215 1.01935C117.721 1.51548 119.051 2.2159 120.205 3.12061C121.369 4.02533 122.313 5.10028 123.037 6.34548C123.761 7.59067 124.21 8.95747 124.387 10.4459H117.036Z" fill="#3C96E8"/>
<g id="ne">
<path d="M7.11219 17.3253V30.5396H0V7.36932H6.76312V11.6232H7.01038C7.50489 10.2053 8.34846 9.09402 9.5411 8.28949C10.7337 7.47492 12.1542 7.06763 13.8026 7.06763C15.3734 7.06763 16.7357 7.43469 17.8896 8.16882C19.0531 8.89289 19.9549 9.9086 20.5948 11.2159C21.2445 12.5132 21.5644 14.0318 21.5547 15.7716V30.5396H14.4425V17.2197C14.4522 15.9325 14.1371 14.9268 13.4972 14.2027C12.8669 13.4787 11.9894 13.1166 10.8646 13.1166C10.118 13.1166 9.45868 13.2876 8.8866 13.6295C8.32422 13.9614 7.88789 14.4391 7.57761 15.0626C7.27703 15.6861 7.12189 16.4403 7.11219 17.3253Z" fill="black"/>
<path d="M36.4009 30.977C34.0641 30.977 32.0473 30.4993 30.3504 29.544C28.6633 28.5786 27.364 27.2058 26.4525 25.4258C25.5508 23.6358 25.0999 21.5088 25.0999 19.045C25.0999 16.6515 25.5556 14.5597 26.4671 12.7697C27.3785 10.9696 28.6633 9.5717 30.3213 8.5761C31.9794 7.57045 33.9332 7.06763 36.1827 7.06763C37.7729 7.06763 39.2273 7.32407 40.546 7.83695C41.8647 8.34983 43.004 9.1091 43.964 10.1148C44.9239 11.1204 45.6705 12.3624 46.2038 13.8407C46.7371 15.309 47.0037 16.9934 47.0037 18.8941V20.7345H27.587V16.4504H40.386C40.3763 15.666 40.197 14.967 39.8479 14.3536C39.4988 13.7401 39.0189 13.2625 38.408 12.9205C37.8068 12.5685 37.1136 12.3926 36.3282 12.3926C35.5331 12.3926 34.8204 12.5786 34.1901 12.9507C33.5599 13.3127 33.0605 13.8105 32.6921 14.4441C32.3236 15.0676 32.1297 15.7766 32.1103 16.571V20.9306C32.1103 21.8759 32.2897 22.7055 32.6484 23.4195C33.0072 24.1235 33.5163 24.6716 34.1756 25.0638C34.8349 25.456 35.6203 25.6521 36.5318 25.6521C37.162 25.6521 37.7341 25.5616 38.248 25.3806C38.7619 25.1996 39.2031 24.9331 39.5716 24.5811C39.94 24.2291 40.2164 23.7967 40.4006 23.2838L46.931 23.4799C46.6595 24.9984 46.0632 26.3209 45.142 27.4472C44.2306 28.5635 43.0331 29.4334 41.5496 30.0569C40.0661 30.6703 38.3498 30.977 36.4009 30.977Z" fill="black"/>
</g>
<path id="t" d="M91.2776 9.21521V14.2399H80.4224V9.21521H91.2776ZM80.4227 4.07886H87.3523V23.9125C87.3523 24.3312 87.4184 24.6708 87.5506 24.9314C87.6924 25.1826 87.8955 25.364 88.16 25.4757C88.4245 25.578 88.741 25.6292 89.1094 25.6292C89.374 25.6292 89.6526 25.606 89.9455 25.5594C90.2478 25.5036 91.5232 24.9686 91.6743 24.9314V30.3469C91.3437 30.4399 90.8761 30.5562 90.2714 30.6958C89.6763 30.8354 88.963 30.9238 88.1316 30.961C86.5067 31.0354 85.1133 30.8493 83.9513 30.4027C82.7987 29.9467 81.9154 29.2396 81.3013 28.2811C80.6967 27.3227 80.4038 26.1177 80.4227 24.6662V4.07886Z" fill="black"/>
<g id="Group 4978">
<path id="Vector 315" d="M63.5781 24.1844L66.2951 19.2938L63.5781 14.5686L68.6045 8.29004H77.0272L68.3328 19.2938L77.0272 30.841H68.6045L63.5781 24.1844Z" fill="#0B2F3D"/>
<path id="Vector 314" d="M56.9183 2.99194H45.3711L56.239 19.2938L45.3711 36.2749H56.9183L66.2918 19.2938L56.9183 2.99194Z" fill="#3C96E8"/>
</g>
</g>
</svg>
