<svg width="201" height="40" viewBox="0 0 201 40" fill="none" xmlns="http://www.w3.org/2000/svg">
<g id="logos:nvidia" clip-path="url(#clip0_4506_79661)">
<path id="Vector" d="M122.673 7.5077V33.564H129.71V7.5077H122.673ZM67.3047 7.46362V33.542H74.4055V13.293L79.9422 13.3151C81.7598 13.3151 83.0277 13.7787 83.8941 14.7506C85.0141 15.9873 85.4578 17.9963 85.4578 21.6399V33.542H92.3473V19.1444C92.3473 8.85464 86.0707 7.46362 79.9422 7.46362H67.3047ZM134.021 7.5077V33.564H145.432C151.518 33.564 153.505 32.504 155.639 30.1412C157.161 28.4853 158.133 24.8195 158.133 20.8228C158.133 17.1575 157.309 13.8893 155.851 11.8579C153.273 8.21424 149.511 7.5077 143.89 7.5077H134.021ZM140.995 13.1608H144.016C148.412 13.1608 151.244 15.2138 151.244 20.5579C151.244 25.9016 148.412 27.9771 144.016 27.9771H140.995V13.1608ZM112.529 7.5077L106.654 28.1538L101.033 7.5077H93.4246L101.455 33.564H111.598L119.714 7.5077H112.529H112.529ZM161.43 33.564H168.467V7.5077H161.43V33.564ZM181.168 7.5077L171.341 33.542H178.273L179.837 28.9269H191.459L192.939 33.5195H200.483L190.572 7.5073L181.168 7.5077ZM185.732 12.2551L190.002 24.444H181.337L185.732 12.2551Z" fill="#0C1101"/>
<path id="Vector_2" d="M21.8898 11.8355V8.25837C22.2281 8.23633 22.566 8.21429 22.9043 8.21429C32.2871 7.90531 38.4367 16.6494 38.4367 16.6494C38.4367 16.6494 31.8012 26.2775 24.6793 26.2775C23.7285 26.2775 22.7984 26.1229 21.9109 25.8139V14.9494C25.5672 15.4131 26.3066 17.091 28.4832 20.911L33.3652 16.6273C33.3652 16.6273 29.7938 11.7473 23.7922 11.7473C23.1582 11.7253 22.5238 11.7694 21.8898 11.8355ZM21.8902 0V5.34367L22.9047 5.27755C35.9438 4.81388 44.4602 16.4506 44.4602 16.4506C44.4602 16.4506 34.6961 28.8604 24.5316 28.8604C23.6438 28.8604 22.7777 28.7722 21.9109 28.6175V31.9298C22.6297 32.0184 23.3691 32.0845 24.0875 32.0845C33.5551 32.0845 40.402 27.0278 47.0379 21.0657C48.1367 21.9931 52.6379 24.2233 53.568 25.1951C47.2703 30.7155 32.5832 35.1539 24.2566 35.1539C23.4801 35.1551 22.7042 35.1108 21.9324 35.0212V39.6804H57.9V0L21.8902 0ZM21.8902 25.8135V28.6396C13.1414 27.0057 10.7109 17.4886 10.7109 17.4886C10.7109 17.4886 14.916 12.6306 21.8898 11.8355L21.8902 14.9269H21.8691C18.2129 14.4633 15.3391 18.0404 15.3391 18.0404C15.3391 18.0404 16.9664 24.069 21.8902 25.8135ZM6.35742 17.091C6.35742 17.091 11.5348 9.09755 21.9109 8.25837V5.34408C10.4148 6.3151 0.482422 16.4722 0.482422 16.4722C0.482422 16.4722 6.10352 33.4751 21.8898 35.0208V31.9294C10.309 30.4286 6.35742 17.091 6.35742 17.091Z" fill="url(#paint0_linear_4506_79661)"/>
</g>
<defs>
<linearGradient id="paint0_linear_4506_79661" x1="17.2549" y1="-9.45788" x2="38.9399" y2="31.5491" gradientUnits="userSpaceOnUse">
<stop stop-color="#D9FF8A"/>
<stop offset="1" stop-color="#91C65C"/>
</linearGradient>
<clipPath id="clip0_4506_79661">
<rect width="200" height="40" fill="white" transform="translate(0.482422)"/>
</clipPath>
</defs>
</svg>
