<svg width="18" height="31" viewBox="0 0 18 31" fill="none" xmlns="http://www.w3.org/2000/svg">
<g id="Group">
<path id="Vector" d="M3.90688 22.4942L3.90753 21.8023C3.90779 21.5589 3.81279 21.3423 3.64005 21.1694C3.46744 20.9966 3.23824 20.9141 2.99481 20.9141H2.95182C2.70825 20.9141 2.47906 20.9965 2.30631 21.1697C2.1337 21.3425 2.03883 21.5656 2.03936 21.8089L2.0404 22.4975C1.75502 22.5151 1.48859 22.6322 1.28409 22.8371C1.06208 23.0595 0.939909 23.3537 0.940431 23.6667L0.949709 29.3801C0.950885 30.0274 1.47839 30.5836 2.1256 30.5836H3.82547C4.47306 30.5836 5.00031 30.0269 5.00083 29.3794L5.00672 23.6806C5.00711 23.3675 4.8848 23.0653 4.66279 22.8429C4.4583 22.6382 4.192 22.512 3.90688 22.4942Z" fill="white"/>
<path id="Vector_2" d="M16.9897 12.4126L14.5326 8.97727C14.0827 8.35019 13.1254 7.84712 12.3534 7.84712H11.7977H11.5245C12.6409 7.19377 13.3858 5.92498 13.3858 4.51532C13.386 2.344 11.6195 0.583496 9.44814 0.583496C7.27694 0.583496 5.51043 2.34099 5.51043 4.51232C5.51043 5.92197 6.25537 7.19377 7.37181 7.84712H7.23134H7.09858H6.54284C5.77085 7.84712 4.8137 8.35032 4.36368 8.97727L1.90671 12.4065C1.43526 13.0635 1.40913 14.1133 1.84739 14.7927L3.69871 17.6649C4.09006 18.2716 4.89668 18.7563 5.59732 18.824C5.76706 19.1454 6.03716 19.4052 6.3654 19.5633L6.37794 28.0724C6.3799 29.4404 7.49438 30.5834 8.86235 30.5834H10.0411C11.4092 30.5834 12.5232 29.4404 12.5243 28.0726L12.5323 19.578C12.8599 19.4198 13.1296 19.1532 13.2991 18.8323C13.9999 18.7645 14.8065 18.277 15.1977 17.6703L17.049 14.7977C17.4871 14.1183 17.4611 13.0697 16.9897 12.4126ZM5.38015 15.711L4.62371 14.6284C4.3548 14.249 4.37753 13.6048 4.67807 13.2499L5.38015 12.4148V15.711ZM9.44814 15.6814L7.93512 14.7771L8.57056 9.54568H10.3257L10.9612 14.7771L9.44814 15.6814ZM14.2629 14.6283L13.4816 15.7109V12.5708L14.156 13.3001C14.4729 13.6405 14.5319 14.2487 14.2629 14.6283Z" fill="white"/>
</g>
</svg>
