<svg width="30" height="31" viewBox="0 0 30 31" fill="none" xmlns="http://www.w3.org/2000/svg">
<g id="clarity:plus-line" clip-path="url(#clip0_13724_9167)">
<g id="Vector">
<path d="M24.9999 14.8838H15.8332V5.71712C15.8332 5.49611 15.7454 5.28415 15.5892 5.12787C15.4329 4.97159 15.2209 4.88379 14.9999 4.88379C14.7789 4.88379 14.5669 4.97159 14.4106 5.12787C14.2544 5.28415 14.1666 5.49611 14.1666 5.71712V14.8838H4.9999C4.77888 14.8838 4.56692 14.9716 4.41064 15.1279C4.25436 15.2841 4.16656 15.4961 4.16656 15.7171C4.16245 15.8254 4.1816 15.9334 4.22272 16.0336C4.26385 16.1339 4.32599 16.2242 4.40496 16.2984C4.48393 16.3727 4.57789 16.4291 4.68052 16.464C4.78315 16.4988 4.89205 16.5113 4.9999 16.5005H14.1666V25.7171C14.1666 25.9381 14.2544 26.1501 14.4106 26.3064C14.5669 26.4627 14.7789 26.5505 14.9999 26.5505C15.2209 26.5505 15.4329 26.4627 15.5892 26.3064C15.7454 26.1501 15.8332 25.9381 15.8332 25.7171V16.5505H24.9999C25.2209 16.5505 25.4329 16.4627 25.5892 16.3064C25.7454 16.1501 25.8332 15.9381 25.8332 15.7171C25.8332 15.4961 25.7454 15.2841 25.5892 15.1279C25.4329 14.9716 25.2209 14.8838 24.9999 14.8838Z" fill="#7F847D"/>
<path d="M24.9999 14.8838H15.8332V5.71712C15.8332 5.49611 15.7454 5.28415 15.5892 5.12787C15.4329 4.97159 15.2209 4.88379 14.9999 4.88379C14.7789 4.88379 14.5669 4.97159 14.4106 5.12787C14.2544 5.28415 14.1666 5.49611 14.1666 5.71712V14.8838H4.9999C4.77888 14.8838 4.56692 14.9716 4.41064 15.1279C4.25436 15.2841 4.16656 15.4961 4.16656 15.7171C4.16245 15.8254 4.1816 15.9334 4.22272 16.0336C4.26385 16.1339 4.32599 16.2242 4.40496 16.2984C4.48393 16.3727 4.57789 16.4291 4.68052 16.464C4.78315 16.4988 4.89205 16.5113 4.9999 16.5005H14.1666V25.7171C14.1666 25.9381 14.2544 26.1501 14.4106 26.3064C14.5669 26.4627 14.7789 26.5505 14.9999 26.5505C15.2209 26.5505 15.4329 26.4627 15.5892 26.3064C15.7454 26.1501 15.8332 25.9381 15.8332 25.7171V16.5505H24.9999C25.2209 16.5505 25.4329 16.4627 25.5892 16.3064C25.7454 16.1501 25.8332 15.9381 25.8332 15.7171C25.8332 15.4961 25.7454 15.2841 25.5892 15.1279C25.4329 14.9716 25.2209 14.8838 24.9999 14.8838Z" fill="black" fill-opacity="0.2"/>
<path d="M24.9999 14.8838H15.8332V5.71712C15.8332 5.49611 15.7454 5.28415 15.5892 5.12787C15.4329 4.97159 15.2209 4.88379 14.9999 4.88379C14.7789 4.88379 14.5669 4.97159 14.4106 5.12787C14.2544 5.28415 14.1666 5.49611 14.1666 5.71712V14.8838H4.9999C4.77888 14.8838 4.56692 14.9716 4.41064 15.1279C4.25436 15.2841 4.16656 15.4961 4.16656 15.7171C4.16245 15.8254 4.1816 15.9334 4.22272 16.0336C4.26385 16.1339 4.32599 16.2242 4.40496 16.2984C4.48393 16.3727 4.57789 16.4291 4.68052 16.464C4.78315 16.4988 4.89205 16.5113 4.9999 16.5005H14.1666V25.7171C14.1666 25.9381 14.2544 26.1501 14.4106 26.3064C14.5669 26.4627 14.7789 26.5505 14.9999 26.5505C15.2209 26.5505 15.4329 26.4627 15.5892 26.3064C15.7454 26.1501 15.8332 25.9381 15.8332 25.7171V16.5505H24.9999C25.2209 16.5505 25.4329 16.4627 25.5892 16.3064C25.7454 16.1501 25.8332 15.9381 25.8332 15.7171C25.8332 15.4961 25.7454 15.2841 25.5892 15.1279C25.4329 14.9716 25.2209 14.8838 24.9999 14.8838Z" fill="black" fill-opacity="0.2"/>
</g>
</g>
<defs>
<clipPath id="clip0_13724_9167">
<rect width="30" height="30" fill="white" transform="translate(0 0.716797)"/>
</clipPath>
</defs>
</svg>
