<svg width="37" height="27" viewBox="0 0 37 27" fill="none" xmlns="http://www.w3.org/2000/svg">
<g id="Icon">
<path id="Vector" fill-rule="evenodd" clip-rule="evenodd" d="M7.06054 17.7969C3.03912 17.0179 0 13.4748 0 9.22788C0 4.41038 3.91038 0.5 8.72788 0.5C13.5454 0.5 17.4558 4.41038 17.4558 9.22788C17.4558 15.6478 15.293 19.635 12.7544 22.1275C8.86796 25.9439 4.00092 26.2753 4.00092 26.2753C3.5055 26.3112 3.03571 26.0567 2.79313 25.6245C2.54883 25.194 2.57788 24.6593 2.86488 24.2561C2.86488 24.2561 5.17796 21 6.61979 18.5913C6.77013 18.3384 6.92217 18.06 7.06054 17.7969Z" fill="black"/>
<path id="Vector_2" fill-rule="evenodd" clip-rule="evenodd" d="M26.334 17.7969C22.3126 17.0179 19.2734 13.4748 19.2734 9.22788C19.2734 4.41038 23.1838 0.5 28.0013 0.5C32.8188 0.5 36.7292 4.41038 36.7292 9.22788C36.7292 15.6478 34.5664 19.635 32.0279 22.1275C28.1414 25.9439 23.2744 26.2753 23.2744 26.2753C22.7789 26.3112 22.3091 26.0567 22.0666 25.6245C21.824 25.194 21.8513 24.6593 22.1383 24.2561C22.1383 24.2561 24.4514 21 25.8932 18.5913C26.0436 18.3384 26.1956 18.06 26.334 17.7969Z" fill="black"/>
</g>
</svg>
