<svg width="14" height="24" viewBox="0 0 14 24" fill="none" xmlns="http://www.w3.org/2000/svg">
<g id="Icon">
<path id="Vector" fill-rule="evenodd" clip-rule="evenodd" d="M2.30679 21.2293C0.992931 20.9748 0 19.8172 0 18.4297C0 16.8557 1.27758 15.5781 2.85154 15.5781C4.42549 15.5781 5.70307 16.8557 5.70307 18.4297C5.70307 20.5272 4.99647 21.8298 4.16707 22.6442C2.8973 23.8911 1.30716 23.9993 1.30716 23.9993C1.1453 24.0111 0.991815 23.9279 0.912559 23.7867C0.832745 23.646 0.842233 23.4713 0.936001 23.3396C0.936001 23.3396 1.69172 22.2758 2.16279 21.4888C2.21191 21.4062 2.26158 21.3152 2.30679 21.2293Z" fill="url(#paint0_linear_13508_5821)"/>
<path id="Vector_2" fill-rule="evenodd" clip-rule="evenodd" d="M10.0099 21.2293C8.69606 20.9748 7.70313 19.8172 7.70312 18.4297C7.70312 16.8557 8.98071 15.5781 10.5547 15.5781C12.1286 15.5781 13.4062 16.8557 13.4062 18.4297C13.4062 20.5272 12.6996 21.8298 11.8702 22.6442C10.6004 23.8911 9.01029 23.9993 9.01029 23.9993C8.84843 24.0111 8.69494 23.9279 8.61568 23.7867C8.53643 23.646 8.54536 23.4713 8.63913 23.3396C8.63913 23.3396 9.39485 22.2758 9.86592 21.4888C9.91503 21.4062 9.96471 21.3152 10.0099 21.2293Z" fill="url(#paint1_linear_13508_5821)"/>
</g>
<defs>
<linearGradient id="paint0_linear_13508_5821" x1="0.366076" y1="15.5781" x2="6.40665" y2="15.9318" gradientUnits="userSpaceOnUse">
<stop stop-color="#CFF0AD"/>
<stop offset="1" stop-color="#A6E675"/>
</linearGradient>
<linearGradient id="paint1_linear_13508_5821" x1="8.0692" y1="15.5781" x2="14.1098" y2="15.9318" gradientUnits="userSpaceOnUse">
<stop stop-color="#CFF0AD"/>
<stop offset="1" stop-color="#A6E675"/>
</linearGradient>
</defs>
</svg>
