<svg width="30" height="30" viewBox="0 0 30 30" fill="none" xmlns="http://www.w3.org/2000/svg">
<g id="Capa_1" clip-path="url(#clip0_8562_16807)">
<g id="Group">
<g id="Group_2">
<path id="Vector" d="M7.50016 0C6.90841 0 6.42871 0.479694 6.42871 1.07145V3.21428H8.57155V1.07145C8.57155 0.479694 8.09185 0 7.50016 0Z" fill="black"/>
</g>
</g>
<g id="Group_3">
<g id="Group_4">
<path id="Vector_2" d="M22.5002 0C21.9084 0 21.4287 0.479694 21.4287 1.07145V3.21428H23.5715V1.07145C23.5716 0.479694 23.0919 0 22.5002 0Z" fill="black"/>
</g>
</g>
<g id="Group_5">
<g id="Group_6">
<path id="Vector_3" d="M26.7857 3.21436H23.5714V7.50009C23.5714 8.09184 23.0917 8.57154 22.5 8.57154C21.9082 8.57154 21.4285 8.09184 21.4285 7.50009V3.21436H8.5714V7.50009C8.5714 8.09184 8.09171 8.57154 7.49995 8.57154C6.9082 8.57154 6.4285 8.09184 6.4285 7.50009V3.21436H3.21428C1.43908 3.21436 0 4.65344 0 6.42864V26.7858C0 28.561 1.43908 30.0001 3.21428 30.0001H26.7857C28.5609 30.0001 30 28.561 30 26.7858V6.42864C30 4.65344 28.5609 3.21436 26.7857 3.21436ZM27.8571 26.7858C27.8571 27.3775 27.3774 27.8572 26.7857 27.8572H3.21428C2.62253 27.8572 2.14283 27.3775 2.14283 26.7858V12.8572H27.8571V26.7858Z" fill="black"/>
</g>
</g>
<g id="Group_7">
<g id="Group_8">
<path id="Vector_4" d="M22.1869 15.3144C21.7685 14.8957 21.09 14.8955 20.6713 15.3138L12.8574 23.1278L9.32915 19.5996C8.91048 19.1812 8.23196 19.1815 7.8136 19.6001C7.39525 20.0188 7.3955 20.6973 7.81417 21.1157L12.0999 25.4014C12.5183 25.8197 13.1965 25.8197 13.6149 25.4014L22.1863 16.8299C22.605 16.4116 22.6052 15.7331 22.1869 15.3144Z" fill="black"/>
</g>
</g>
</g>
<defs>
<clipPath id="clip0_8562_16807">
<rect width="30" height="30" fill="white"/>
</clipPath>
</defs>
</svg>
