<svg width="66" height="65" viewBox="0 0 66 65" fill="none" xmlns="http://www.w3.org/2000/svg">
<path id="Route planning1" fill-rule="evenodd" clip-rule="evenodd" d="M54.0333 0C47.712 0 42.5716 5.22018 42.5716 11.6334C42.5716 17.9057 53.0955 27.4248 53.5421 27.8276C53.82 28.0743 54.2416 28.0793 54.5295 27.8276C54.976 27.4249 65.5 17.9058 65.5 11.6334C65.5 5.22018 60.3546 0 54.0333 0ZM54.0333 17.7495C50.436 17.7495 47.5136 14.7795 47.5136 11.1299C47.5136 7.48538 50.4361 4.51536 54.0333 4.51536C57.6305 4.51536 60.558 7.48538 60.558 11.1299C60.5581 14.7795 57.6307 17.7495 54.0333 17.7495ZM49.2468 25.7366C49.5118 26.0557 49.472 26.5321 49.158 26.8009C47.3752 28.324 50.8509 29.5797 53.1931 29.7386C53.7243 29.7848 54.3682 29.7834 54.8596 29.7401C57.5846 29.5542 59.405 28.4958 59.405 27.6232C59.405 27.291 59.1367 26.9881 58.9113 26.7925C58.5988 26.5215 58.562 26.0452 58.8295 25.7281C59.0956 25.4111 59.5661 25.3728 59.8786 25.6451C60.7179 26.3726 60.8938 27.1223 60.8938 27.6232C60.8938 29.5189 58.4599 31.0084 54.9746 31.2458C54.4482 31.2929 53.6849 31.298 53.0796 31.2444C50.0859 31.0411 47.8684 29.9027 47.3164 28.376H47.1768C46.7658 28.376 46.4325 28.0378 46.4325 27.6209C46.4325 27.2039 46.7659 26.8658 47.1768 26.8658H47.3148C47.4735 26.426 47.77 26.013 48.1977 25.6466C48.5126 25.3788 48.9812 25.4181 49.2468 25.7366ZM7.17323 59.4495C7.44045 59.7665 7.40376 60.2434 7.09153 60.5142C6.8662 60.7098 6.59768 61.0117 6.59781 61.3401C6.59781 62.2116 8.41683 63.2715 11.1244 63.4613C11.6906 63.4996 12.2963 63.5001 12.7968 63.4568C15.5164 63.2715 17.3349 62.2125 17.3349 61.34C17.3349 61.0076 17.0672 60.7102 16.8424 60.5195C16.5271 60.2516 16.4855 59.7757 16.7493 59.4557C17.0132 59.1361 17.4824 59.0928 17.7979 59.3613C18.2298 59.7281 18.5287 60.1428 18.6882 60.5848H18.8237C19.2348 60.5848 19.568 60.9231 19.568 61.34C19.568 61.7569 19.2348 62.0951 18.8237 62.0951H18.6853C18.1314 63.6203 15.9132 64.7578 12.9094 64.9631C12.3221 65.0135 11.6254 65.0096 11.0231 64.9675C7.54076 64.7242 5.10936 63.2327 5.10936 61.3401C5.10936 60.6254 5.4601 59.943 6.12399 59.3668C6.43623 59.0955 6.90627 59.1328 7.17323 59.4495ZM34.9674 43.994C34.5226 43.9188 34.082 43.8008 33.6586 43.6434C33.2719 43.5009 32.8451 43.7019 32.7035 44.0933C32.5625 44.485 32.7612 44.9186 33.1469 45.0622C33.6571 45.2509 34.1872 45.3931 34.7232 45.4835C35.1315 45.5517 35.5123 45.2719 35.5793 44.8626C35.6467 44.4511 35.3729 44.0622 34.9674 43.994ZM30.7802 62.0954H29.2853C28.8745 62.0954 28.5411 61.7571 28.5411 61.3403C28.5411 60.9233 28.8745 60.5852 29.2853 60.5852H30.7802C31.1911 60.5852 31.5245 60.9234 31.5245 61.3403C31.5245 61.7572 31.191 62.0954 30.7802 62.0954ZM33.4808 28.0547C33.3093 27.6756 32.8693 27.511 32.4937 27.6826C32.0024 27.9112 31.5271 28.1889 31.0818 28.5075C30.746 28.7479 30.666 29.2193 30.903 29.56C31.048 29.7684 31.2781 29.8795 31.5116 29.8795C31.6599 29.8795 31.8101 29.8348 31.9404 29.7413C32.3107 29.4764 32.7055 29.2459 33.114 29.0561C33.4875 28.882 33.6519 28.4341 33.4808 28.0547ZM33.2723 60.5852H34.7666C35.1775 60.5852 35.5109 60.9234 35.5109 61.3403C35.5109 61.7572 35.1775 62.0954 34.7666 62.0954H33.2723C32.8614 62.0954 32.528 61.7571 32.528 61.3403C32.528 60.9233 32.8615 60.5852 33.2723 60.5852ZM36.6819 28.3758C37.0927 28.3758 37.4262 28.0377 37.4262 27.6207C37.4262 27.2038 37.0928 26.8656 36.6819 26.8656C36.6099 26.867 36.5284 26.8665 36.4368 26.866C36.119 26.8642 35.6803 26.8618 35.0994 26.9334C34.6914 26.9845 34.4011 27.3611 34.4511 27.775C34.4977 28.1575 34.8183 28.4381 35.189 28.4381C35.239 28.4382 36.7318 28.3766 36.6819 28.3758ZM45.2293 60.5852H46.7241C47.1351 60.5852 47.4684 60.9234 47.4684 61.3403C47.4684 61.7572 47.135 62.0954 46.7241 62.0954H45.2293C44.8183 62.0954 44.485 61.7571 44.485 61.3403C44.485 60.9233 44.8185 60.5852 45.2293 60.5852ZM44.6526 26.8654H43.1578C42.7469 26.8654 42.4135 27.2036 42.4135 27.6205C42.4135 28.0375 42.7468 28.3756 43.1578 28.3756H44.6526C45.0634 28.3756 45.3969 28.0375 45.3969 27.6205C45.3969 27.2036 45.0634 26.8654 44.6526 26.8654ZM31.6855 42.5392C32.011 42.7939 32.0712 43.2683 31.8202 43.5981C31.5675 43.9306 31.0991 43.9882 30.7767 43.7347C30.3468 43.3984 29.9456 43.0199 29.5837 42.6099C29.3094 42.2994 29.3351 41.8219 29.6413 41.5437C29.9474 41.264 30.4189 41.2925 30.6922 41.6022C30.9941 41.9439 31.3279 42.259 31.6855 42.5392ZM28.1033 40.3095C28.2721 40.6896 28.7143 40.858 29.0879 40.686C29.4624 40.5144 29.6287 40.0671 29.459 39.6871C29.273 39.2693 29.1242 38.8322 29.0176 38.3889C28.9202 37.9833 28.5171 37.7326 28.1188 37.8339C27.719 37.9322 27.4743 38.3407 27.5717 38.7458C27.7001 39.2806 27.879 39.8066 28.1033 40.3095ZM21.3154 60.5852H22.8102C23.221 60.5852 23.5543 60.9234 23.5545 61.3403C23.5545 61.7572 23.221 62.0954 22.8102 62.0954H21.3154C20.9044 62.0954 20.5711 61.7571 20.5711 61.3403C20.5711 60.9233 20.9045 60.5852 21.3154 60.5852ZM62.0003 53.9613C62.0528 53.4054 62.0528 52.8379 62.0071 52.3099C61.9717 51.894 61.6039 51.5819 61.2013 51.6232C60.7919 51.6591 60.4885 52.0254 60.5244 52.4407C60.5616 52.8756 60.563 53.3509 60.5185 53.8167C60.4792 54.2321 60.7792 54.6009 61.1881 54.6406C61.2018 54.642 61.2155 54.6429 61.2291 54.6435L61.2455 54.6439L61.2603 54.644C61.6393 54.6442 61.9635 54.3517 62.0003 53.9613ZM28.267 31.8137C28.5117 31.3222 28.8029 30.8512 29.1319 30.4137C29.3809 30.0824 29.8476 30.019 30.1751 30.2715C30.5017 30.5243 30.5647 30.9981 30.3151 31.3299C30.0414 31.6937 29.799 32.086 29.5956 32.495C29.408 32.8707 28.9589 33.0143 28.5955 32.8283C28.2288 32.6401 28.0815 32.1858 28.267 31.8137ZM50.7087 60.585H49.2144C48.8036 60.585 48.4701 60.9231 48.4701 61.3401C48.4701 61.7569 48.8034 62.0952 49.2144 62.0952H50.7087C51.1196 62.0952 51.453 61.757 51.453 61.3401C51.453 60.9233 51.1197 60.585 50.7087 60.585ZM26.7948 62.0952H25.3005C24.8897 62.0952 24.5562 61.7569 24.5562 61.3401C24.5562 60.9231 24.8897 60.585 25.3005 60.585H26.7948C27.2058 60.585 27.5391 60.9233 27.5391 61.3401C27.5391 61.757 27.2057 62.0952 26.7948 62.0952ZM28.8089 36.0591C28.8094 36.0413 28.8092 36.0128 28.809 35.9747C28.8078 35.7701 28.8048 35.2863 28.9029 34.6683C28.9678 34.2569 28.6917 33.8695 28.2856 33.8031C27.881 33.7387 27.4977 34.0174 27.4328 34.4294C27.3153 35.1731 27.319 35.7215 27.3206 35.9583V35.9583V35.9584V35.9585V35.9586V35.9586V35.9587V35.9588V35.9589C27.3209 36.0038 27.3211 36.0375 27.3204 36.0591C27.3204 36.4759 27.6537 36.8142 28.0647 36.8142C28.4757 36.8142 28.8089 36.4759 28.8089 36.0591ZM45.2994 45.6063C44.8884 45.6063 44.5551 45.2681 44.5551 44.8512C44.5551 44.4344 44.8884 44.0961 45.2994 44.0961H46.7942C47.2052 44.0961 47.5385 44.4344 47.5385 44.8512C47.5385 45.2682 47.205 45.6063 46.7942 45.6063H45.2994ZM58.7934 46.1356C58.3738 45.7861 57.9202 45.4739 57.4453 45.2089C57.0868 45.0073 56.6327 45.1405 56.4346 45.5058C56.2359 45.8711 56.3672 46.3302 56.7273 46.5313C57.1222 46.7525 57.4997 47.0116 57.8495 47.3026C58.1678 47.5688 58.6377 47.5188 58.8967 47.1979C59.1573 46.8759 59.1114 46.4001 58.7934 46.1356ZM59.5714 47.9604C59.9154 47.7328 60.3762 47.8302 60.6015 48.1797C60.8985 48.6412 61.1548 49.1329 61.3628 49.6407C61.5208 50.0261 61.341 50.4681 60.9616 50.6278C60.5791 50.7887 60.145 50.6029 59.9886 50.2208C59.8152 49.798 59.6024 49.389 59.3553 49.0055C59.1305 48.6566 59.2274 48.1885 59.5714 47.9604ZM41.4119 27.6205C41.4119 27.2037 41.0786 26.8654 40.6676 26.8654H39.1728C38.7619 26.8654 38.4285 27.2036 38.4285 27.6205C38.4285 28.0375 38.7618 28.3756 39.1728 28.3756H40.6676C41.0784 28.3756 41.4119 28.0374 41.4119 27.6205ZM41.2423 60.5852H42.7366C43.1475 60.5852 43.4808 60.9234 43.4809 61.3403C43.4809 61.7572 43.1475 62.0954 42.7366 62.0954H41.2423C40.8313 62.0954 40.498 61.7571 40.498 61.3403C40.498 60.9233 40.8315 60.5852 41.2423 60.5852ZM42.8087 44.0961H41.3144C40.9035 44.0961 40.5701 44.4343 40.5701 44.8512C40.5701 45.2681 40.9034 45.6063 41.3144 45.6063H42.8087C43.2195 45.6063 43.553 45.2682 43.553 44.8512C43.553 44.4344 43.2195 44.0961 42.8087 44.0961ZM59.9632 56.0316C60.1242 55.6477 60.5612 55.4698 60.9401 55.6334C61.3181 55.7971 61.494 56.2411 61.3325 56.6245C61.1194 57.1308 60.8587 57.62 60.5578 58.0781C60.3295 58.4258 59.8666 58.5186 59.5257 58.2876C59.1836 58.0566 59.0911 57.5875 59.3193 57.2405C59.5693 56.8595 59.7864 56.4529 59.9632 56.0316ZM38.7521 60.585H37.2573C36.8464 60.585 36.513 60.9231 36.513 61.3401C36.513 61.7569 36.8463 62.0952 37.2573 62.0952H38.7521C39.1629 62.0952 39.4964 61.757 39.4964 61.3401C39.4964 60.9233 39.1629 60.585 38.7521 60.585ZM53.2808 44.0966C53.8248 44.1035 54.3695 44.161 54.9001 44.2671C55.3033 44.3482 55.5654 44.7453 55.4859 45.1545C55.4055 45.5658 55.0116 45.8292 54.6113 45.7488C54.1698 45.6604 53.7158 45.6128 53.2623 45.6068C52.8514 45.6014 52.5224 45.2592 52.5272 44.8423C52.5326 44.4255 52.8602 44.0764 53.2808 44.0966ZM54.5467 60.4553C54.1044 60.5394 53.6498 60.583 53.1963 60.585C52.7855 60.5865 52.4535 60.9262 52.455 61.343C52.4565 61.7589 52.7894 62.0951 53.1993 62.0951H53.2022C53.7458 62.0931 54.291 62.0406 54.822 61.9388C55.2261 61.8616 55.4916 61.4668 55.4157 61.0574C55.3399 60.6471 54.9469 60.3741 54.5467 60.4553ZM49.2864 44.0961H50.7812C51.1922 44.0961 51.5255 44.4344 51.5255 44.8512C51.5255 45.2682 51.192 45.6063 50.7812 45.6063H49.2864C48.8754 45.6063 48.5421 45.2681 48.5421 44.8512C48.5421 44.4343 48.8755 44.0961 49.2864 44.0961ZM38.8242 44.0961H37.3294C36.9185 44.0961 36.5851 44.4343 36.5851 44.8512C36.5851 45.2681 36.9184 45.6063 37.3294 45.6063H38.8242C39.2351 45.6063 39.5685 45.2682 39.5685 44.8512C39.5685 44.4344 39.2351 44.0961 38.8242 44.0961ZM56.6711 59.6916C57.0675 59.4749 57.4474 59.2187 57.8001 58.9302C58.12 58.6676 58.5896 58.7198 58.8469 59.0442C59.1047 59.3692 59.0543 59.8446 58.7345 60.1061C58.3105 60.4525 57.854 60.7603 57.3777 61.0209C57.018 61.2175 56.5656 61.0837 56.3693 60.7147C56.174 60.3473 56.3092 59.8892 56.6711 59.6916ZM11.9667 33.7221C5.64536 33.7221 0.5 38.9373 0.5 45.3504C0.5 51.6276 11.0239 61.1417 11.4705 61.5445C11.7533 61.7962 12.1751 61.7962 12.4579 61.5445C12.9046 61.1418 23.4284 51.6278 23.4284 45.3504C23.4283 38.9373 18.2879 33.7221 11.9667 33.7221ZM11.9667 59.9538C9.89266 58.0006 1.98858 50.2383 1.98858 45.3504C1.98858 39.7728 6.46407 35.2322 11.9667 35.2322C17.4643 35.2322 21.9398 39.7728 21.9398 45.3504C21.9398 50.2385 14.0407 58.0007 11.9667 59.9538ZM5.44171 44.8524C5.44171 41.2028 8.36904 38.2328 11.9664 38.2328C15.5586 38.2328 18.4861 41.2028 18.4861 44.8524C18.4861 48.4969 15.5586 51.4669 11.9664 51.4669C8.36917 51.4669 5.44171 48.4969 5.44171 44.8524ZM6.93016 44.8523C6.93016 47.6663 9.18774 49.9567 11.9664 49.9567C14.7399 49.9567 16.9976 47.6662 16.9976 44.8523C16.9976 42.0384 14.7401 39.7428 11.9664 39.7428C9.18774 39.7428 6.93016 42.0383 6.93016 44.8523ZM54.0317 16.2392C56.8103 16.2392 59.0679 13.9488 59.0679 11.1297C59.0679 8.31586 56.8103 6.02545 54.0317 6.02532C51.258 6.02532 49.0004 8.31586 49.0004 11.1297C49.0004 13.9488 51.258 16.2392 54.0317 16.2392Z" fill="url(#paint0_linear_6188_2739)"/>
<defs>
<linearGradient id="paint0_linear_6188_2739" x1="19.4875" y1="-15.4928" x2="60.9716" y2="38.7214" gradientUnits="userSpaceOnUse">
<stop stop-color="#D9FF8A"/>
<stop offset="1" stop-color="#91C65C"/>
</linearGradient>
</defs>
</svg>
