<svg width="66" height="65" viewBox="0 0 66 65" fill="none" xmlns="http://www.w3.org/2000/svg">
<g id="Search 1">
<g id="_x31_3_Search_Location">
<g id="Group">
<path id="Vector" d="M33.1685 5.4165C11.2384 5.4165 -1.05199 31.1222 13.1485 48.174L6.60512 54.7173C5.68631 55.6362 5.68631 57.1343 6.60512 58.0531C7.52403 58.9663 9.01638 58.9663 9.9353 58.0531L16.4842 51.5041C21.2567 55.4915 27.2153 57.5575 33.1685 57.5575C47.5528 57.5575 59.2752 45.8406 59.2362 31.4119C59.1972 16.8994 47.3968 5.4165 33.1685 5.4165ZM12.5526 29.1229C12.1962 27.4356 13.0872 26.0044 14.1119 24.3449C15.6879 21.8111 17.4476 18.9376 14.8359 14.5771C19.3968 9.63191 25.929 6.53013 33.1685 6.53013C36.248 6.53013 39.1939 7.09255 41.9227 8.11721C36.9776 10.25 32.9457 8.33438 29.3316 11.0631C27.9004 12.1379 27.221 13.8642 27.5997 15.4513C28.1177 17.6733 30.2394 18.414 32.1105 19.071C33.9371 19.7058 35.513 20.2571 35.7024 21.9112C35.9251 23.7879 33.4248 25.4863 33.5751 27.8642C33.681 29.5292 34.9562 30.5539 36.1869 31.5396C37.1614 32.3193 38.0803 33.0599 38.42 34.0623C39.0381 35.8889 37.6682 37.5039 36.2203 39.208C36.2092 39.2191 36.2036 39.2302 36.1925 39.2358C36.1981 36.4792 35.1512 33.7171 33.0462 31.612C28.8472 27.4131 22.0143 27.4131 17.8098 31.612C17.2863 32.1355 16.8297 32.7035 16.4399 33.2939C14.808 32.1413 12.9425 30.9662 12.5526 29.1229ZM15.9941 50.4182L9.15004 57.2624C8.66556 57.7468 7.88041 57.7468 7.39583 57.2624C6.91135 56.7779 6.91135 55.9926 7.39583 55.5082L14.2399 48.6641C14.7244 48.1796 15.5095 48.1796 15.9941 48.6641C16.4787 49.1485 16.4787 49.9337 15.9941 50.4182ZM18.6004 32.4031C22.3649 28.633 28.4906 28.6386 32.2607 32.4031C36.0252 36.1676 36.0196 42.2933 32.2551 46.0579C28.4906 49.8225 22.376 49.8391 18.6004 46.0635C14.8303 42.2989 14.8303 36.1676 18.6004 32.4031ZM17.1914 50.6298C17.6035 49.8558 17.5478 49.0148 17.1246 48.3187L18.2217 47.2217C20.1986 49.0093 22.7324 50.0006 25.4222 50.0006H25.4946C25.8232 51.2201 26.0403 52.952 26.0904 55.4134C22.8327 54.45 19.82 52.8295 17.1914 50.6298ZM33.1685 56.4436C31.1136 56.4436 29.1144 56.1874 27.2042 55.7197C27.1653 53.1859 26.9591 51.3147 26.6194 49.9336C29.3927 49.6274 32.0212 48.2629 33.8979 45.8683C34.4827 47.1993 35.7634 48.1237 37.3562 48.2853C39.5169 48.5024 41.8447 47.2828 43.0252 44.6711C43.0364 44.6544 43.0419 44.6376 43.0475 44.6209C43.454 43.6798 44.2949 43.0505 45.2917 42.9391C46.2607 42.8278 47.1963 43.2455 47.7754 44.0474C48.9059 45.6123 50.5542 46.8095 52.3642 47.4165C47.781 52.9298 40.8813 56.4436 33.1685 56.4436Z" fill="url(#paint0_linear_6188_2700)"/>
<path id="Vector_2" d="M25.4219 32.8706C22.9271 32.8706 20.8945 34.9088 20.8945 37.4091C20.8945 39.7147 24.5533 44.7878 24.9709 45.3615C25.0768 45.5007 25.2438 45.5898 25.4221 45.5898C25.6002 45.5898 25.7673 45.5007 25.8675 45.3615C26.2907 44.7878 29.955 39.7147 29.955 37.4091C29.9549 34.9087 27.9224 32.8706 25.4219 32.8706ZM25.4219 44.0695C24.1745 42.2708 22.0083 38.8571 22.0083 37.4091C22.0083 35.5214 23.5396 33.9843 25.4219 33.9843C27.3097 33.9843 28.8412 35.5214 28.8412 37.4091C28.8412 38.8571 26.675 42.2708 25.4219 44.0695Z" fill="url(#paint1_linear_6188_2700)"/>
<path id="Vector_3" d="M25.428 36.4736C25.1204 36.4736 24.8711 36.723 24.8711 37.0305V37.5719C24.8711 37.8794 25.1204 38.1287 25.428 38.1287C25.7355 38.1287 25.9848 37.8794 25.9848 37.5719V37.0305C25.9848 36.723 25.7355 36.4736 25.428 36.4736Z" fill="url(#paint2_linear_6188_2700)"/>
</g>
</g>
</g>
<defs>
<linearGradient id="paint0_linear_6188_2700" x1="21.4917" y1="-7.29275" x2="55.5226" y2="37.1801" gradientUnits="userSpaceOnUse">
<stop stop-color="#D9FF8A"/>
<stop offset="1" stop-color="#91C65C"/>
</linearGradient>
<linearGradient id="paint1_linear_6188_2700" x1="23.5412" y1="29.839" x2="31.9298" y2="37.6483" gradientUnits="userSpaceOnUse">
<stop stop-color="#D9FF8A"/>
<stop offset="1" stop-color="#91C65C"/>
</linearGradient>
<linearGradient id="paint2_linear_6188_2700" x1="25.1964" y1="36.0791" x2="26.2818" y2="37.0336" gradientUnits="userSpaceOnUse">
<stop stop-color="#D9FF8A"/>
<stop offset="1" stop-color="#91C65C"/>
</linearGradient>
</defs>
</svg>
