<svg width="30" height="30" viewBox="0 0 30 30" fill="none" xmlns="http://www.w3.org/2000/svg">
<g id="Layer_1">
<path id="Vector" d="M22.0312 29.0626H5.625C4.87976 29.0604 4.16569 28.7633 3.63872 28.2364C3.11176 27.7094 2.81473 26.9953 2.8125 26.2501C2.81367 24.0922 3.38804 21.9734 4.47686 20.1104C5.56568 18.2474 7.12986 16.7071 9.00937 15.647C10.6907 17.0487 12.811 17.8151 15 17.8126C16.5634 17.8156 18.102 17.4221 19.4719 16.6688C19.3022 17.0261 19.2157 17.4171 19.2188 17.8126V19.2188H17.8125C17.0666 19.2188 16.3512 19.5152 15.8238 20.0426C15.2963 20.5701 15 21.2854 15 22.0313C15 22.7773 15.2963 23.4926 15.8238 24.0201C16.3512 24.5475 17.0666 24.8438 17.8125 24.8438H19.2188V26.2501C19.221 26.9953 19.518 27.7094 20.045 28.2364C20.5719 28.7633 21.286 29.0604 22.0312 29.0626Z" fill="black"/>
<path id="Vector_2" d="M15 15.9375C19.1421 15.9375 22.5 12.5796 22.5 8.4375C22.5 4.29536 19.1421 0.9375 15 0.9375C10.8579 0.9375 7.5 4.29536 7.5 8.4375C7.5 12.5796 10.8579 15.9375 15 15.9375Z" fill="black"/>
<path id="Vector_3" d="M26.25 21.0938H22.9688V17.8125C22.9688 17.5639 22.87 17.3254 22.6942 17.1496C22.5183 16.9738 22.2799 16.875 22.0312 16.875C21.7826 16.875 21.5442 16.9738 21.3683 17.1496C21.1925 17.3254 21.0938 17.5639 21.0938 17.8125V21.0938H17.8125C17.5639 21.0938 17.3254 21.1925 17.1496 21.3683C16.9738 21.5442 16.875 21.7826 16.875 22.0312C16.875 22.2799 16.9738 22.5183 17.1496 22.6942C17.3254 22.87 17.5639 22.9688 17.8125 22.9688H21.0938V26.25C21.0938 26.4986 21.1925 26.7371 21.3683 26.9129C21.5442 27.0887 21.7826 27.1875 22.0312 27.1875C22.2799 27.1875 22.5183 27.0887 22.6942 26.9129C22.87 26.7371 22.9688 26.4986 22.9688 26.25V22.9688H26.25C26.4986 22.9688 26.7371 22.87 26.9129 22.6942C27.0887 22.5183 27.1875 22.2799 27.1875 22.0312C27.1875 21.7826 27.0887 21.5442 26.9129 21.3683C26.7371 21.1925 26.4986 21.0938 26.25 21.0938Z" fill="black"/>
</g>
</svg>
