<svg width="26" height="26" viewBox="0 0 26 26" fill="none" xmlns="http://www.w3.org/2000/svg">
<g id="Group 4903">
<g id="Vector 42">
<path d="M2.13814 11.2981L8.93089 18.0401L10.9239 15.9081L9.0842 14.1041L13.8368 9.18407L15.6766 10.9881L17.6696 8.85606L15.9832 7.05205L22.7289 0H9.18351L2.13104 7.04669C0.955536 8.22122 0.958721 10.1275 2.13814 11.2981Z" fill="#7F847D"/>
<path d="M2.13814 11.2981L8.93089 18.0401L10.9239 15.9081L9.0842 14.1041L13.8368 9.18407L15.6766 10.9881L17.6696 8.85606L15.9832 7.05205L22.7289 0H9.18351L2.13104 7.04669C0.955536 8.22122 0.958721 10.1275 2.13814 11.2981Z" fill="black" fill-opacity="0.2"/>
<path d="M2.13814 11.2981L8.93089 18.0401L10.9239 15.9081L9.0842 14.1041L13.8368 9.18407L15.6766 10.9881L17.6696 8.85606L15.9832 7.05205L22.7289 0H9.18351L2.13104 7.04669C0.955536 8.22122 0.958721 10.1275 2.13814 11.2981Z" fill="black" fill-opacity="0.2"/>
</g>
<g id="Vector 43">
<path d="M18.794 9.76392L3.15625 26H16.9542L23.8589 19.2398C25.0416 18.0818 25.063 16.1847 23.9067 15.0004L18.794 9.76392Z" fill="#7F847D"/>
<path d="M18.794 9.76392L3.15625 26H16.9542L23.8589 19.2398C25.0416 18.0818 25.063 16.1847 23.9067 15.0004L18.794 9.76392Z" fill="black" fill-opacity="0.2"/>
<path d="M18.794 9.76392L3.15625 26H16.9542L23.8589 19.2398C25.0416 18.0818 25.063 16.1847 23.9067 15.0004L18.794 9.76392Z" fill="black" fill-opacity="0.2"/>
</g>
</g>
</svg>
