<svg width="86" height="85" viewBox="0 0 86 85" fill="none" xmlns="http://www.w3.org/2000/svg">
<g id="Frame">
<g id="_x31_0_Bank_Check">
<g id="Group">
<path id="Vector" d="M71.8205 58.8394H12.8509C12.373 58.8394 11.9863 59.2265 11.9863 59.704C11.9863 60.1814 12.373 60.5686 12.8509 60.5686H71.8205C72.2985 60.5686 72.6851 60.1814 72.6851 59.704C72.6851 59.2265 72.2985 58.8394 71.8205 58.8394Z" fill="#0C1101"/>
<path id="Vector_2" d="M40.1919 67.4326H12.8509C12.373 67.4326 11.9863 67.8198 11.9863 68.2972C11.9863 68.7747 12.373 69.1618 12.8509 69.1618H40.1919C40.6698 69.1618 41.0565 68.7747 41.0565 68.2972C41.0565 67.8198 40.6698 67.4326 40.1919 67.4326Z" fill="#0C1101"/>
<path id="Vector_3" d="M71.8203 73.5649H55.3802C54.9023 73.5649 54.5156 73.9521 54.5156 74.4295C54.5156 74.907 54.9023 75.2942 55.3802 75.2942H71.8203C72.2982 75.2942 72.6849 74.907 72.6849 74.4295C72.6849 73.9521 72.2982 73.5649 71.8203 73.5649Z" fill="#0C1101"/>
<path id="Vector_4" d="M84.5035 23.0627C84.5035 10.8972 74.6034 0.99707 62.4379 0.99707C50.2724 0.99707 40.3723 10.8971 40.3723 23.0627C40.3723 26.893 41.3579 30.4987 43.0873 33.6459H9.13277C4.92195 33.6459 1.49805 37.0699 1.49805 41.2806V76.3678C1.49805 80.5787 4.92195 84.0026 9.13277 84.0026H74.785C79.0044 84.0026 82.4283 80.5785 82.4283 76.3678V41.2806C82.4283 39.2315 81.6069 37.3811 80.2927 36.0063C82.9385 32.3662 84.5035 27.8961 84.5035 23.0627ZM42.1015 23.0627C42.1015 11.8483 51.2235 2.72646 62.4379 2.72646C73.6523 2.72646 82.7743 11.8483 82.7743 23.0627C82.7743 34.2771 73.6524 43.3905 62.4379 43.3905C51.2235 43.3903 42.1015 34.2771 42.1015 23.0627ZM80.6991 41.2806V76.3678C80.6991 79.6275 78.0447 82.2733 74.785 82.2733H9.13277C5.88169 82.2733 3.22727 79.6275 3.22727 76.3678V41.2806C3.22727 38.0209 5.88169 35.3751 9.13277 35.3751H44.1335C48.1021 41.2547 54.8291 45.1195 62.4379 45.1195C69.1476 45.1195 75.1569 42.1107 79.212 37.3723C80.1285 38.4187 80.6991 39.7848 80.6991 41.2806Z" fill="#0C1101"/>
<path id="Vector_5" d="M37.1901 47.5317C37.1901 50.385 34.8642 52.7109 32.0109 52.7109H16.4127C13.5594 52.7109 11.2422 50.385 11.2422 47.5317C11.2422 44.6784 13.5594 42.3525 16.4127 42.3525H32.0109C34.8642 42.3525 37.1901 44.6784 37.1901 47.5317Z" fill="#ABE138"/>
<path id="Vector_6" d="M62.4371 7.53369C53.8772 7.53369 46.9082 14.5027 46.9082 23.0626C46.9082 31.6226 53.8772 38.5916 62.4371 38.5916C70.9971 38.5916 77.9661 31.6226 77.9661 23.0626C77.9661 14.5027 70.9971 7.53369 62.4371 7.53369ZM62.0566 22.1979H62.8175C64.858 22.1979 66.5181 23.858 66.5181 25.8985C66.5181 27.7748 65.1088 29.3138 63.3016 29.5472V31.0603C63.3016 31.5357 62.9124 31.9249 62.437 31.9249C61.9527 31.9249 61.5724 31.5357 61.5724 31.0603V29.599H59.2206C58.745 29.599 58.356 29.2099 58.356 28.7344C58.356 28.2589 58.745 27.8698 59.2206 27.8698H62.8175C63.8982 27.8698 64.7889 26.9879 64.7889 25.8983C64.7889 24.8089 63.8982 23.9269 62.8175 23.9269H62.0566C60.0161 23.9269 58.356 22.2667 58.356 20.2262C58.356 18.3499 59.7653 16.8196 61.5724 16.5774V15.0643C61.5724 14.5889 61.9529 14.1997 62.437 14.1997C62.9124 14.1997 63.3016 14.5889 63.3016 15.0643V16.5256H65.6534C66.1288 16.5256 66.518 16.9147 66.518 17.3902C66.518 17.8657 66.1288 18.2548 65.6534 18.2548C65.6534 18.2548 62.2207 18.2548 62.0565 18.2548C60.9671 18.2548 60.085 19.1367 60.085 20.2262C60.085 21.3158 60.9672 22.1979 62.0566 22.1979Z" fill="#0C1101"/>
</g>
</g>
</g>
</svg>
