<svg width="38" height="39" viewBox="0 0 38 39" fill="none" xmlns="http://www.w3.org/2000/svg">
<g id="Subtract 1">
<g clip-path="url(#clip0_13524_4283)">
<rect y="0.583496" width="38" height="38" rx="19" fill="url(#paint0_linear_13524_4283)"/>
<path id="Vector" fill-rule="evenodd" clip-rule="evenodd" d="M33.6027 31.7399C36.3483 28.4454 38 24.2073 38 19.5835C38 9.09009 29.4934 0.583496 19 0.583496C14.0812 0.583496 9.59898 2.45264 6.22482 5.51935C6.91783 4.88984 7.6593 4.31 8.44417 3.78559C11.5687 1.69782 15.2422 0.583496 19 0.583496C24.0374 0.589233 28.8668 2.59284 32.4287 6.15479C35.9907 9.71674 37.9943 14.5461 38 19.5835C38 23.3413 36.8857 27.0148 34.7979 30.1393C34.4265 30.6951 34.0277 31.2295 33.6027 31.7399ZM31.7752 33.6476C30.1636 35.1115 28.3037 36.2952 26.271 37.1372C24.2616 37.9695 22.1355 38.4467 19.9863 38.5584C24.5167 38.3267 28.6279 36.5081 31.7752 33.6476ZM19 38.5835C8.50659 38.5835 0 30.0769 0 19.5835C0 20.8221 0.121094 22.0636 0.365082 23.2902C1.09821 26.9758 2.90778 30.3613 5.56497 33.0185C8.22217 35.6757 11.6077 37.4853 15.2933 38.2184C16.5199 38.4624 17.7614 38.5835 19 38.5835ZM0.00621033 19.0931C0.0660706 16.7755 0.550018 14.4763 1.4463 12.3125C2.18646 10.5256 3.19044 8.87201 4.41696 7.40351C1.75714 10.5847 0.11879 14.6493 0.00621033 19.0931ZM17.4868 29.5768H18.698V6.56421C18.6956 6.40516 18.6308 6.25342 18.5175 6.14179C18.4042 6.03016 18.2515 5.96759 18.0925 5.96759C17.9334 5.96759 17.7807 6.03016 17.6674 6.14179C17.5541 6.25342 17.4892 6.40516 17.4868 6.56415V29.5768ZM13.2477 22.3096H6.58612C6.42778 22.3062 6.27707 22.2409 6.16631 22.1277C6.05553 22.0145 5.99348 21.8624 5.99348 21.704C5.99348 21.5457 6.05553 21.3936 6.16631 21.2804C6.27707 21.1672 6.42778 21.1019 6.58612 21.0985H13.2477C13.4061 21.1019 13.5567 21.1672 13.6675 21.2804C13.7783 21.3936 13.8403 21.5457 13.8403 21.704C13.8403 21.8624 13.7783 22.0145 13.6675 22.1277C13.5567 22.2409 13.4061 22.3062 13.2477 22.3096ZM13.2477 24.732H9.00851C8.84975 24.7292 8.69844 24.6642 8.58716 24.5509C8.47588 24.4376 8.41351 24.2852 8.41351 24.1264C8.41351 23.9677 8.47588 23.8152 8.58716 23.7019C8.69844 23.5887 8.84975 23.5236 9.00851 23.5208H13.2477C13.4064 23.5236 13.5578 23.5887 13.669 23.7019C13.7803 23.8152 13.8427 23.9677 13.8427 24.1264C13.8427 24.2852 13.7803 24.4376 13.669 24.5509C13.5578 24.6642 13.4064 24.7292 13.2477 24.732ZM21.726 33.2104H14.4589V30.788H21.726V33.2104ZM13.2477 27.1544H10.8253C10.6664 27.1518 10.5149 27.0869 10.4034 26.9736C10.292 26.8603 10.2295 26.7078 10.2295 26.5488C10.2295 26.3899 10.292 26.2373 10.4034 26.124C10.5149 26.0107 10.6664 25.9458 10.8253 25.9432H13.2477C13.4064 25.946 13.5578 26.0111 13.669 26.1243C13.7803 26.2376 13.8427 26.39 13.8427 26.5488C13.8427 26.7076 13.7803 26.8601 13.669 26.9733C13.5578 27.0866 13.4064 27.1516 13.2477 27.1544ZM22.9372 25.9432H25.3596C25.5185 25.9458 25.67 26.0108 25.7814 26.1241C25.8929 26.2374 25.9553 26.3899 25.9553 26.5488C25.9553 26.7077 25.8929 26.8603 25.7814 26.9736C25.67 27.0869 25.5185 27.1518 25.3596 27.1544H22.9372C22.7782 27.152 22.6264 27.0872 22.5148 26.9739C22.4032 26.8605 22.3406 26.7079 22.3406 26.5488C22.3406 26.3898 22.4032 26.2371 22.5148 26.1238C22.6264 26.0104 22.7782 25.9456 22.9372 25.9432ZM22.9372 23.5209H27.1764C27.3352 23.5236 27.4866 23.5886 27.5979 23.7018C27.7093 23.8151 27.7717 23.9676 27.7717 24.1264C27.7717 24.2853 27.7093 24.4377 27.5979 24.551C27.4866 24.6643 27.3352 24.7293 27.1764 24.732H22.9372C22.7784 24.7293 22.627 24.6643 22.5156 24.551C22.4043 24.4378 22.3419 24.2853 22.3419 24.1265C22.3419 23.9676 22.4043 23.8151 22.5156 23.7018C22.627 23.5886 22.7784 23.5236 22.9372 23.5209ZM22.9372 21.0985H29.5988C29.7579 21.1007 29.9097 21.1655 30.0215 21.2788C30.1332 21.3922 30.1958 21.5449 30.1958 21.704C30.1958 21.8632 30.1332 22.0159 30.0214 22.1293C29.9097 22.2426 29.7579 22.3074 29.5987 22.3096H22.9372C22.7782 22.3073 22.6264 22.2424 22.5148 22.1292C22.4032 22.0158 22.3406 21.8632 22.3406 21.7041C22.3406 21.545 22.4031 21.3923 22.5148 21.279C22.6264 21.1657 22.7781 21.1008 22.9372 21.0985ZM31.9666 10.4521L30.2649 14.1341L31.9666 17.8161C31.9898 17.8686 32.0055 17.9238 32.0133 17.9802C32.0192 18.0233 32.0206 18.0671 32.0173 18.1108C32.0096 18.2117 31.9769 18.3091 31.9223 18.3943C31.8677 18.4795 31.7929 18.5498 31.7044 18.599C31.616 18.6482 31.5167 18.6747 31.4155 18.6761H24.1484C23.9879 18.6756 23.8341 18.6116 23.7207 18.4982C23.6072 18.3847 23.5433 18.231 23.5428 18.0704V15.0425H19.9092V29.5768H21.726C22.047 29.5778 22.3545 29.7056 22.5814 29.9326C22.8083 30.1595 22.9362 30.467 22.9372 30.788V33.2104C22.9362 33.5313 22.8083 33.8388 22.5814 34.0658C22.3545 34.2927 22.047 34.4207 21.726 34.4216H14.4589C14.1379 34.4207 13.8304 34.2927 13.6035 34.0658C13.3765 33.8388 13.2486 33.5313 13.2477 33.2104V30.788C13.2486 30.467 13.3765 30.1595 13.6035 29.9326C13.8304 29.7056 14.1379 29.5778 14.4589 29.5768H16.2756V6.56415C16.2804 6.13892 16.4341 5.72882 16.71 5.40516C16.9859 5.08155 17.3665 4.86487 17.7856 4.79285C18.2047 4.72083 18.6358 4.79804 19.0039 5.01105C19.372 5.224 19.6538 5.55933 19.8002 5.95856H25.9651C26.2861 5.95948 26.5936 6.08741 26.8206 6.31433C27.0475 6.54132 27.1754 6.84882 27.1764 7.1698V9.59217H31.4155C31.517 9.5915 31.617 9.6167 31.706 9.66547C31.795 9.71424 31.8701 9.78485 31.9243 9.87073C31.9799 9.95618 32.0129 10.0543 32.0203 10.1559C32.0277 10.2576 32.0092 10.3595 31.9666 10.4521Z" fill="white"/>
</g>
</g>
<defs>
<linearGradient id="paint0_linear_13524_4283" x1="33.06" y1="19.5835" x2="1.71" y2="19.5835" gradientUnits="userSpaceOnUse">
<stop stop-color="#D1ADFF"/>
<stop offset="1" stop-color="#E7D5FF"/>
</linearGradient>
<clipPath id="clip0_13524_4283">
<rect y="0.583496" width="38" height="38" rx="19" fill="white"/>
</clipPath>
</defs>
</svg>
