<svg width="38" height="39" viewBox="0 0 38 39" fill="none" xmlns="http://www.w3.org/2000/svg">
<g id="Subtract 2">
<g clip-path="url(#clip0_13524_6035)">
<rect y="0.583496" width="38" height="38" rx="19" fill="url(#paint0_linear_13524_6035)"/>
<path id="Vector" fill-rule="evenodd" clip-rule="evenodd" d="M33.6027 31.7399C36.3483 28.4454 38 24.2073 38 19.5835C38 9.09009 29.4934 0.583496 19 0.583496C14.0812 0.583496 9.59898 2.45264 6.22482 5.51935C6.91783 4.88984 7.6593 4.31 8.44417 3.78559C11.5687 1.69782 15.2422 0.583496 19 0.583496C24.0374 0.589233 28.8668 2.59284 32.4287 6.15479C35.9907 9.71674 37.9943 14.5461 38 19.5835C38 23.3413 36.8857 27.0148 34.7979 30.1393C34.4265 30.6951 34.0277 31.2295 33.6027 31.7399ZM31.7752 33.6476C30.1636 35.1115 28.3037 36.2952 26.271 37.1372C24.2616 37.9695 22.1355 38.4467 19.9863 38.5584C24.5167 38.3267 28.6279 36.5081 31.7752 33.6476ZM19 38.5835C8.50659 38.5835 0 30.0769 0 19.5835C0 20.8221 0.121094 22.0636 0.365082 23.2902C1.09821 26.9758 2.90778 30.3613 5.56497 33.0185C8.22217 35.6757 11.6077 37.4853 15.2933 38.2184C16.5199 38.4624 17.7614 38.5835 19 38.5835ZM0.00621033 19.0931C0.0660706 16.7755 0.550018 14.4763 1.4463 12.3125C2.18646 10.5256 3.19044 8.87201 4.41696 7.40351C1.75714 10.5847 0.11879 14.6493 0.00621033 19.0931ZM19.546 23.7158C19.6531 23.6095 19.714 23.4652 19.7152 23.3143V17.5925C19.7128 17.4802 19.6778 17.3711 19.6145 17.2783C19.5511 17.1856 19.4622 17.1133 19.3585 17.0703C19.2548 17.0272 19.1408 17.0152 19.0304 17.0358C18.92 17.0564 18.818 17.1087 18.7368 17.1862L17.3064 18.6166C17.2027 18.7252 17.1456 18.8701 17.1473 19.0202C17.149 19.1703 17.2094 19.3138 17.3156 19.42C17.4217 19.5261 17.5652 19.5865 17.7153 19.5882C17.8655 19.59 18.0103 19.5328 18.1189 19.4291L18.5709 18.9714V23.3143C18.5721 23.4652 18.633 23.6095 18.7401 23.7158C18.8473 23.822 18.9921 23.8817 19.1431 23.8817C19.294 23.8817 19.4388 23.822 19.546 23.7158ZM12.7061 11.8707H14.4226C14.5726 11.8734 14.7155 11.9349 14.8207 12.0419C14.9258 12.1489 14.9847 12.2929 14.9847 12.4429C14.9847 12.593 14.9258 12.7369 14.8207 12.8439C14.7155 12.951 14.5726 13.0125 14.4226 13.0151H13.2782V14.1594C13.2756 14.3095 13.2142 14.4525 13.1072 14.5576C13.0002 14.6628 12.8561 14.7217 12.7061 14.7217C12.556 14.7217 12.412 14.6628 12.305 14.5576C12.198 14.4525 12.1365 14.3095 12.1339 14.1594V12.4429C12.1344 12.2913 12.1948 12.146 12.302 12.0388C12.4092 11.9316 12.5545 11.8712 12.7061 11.8707ZM13.4836 20.8515C13.3766 20.7463 13.3152 20.6034 13.3126 20.4534C13.6101 12.9121 24.4014 12.9121 24.6874 20.4534C24.6804 21.6679 24.2854 22.8483 23.5602 23.8226C22.8351 24.7968 21.8175 25.5138 20.6561 25.869C19.4947 26.2242 18.2502 26.199 17.1041 25.7971C15.9581 25.3951 14.9704 24.6375 14.2852 23.6346C14.2032 23.5095 14.1737 23.357 14.2031 23.2102C14.2324 23.0635 14.3183 22.9341 14.4421 22.85C14.566 22.7659 14.7179 22.7339 14.8651 22.7608C15.0124 22.7877 15.1432 22.8714 15.2293 22.9938C15.8357 23.895 16.7454 24.5485 17.793 24.8354C18.8406 25.1224 19.9564 25.0237 20.9374 24.5574C21.9184 24.0911 22.6993 23.2881 23.1382 22.2946C23.5771 21.301 23.6447 20.1829 23.3288 19.1437C23.0128 18.1045 22.3343 17.2132 21.4167 16.6321C20.499 16.051 19.4033 15.8185 18.3287 15.9772C17.2542 16.1358 16.2723 16.6749 15.5617 17.4964C14.8512 18.3179 14.4591 19.3672 14.4569 20.4534C14.4543 20.6034 14.3928 20.7463 14.2858 20.8515C14.1788 20.9567 14.0348 21.0156 13.8847 21.0156C13.7347 21.0156 13.5907 20.9567 13.4836 20.8515ZM23.5774 11.8707H25.2939C25.4455 11.8712 25.5908 11.9316 25.698 12.0388C25.8052 12.146 25.8656 12.2913 25.8661 12.4429V14.1594C25.8635 14.3095 25.802 14.4525 25.695 14.5576C25.588 14.6628 25.444 14.7217 25.2939 14.7217C25.1439 14.7217 24.9998 14.6628 24.8928 14.5576C24.7858 14.4525 24.7244 14.3095 24.7218 14.1594V13.0151H23.5774C23.4274 13.0125 23.2845 12.951 23.1794 12.8439C23.0742 12.7369 23.0153 12.593 23.0153 12.4429C23.0153 12.2929 23.0742 12.1489 23.1794 12.0419C23.2845 11.9349 23.4274 11.8734 23.5774 11.8707ZM25.8661 7.29334H23.0052C22.8552 7.29071 22.7122 7.22931 22.6071 7.12226C22.5019 7.01526 22.443 6.87122 22.443 6.7212C22.443 6.57111 22.5019 6.42707 22.6071 6.32007C22.7122 6.21302 22.8552 6.15162 23.0052 6.14899H25.8661C26.0161 6.15162 26.1591 6.21302 26.2643 6.32007C26.3694 6.42707 26.4283 6.57111 26.4283 6.7212C26.4283 6.87122 26.3694 7.01526 26.2643 7.12226C26.1591 7.22931 26.0161 7.29071 25.8661 7.29334ZM17.5655 8.10352C17.167 7.70905 16.9402 7.17322 16.9345 6.61249C16.9402 6.0517 17.167 5.51587 17.5655 5.1214C17.9641 4.72693 18.5022 4.50562 19.063 4.50562C19.6237 4.50562 20.1618 4.72693 20.5604 5.1214C20.959 5.51587 21.1857 6.0517 21.1915 6.61249C21.1857 7.17322 20.959 7.70905 20.5604 8.10352C20.1618 8.49805 19.6237 8.7193 19.063 8.7193C18.5022 8.7193 17.9641 8.49805 17.5655 8.10352ZM14.9948 7.29334H12.1339C11.9839 7.29071 11.8409 7.22931 11.7357 7.12226C11.6306 7.01526 11.5717 6.87122 11.5717 6.7212C11.5717 6.57111 11.6306 6.42707 11.7357 6.32007C11.8409 6.21302 11.9839 6.15162 12.1339 6.14899H14.9948C15.1448 6.15162 15.2878 6.21302 15.3929 6.32007C15.4981 6.42707 15.557 6.57111 15.557 6.7212C15.557 6.87122 15.4981 7.01526 15.3929 7.12226C15.2878 7.22931 15.1448 7.29071 14.9948 7.29334ZM27.8186 9.91822C28.0331 10.1326 28.1539 10.4232 28.1548 10.7264V25.952C28.1863 26.6767 27.4953 27.0154 26.8927 27.3109C26.7293 27.3909 26.5725 27.4678 26.4383 27.5483V30.7525C26.4357 30.9025 26.3742 31.0455 26.2672 31.1507C26.1602 31.2559 26.0162 31.3148 25.8661 31.3148C25.7161 31.3148 25.572 31.2559 25.465 31.1507C25.358 31.0455 25.2966 30.9025 25.2939 30.7525V28.1491L24.0867 28.7899C24.1698 28.7741 24.157 30.2258 24.1488 31.1508C24.1452 31.5617 24.1425 31.8687 24.1496 31.8969C24.1469 32.0469 24.0854 32.1898 23.9784 32.2949C23.8714 32.4 23.7274 32.4589 23.5774 32.4589C23.4274 32.4589 23.2834 32.4 23.1764 32.2949C23.0694 32.1898 23.0079 32.0469 23.0052 31.8969V29.3621L21.8266 29.9858C21.8767 29.9858 21.867 31.3544 21.8607 32.2597C21.8576 32.6982 21.8553 33.0281 21.8609 33.0412C21.8582 33.1912 21.7967 33.3341 21.6897 33.4392C21.5827 33.5444 21.4387 33.6033 21.2887 33.6033C21.1387 33.6033 20.9947 33.5444 20.8877 33.4392C20.7807 33.3341 20.7192 33.1912 20.7165 33.0412V30.5751L19.5722 31.1759V34.1856C19.5722 34.3373 19.5119 34.4829 19.4046 34.5902C19.2973 34.6975 19.1517 34.7578 19 34.7578C18.8483 34.7578 18.7027 34.6975 18.5954 34.5902C18.4881 34.4829 18.4278 34.3373 18.4278 34.1856V31.1759L17.2835 30.5751V33.0412C17.2808 33.1912 17.2193 33.3341 17.1123 33.4392C17.0053 33.5444 16.8613 33.6033 16.7113 33.6033C16.5613 33.6033 16.4173 33.5444 16.3103 33.4392C16.2033 33.3341 16.1418 33.1912 16.1391 33.0412V29.9687L14.9948 29.3621V31.8969C14.9921 32.0469 14.9306 32.1898 14.8236 32.2949C14.7166 32.4 14.5726 32.4589 14.4226 32.4589C14.2726 32.4589 14.1286 32.4 14.0216 32.2949C13.9146 32.1898 13.8531 32.0469 13.8504 31.8969V28.7556L12.7061 28.1491V30.7525C12.7035 30.9025 12.642 31.0455 12.535 31.1507C12.428 31.2559 12.2839 31.3148 12.1339 31.3148C11.9839 31.3148 11.8398 31.2559 11.7328 31.1507C11.6258 31.0455 11.5643 30.9025 11.5617 30.7525V27.5483C11.4235 27.4642 11.2613 27.3847 11.0928 27.3021C10.4936 27.0085 9.81396 26.6754 9.84523 25.952V10.7264C9.8461 10.4232 9.96695 10.1326 10.1814 9.91822C10.3958 9.7038 10.6863 9.58295 10.9895 9.58204H27.0105C27.3137 9.58295 27.6042 9.7038 27.8186 9.91822ZM19.7538 5.92579C19.938 6.1073 20.0433 6.35395 20.0471 6.61249C20.0433 6.87098 19.938 7.11768 19.7538 7.29914C19.5697 7.48066 19.3215 7.5824 19.0629 7.5824C18.8044 7.5824 18.5562 7.48066 18.3721 7.29914C18.1879 7.11768 18.0826 6.87098 18.0788 6.61249C18.0826 6.35395 18.1879 6.1073 18.3721 5.92579C18.5562 5.74433 18.8044 5.64258 19.0629 5.64258C19.3215 5.64258 19.5697 5.74433 19.7538 5.92579Z" fill="white"/>
</g>
</g>
<defs>
<linearGradient id="paint0_linear_13524_6035" x1="33.06" y1="19.5835" x2="1.71" y2="19.5835" gradientUnits="userSpaceOnUse">
<stop stop-color="#D1ADFF"/>
<stop offset="1" stop-color="#E7D5FF"/>
</linearGradient>
<clipPath id="clip0_13524_6035">
<rect y="0.583496" width="38" height="38" rx="19" fill="white"/>
</clipPath>
</defs>
</svg>
