<svg width="44" height="44" viewBox="0 0 44 44" fill="none" xmlns="http://www.w3.org/2000/svg">
<g id="Frame">
<path id="Vector" fill-rule="evenodd" clip-rule="evenodd" d="M26.4395 39.9805C26.4395 38.4597 25.2067 37.2269 23.6859 37.2269H20.3141C19.5838 37.2269 18.8834 37.517 18.367 38.0334C17.8506 38.5498 17.5605 39.2502 17.5605 39.9805C17.5605 41.5012 18.7933 42.7341 20.3141 42.7341H23.6859C25.2067 42.7341 26.4395 41.5012 26.4395 39.9805ZM5.78884 32.8801C6.24877 32.9152 6.80522 32.9354 7.36416 32.9027C7.66193 34.4128 8.40168 35.8134 9.50589 36.9177C10.9718 38.3835 12.96 39.207 15.033 39.207H16.0837C16.0374 39.4605 16.0136 39.7193 16.0136 39.9805C16.0136 40.2446 16.0374 40.5031 16.083 40.7539H15.033C12.5497 40.7539 10.168 39.7674 8.41208 38.0115C7.01121 36.6105 6.10002 34.8114 5.78884 32.8801ZM5.00199 31.2341C3.78073 31.0282 2.6443 30.4476 1.75716 29.5604C0.63207 28.4353 0 26.9093 0 25.3182V21.6621C0 20.071 0.63207 18.545 1.75716 17.4199C2.88226 16.2948 4.40825 15.6626 5.99938 15.6626H6.39873C7.03708 7.60549 13.7782 1.26562 22 1.26562C30.2218 1.26562 36.9629 7.60549 37.6013 15.6626H38.0006C39.5918 15.6626 41.1177 16.2948 42.2428 17.4199C43.3679 18.545 44 20.071 44 21.6621V25.3182C44 26.9093 43.3679 28.4353 42.2428 29.5604C41.1177 30.6856 39.5918 31.3176 38.0006 31.3176H36.2302C35.496 31.3176 34.9008 30.7223 34.9008 29.9882V16.9164C34.9008 9.79148 29.1249 4.01562 22 4.01562C14.8751 4.01562 9.09923 9.79148 9.09923 16.9164V29.9882C9.09923 30.5065 8.80249 30.9557 8.36954 31.175C7.17776 31.5885 5.3295 31.2894 5.00199 31.2341Z" fill="url(#paint0_linear_8646_9839)"/>
</g>
<defs>
<linearGradient id="paint0_linear_8646_9839" x1="1.9186" y1="5.61312" x2="25.1071" y2="6.52917" gradientUnits="userSpaceOnUse">
<stop stop-color="#92D839"/>
<stop offset="1" stop-color="#84BE4A"/>
</linearGradient>
</defs>
</svg>
