<svg width="58" height="59" viewBox="0 0 58 59" fill="none" xmlns="http://www.w3.org/2000/svg">
<g id="tabler:coins">
<g id="Group">
<path id="Vector" d="M21.75 34.3835C21.75 38.388 28.2412 41.6335 36.25 41.6335C44.2588 41.6335 50.75 38.388 50.75 34.3835C50.75 30.3791 44.2588 27.1335 36.25 27.1335C28.2412 27.1335 21.75 30.3791 21.75 34.3835Z" stroke="white" stroke-width="3" stroke-linecap="round" stroke-linejoin="round"/>
<path id="Vector_2" d="M21.75 34.3836V44.0503C21.75 48.0523 28.2412 51.3003 36.25 51.3003C44.2588 51.3003 50.75 48.0523 50.75 44.0503V34.3836M7.25 15.0503C7.25 17.641 10.0147 20.0335 14.5 21.3288C18.9853 22.6241 24.5147 22.6241 29 21.3288C33.4853 20.0335 36.25 17.641 36.25 15.0503C36.25 12.4596 33.4853 10.0671 29 8.77179C24.5147 7.47646 18.9853 7.47646 14.5 8.77179C10.0147 10.0671 7.25 12.4596 7.25 15.0503Z" stroke="white" stroke-width="3" stroke-linecap="round" stroke-linejoin="round"/>
<path id="Vector_3" d="M7.25 15.0503V39.217C7.25 41.363 9.11567 42.7211 12.0833 44.0503" stroke="white" stroke-width="3" stroke-linecap="round" stroke-linejoin="round"/>
<path id="Vector_4" d="M7.25 27.1335C7.25 29.2795 9.11567 30.6377 12.0833 31.9669" stroke="white" stroke-width="3" stroke-linecap="round" stroke-linejoin="round"/>
</g>
</g>
</svg>
