<svg width="201" height="36" viewBox="0 0 201 36" fill="none" xmlns="http://www.w3.org/2000/svg">
<g id="Group 4914">
<path id="Vector" d="M4.46545 1.58131L11.2666 1.58131L11.2666 7.70469L16.1675 7.70469L16.1675 12.5832L11.2666 12.5832L11.2666 22.643C11.2666 24.7627 11.9334 25.1664 14.2005 25.1664L16.1675 25.1664L16.1675 30.1459L11.8334 30.1459C6.33243 30.1459 4.46544 29.0692 4.46544 23.8543L4.46545 12.5832L0.964843 12.5832L0.964843 7.70469L4.46545 7.70469L4.46545 1.58131ZM39.2381 23.1477C37.2378 28.4636 32.5703 30.7515 28.1362 30.7515C20.9016 30.7515 15.9341 26.344 15.9341 18.8412C15.9341 11.6412 21.335 7.09908 27.8695 7.09908C35.2707 7.09908 39.8049 12.7514 39.3381 20.7253L22.8353 20.7253C23.0353 23.9216 25.5024 25.3683 27.9695 25.3683C30.5699 25.3683 32.2036 24.4262 32.9704 23.1141L39.2381 23.1477ZM22.9353 16.5533L32.5703 16.5533C32.4369 13.7271 30.5033 12.3141 27.9028 12.3141C25.4357 12.3141 23.302 13.5926 22.9353 16.5533ZM62.7421 15.9477L56.4077 15.9477C55.8076 13.3234 54.174 12.415 52.1737 12.415C49.7399 12.415 47.3395 14.0972 47.3395 18.9085C47.3395 23.787 49.7399 25.4019 52.1737 25.4019C54.6741 25.4019 56.241 24.0898 56.7411 21.9365L63.0755 21.9365C61.5419 28.5982 56.2077 30.7178 51.7402 30.7178C44.4057 30.7178 40.3716 25.9739 40.3716 18.8075C40.3716 11.6412 45.0058 7.06544 51.7402 7.06544C56.341 7.06544 61.4086 9.18507 62.7421 15.9477ZM70.6435 10.6991C71.6103 9.01685 74.0441 7.23367 77.5447 7.23367C83.2457 7.23367 85.046 10.6318 85.046 16.7215L85.046 30.2132L78.2448 30.2132L78.2448 18.4711C78.2448 15.2748 78.1448 12.6505 74.8442 12.6505C71.9104 12.6505 70.6768 14.5683 70.6768 18.7739L70.6768 30.2805L63.8757 30.2805L63.8757 5.49984e-06L70.6768 6.09442e-06L70.6435 10.6991ZM100.715 14.3328C100.249 12.6505 98.515 12.1795 96.3813 12.1795C94.0142 12.1795 92.8473 12.7514 92.8473 13.8617C92.8473 14.9047 93.6475 15.5103 95.5811 15.8804L99.7485 16.6206C105.083 17.5963 107.65 19.2113 107.65 23.1477C107.65 28.1945 103.049 30.7515 96.8814 30.7515C90.947 30.7515 86.7463 28.2281 85.9795 22.9122L92.3139 22.9122C92.914 25.0655 94.6476 25.7384 96.9814 25.7384C99.4151 25.7384 101.115 25.0655 101.115 23.7197C101.115 22.744 100.249 22.0711 97.6148 21.6337L93.6475 20.9608C89.3467 20.2543 86.4129 18.0673 86.4129 14.0972C86.4129 9.62246 91.0804 7.16638 96.5813 7.16638C101.649 7.16638 106.283 9.21872 107.116 14.3664L100.715 14.3328ZM111.15 1.58132L117.952 1.58132L117.952 7.7047L122.852 7.7047L122.852 12.5832L117.952 12.5832L117.952 22.6431C117.952 24.7627 118.618 25.1664 120.885 25.1664L122.819 25.1664L122.819 30.1459L118.518 30.1459C113.017 30.1459 111.15 29.0692 111.15 23.8543L111.15 12.5832L107.65 12.5832L107.65 7.7047L111.15 7.7047L111.15 1.58132ZM138.389 15.2748C138.389 12.5832 137.122 11.7085 134.621 11.7085C132.421 11.7085 130.954 12.8524 130.654 15.0057L124.286 15.0057C124.619 10.7664 128.587 7.0318 135.188 7.0318C141.622 7.0318 145.256 9.65611 145.123 16.486L145.023 21.3646L145.023 23.7197C145.023 26.1758 145.19 28.8337 145.523 30.2132L138.822 30.2132L138.722 27.4879C137.055 29.8767 134.421 30.7515 131.221 30.7515C126.987 30.7515 123.519 28.2618 123.519 24.1571C123.519 18.6393 129.687 16.8561 138.322 16.1832L138.389 15.2748ZM138.589 20.2206C133.821 20.6917 130.654 21.1627 130.654 23.6524C130.654 25.0991 132.021 26.0748 133.788 26.0748C136.522 26.0748 138.589 24.8973 138.589 20.7589L138.589 20.2206ZM160.726 14.3328C160.126 14.2318 159.459 14.1645 158.859 14.1982C155.558 14.1982 153.858 15.4094 153.858 18.9085L153.858 30.1795L147.023 30.1795L147.023 7.7047L153.591 7.7047L153.591 11.9776C154.625 9.28602 156.492 7.70471 159.659 7.57013L160.159 7.57013C160.359 7.57013 160.526 7.57012 160.726 7.60377L160.726 14.3328ZM175.795 14.3328C175.328 12.6505 173.595 12.1795 171.461 12.1795C169.094 12.1795 167.927 12.7514 167.927 13.8617C167.927 14.9047 168.727 15.5103 170.661 15.8804L174.795 16.6206C180.129 17.5963 182.696 19.2113 182.696 23.1477C182.696 28.1945 178.095 30.7515 171.928 30.7515C166.027 30.7515 161.793 28.2281 161.026 22.9122L167.36 22.9122C167.96 25.0655 169.694 25.7384 172.028 25.7384C174.461 25.7384 176.162 25.0655 176.162 23.7197C176.162 22.744 175.295 22.0711 172.661 21.6337L168.694 20.9608C164.393 20.2543 161.492 18.0674 161.492 14.0972C161.492 9.62247 166.16 7.16638 171.661 7.16639C176.728 7.16639 181.363 9.21873 182.196 14.3664L175.795 14.3328Z" fill="#0C1101"/>
<path id="Vector_2" d="M182.562 36.0001L182.562 30.2131L200.966 30.2131L200.966 36.0001L182.562 36.0001Z" fill="url(#paint0_linear_4507_79753)"/>
</g>
<defs>
<linearGradient id="paint0_linear_4507_79753" x1="187.938" y1="28.8338" x2="189.679" y2="36.0678" gradientUnits="userSpaceOnUse">
<stop stop-color="#D9FF8A"/>
<stop offset="1" stop-color="#91C65C"/>
</linearGradient>
</defs>
</svg>
