<svg width="36" height="36" viewBox="0 0 36 36" fill="none" xmlns="http://www.w3.org/2000/svg">
<g id="Frame">
<g id="Layer 2">
<path id="Vector" d="M18 1.5C14.7366 1.5 11.5465 2.46771 8.8331 4.28075C6.11969 6.09379 4.00484 8.67074 2.756 11.6857C1.50715 14.7007 1.18039 18.0183 1.81705 21.219C2.45371 24.4197 4.02518 27.3597 6.33275 29.6673C8.64031 31.9748 11.5803 33.5463 14.781 34.183C17.9817 34.8196 21.2993 34.4929 24.3143 33.244C27.3293 31.9952 29.9062 29.8803 31.7193 27.1669C33.5323 24.4535 34.5 21.2634 34.5 18C34.4948 13.6255 32.7548 9.43167 29.6616 6.33844C26.5683 3.24521 22.3745 1.50516 18 1.5ZM23.5605 23.5605C23.2792 23.8417 22.8978 23.9997 22.5 23.9997C22.1023 23.9997 21.7208 23.8417 21.4395 23.5605L16.9395 19.0605C16.6582 18.7793 16.5001 18.3978 16.5 18V9C16.5 8.60218 16.658 8.22064 16.9393 7.93934C17.2207 7.65804 17.6022 7.5 18 7.5C18.3978 7.5 18.7794 7.65804 19.0607 7.93934C19.342 8.22064 19.5 8.60218 19.5 9V17.379L23.5605 21.4395C23.8417 21.7208 23.9997 22.1023 23.9997 22.5C23.9997 22.8977 23.8417 23.2792 23.5605 23.5605Z" fill="#0C1101"/>
</g>
</g>
</svg>
