<svg width="23" height="23" viewBox="0 0 23 23" fill="none" xmlns="http://www.w3.org/2000/svg">
<g id="Group">
<path id="Vector" d="M8.38099 4.13379L6.55469 5.5335C6.89582 5.80025 7.1819 6.1342 7.39185 6.51598L9.23697 5.10183C8.89 4.84136 8.59832 4.51157 8.38099 4.13379Z" fill="white"/>
<path id="Vector_2" d="M15.7356 5.66035L13.8989 4.17114C13.6768 4.54544 13.3805 4.87054 13.0303 5.12638L14.9615 6.69229C15.1477 6.29741 15.4125 5.94683 15.7356 5.66035Z" fill="white"/>
<path id="Vector_3" d="M4.52018 11.2844C3.56237 11.2844 2.60915 11.5223 1.76361 11.9724L0.150391 12.831V17.0595H1.43945V13.6052C1.43945 13.6052 2.50392 13.0414 2.57237 13.0092V22.5834H3.86143V18.1355H5.17894V22.5834H6.468V13.0092C6.53645 13.0414 7.60091 13.6052 7.60091 13.6052V17.0595H8.88998V12.831L7.2768 11.9724C6.43122 11.5223 5.478 11.2844 4.52018 11.2844Z" fill="white"/>
<path id="Vector_4" d="M4.59137 6.10205C3.51737 6.10205 2.64355 6.97586 2.64355 8.04991C2.64355 9.12396 3.51732 9.99773 4.59137 9.99773C5.66542 9.99773 6.53919 9.12396 6.53919 8.04991C6.53919 6.97586 5.66542 6.10205 4.59137 6.10205Z" fill="white"/>
<path id="Vector_5" d="M11.15 0.583496C10.076 0.583496 9.20215 1.45731 9.20215 2.53131C9.20215 3.60536 10.0759 4.47913 11.15 4.47913C12.224 4.47913 13.0978 3.60536 13.0978 2.53131C13.0978 1.45731 12.224 0.583496 11.15 0.583496Z" fill="white"/>
<path id="Vector_6" d="M20.5375 11.9724C19.6919 11.5223 18.7387 11.2844 17.7809 11.2844C16.8231 11.2844 15.8698 11.5223 15.0243 11.9724L13.4111 12.831V17.0595H14.7002V13.6052C14.7002 13.6052 15.7647 13.0413 15.8331 13.0092V22.5834H17.1222V18.1355H18.4397V22.5834H19.7287V13.0092C19.7972 13.0414 20.8617 13.6052 20.8617 13.6052V17.0595H22.1507V12.831L20.5375 11.9724Z" fill="white"/>
<path id="Vector_7" d="M17.8511 9.99773C18.9252 9.99773 19.799 9.12396 19.799 8.04991C19.799 6.97586 18.9252 6.10205 17.8511 6.10205C16.7771 6.10205 15.9033 6.97586 15.9033 8.04991C15.9034 9.12396 16.7771 9.99773 17.8511 9.99773Z" fill="white"/>
</g>
</svg>
