<svg width="44" height="44" viewBox="0 0 44 44" fill="none" xmlns="http://www.w3.org/2000/svg">
<g id="Layer_1" clip-path="url(#clip0_8646_9841)">
<path id="Vector" d="M3.66667 22H0C0 9.86883 9.86883 0 22 0C27.4633 0 32.6737 2.035 36.6667 5.6045V1.83334C36.6667 0.820814 37.4875 0 38.5 0C39.5125 0 40.3333 0.820812 40.3333 1.83333V9.16667C40.3333 11.1888 38.6888 12.8333 36.6667 12.8333H29.3333C28.3208 12.8333 27.5 12.0125 27.5 11C27.5 9.98748 28.3208 9.16667 29.3333 9.16667H35.0918C31.6708 5.6815 26.961 3.66667 22 3.66667C11.891 3.66667 3.66667 11.891 3.66667 22ZM40.3333 22C40.3333 32.109 32.109 40.3333 22 40.3333C17.039 40.3333 12.3292 38.3185 8.90817 34.8333H14.6667C15.6792 34.8333 16.5 34.0125 16.5 33C16.5 31.9875 15.6792 31.1667 14.6667 31.1667H7.33333C5.31117 31.1667 3.66667 32.8112 3.66667 34.8333V42.1667C3.66667 43.1792 4.48748 44 5.5 44C6.51252 44 7.33333 43.1792 7.33333 42.1667V38.3955C11.3263 41.9632 16.5367 44 22 44C34.1312 44 44 34.1312 44 22H40.3333Z" fill="url(#paint0_linear_8646_9841)"/>
</g>
<defs>
<linearGradient id="paint0_linear_8646_9841" x1="1.9186" y1="4.6129" x2="25.1112" y2="5.4764" gradientUnits="userSpaceOnUse">
<stop stop-color="#92D839"/>
<stop offset="1" stop-color="#84BE4A"/>
</linearGradient>
<clipPath id="clip0_8646_9841">
<rect width="44" height="44" fill="white"/>
</clipPath>
</defs>
</svg>
