<svg width="220" height="55" viewBox="0 0 220 55" fill="none" xmlns="http://www.w3.org/2000/svg">
<g id="Group 4980">
<path id="Vector" d="M29.1875 17.2521L29.0179 17.2425C29.0179 14.7018 29.0179 12.1611 29.0179 9.62278C29.0179 8.06542 28.9671 8.01698 27.3637 8.01455C25.5496 8.01213 23.7355 8.01213 21.9214 8.01455C20.2284 8.01455 20.2139 8.02667 20.2139 9.67606C20.209 14.072 20.2672 18.468 20.18 22.8616C20.1533 24.2469 19.9596 25.7074 19.4606 26.9863C18.6904 28.965 16.3629 29.9581 13.8803 29.6965C11.2185 29.4155 9.74349 28.2651 9.20822 25.9133C8.98782 24.9396 8.87156 23.9248 8.86429 22.9269C8.82796 18.451 8.82796 13.9752 8.86429 9.49925C8.87156 8.43114 8.54701 7.95643 7.40624 7.99518C5.43229 8.063 3.4535 8.063 1.47955 7.99518C0.348466 7.95643 -0.00272764 8.41419 0.00696044 9.48715C0.0432908 13.1565 -0.0463237 16.8283 0.0432911 20.4952C0.10142 22.8615 0.237053 25.2472 0.607623 27.5821C1.24461 31.6026 3.40506 34.5357 7.30451 36.0446C11.1919 37.5463 15.2027 37.6262 19.2063 36.8439C24.8109 35.7491 27.8215 32.6974 28.6038 27.1243C29.0615 23.8715 29.0107 20.5437 29.1899 17.2521H29.1875Z" fill="#FDFEFE"/>
<path id="Vector_2" d="M171.927 27.0395C171.927 29.9822 171.951 32.9274 171.913 35.8702C171.9 36.7518 172.189 37.0981 173.092 37.0812C175.187 37.0376 177.287 37.0085 179.382 37.0909C180.562 37.1369 180.893 36.7276 180.884 35.5722C180.833 29.9265 180.859 24.2808 180.859 18.6375C180.859 16.9905 180.872 16.976 182.572 16.9687C183.984 16.9639 185.396 16.9348 186.806 16.9784C187.711 17.0075 188.012 16.6296 187.99 15.7553C187.946 13.9823 187.949 12.207 187.99 10.4341C188.009 9.56215 187.704 9.18432 186.798 9.21339C185.347 9.2594 183.894 9.22791 182.443 9.22307C180.901 9.2158 180.864 9.17948 180.862 7.68509C180.862 5.7499 180.838 3.8147 180.874 1.8795C180.891 0.988201 180.62 0.525595 179.641 0.540127C177.464 0.576457 175.286 0.561923 173.109 0.544968C172.242 0.537702 171.896 0.893741 171.915 1.78747C171.961 3.88252 171.905 5.98241 171.944 8.07746C171.959 8.90337 171.67 9.25214 170.825 9.23276C169.333 9.19643 167.841 9.24487 166.349 9.22065C165.354 9.20612 164.857 9.58395 164.884 10.6472C164.927 12.299 164.923 13.9533 164.884 15.6075C164.86 16.6102 165.327 16.9857 166.272 16.976C167.722 16.959 169.176 17.005 170.626 16.9663C171.617 16.9396 171.963 17.3417 171.946 18.3347C171.896 21.2363 171.929 24.1403 171.927 27.0443V27.0395Z" fill="#FDFEFE"/>
<path id="Vector_3" d="M32.8937 27.6861H32.8864C32.8864 30.3455 32.9445 33.0073 32.8598 35.6642C32.821 36.8704 33.2594 37.1925 34.3905 37.1465C36.2821 37.0714 38.1785 37.1296 40.0725 37.1247C41.1931 37.1231 41.755 36.5733 41.7583 35.4753C41.768 31.244 41.7171 27.0128 41.8067 22.7839C41.877 19.5263 43.6668 17.86 46.922 17.7897C47.6462 17.7752 48.3752 17.751 49.097 17.7921C49.8745 17.8382 50.2039 17.5136 50.199 16.7434C50.1869 14.4473 50.1845 12.1488 50.2039 9.85275C50.2111 9.08012 49.8793 8.75073 49.1115 8.77737C47.2224 8.84761 45.3211 8.79675 43.4416 8.97355C37.0111 9.57421 33.0051 13.9532 32.9009 20.4321C32.8622 22.8493 32.8937 25.2665 32.8937 27.6861Z" fill="#FDFEFE"/>
<path id="Vector_4" d="M151.915 23.1424C151.915 27.3712 151.932 31.6025 151.901 35.8313C151.893 36.7493 152.169 37.1465 153.141 37.1271C155.354 37.0787 157.573 37.0811 159.787 37.1271C160.753 37.1465 161.015 36.7565 161.012 35.8338C160.986 27.4148 160.988 18.9959 161.012 10.5769C161.015 9.59841 160.671 9.19393 159.67 9.21331C157.616 9.25691 155.563 9.223 153.506 9.22784C152.046 9.23026 151.917 9.35863 151.915 10.8191C151.91 14.9269 151.915 19.037 151.915 23.1448V23.1424Z" fill="#FDFEFE"/>
<path id="Vector_5" d="M156.377 6.83749C157.506 6.83749 158.637 6.79874 159.763 6.8496C160.628 6.88835 161.039 6.58318 161.025 5.68945C161.001 4.27741 161.008 2.8678 161.022 1.45576C161.03 0.673449 160.746 0.259277 159.891 0.268965C157.593 0.295607 155.294 0.295607 152.996 0.268965C152.192 0.261699 151.911 0.685559 151.906 1.38795C151.891 2.83874 151.903 4.29194 151.899 5.74274C151.899 6.5638 152.298 6.87867 153.112 6.84476C154.2 6.80116 155.289 6.83265 156.377 6.83265V6.83749Z" fill="#FDFEFE"/>
<path id="Vector_6" d="M61.9845 10.0998C62.5948 9.87943 62.9969 9.76317 63.3723 9.59121C68.4077 7.29755 76.9405 7.91517 80.7697 14.6411C84.0055 20.3256 83.3612 29.1393 78.3816 33.4941C76.7346 34.9352 74.8939 35.9937 72.7552 36.3691C68.4367 37.1296 64.1619 37.2943 60.3206 34.6034C56.1377 31.6728 53.9434 27.6304 53.8877 22.5369C53.815 15.6075 53.8683 8.67568 53.8707 1.74386C53.8707 0.0702416 53.9482 0.00242202 55.6679 0C57.1598 0 58.6494 0 60.1413 0C61.3653 0.00161468 61.9788 0.598235 61.9821 1.78987C61.9821 4.04719 61.9821 6.3021 61.9821 8.55942C61.9821 8.95664 61.9821 9.35385 61.9821 10.0974L61.9845 10.0998ZM68.8049 15.1401C64.4162 15.1231 61.3281 18.1119 61.207 22.2947C61.0665 27.2017 64.7407 30.1324 68.6765 30.1251C72.9829 30.1154 76.1315 27.008 76.1606 22.6871C76.1896 18.342 73.087 15.1594 68.8049 15.1401Z" fill="#075CD3"/>
<path id="Vector_7" d="M29.1879 17.2521C29.0087 20.5461 29.0596 23.8715 28.6018 27.1243C27.8171 32.6974 24.8089 35.7491 19.2044 36.8439C15.2008 37.6262 11.1899 37.5463 7.30256 36.0446C3.4031 34.5381 1.24266 31.6026 0.605669 27.5821C0.237522 25.2472 0.099466 22.8615 0.0413375 20.4952C-0.0482773 16.8283 0.0413389 13.1565 0.00500862 9.48715C-0.00467947 8.41419 0.346512 7.95643 1.4776 7.99518C3.45154 8.063 5.43034 8.063 7.40428 7.99518C8.54506 7.95643 8.86961 8.43357 8.86234 9.49925C8.82843 13.9752 8.82843 18.451 8.86234 22.9269C8.86961 23.9248 8.98586 24.9421 9.20627 25.9133C9.74154 28.2651 11.2165 29.4155 13.8783 29.6965C16.3585 29.9581 18.6885 28.965 19.4587 26.9863C19.9576 25.7074 20.149 24.2469 20.178 22.8616C20.2652 18.468 20.2095 14.072 20.2119 9.67606C20.2119 8.02425 20.2265 8.01455 21.9195 8.01455C23.7336 8.01213 25.5477 8.01213 27.3617 8.01455C28.9651 8.01698 29.0136 8.06542 29.016 9.62278C29.016 12.1635 29.016 14.7042 29.016 17.2425L29.1855 17.2521H29.1879Z" fill="#075DD3"/>
<path id="Vector_8" d="M147.767 28.0082C147.767 30.67 147.74 33.3318 147.784 35.9912C147.798 36.8437 147.478 37.1416 146.662 37.1319C144.526 37.1077 142.387 37.0956 140.251 37.1368C139.273 37.1562 139.033 36.7274 139.04 35.8168C139.076 31.4232 139.062 27.0273 139.05 22.6337C139.05 21.7884 139.033 20.9359 138.921 20.1003C138.645 18.0173 137.635 16.3922 135.531 15.8424C133.37 15.2756 131.091 15.1666 129.434 16.9662C128.654 17.8115 128.046 19.1339 127.991 20.2722C127.768 24.8983 127.787 29.5365 127.72 34.1698C127.669 37.5558 128.199 37.0908 124.779 37.1222C123.207 37.1368 121.633 37.1125 120.061 37.1295C119.284 37.1392 118.833 36.8752 118.85 36.0178C118.971 30.1783 118.874 24.3267 119.255 18.5042C119.594 13.3259 122.716 9.87449 127.763 8.62473C132.317 7.49849 136.867 7.55904 141.256 9.49908C144.666 11.008 146.72 13.694 147.222 17.2956C147.713 20.8293 147.529 24.4405 147.769 28.0082C147.544 28.0227 147.844 28.0033 147.769 28.0082H147.767Z" fill="#085DD3"/>
<path id="Vector_9" d="M115.139 27.9662C115.139 30.5045 115.107 33.0452 115.156 35.5835C115.173 36.5111 114.897 36.8962 113.925 36.8647C112.153 36.809 110.377 36.8187 108.607 36.8647C107.703 36.8865 107.313 36.591 107.26 35.6392C107.19 34.3773 106.766 34.1859 105.78 35.0022C101.384 38.6449 90.863 37.429 87.5957 29.2378C85.9172 25.0283 85.8663 20.7583 87.4964 16.5149C89.2184 12.0317 92.6867 9.65328 97.2547 8.82253C101.142 8.1153 104.974 8.45196 108.573 10.2225C112.806 12.3078 114.841 15.8706 115.09 20.47C115.226 22.9623 115.115 25.4667 115.115 27.9662C115.124 27.9662 115.134 27.9662 115.144 27.9662H115.139ZM100.294 15.8585C96.2423 15.873 93.549 18.6463 93.5756 22.7758C93.5999 26.7746 96.4772 29.6277 100.461 29.6059C104.458 29.5841 107.277 26.7261 107.265 22.708C107.253 18.6414 104.407 15.8416 100.294 15.8585Z" fill="#085DD3"/>
<path id="Vector_10" d="M208.432 24.4358C205.329 24.4358 202.227 24.4334 199.124 24.4358C197.598 24.4358 197.349 24.8669 198.051 26.2474C199.982 30.0428 204.86 31.3313 208.543 29.1054C210.015 28.2166 209.827 28.3377 211.159 28.3377C213.097 28.3377 214.964 28.3062 216.899 28.3183C218.27 28.3255 218.408 28.5799 217.674 29.786C214.158 35.5529 208.883 37.8029 202.367 36.9697C196.433 36.2117 192.357 32.7845 190.286 27.1702C187.993 20.9529 191.313 13.3574 197.552 10.2597C204.896 6.60969 213.615 9.14797 217.747 16.1355C218.965 18.1966 219.426 20.4734 219.602 22.813C219.699 24.0967 219.312 24.4285 217.982 24.4334C214.8 24.4406 211.615 24.4334 208.432 24.4358ZM204.533 19.9793C206.305 19.9793 208.078 19.9986 209.849 19.9647C210.21 19.9575 210.566 19.754 210.927 19.6402C210.791 19.2817 210.726 18.8772 210.513 18.5745C207.616 14.4425 201.454 14.4813 198.587 18.6496C198.398 18.9233 198.216 19.3641 198.313 19.6232C198.388 19.8267 198.897 19.9599 199.216 19.9647C200.989 19.9962 202.76 19.9793 204.533 19.9793Z" fill="#095ED3"/>
<path id="Vector_11" d="M171.927 27.0393C171.927 24.1353 171.896 21.2313 171.947 18.3297C171.964 17.3343 171.617 16.9346 170.627 16.9613C169.176 17 167.723 16.954 166.272 16.971C165.327 16.9831 164.86 16.6052 164.884 15.6025C164.923 13.9507 164.928 12.2965 164.884 10.6422C164.855 9.57895 165.354 9.20111 166.349 9.21564C167.841 9.23744 169.333 9.19143 170.825 9.22776C171.671 9.24713 171.959 8.89836 171.944 8.07245C171.905 5.9774 171.961 3.87751 171.915 1.78246C171.896 0.891154 172.242 0.535123 173.109 0.539967C175.287 0.556921 177.464 0.571448 179.641 0.535118C180.62 0.518164 180.891 0.98077 180.874 1.8745C180.838 3.80969 180.862 5.74489 180.862 7.68008C180.862 9.17447 180.901 9.2108 182.444 9.21807C183.894 9.22533 185.348 9.2544 186.798 9.20838C187.704 9.17931 188.007 9.55715 187.99 10.4291C187.951 12.202 187.949 13.9773 187.99 15.7503C188.012 16.6246 187.712 17.0024 186.806 16.9734C185.396 16.9298 183.984 16.9589 182.572 16.9637C180.874 16.9685 180.86 16.9831 180.86 18.6325C180.86 24.2782 180.833 29.9239 180.884 35.5672C180.894 36.7225 180.562 37.1319 179.382 37.0858C177.29 37.0035 175.19 37.0326 173.092 37.0762C172.189 37.0955 171.901 36.7468 171.913 35.8652C171.951 32.9224 171.927 29.9772 171.927 27.0345V27.0393Z" fill="#085DD3"/>
<path id="Vector_12" d="M32.8937 27.6861C32.8937 25.2689 32.8598 22.8493 32.9009 20.4322C33.0051 13.9533 37.0111 9.57424 43.4416 8.97358C45.3211 8.79677 47.2224 8.84764 49.1115 8.7774C49.8793 8.74833 50.2111 9.07773 50.2039 9.85277C50.1845 12.1489 50.1869 14.4474 50.199 16.7434C50.2039 17.5136 49.8769 17.8382 49.097 17.7922C48.3752 17.7486 47.6462 17.7728 46.922 17.7897C43.6644 17.86 41.8745 19.5263 41.8067 22.784C41.7171 27.0128 41.768 31.2465 41.7583 35.4753C41.755 36.5717 41.1931 37.1215 40.0725 37.1247C38.1785 37.1272 36.2821 37.0715 34.3905 37.1465C33.2594 37.1926 32.821 36.8704 32.8598 35.6643C32.9445 33.0073 32.8864 30.3455 32.8864 27.6861H32.8937Z" fill="#075DD3"/>
<path id="Vector_13" d="M151.915 23.1425C151.915 19.0348 151.913 14.9246 151.915 10.8168C151.915 9.35636 152.046 9.23041 153.506 9.22557C155.56 9.22072 157.616 9.25463 159.67 9.21103C160.671 9.18924 161.015 9.59614 161.012 10.5746C160.99 18.9936 160.988 27.4125 161.012 35.8315C161.015 36.7543 160.753 37.1442 159.787 37.1248C157.573 37.0788 155.354 37.0788 153.141 37.1248C152.169 37.1466 151.893 36.747 151.901 35.8291C151.932 31.6002 151.915 27.3689 151.915 23.1401V23.1425Z" fill="#095ED4"/>
<path id="Vector_14" d="M156.377 6.83729C155.287 6.83729 154.197 6.80337 153.112 6.84939C152.298 6.8833 151.896 6.56844 151.899 5.74738C151.903 4.29658 151.891 2.84337 151.906 1.39258C151.913 0.690191 152.194 0.266339 152.996 0.273605C155.294 0.297825 157.593 0.297825 159.891 0.273605C160.746 0.263917 161.03 0.675659 161.022 1.46039C161.008 2.87243 161.001 4.28447 161.025 5.69409C161.039 6.58782 160.63 6.89299 159.763 6.85423C158.637 6.80337 157.506 6.84213 156.377 6.84213V6.83729Z" fill="#0BF192"/>
<g id="Group 4979">
<g id="By FORD Next">
<path d="M156.088 52.3653V44.4315H161.504V45.9888H158.005V47.6159H161.159V49.1771H158.005V52.3653H156.088Z" fill="#0058D2"/>
<path d="M169.958 48.3984C169.958 49.2713 169.79 50.0112 169.454 50.6182C169.118 51.2251 168.664 51.6861 168.09 52.0012C167.52 52.3162 166.879 52.4738 166.169 52.4738C165.456 52.4738 164.814 52.315 164.244 51.9973C163.673 51.6796 163.22 51.2186 162.884 50.6143C162.551 50.0074 162.384 49.2687 162.384 48.3984C162.384 47.5255 162.551 46.7855 162.884 46.1786C163.22 45.5717 163.673 45.1107 164.244 44.7956C164.814 44.4805 165.456 44.323 166.169 44.323C166.879 44.323 167.52 44.4805 168.09 44.7956C168.664 45.1107 169.118 45.5717 169.454 46.1786C169.79 46.7855 169.958 47.5255 169.958 48.3984ZM167.997 48.3984C167.997 47.8819 167.924 47.4454 167.777 47.089C167.632 46.7326 167.423 46.4627 167.149 46.2793C166.878 46.096 166.551 46.0043 166.169 46.0043C165.789 46.0043 165.463 46.096 165.189 46.2793C164.915 46.4627 164.705 46.7326 164.557 47.089C164.413 47.4454 164.34 47.8819 164.34 48.3984C164.34 48.9149 164.413 49.3514 164.557 49.7078C164.705 50.0642 164.915 50.3341 165.189 50.5174C165.463 50.7008 165.789 50.7925 166.169 50.7925C166.551 50.7925 166.878 50.7008 167.149 50.5174C167.423 50.3341 167.632 50.0642 167.777 49.7078C167.924 49.3514 167.997 48.9149 167.997 48.3984Z" fill="#0058D2"/>
<path d="M171.105 52.3653V44.4315H174.382C174.977 44.4315 175.489 44.5386 175.92 44.753C176.354 44.9648 176.689 45.2695 176.924 45.6673C177.159 46.0624 177.276 46.5311 177.276 47.0735C177.276 47.6236 177.156 48.0911 176.916 48.4759C176.676 48.8581 176.335 49.1499 175.893 49.3514C175.452 49.5502 174.929 49.6497 174.324 49.6497L173.023 49.6573V48.1465L173.968 48.1388C174.257 48.1388 174.499 48.1014 174.692 48.0265C174.889 47.949 175.037 47.8328 175.138 47.6778C175.239 47.5203 175.289 47.3189 175.289 47.0735C175.289 46.8281 175.239 46.6254 175.138 46.4653C175.037 46.3026 174.889 46.1812 174.692 46.1011C174.496 46.0185 174.255 45.9772 173.968 45.9772H173.023V52.3653H171.105Z" fill="#0058D2"/>
<path d="M181.233 52.3653H178.3V44.4315H181.229C182.037 44.4315 182.733 44.5903 183.317 44.908C183.903 45.223 184.355 45.6776 184.673 46.2716C184.99 46.863 185.149 47.5707 185.149 48.3945C185.149 49.221 184.99 49.9312 184.673 50.5252C184.358 51.1192 183.907 51.575 183.321 51.8927C182.735 52.2078 182.039 52.3653 181.233 52.3653ZM180.218 50.7305H181.159C181.603 50.7305 181.979 50.6556 182.286 50.5058C182.596 50.3534 182.83 50.1068 182.988 49.7659C183.148 49.4224 183.228 48.9653 183.228 48.3945C183.228 47.8238 183.148 47.3692 182.988 47.0309C182.828 46.69 182.591 46.4446 182.279 46.2948C181.969 46.1425 181.587 46.0663 181.132 46.0663H180.218V50.7305Z" fill="#0058D2"/>
<path d="M195.365 44.4315V52.3653H193.738L190.581 47.7863H190.53V52.3653H188.613V44.4315H190.263L193.385 49.0027H193.451V44.4315H195.365Z" fill="#0058D2"/>
<path d="M199.352 52.4777C198.73 52.4777 198.193 52.355 197.741 52.1096C197.291 51.8617 196.945 51.5092 196.702 51.052C196.462 50.5923 196.342 50.0461 196.342 49.4134C196.342 48.7987 196.463 48.2615 196.706 47.8018C196.949 47.3395 197.291 46.9805 197.733 46.7248C198.174 46.4666 198.695 46.3375 199.294 46.3375C199.718 46.3375 200.105 46.4033 200.456 46.535C200.807 46.6667 201.111 46.8617 201.367 47.12C201.622 47.3783 201.821 47.6972 201.963 48.0769C202.105 48.4539 202.176 48.8865 202.176 49.3746V49.8473H198.198V48.747H200.414C200.411 48.5456 200.363 48.3661 200.27 48.2086C200.177 48.051 200.049 47.9284 199.887 47.8405C199.727 47.7502 199.542 47.705 199.333 47.705C199.121 47.705 198.931 47.7527 198.763 47.8483C198.595 47.9413 198.462 48.0691 198.364 48.2318C198.266 48.3919 198.215 48.574 198.209 48.778V49.8976C198.209 50.1404 198.257 50.3534 198.353 50.5368C198.448 50.7176 198.584 50.8584 198.759 50.9591C198.935 51.0598 199.144 51.1102 199.387 51.1102C199.555 51.1102 199.707 51.0869 199.844 51.0404C199.981 50.9939 200.099 50.9255 200.197 50.8351C200.295 50.7447 200.368 50.6337 200.417 50.5019L202.157 50.5523C202.085 50.9423 201.926 51.2819 201.68 51.5712C201.438 51.8578 201.119 52.0812 200.724 52.2414C200.328 52.3989 199.871 52.4777 199.352 52.4777Z" fill="#0058D2"/>
<path d="M204.67 46.4149L205.65 48.3751L206.665 46.4149H208.575L206.913 49.3901L208.637 52.3653H206.743L205.65 50.3896L204.585 52.3653H202.663L204.391 49.3901L202.749 46.4149H204.67Z" fill="#0058D2"/>
<path d="M212.799 46.4149V47.8096H211.726V46.4149H212.799ZM209.831 44.9893H211.726V50.4942C211.726 50.6104 211.744 50.7047 211.78 50.777C211.819 50.8467 211.874 50.8971 211.946 50.9281C212.019 50.9565 212.105 50.9707 212.206 50.9707C212.278 50.9707 212.354 50.9642 212.434 50.9513C212.517 50.9358 212.579 50.9229 212.62 50.9126L212.907 52.2801C212.817 52.3059 212.689 52.3382 212.524 52.3769C212.361 52.4157 212.166 52.4402 211.939 52.4505C211.494 52.4712 211.113 52.4196 210.796 52.2956C210.481 52.169 210.239 51.9728 210.071 51.7067C209.906 51.4407 209.826 51.1063 209.831 50.7034V47.8096H208.775V46.4149H209.831V44.9893Z" fill="#0058D2"/>
</g>
<g id="By">
<path d="M139.83 52.3052V44.323H143.136C143.776 44.323 144.307 44.4165 144.727 44.6036C145.147 44.7881 145.462 45.0389 145.67 45.3559C145.879 45.6703 145.983 46.0249 145.983 46.4199C145.983 46.7525 145.914 47.0331 145.776 47.2618C145.638 47.4878 145.453 47.6697 145.221 47.8074C144.991 47.9425 144.739 48.0413 144.462 48.1036V48.1816C144.762 48.1946 145.055 48.2803 145.34 48.4388C145.628 48.5947 145.866 48.8169 146.054 49.1053C146.242 49.3937 146.336 49.7445 146.336 50.1577C146.336 50.5656 146.227 50.932 146.01 51.2568C145.795 51.579 145.463 51.8349 145.013 52.0246C144.564 52.2117 143.989 52.3052 143.29 52.3052H139.83ZM141.192 51.2724H143.158C143.81 51.2724 144.277 51.1606 144.559 50.9372C144.842 50.7137 144.983 50.4344 144.983 50.0992C144.983 49.8472 144.911 49.6159 144.767 49.4054C144.623 49.195 144.417 49.0274 144.15 48.9026C143.885 48.7779 143.571 48.7156 143.206 48.7156H141.192V51.2724ZM141.192 47.7762H143.017C143.322 47.7762 143.597 47.7243 143.841 47.6203C144.088 47.5164 144.283 47.3709 144.427 47.1838C144.574 46.9941 144.648 46.7707 144.648 46.5134C144.648 46.1834 144.517 45.9067 144.255 45.6833C143.994 45.4598 143.593 45.3481 143.052 45.3481H141.192V47.7762Z" fill="black"/>
<path d="M148.678 54.5502C148.481 54.5502 148.302 54.5359 148.141 54.5074C147.979 54.4814 147.858 54.4528 147.779 54.4216L148.097 53.4667C148.337 53.5239 148.552 53.5485 148.74 53.5408C148.928 53.533 149.094 53.4706 149.238 53.3537C149.385 53.2367 149.514 53.0458 149.626 52.7807L149.789 52.3832L147.312 46.3186H148.722L150.437 50.9645H150.507L152.222 46.3186H153.637L150.847 53.1042C150.718 53.416 150.553 53.6798 150.353 53.8954C150.153 54.1137 149.915 54.2774 149.639 54.3865C149.363 54.4957 149.043 54.5502 148.678 54.5502Z" fill="black"/>
</g>
</g>
<g id="LLC">
<path d="M214.43 52.2868V50.165H214.983V51.8703H215.935V52.2868H214.43Z" fill="#0058D2"/>
<path d="M216.221 52.2868V50.165H216.774V51.8703H217.726V52.2868H216.221Z" fill="#0058D2"/>
<path d="M220 50.9337H219.442C219.434 50.8806 219.419 50.8325 219.396 50.7897C219.373 50.7469 219.342 50.7103 219.304 50.6799C219.266 50.6495 219.221 50.6264 219.169 50.6105C219.118 50.5939 219.061 50.5856 218.998 50.5856C218.887 50.5856 218.791 50.6108 218.711 50.6613C218.631 50.7117 218.57 50.7845 218.527 50.8799C218.484 50.9752 218.463 51.0905 218.463 51.2259C218.463 51.3668 218.485 51.4849 218.528 51.5802C218.572 51.6748 218.633 51.7463 218.712 51.7947C218.792 51.8423 218.886 51.8662 218.995 51.8662C219.056 51.8662 219.111 51.8589 219.161 51.8444C219.212 51.8299 219.256 51.8088 219.294 51.7812C219.333 51.7529 219.365 51.7187 219.389 51.6786C219.414 51.6379 219.432 51.592 219.442 51.5409L220 51.544C219.991 51.6379 219.961 51.7304 219.912 51.8216C219.864 51.9128 219.797 51.996 219.712 52.0713C219.627 52.1459 219.524 52.2053 219.401 52.2495C219.28 52.2937 219.141 52.3158 218.984 52.3158C218.777 52.3158 218.591 52.2737 218.427 52.1894C218.264 52.1045 218.135 51.9808 218.041 51.8185C217.946 51.6562 217.899 51.4587 217.899 51.2259C217.899 50.9924 217.947 50.7946 218.043 50.6322C218.139 50.4699 218.269 50.3466 218.433 50.2624C218.597 50.1781 218.78 50.136 218.984 50.136C219.122 50.136 219.25 50.1539 219.368 50.1899C219.486 50.2251 219.589 50.2769 219.679 50.3453C219.768 50.413 219.841 50.4962 219.896 50.595C219.952 50.6937 219.987 50.8066 220 50.9337Z" fill="#0058D2"/>
</g>
<path id="Vector 316" d="M175.451 49.4092C174.872 49.6134 174.495 49.6626 173.74 49.6514L175.218 52.3156H177.131L175.451 49.4092Z" fill="#0058D2"/>
</g>
</svg>
