<svg width="28" height="34" viewBox="0 0 28 34" fill="none" xmlns="http://www.w3.org/2000/svg">
<path id="Vector" d="M0.315261 19.1273C0.517385 18.9241 0.791374 18.81 1.07704 18.81C1.36271 18.81 1.6367 18.9241 1.83883 19.1273L12.935 30.2952L12.935 1.08514C12.935 0.797343 13.0486 0.521334 13.2507 0.317832C13.4529 0.114329 13.7271 2.56692e-06 14.013 2.59191e-06C14.2989 2.61691e-06 14.5731 0.114329 14.7752 0.317832C14.9774 0.521334 15.091 0.797343 15.091 1.08514L15.091 30.2952L26.1871 19.1273C26.3915 18.9357 26.6618 18.8313 26.941 18.8363C27.2203 18.8412 27.4868 18.9551 27.6843 19.1539C27.8818 19.3528 27.9949 19.621 27.9998 19.9021C28.0048 20.1832 27.9011 20.4553 27.7107 20.661L14.7748 33.6826C14.5726 33.8859 14.2986 34 14.013 34C13.7273 34 13.4533 33.8859 13.2512 33.6826L0.315261 20.661C0.113387 20.4575 -6.99318e-07 20.1817 -6.74178e-07 19.8942C-6.49039e-07 19.6066 0.113387 19.3308 0.315261 19.1273Z" fill="#0C1101"/>
</svg>
