<svg width="29" height="30" viewBox="0 0 29 30" fill="none" xmlns="http://www.w3.org/2000/svg">
<g id="Group">
<path id="Vector" d="M28.1504 3.89844C26.7449 3.89844 25.6016 2.75509 25.6016 1.34961C25.6016 0.880002 25.2216 0.5 24.752 0.5C24.2823 0.5 23.9023 0.880002 23.9023 1.34961C23.9023 2.75509 22.759 3.89844 21.3535 3.89844C20.8839 3.89844 20.5039 4.27844 20.5039 4.74805C20.5039 5.21765 20.8839 5.59766 21.3535 5.59766C22.759 5.59766 23.9023 6.741 23.9023 8.14648C23.9023 8.61609 24.2823 8.99609 24.752 8.99609C25.2216 8.99609 25.6016 8.61609 25.6016 8.14648C25.6016 6.741 26.7449 5.59766 28.1504 5.59766C28.62 5.59766 29 5.21765 29 4.74805C29 4.27844 28.62 3.89844 28.1504 3.89844Z" fill="#0C1101"/>
<path id="Vector_2" d="M7.64648 5.59766C8.11609 5.59766 8.49609 5.21765 8.49609 4.74805C8.49609 4.27844 8.11609 3.89844 7.64648 3.89844C6.241 3.89844 5.09766 2.75509 5.09766 1.34961C5.09766 0.880002 4.71765 0.5 4.24805 0.5C3.77844 0.5 3.39844 0.880002 3.39844 1.34961C3.39844 2.75509 2.25509 3.89844 0.849609 3.89844C0.380002 3.89844 0 4.27844 0 4.74805C0 5.21765 0.380002 5.59766 0.849609 5.59766C2.25509 5.59766 3.39844 6.741 3.39844 8.14648C3.39844 8.61609 3.77844 8.99609 4.24805 8.99609C4.71765 8.99609 5.09766 8.61609 5.09766 8.14648C5.09766 6.741 6.241 5.59766 7.64648 5.59766Z" fill="#0C1101"/>
<path id="Vector_3" d="M22.1465 11.6016C22.1465 7.38506 18.7165 3.95508 14.5 3.95508C10.2835 3.95508 6.85352 7.38506 6.85352 11.6016C6.85352 14.5789 8.58072 17.1361 11.0705 18.3984H7.70312C7.23391 18.3984 6.85352 18.7788 6.85352 19.248V20.0977C6.85352 20.5669 7.23391 20.9473 7.70312 20.9473H21.2969C21.7661 20.9473 22.1465 20.5669 22.1465 20.0977V19.248C22.1465 18.7788 21.7661 18.3984 21.2969 18.3984H17.9295C20.4193 17.1361 22.1465 14.5789 22.1465 11.6016ZM13.6504 7.51001V6.50391C13.6504 6.0343 14.0304 5.6543 14.5 5.6543C14.9696 5.6543 15.3496 6.0343 15.3496 6.50391V7.50786C15.7035 7.63304 16.0309 7.82771 16.3038 8.10112C16.634 8.43297 16.634 8.97146 16.3021 9.30252C15.9703 9.63273 15.4309 9.63438 15.0991 9.30088C14.6128 8.81048 13.6504 9.20538 13.6504 9.90234C13.6504 10.3711 14.032 10.752 14.5 10.752C15.9055 10.752 17.0488 11.8953 17.0488 13.3008C17.0488 14.407 16.3364 15.3412 15.3496 15.6931V16.6992C15.3496 17.1688 14.9696 17.5488 14.5 17.5488C14.0304 17.5488 13.6504 17.1688 13.6504 16.6992V15.6953C13.2965 15.5701 12.9691 15.3754 12.6962 15.102C12.366 14.7702 12.366 14.2317 12.6979 13.9006C13.0297 13.5704 13.5691 13.5687 13.9009 13.9022C14.3872 14.3926 15.3496 13.9977 15.3496 13.3008C15.3496 12.832 14.968 12.4512 14.5 12.4512C13.0945 12.4512 11.9512 11.3078 11.9512 9.90234C11.9512 8.79615 12.6636 7.86192 13.6504 7.51001Z" fill="#0C1101"/>
<path id="Vector_4" d="M6.85352 28.6504C6.85352 29.1196 7.23391 29.5 7.70312 29.5H21.2969C21.7661 29.5 22.1465 29.1196 22.1465 28.6504V27.7441C22.1465 27.2749 21.7661 26.8945 21.2969 26.8945H7.70312C7.23391 26.8945 6.85352 27.2749 6.85352 27.7441V28.6504Z" fill="#0C1101"/>
</g>
</svg>
