<svg width="16" height="17" viewBox="0 0 16 17" fill="none" xmlns="http://www.w3.org/2000/svg">
<g id="icon">
<g id="Vector">
<path d="M3.77584 1.90835C3.22545 1.90835 2.82517 2.33923 2.82517 2.82022C2.82517 3.31121 3.25547 3.72208 3.7358 3.72208L7.4284 3.72208L12.1017 3.54174L10.2404 5.19514L0.303393 15.1455C0.123266 15.3259 0.0332031 15.5463 0.0332031 15.7768C0.0332031 16.2779 0.493527 16.7087 0.973866 16.7087C1.18401 16.7087 1.42418 16.6085 1.60431 16.4282L11.5313 6.49778L13.1725 4.63395L13.0124 9.52399L13.0124 13.0111C13.0124 13.4821 13.4226 13.913 13.9029 13.913C14.3833 13.913 14.8036 13.5322 14.8036 12.9711L14.8036 2.89033C14.8036 2.28912 14.4133 1.91836 13.8429 1.91836L3.77584 1.90835Z" fill="#7F847D"/>
<path d="M3.77584 1.90835C3.22545 1.90835 2.82517 2.33923 2.82517 2.82022C2.82517 3.31121 3.25547 3.72208 3.7358 3.72208L7.4284 3.72208L12.1017 3.54174L10.2404 5.19514L0.303393 15.1455C0.123266 15.3259 0.0332031 15.5463 0.0332031 15.7768C0.0332031 16.2779 0.493527 16.7087 0.973866 16.7087C1.18401 16.7087 1.42418 16.6085 1.60431 16.4282L11.5313 6.49778L13.1725 4.63395L13.0124 9.52399L13.0124 13.0111C13.0124 13.4821 13.4226 13.913 13.9029 13.913C14.3833 13.913 14.8036 13.5322 14.8036 12.9711L14.8036 2.89033C14.8036 2.28912 14.4133 1.91836 13.8429 1.91836L3.77584 1.90835Z" fill="black" fill-opacity="0.2"/>
<path d="M3.77584 1.90835C3.22545 1.90835 2.82517 2.33923 2.82517 2.82022C2.82517 3.31121 3.25547 3.72208 3.7358 3.72208L7.4284 3.72208L12.1017 3.54174L10.2404 5.19514L0.303393 15.1455C0.123266 15.3259 0.0332031 15.5463 0.0332031 15.7768C0.0332031 16.2779 0.493527 16.7087 0.973866 16.7087C1.18401 16.7087 1.42418 16.6085 1.60431 16.4282L11.5313 6.49778L13.1725 4.63395L13.0124 9.52399L13.0124 13.0111C13.0124 13.4821 13.4226 13.913 13.9029 13.913C14.3833 13.913 14.8036 13.5322 14.8036 12.9711L14.8036 2.89033C14.8036 2.28912 14.4133 1.91836 13.8429 1.91836L3.77584 1.90835Z" fill="black" fill-opacity="0.2"/>
</g>
</g>
</svg>
