<svg width="94" height="16" viewBox="0 0 94 16" fill="none" xmlns="http://www.w3.org/2000/svg">
<g id="Group 4904">
<g id="Union">
<path fill-rule="evenodd" clip-rule="evenodd" d="M2.82051 14.8802C3.87415 15.1783 5.08989 15.3274 6.46773 15.3274C7.71589 15.3274 8.79384 15.1648 9.70159 14.8396C10.6093 14.5144 11.3064 14.0604 11.7927 13.4778C12.2952 12.8815 12.5464 12.1973 12.5464 11.4249C12.5464 10.4086 12.1574 9.62948 11.3793 9.08747C10.6012 8.5319 9.3774 8.11185 7.70778 7.82729L5.20336 7.40045C4.02004 7.1972 3.16092 6.89232 2.62599 6.48581C2.10728 6.0793 1.84792 5.51019 1.84792 4.77847C1.84792 3.8706 2.26127 3.15243 3.08798 2.62397C3.91468 2.08196 5.03316 1.81096 6.44341 1.81096C7.51326 1.81096 8.46964 1.94646 9.31256 2.21746C10.1555 2.47492 10.9579 2.90175 11.7197 3.49797L12.3276 2.4817C11.6144 1.88548 10.7552 1.43832 9.75022 1.14021C8.76142 0.828558 7.65915 0.672729 6.44341 0.672729C5.22767 0.672729 4.15783 0.842109 3.23386 1.18087C2.3099 1.51962 1.58856 2.00066 1.06985 2.62397C0.551135 3.24729 0.291777 3.979 0.291777 4.81912C0.291777 5.84894 0.672709 6.66196 1.43457 7.25818C2.21264 7.85439 3.38786 8.288 4.96021 8.559L7.44032 8.98584C8.75332 9.20264 9.66917 9.50075 10.1879 9.88016C10.7228 10.246 10.9903 10.7813 10.9903 11.4859C10.9903 12.2989 10.6093 12.9561 9.84748 13.4574C9.08562 13.9452 7.95093 14.1892 6.44341 14.1892C5.6005 14.1892 4.84674 14.135 4.18214 14.0265C3.51754 13.9046 2.90156 13.7217 2.33422 13.4778C1.78308 13.2339 1.21574 12.9222 0.632184 12.5428L0 13.5794C0.826702 14.1485 1.76687 14.5821 2.82051 14.8802ZM15.6064 15.0703V0.92981H22.2875C24.0593 0.92981 25.4248 1.27747 26.3839 1.97279C27.3592 2.66812 27.8469 3.64424 27.8469 4.90117C27.8469 6.13136 27.3592 7.10079 26.3839 7.80949C25.4248 8.51818 24.0593 8.87253 22.2875 8.87253H17.1182V15.0703H15.6064ZM17.1182 7.78943H22.1899C23.5391 7.78943 24.5632 7.54206 25.2622 7.04731C25.9612 6.53919 26.3107 5.82381 26.3107 4.90117C26.3107 3.97853 25.9612 3.26315 25.2622 2.75503C24.5632 2.24691 23.5391 1.99285 22.1899 1.99285H17.1182V7.78943ZM31.519 0.92981V15.0703H41.6174V13.9671H32.9785V0.92981H31.519ZM44.0654 15.0703V0.92981H45.5955V15.0703H44.0654ZM54.3651 2.01291V15.0703H55.822V2.01291H61.8141V0.92981H48.3496V2.01291H54.3651ZM64.2622 15.0703V0.92981H75.5846V2.9556H67.2179V6.86679H75.0363V8.91265H67.2179V13.0244H75.5846V15.0703H64.2622ZM76.5024 15.0703V0.92981H79.5625V10.909L89.3427 0.92981H93.6269L79.074 15.0703H76.5024Z" fill="#7F847D"/>
<path fill-rule="evenodd" clip-rule="evenodd" d="M2.82051 14.8802C3.87415 15.1783 5.08989 15.3274 6.46773 15.3274C7.71589 15.3274 8.79384 15.1648 9.70159 14.8396C10.6093 14.5144 11.3064 14.0604 11.7927 13.4778C12.2952 12.8815 12.5464 12.1973 12.5464 11.4249C12.5464 10.4086 12.1574 9.62948 11.3793 9.08747C10.6012 8.5319 9.3774 8.11185 7.70778 7.82729L5.20336 7.40045C4.02004 7.1972 3.16092 6.89232 2.62599 6.48581C2.10728 6.0793 1.84792 5.51019 1.84792 4.77847C1.84792 3.8706 2.26127 3.15243 3.08798 2.62397C3.91468 2.08196 5.03316 1.81096 6.44341 1.81096C7.51326 1.81096 8.46964 1.94646 9.31256 2.21746C10.1555 2.47492 10.9579 2.90175 11.7197 3.49797L12.3276 2.4817C11.6144 1.88548 10.7552 1.43832 9.75022 1.14021C8.76142 0.828558 7.65915 0.672729 6.44341 0.672729C5.22767 0.672729 4.15783 0.842109 3.23386 1.18087C2.3099 1.51962 1.58856 2.00066 1.06985 2.62397C0.551135 3.24729 0.291777 3.979 0.291777 4.81912C0.291777 5.84894 0.672709 6.66196 1.43457 7.25818C2.21264 7.85439 3.38786 8.288 4.96021 8.559L7.44032 8.98584C8.75332 9.20264 9.66917 9.50075 10.1879 9.88016C10.7228 10.246 10.9903 10.7813 10.9903 11.4859C10.9903 12.2989 10.6093 12.9561 9.84748 13.4574C9.08562 13.9452 7.95093 14.1892 6.44341 14.1892C5.6005 14.1892 4.84674 14.135 4.18214 14.0265C3.51754 13.9046 2.90156 13.7217 2.33422 13.4778C1.78308 13.2339 1.21574 12.9222 0.632184 12.5428L0 13.5794C0.826702 14.1485 1.76687 14.5821 2.82051 14.8802ZM15.6064 15.0703V0.92981H22.2875C24.0593 0.92981 25.4248 1.27747 26.3839 1.97279C27.3592 2.66812 27.8469 3.64424 27.8469 4.90117C27.8469 6.13136 27.3592 7.10079 26.3839 7.80949C25.4248 8.51818 24.0593 8.87253 22.2875 8.87253H17.1182V15.0703H15.6064ZM17.1182 7.78943H22.1899C23.5391 7.78943 24.5632 7.54206 25.2622 7.04731C25.9612 6.53919 26.3107 5.82381 26.3107 4.90117C26.3107 3.97853 25.9612 3.26315 25.2622 2.75503C24.5632 2.24691 23.5391 1.99285 22.1899 1.99285H17.1182V7.78943ZM31.519 0.92981V15.0703H41.6174V13.9671H32.9785V0.92981H31.519ZM44.0654 15.0703V0.92981H45.5955V15.0703H44.0654ZM54.3651 2.01291V15.0703H55.822V2.01291H61.8141V0.92981H48.3496V2.01291H54.3651ZM64.2622 15.0703V0.92981H75.5846V2.9556H67.2179V6.86679H75.0363V8.91265H67.2179V13.0244H75.5846V15.0703H64.2622ZM76.5024 15.0703V0.92981H79.5625V10.909L89.3427 0.92981H93.6269L79.074 15.0703H76.5024Z" fill="black" fill-opacity="0.2"/>
<path fill-rule="evenodd" clip-rule="evenodd" d="M2.82051 14.8802C3.87415 15.1783 5.08989 15.3274 6.46773 15.3274C7.71589 15.3274 8.79384 15.1648 9.70159 14.8396C10.6093 14.5144 11.3064 14.0604 11.7927 13.4778C12.2952 12.8815 12.5464 12.1973 12.5464 11.4249C12.5464 10.4086 12.1574 9.62948 11.3793 9.08747C10.6012 8.5319 9.3774 8.11185 7.70778 7.82729L5.20336 7.40045C4.02004 7.1972 3.16092 6.89232 2.62599 6.48581C2.10728 6.0793 1.84792 5.51019 1.84792 4.77847C1.84792 3.8706 2.26127 3.15243 3.08798 2.62397C3.91468 2.08196 5.03316 1.81096 6.44341 1.81096C7.51326 1.81096 8.46964 1.94646 9.31256 2.21746C10.1555 2.47492 10.9579 2.90175 11.7197 3.49797L12.3276 2.4817C11.6144 1.88548 10.7552 1.43832 9.75022 1.14021C8.76142 0.828558 7.65915 0.672729 6.44341 0.672729C5.22767 0.672729 4.15783 0.842109 3.23386 1.18087C2.3099 1.51962 1.58856 2.00066 1.06985 2.62397C0.551135 3.24729 0.291777 3.979 0.291777 4.81912C0.291777 5.84894 0.672709 6.66196 1.43457 7.25818C2.21264 7.85439 3.38786 8.288 4.96021 8.559L7.44032 8.98584C8.75332 9.20264 9.66917 9.50075 10.1879 9.88016C10.7228 10.246 10.9903 10.7813 10.9903 11.4859C10.9903 12.2989 10.6093 12.9561 9.84748 13.4574C9.08562 13.9452 7.95093 14.1892 6.44341 14.1892C5.6005 14.1892 4.84674 14.135 4.18214 14.0265C3.51754 13.9046 2.90156 13.7217 2.33422 13.4778C1.78308 13.2339 1.21574 12.9222 0.632184 12.5428L0 13.5794C0.826702 14.1485 1.76687 14.5821 2.82051 14.8802ZM15.6064 15.0703V0.92981H22.2875C24.0593 0.92981 25.4248 1.27747 26.3839 1.97279C27.3592 2.66812 27.8469 3.64424 27.8469 4.90117C27.8469 6.13136 27.3592 7.10079 26.3839 7.80949C25.4248 8.51818 24.0593 8.87253 22.2875 8.87253H17.1182V15.0703H15.6064ZM17.1182 7.78943H22.1899C23.5391 7.78943 24.5632 7.54206 25.2622 7.04731C25.9612 6.53919 26.3107 5.82381 26.3107 4.90117C26.3107 3.97853 25.9612 3.26315 25.2622 2.75503C24.5632 2.24691 23.5391 1.99285 22.1899 1.99285H17.1182V7.78943ZM31.519 0.92981V15.0703H41.6174V13.9671H32.9785V0.92981H31.519ZM44.0654 15.0703V0.92981H45.5955V15.0703H44.0654ZM54.3651 2.01291V15.0703H55.822V2.01291H61.8141V0.92981H48.3496V2.01291H54.3651ZM64.2622 15.0703V0.92981H75.5846V2.9556H67.2179V6.86679H75.0363V8.91265H67.2179V13.0244H75.5846V15.0703H64.2622ZM76.5024 15.0703V0.92981H79.5625V10.909L89.3427 0.92981H93.6269L79.074 15.0703H76.5024Z" fill="black" fill-opacity="0.2"/>
</g>
</g>
</svg>
