<svg width="26" height="26" viewBox="0 0 26 26" fill="none" xmlns="http://www.w3.org/2000/svg">
<g id="Group 4903">
<g id="Vector 42">
<path d="M1.42543 10.5908L8.93089 18.0401L10.9239 15.9081L9.0842 14.1041L13.8368 9.18407L15.6766 10.9881L17.6696 8.85606L15.9832 7.05205L22.7289 0H9.18351L1.42069 7.75645C0.637024 8.53948 0.639147 9.81035 1.42543 10.5908Z" fill="#7F847D"/>
<path d="M1.42543 10.5908L8.93089 18.0401L10.9239 15.9081L9.0842 14.1041L13.8368 9.18407L15.6766 10.9881L17.6696 8.85606L15.9832 7.05205L22.7289 0H9.18351L1.42069 7.75645C0.637024 8.53948 0.639147 9.81035 1.42543 10.5908Z" fill="black" fill-opacity="0.2"/>
<path d="M1.42543 10.5908L8.93089 18.0401L10.9239 15.9081L9.0842 14.1041L13.8368 9.18407L15.6766 10.9881L17.6696 8.85606L15.9832 7.05205L22.7289 0H9.18351L1.42069 7.75645C0.637024 8.53948 0.639147 9.81035 1.42543 10.5908Z" fill="black" fill-opacity="0.2"/>
</g>
<g id="Vector 43">
<path d="M18.794 9.76392L3.15625 26H16.9542L24.5725 18.5412C25.361 17.7692 25.3752 16.5045 24.6043 15.7149L18.794 9.76392Z" fill="#7F847D"/>
<path d="M18.794 9.76392L3.15625 26H16.9542L24.5725 18.5412C25.361 17.7692 25.3752 16.5045 24.6043 15.7149L18.794 9.76392Z" fill="black" fill-opacity="0.2"/>
<path d="M18.794 9.76392L3.15625 26H16.9542L24.5725 18.5412C25.361 17.7692 25.3752 16.5045 24.6043 15.7149L18.794 9.76392Z" fill="black" fill-opacity="0.2"/>
</g>
</g>
</svg>
