<svg width="220" height="52" viewBox="0 0 220 52" fill="none" xmlns="http://www.w3.org/2000/svg">
<g id="Group 4912">
<g id="Group 4911">
<path id="Vector 162" d="M14.9808 2.74471L0.0976562 0.913574L14.9175 22.7938C16.3022 24.8382 16.2931 27.5221 14.8946 29.557L0.0976562 51.0867L15.7249 48.7062L28.4125 29.5059C29.743 27.4924 29.7376 24.8777 28.3988 22.8696L14.9808 2.74471Z" fill="#0C1101"/>
<path id="Vector 163" d="M35.2601 5.49154L21.1211 3.6604L33.9328 22.965C35.2951 25.0176 35.2642 27.6943 33.855 29.715L21.1211 47.9739L36.1903 45.9596L47.2657 29.7591C48.6637 27.7142 48.6614 25.0204 47.2598 22.978L35.2601 5.49154Z" fill="#0C1101"/>
<path id="Vector 164" d="M47.0425 15.083L52.0036 22.3378L60.7474 9.33674L49.0269 7.68872L47.0511 10.5547C46.1119 11.9171 46.1084 13.7171 47.0425 15.083Z" fill="#0C1101"/>
<path id="Vector 165" d="M51.8166 29.8455L46.7413 37.4774C45.7755 38.9297 45.862 40.8403 46.9551 42.1994L48.6539 44.3114L60.5604 42.6634L51.8166 29.8455Z" fill="#0C1101"/>
</g>
<g id="Innovation Studio">
<path id="Vector" d="M215.076 25.9088C214.141 25.9088 213.311 25.7225 212.585 25.3501C211.86 24.9777 211.287 24.4656 210.867 23.8138C210.457 23.1517 210.252 22.3964 210.252 21.5481C210.252 20.6998 210.457 19.9497 210.867 19.298C211.287 18.6462 211.86 18.1393 212.585 17.7772C213.311 17.4047 214.141 17.2185 215.076 17.2185C216.012 17.2185 216.842 17.4047 217.568 17.7772C218.303 18.1393 218.876 18.6462 219.286 19.298C219.696 19.9497 219.901 20.6998 219.901 21.5481C219.901 22.3964 219.696 23.1517 219.286 23.8138C218.876 24.4656 218.303 24.9777 217.568 25.3501C216.842 25.7225 216.012 25.9088 215.076 25.9088ZM215.076 23.5655C215.423 23.5655 215.728 23.4879 215.991 23.3327C216.264 23.1775 216.48 22.9499 216.637 22.6499C216.795 22.3395 216.874 21.9723 216.874 21.5481C216.874 21.1239 216.795 20.767 216.637 20.4773C216.48 20.1773 216.264 19.9497 215.991 19.7945C215.728 19.6394 215.423 19.5618 215.076 19.5618C214.74 19.5618 214.435 19.6394 214.162 19.7945C213.899 19.9497 213.684 20.1773 213.516 20.4773C213.358 20.767 213.279 21.1239 213.279 21.5481C213.279 21.9723 213.358 22.3395 213.516 22.6499C213.684 22.9499 213.899 23.1775 214.162 23.3327C214.435 23.4879 214.74 23.5655 215.076 23.5655Z" fill="#0C1101"/>
<path id="Vector_2" d="M205.851 25.7687V17.3578H208.846V25.7687H205.851ZM207.348 16.4267C206.802 16.4267 206.36 16.2767 206.024 15.9767C205.688 15.6766 205.52 15.3042 205.52 14.8593C205.52 14.4145 205.688 14.042 206.024 13.742C206.36 13.442 206.802 13.292 207.348 13.292C207.895 13.292 208.336 13.4368 208.673 13.7265C209.009 14.0058 209.177 14.3679 209.177 14.8128C209.177 15.2783 209.009 15.6663 208.673 15.9767C208.347 16.2767 207.905 16.4267 207.348 16.4267Z" fill="#0C1101"/>
<path id="Vector_3" d="M198.561 25.9084C197.783 25.9084 197.074 25.7325 196.433 25.3808C195.802 25.0187 195.298 24.5169 194.919 23.8755C194.541 23.2237 194.352 22.4478 194.352 21.5478C194.352 20.658 194.541 19.8925 194.919 19.251C195.298 18.5993 195.802 18.0975 196.433 17.7458C197.074 17.394 197.783 17.2181 198.561 17.2181C199.297 17.2181 199.917 17.3733 200.422 17.6837C200.937 17.9941 201.325 18.47 201.588 19.1114C201.851 19.7528 201.982 20.5649 201.982 21.5478C201.982 22.5513 201.856 23.3737 201.604 24.0152C201.352 24.6566 200.973 25.1325 200.469 25.4428C199.964 25.7532 199.328 25.9084 198.561 25.9084ZM199.192 23.5651C199.528 23.5651 199.828 23.4875 200.09 23.3324C200.364 23.1772 200.579 22.9496 200.737 22.6496C200.895 22.3392 200.973 21.9719 200.973 21.5478C200.973 21.1236 200.895 20.7667 200.737 20.477C200.579 20.177 200.364 19.9494 200.09 19.7942C199.828 19.639 199.528 19.5614 199.192 19.5614C198.845 19.5614 198.535 19.639 198.262 19.7942C197.999 19.9494 197.789 20.177 197.631 20.477C197.473 20.7667 197.394 21.1236 197.394 21.5478C197.394 21.9719 197.473 22.3392 197.631 22.6496C197.789 22.9496 197.999 23.1772 198.262 23.3324C198.535 23.4875 198.845 23.5651 199.192 23.5651ZM201.068 25.7687V24.3255L201.084 21.5478L200.926 18.77V14.2542H203.922V25.7687H201.068Z" fill="#0C1101"/>
<path id="Vector_4" d="M187.517 25.9085C186.823 25.9085 186.198 25.774 185.641 25.505C185.094 25.236 184.663 24.817 184.348 24.248C184.043 23.6687 183.891 22.9393 183.891 22.06V17.3579H186.886V21.5789C186.886 22.2307 187.007 22.6962 187.249 22.9755C187.501 23.2549 187.853 23.3945 188.305 23.3945C188.599 23.3945 188.868 23.3273 189.109 23.1928C189.351 23.0583 189.545 22.8462 189.693 22.5565C189.84 22.2565 189.913 21.8737 189.913 21.4082V17.3579H192.909V25.7688H190.055V23.3945L190.607 24.0618C190.313 24.6825 189.887 25.1481 189.33 25.4585C188.773 25.7585 188.169 25.9085 187.517 25.9085Z" fill="#0C1101"/>
<path id="Vector_5" d="M180.689 25.9085C179.596 25.9085 178.744 25.6447 178.135 25.1171C177.525 24.5791 177.22 23.7722 177.22 22.6962V15.4802H180.216V22.6652C180.216 22.9652 180.3 23.2032 180.468 23.379C180.636 23.5446 180.852 23.6273 181.114 23.6273C181.472 23.6273 181.777 23.5394 182.029 23.3635L182.77 25.4275C182.518 25.593 182.208 25.712 181.84 25.7844C181.472 25.8671 181.088 25.9085 180.689 25.9085ZM175.975 19.8719V17.6683H182.171V19.8719H175.975Z" fill="#0C1101"/>
<path id="Vector_6" d="M170.684 25.9856C169.78 25.9856 168.908 25.8769 168.067 25.6597C167.237 25.4321 166.559 25.1424 166.033 24.7906L167.058 22.525C167.552 22.8353 168.12 23.094 168.761 23.3009C169.412 23.4975 170.059 23.5957 170.7 23.5957C171.131 23.5957 171.478 23.5595 171.741 23.4871C172.003 23.4043 172.193 23.3009 172.308 23.1767C172.434 23.0423 172.497 22.8871 172.497 22.7112C172.497 22.4629 172.382 22.2663 172.151 22.1215C171.919 21.9767 171.62 21.8577 171.252 21.7646C170.884 21.6715 170.474 21.5784 170.022 21.4852C169.581 21.3921 169.134 21.2732 168.682 21.1283C168.24 20.9835 167.836 20.7973 167.468 20.5697C167.1 20.3317 166.8 20.0265 166.569 19.6541C166.338 19.2713 166.222 18.7902 166.222 18.2109C166.222 17.5591 166.401 16.9694 166.758 16.4418C167.126 15.9142 167.673 15.49 168.398 15.1693C169.123 14.8486 170.027 14.6882 171.11 14.6882C171.835 14.6882 172.545 14.771 173.238 14.9365C173.943 15.0917 174.568 15.3245 175.115 15.6348L174.153 17.916C173.627 17.6367 173.107 17.4298 172.592 17.2953C172.077 17.1505 171.578 17.0781 171.094 17.0781C170.663 17.0781 170.316 17.1246 170.054 17.2177C169.791 17.3005 169.602 17.4143 169.486 17.5591C169.37 17.704 169.313 17.8695 169.313 18.0557C169.313 18.2937 169.423 18.485 169.644 18.6299C169.875 18.7644 170.174 18.8782 170.542 18.9713C170.921 19.054 171.331 19.142 171.772 19.2351C172.224 19.3282 172.671 19.4472 173.112 19.592C173.564 19.7265 173.974 19.9127 174.342 20.1507C174.71 20.3783 175.004 20.6835 175.225 21.0663C175.456 21.4387 175.572 21.9094 175.572 22.4784C175.572 23.1095 175.388 23.694 175.02 24.232C174.663 24.7596 174.121 25.1838 173.396 25.5045C172.681 25.8252 171.777 25.9856 170.684 25.9856Z" fill="#0C1101"/>
<path id="Vector_7" d="M156.665 17.2185C157.327 17.2185 157.926 17.353 158.462 17.622C158.998 17.8806 159.419 18.2841 159.724 18.8324C160.039 19.3807 160.197 20.0894 160.197 20.9584V25.7691H157.201V21.4395C157.201 20.8394 157.075 20.4049 156.823 20.1359C156.581 19.8566 156.239 19.717 155.798 19.717C155.483 19.717 155.194 19.7894 154.931 19.9342C154.668 20.0687 154.463 20.2808 154.316 20.5705C154.169 20.8601 154.095 21.2377 154.095 21.7033V25.7691H151.1V17.3582H153.953V19.748L153.401 19.0497C153.727 18.4393 154.174 17.9841 154.742 17.6841C155.309 17.3737 155.95 17.2185 156.665 17.2185Z" fill="#0C1101"/>
<path id="Vector_8" d="M144.885 25.9088C143.95 25.9088 143.119 25.7225 142.394 25.3501C141.669 24.9777 141.096 24.4656 140.675 23.8138C140.266 23.1517 140.061 22.3964 140.061 21.5481C140.061 20.6998 140.266 19.9497 140.675 19.298C141.096 18.6462 141.669 18.1393 142.394 17.7772C143.119 17.4047 143.95 17.2185 144.885 17.2185C145.82 17.2185 146.651 17.4047 147.376 17.7772C148.112 18.1393 148.685 18.6462 149.095 19.298C149.505 19.9497 149.709 20.6998 149.709 21.5481C149.709 22.3964 149.505 23.1517 149.095 23.8138C148.685 24.4656 148.112 24.9777 147.376 25.3501C146.651 25.7225 145.82 25.9088 144.885 25.9088ZM144.885 23.5655C145.232 23.5655 145.537 23.4879 145.799 23.3327C146.073 23.1775 146.288 22.9499 146.446 22.6499C146.604 22.3395 146.682 21.9723 146.682 21.5481C146.682 21.1239 146.604 20.767 146.446 20.4773C146.288 20.1773 146.073 19.9497 145.799 19.7945C145.537 19.6394 145.232 19.5618 144.885 19.5618C144.549 19.5618 144.244 19.6394 143.971 19.7945C143.708 19.9497 143.492 20.1773 143.324 20.4773C143.166 20.767 143.088 21.1239 143.088 21.5481C143.088 21.9723 143.166 22.3395 143.324 22.6499C143.492 22.9499 143.708 23.1775 143.971 23.3327C144.244 23.4879 144.549 23.5655 144.885 23.5655Z" fill="#0C1101"/>
<path id="Vector_9" d="M135.655 25.7687V17.3578H138.651V25.7687H135.655ZM137.153 16.4267C136.607 16.4267 136.165 16.2767 135.829 15.9767C135.492 15.6766 135.324 15.3042 135.324 14.8593C135.324 14.4145 135.492 14.042 135.829 13.742C136.165 13.442 136.607 13.292 137.153 13.292C137.7 13.292 138.141 13.4368 138.477 13.7265C138.814 14.0058 138.982 14.3679 138.982 14.8128C138.982 15.2783 138.814 15.6663 138.477 15.9767C138.152 16.2767 137.71 16.4267 137.153 16.4267Z" fill="#0C1101"/>
<path id="Vector_10" d="M132.421 25.9085C131.328 25.9085 130.477 25.6447 129.867 25.1171C129.257 24.5791 128.953 23.7722 128.953 22.6962V15.4802H131.948V22.6652C131.948 22.9652 132.032 23.2032 132.2 23.379C132.369 23.5446 132.584 23.6273 132.847 23.6273C133.204 23.6273 133.509 23.5394 133.761 23.3635L134.502 25.4275C134.25 25.593 133.94 25.712 133.572 25.7844C133.204 25.8671 132.821 25.9085 132.421 25.9085ZM127.707 19.8719V17.6683H133.903V19.8719H127.707Z" fill="#0C1101"/>
<path id="Vector_11" d="M123.924 25.7691V24.2017L123.719 23.8138V20.9274C123.719 20.4618 123.572 20.1049 123.278 19.8566C122.994 19.598 122.537 19.4687 121.906 19.4687C121.496 19.4687 121.081 19.5359 120.661 19.6704C120.24 19.7945 119.883 19.9704 119.588 20.198L118.579 18.1962C119.063 17.8858 119.641 17.6478 120.314 17.4823C120.997 17.3064 121.675 17.2185 122.348 17.2185C123.735 17.2185 124.807 17.534 125.564 18.1651C126.331 18.7859 126.715 19.7635 126.715 21.0981V25.7691H123.924ZM121.402 25.9088C120.718 25.9088 120.14 25.795 119.667 25.5674C119.194 25.3398 118.832 25.0294 118.579 24.6363C118.338 24.2431 118.217 23.8034 118.217 23.3172C118.217 22.7999 118.348 22.3551 118.611 21.9826C118.884 21.5998 119.299 21.3102 119.856 21.1136C120.414 20.9067 121.134 20.8032 122.016 20.8032H124.035V22.3395H122.426C121.943 22.3395 121.601 22.4171 121.402 22.5723C121.212 22.7275 121.118 22.9344 121.118 23.1931C121.118 23.4517 121.218 23.6586 121.417 23.8138C121.617 23.969 121.89 24.0466 122.237 24.0466C122.563 24.0466 122.857 23.969 123.12 23.8138C123.393 23.6483 123.593 23.4 123.719 23.0689L124.129 24.1552C123.971 24.7345 123.661 25.1742 123.199 25.4742C122.747 25.7639 122.148 25.9088 121.402 25.9088Z" fill="#0C1101"/>
<path id="Vector_12" d="M111.598 25.7688L108.082 17.3579H111.156L113.963 24.3877H112.418L115.366 17.3579H118.22L114.688 25.7688H111.598Z" fill="#0C1101"/>
<path id="Vector_13" d="M103.239 25.9088C102.303 25.9088 101.473 25.7225 100.747 25.3501C100.022 24.9777 99.4494 24.4656 99.0289 23.8138C98.619 23.1517 98.4141 22.3964 98.4141 21.5481C98.4141 20.6998 98.619 19.9497 99.0289 19.298C99.4494 18.6462 100.022 18.1393 100.747 17.7772C101.473 17.4047 102.303 17.2185 103.239 17.2185C104.174 17.2185 105.004 17.4047 105.73 17.7772C106.465 18.1393 107.038 18.6462 107.448 19.298C107.858 19.9497 108.063 20.6998 108.063 21.5481C108.063 22.3964 107.858 23.1517 107.448 23.8138C107.038 24.4656 106.465 24.9777 105.73 25.3501C105.004 25.7225 104.174 25.9088 103.239 25.9088ZM103.239 23.5655C103.585 23.5655 103.89 23.4879 104.153 23.3327C104.426 23.1775 104.642 22.9499 104.799 22.6499C104.957 22.3395 105.036 21.9723 105.036 21.5481C105.036 21.1239 104.957 20.767 104.799 20.4773C104.642 20.1773 104.426 19.9497 104.153 19.7945C103.89 19.6394 103.585 19.5618 103.239 19.5618C102.902 19.5618 102.597 19.6394 102.324 19.7945C102.061 19.9497 101.846 20.1773 101.678 20.4773C101.52 20.767 101.441 21.1239 101.441 21.5481C101.441 21.9723 101.52 22.3395 101.678 22.6499C101.846 22.9499 102.061 23.1775 102.324 23.3327C102.597 23.4879 102.902 23.5655 103.239 23.5655Z" fill="#0C1101"/>
<path id="Vector_14" d="M93.4288 17.2185C94.0909 17.2185 94.6901 17.353 95.2261 17.622C95.7622 17.8806 96.1826 18.2841 96.4874 18.8324C96.8027 19.3807 96.9604 20.0894 96.9604 20.9584V25.7691H93.9648V21.4395C93.9648 20.8394 93.8387 20.4049 93.5864 20.1359C93.3447 19.8566 93.0031 19.717 92.5616 19.717C92.2463 19.717 91.9572 19.7894 91.6945 19.9342C91.4317 20.0687 91.2267 20.2808 91.0796 20.5705C90.9324 20.8601 90.8589 21.2377 90.8589 21.7033V25.7691H87.8633V17.3582H90.717V19.748L90.1652 19.0497C90.491 18.4393 90.9377 17.9841 91.5053 17.6841C92.0729 17.3737 92.714 17.2185 93.4288 17.2185Z" fill="#0C1101"/>
<path id="Vector_15" d="M82.4503 17.2185C83.1124 17.2185 83.7115 17.353 84.2476 17.622C84.7837 17.8806 85.2041 18.2841 85.5089 18.8324C85.8242 19.3807 85.9819 20.0894 85.9819 20.9584V25.7691H82.9863V21.4395C82.9863 20.8394 82.8602 20.4049 82.6079 20.1359C82.3662 19.8566 82.0246 19.717 81.5831 19.717C81.2678 19.717 80.9787 19.7894 80.716 19.9342C80.4532 20.0687 80.2482 20.2808 80.1011 20.5705C79.9539 20.8601 79.8804 21.2377 79.8804 21.7033V25.7691H76.8848V17.3582H79.7385V19.748L79.1866 19.0497C79.5125 18.4393 79.9592 17.9841 80.5268 17.6841C81.0944 17.3737 81.7355 17.2185 82.4503 17.2185Z" fill="#0C1101"/>
<path id="Vector_16" d="M71.6855 25.7688V14.906H74.8073V25.7688H71.6855Z" fill="#0C1101"/>
</g>
<g id="INNOVATION is for EVERYONE">
<g id="Vector_17">
<path d="M200.53 33.5509H203.289V34.5661H200.53V33.5509ZM200.628 35.8713H203.747V36.9187H199.311V31.2788H203.641V32.3262H200.628V35.8713Z" fill="#7F847D"/>
<path d="M200.53 33.5509H203.289V34.5661H200.53V33.5509ZM200.628 35.8713H203.747V36.9187H199.311V31.2788H203.641V32.3262H200.628V35.8713Z" fill="black" fill-opacity="0.2"/>
<path d="M200.53 33.5509H203.289V34.5661H200.53V33.5509ZM200.628 35.8713H203.747V36.9187H199.311V31.2788H203.641V32.3262H200.628V35.8713Z" fill="black" fill-opacity="0.2"/>
</g>
<g id="Vector_18">
<path d="M192.701 36.9187V31.2788H193.798L197.179 35.3395H196.647V31.2788H197.956V36.9187H196.868L193.479 32.858H194.011V36.9187H192.701Z" fill="#7F847D"/>
<path d="M192.701 36.9187V31.2788H193.798L197.179 35.3395H196.647V31.2788H197.956V36.9187H196.868L193.479 32.858H194.011V36.9187H192.701Z" fill="black" fill-opacity="0.2"/>
<path d="M192.701 36.9187V31.2788H193.798L197.179 35.3395H196.647V31.2788H197.956V36.9187H196.868L193.479 32.858H194.011V36.9187H192.701Z" fill="black" fill-opacity="0.2"/>
</g>
<g id="Vector_19">
<path d="M188.577 37.0154C188.124 37.0154 187.704 36.9429 187.316 36.7979C186.934 36.6528 186.601 36.4487 186.318 36.1855C186.039 35.9223 185.821 35.6135 185.663 35.259C185.51 34.9045 185.434 34.5177 185.434 34.0988C185.434 33.6798 185.51 33.2931 185.663 32.9386C185.821 32.584 186.042 32.2752 186.326 32.012C186.61 31.7488 186.942 31.5447 187.324 31.3997C187.706 31.2546 188.121 31.1821 188.569 31.1821C189.022 31.1821 189.436 31.2546 189.813 31.3997C190.195 31.5447 190.525 31.7488 190.803 32.012C191.087 32.2752 191.308 32.584 191.466 32.9386C191.625 33.2877 191.704 33.6744 191.704 34.0988C191.704 34.5177 191.625 34.9071 191.466 35.267C191.308 35.6215 191.087 35.9304 190.803 36.1936C190.525 36.4514 190.195 36.6528 189.813 36.7979C189.436 36.9429 189.024 37.0154 188.577 37.0154ZM188.569 35.9035C188.825 35.9035 189.06 35.8606 189.273 35.7746C189.491 35.6887 189.682 35.5651 189.846 35.404C190.009 35.2429 190.135 35.0522 190.222 34.8319C190.315 34.6117 190.361 34.3673 190.361 34.0988C190.361 33.8302 190.315 33.5858 190.222 33.3656C190.135 33.1453 190.009 32.9547 189.846 32.7935C189.687 32.6324 189.499 32.5088 189.281 32.4229C189.063 32.337 188.825 32.294 188.569 32.294C188.312 32.294 188.075 32.337 187.857 32.4229C187.644 32.5088 187.455 32.6324 187.292 32.7935C187.128 32.9547 187 33.1453 186.907 33.3656C186.82 33.5858 186.776 33.8302 186.776 34.0988C186.776 34.362 186.82 34.6064 186.907 34.8319C187 35.0522 187.125 35.2429 187.284 35.404C187.447 35.5651 187.638 35.6887 187.857 35.7746C188.075 35.8606 188.312 35.9035 188.569 35.9035Z" fill="#7F847D"/>
<path d="M188.577 37.0154C188.124 37.0154 187.704 36.9429 187.316 36.7979C186.934 36.6528 186.601 36.4487 186.318 36.1855C186.039 35.9223 185.821 35.6135 185.663 35.259C185.51 34.9045 185.434 34.5177 185.434 34.0988C185.434 33.6798 185.51 33.2931 185.663 32.9386C185.821 32.584 186.042 32.2752 186.326 32.012C186.61 31.7488 186.942 31.5447 187.324 31.3997C187.706 31.2546 188.121 31.1821 188.569 31.1821C189.022 31.1821 189.436 31.2546 189.813 31.3997C190.195 31.5447 190.525 31.7488 190.803 32.012C191.087 32.2752 191.308 32.584 191.466 32.9386C191.625 33.2877 191.704 33.6744 191.704 34.0988C191.704 34.5177 191.625 34.9071 191.466 35.267C191.308 35.6215 191.087 35.9304 190.803 36.1936C190.525 36.4514 190.195 36.6528 189.813 36.7979C189.436 36.9429 189.024 37.0154 188.577 37.0154ZM188.569 35.9035C188.825 35.9035 189.06 35.8606 189.273 35.7746C189.491 35.6887 189.682 35.5651 189.846 35.404C190.009 35.2429 190.135 35.0522 190.222 34.8319C190.315 34.6117 190.361 34.3673 190.361 34.0988C190.361 33.8302 190.315 33.5858 190.222 33.3656C190.135 33.1453 190.009 32.9547 189.846 32.7935C189.687 32.6324 189.499 32.5088 189.281 32.4229C189.063 32.337 188.825 32.294 188.569 32.294C188.312 32.294 188.075 32.337 187.857 32.4229C187.644 32.5088 187.455 32.6324 187.292 32.7935C187.128 32.9547 187 33.1453 186.907 33.3656C186.82 33.5858 186.776 33.8302 186.776 34.0988C186.776 34.362 186.82 34.6064 186.907 34.8319C187 35.0522 187.125 35.2429 187.284 35.404C187.447 35.5651 187.638 35.6887 187.857 35.7746C188.075 35.8606 188.312 35.9035 188.569 35.9035Z" fill="black" fill-opacity="0.2"/>
<path d="M188.577 37.0154C188.124 37.0154 187.704 36.9429 187.316 36.7979C186.934 36.6528 186.601 36.4487 186.318 36.1855C186.039 35.9223 185.821 35.6135 185.663 35.259C185.51 34.9045 185.434 34.5177 185.434 34.0988C185.434 33.6798 185.51 33.2931 185.663 32.9386C185.821 32.584 186.042 32.2752 186.326 32.012C186.61 31.7488 186.942 31.5447 187.324 31.3997C187.706 31.2546 188.121 31.1821 188.569 31.1821C189.022 31.1821 189.436 31.2546 189.813 31.3997C190.195 31.5447 190.525 31.7488 190.803 32.012C191.087 32.2752 191.308 32.584 191.466 32.9386C191.625 33.2877 191.704 33.6744 191.704 34.0988C191.704 34.5177 191.625 34.9071 191.466 35.267C191.308 35.6215 191.087 35.9304 190.803 36.1936C190.525 36.4514 190.195 36.6528 189.813 36.7979C189.436 36.9429 189.024 37.0154 188.577 37.0154ZM188.569 35.9035C188.825 35.9035 189.06 35.8606 189.273 35.7746C189.491 35.6887 189.682 35.5651 189.846 35.404C190.009 35.2429 190.135 35.0522 190.222 34.8319C190.315 34.6117 190.361 34.3673 190.361 34.0988C190.361 33.8302 190.315 33.5858 190.222 33.3656C190.135 33.1453 190.009 32.9547 189.846 32.7935C189.687 32.6324 189.499 32.5088 189.281 32.4229C189.063 32.337 188.825 32.294 188.569 32.294C188.312 32.294 188.075 32.337 187.857 32.4229C187.644 32.5088 187.455 32.6324 187.292 32.7935C187.128 32.9547 187 33.1453 186.907 33.3656C186.82 33.5858 186.776 33.8302 186.776 34.0988C186.776 34.362 186.82 34.6064 186.907 34.8319C187 35.0522 187.125 35.2429 187.284 35.404C187.447 35.5651 187.638 35.6887 187.857 35.7746C188.075 35.8606 188.312 35.9035 188.569 35.9035Z" fill="black" fill-opacity="0.2"/>
</g>
<g id="Vector_20">
<path d="M181.933 36.9187V34.6144L182.236 35.404L179.715 31.2788H181.123L183.055 34.4452H182.244L184.184 31.2788H185.486L182.965 35.404L183.259 34.6144V36.9187H181.933Z" fill="#7F847D"/>
<path d="M181.933 36.9187V34.6144L182.236 35.404L179.715 31.2788H181.123L183.055 34.4452H182.244L184.184 31.2788H185.486L182.965 35.404L183.259 34.6144V36.9187H181.933Z" fill="black" fill-opacity="0.2"/>
<path d="M181.933 36.9187V34.6144L182.236 35.404L179.715 31.2788H181.123L183.055 34.4452H182.244L184.184 31.2788H185.486L182.965 35.404L183.259 34.6144V36.9187H181.933Z" fill="black" fill-opacity="0.2"/>
</g>
<g id="Vector_21">
<path d="M174.57 36.9187V31.2788H177.051C177.564 31.2788 178.006 31.3621 178.377 31.5286C178.748 31.6897 179.034 31.9234 179.236 32.2295C179.438 32.5357 179.539 32.901 179.539 33.3253C179.539 33.7442 179.438 34.1068 179.236 34.413C179.034 34.7138 178.748 34.9447 178.377 35.1059C178.006 35.267 177.564 35.3476 177.051 35.3476H175.307L175.896 34.7755V36.9187H174.57ZM178.213 36.9187L176.78 34.8722H178.197L179.645 36.9187H178.213ZM175.896 34.9206L175.307 34.3082H176.977C177.386 34.3082 177.692 34.2223 177.894 34.0504C178.096 33.8732 178.197 33.6315 178.197 33.3253C178.197 33.0137 178.096 32.772 177.894 32.6002C177.692 32.4283 177.386 32.3423 176.977 32.3423H175.307L175.896 31.7219V34.9206Z" fill="#7F847D"/>
<path d="M174.57 36.9187V31.2788H177.051C177.564 31.2788 178.006 31.3621 178.377 31.5286C178.748 31.6897 179.034 31.9234 179.236 32.2295C179.438 32.5357 179.539 32.901 179.539 33.3253C179.539 33.7442 179.438 34.1068 179.236 34.413C179.034 34.7138 178.748 34.9447 178.377 35.1059C178.006 35.267 177.564 35.3476 177.051 35.3476H175.307L175.896 34.7755V36.9187H174.57ZM178.213 36.9187L176.78 34.8722H178.197L179.645 36.9187H178.213ZM175.896 34.9206L175.307 34.3082H176.977C177.386 34.3082 177.692 34.2223 177.894 34.0504C178.096 33.8732 178.197 33.6315 178.197 33.3253C178.197 33.0137 178.096 32.772 177.894 32.6002C177.692 32.4283 177.386 32.3423 176.977 32.3423H175.307L175.896 31.7219V34.9206Z" fill="black" fill-opacity="0.2"/>
<path d="M174.57 36.9187V31.2788H177.051C177.564 31.2788 178.006 31.3621 178.377 31.5286C178.748 31.6897 179.034 31.9234 179.236 32.2295C179.438 32.5357 179.539 32.901 179.539 33.3253C179.539 33.7442 179.438 34.1068 179.236 34.413C179.034 34.7138 178.748 34.9447 178.377 35.1059C178.006 35.267 177.564 35.3476 177.051 35.3476H175.307L175.896 34.7755V36.9187H174.57ZM178.213 36.9187L176.78 34.8722H178.197L179.645 36.9187H178.213ZM175.896 34.9206L175.307 34.3082H176.977C177.386 34.3082 177.692 34.2223 177.894 34.0504C178.096 33.8732 178.197 33.6315 178.197 33.3253C178.197 33.0137 178.096 32.772 177.894 32.6002C177.692 32.4283 177.386 32.3423 176.977 32.3423H175.307L175.896 31.7219V34.9206Z" fill="black" fill-opacity="0.2"/>
</g>
<g id="Vector_22">
<path d="M170.3 33.5509H173.058V34.5661H170.3V33.5509ZM170.398 35.8713H173.517V36.9187H169.08V31.2788H173.41V32.3262H170.398V35.8713Z" fill="#7F847D"/>
<path d="M170.3 33.5509H173.058V34.5661H170.3V33.5509ZM170.398 35.8713H173.517V36.9187H169.08V31.2788H173.41V32.3262H170.398V35.8713Z" fill="black" fill-opacity="0.2"/>
<path d="M170.3 33.5509H173.058V34.5661H170.3V33.5509ZM170.398 35.8713H173.517V36.9187H169.08V31.2788H173.41V32.3262H170.398V35.8713Z" fill="black" fill-opacity="0.2"/>
</g>
<g id="Vector_23">
<path d="M164.81 36.9187L162.338 31.2788H163.77L165.931 36.2741H165.088L167.282 31.2788H168.6L166.12 36.9187H164.81Z" fill="#7F847D"/>
<path d="M164.81 36.9187L162.338 31.2788H163.77L165.931 36.2741H165.088L167.282 31.2788H168.6L166.12 36.9187H164.81Z" fill="black" fill-opacity="0.2"/>
<path d="M164.81 36.9187L162.338 31.2788H163.77L165.931 36.2741H165.088L167.282 31.2788H168.6L166.12 36.9187H164.81Z" fill="black" fill-opacity="0.2"/>
</g>
<g id="Vector_24">
<path d="M158.899 33.5509H161.658V34.5661H158.899V33.5509ZM158.998 35.8713H162.116V36.9187H157.68V31.2788H162.01V32.3262H158.998V35.8713Z" fill="#7F847D"/>
<path d="M158.899 33.5509H161.658V34.5661H158.899V33.5509ZM158.998 35.8713H162.116V36.9187H157.68V31.2788H162.01V32.3262H158.998V35.8713Z" fill="black" fill-opacity="0.2"/>
<path d="M158.899 33.5509H161.658V34.5661H158.899V33.5509ZM158.998 35.8713H162.116V36.9187H157.68V31.2788H162.01V32.3262H158.998V35.8713Z" fill="black" fill-opacity="0.2"/>
</g>
<g id="Vector_25">
<path d="M151.367 36.9189L152.243 32.5842H153.455L153.201 33.817L153.086 33.4624C153.283 33.1133 153.539 32.8689 153.856 32.7293C154.172 32.5896 154.551 32.5198 154.993 32.5198L154.764 33.68C154.71 33.6746 154.658 33.6719 154.609 33.6719C154.565 33.6666 154.519 33.6639 154.47 33.6639C154.093 33.6639 153.785 33.7552 153.545 33.9378C153.31 34.1204 153.152 34.4159 153.07 34.8241L152.644 36.9189H151.367Z" fill="#7F847D"/>
<path d="M151.367 36.9189L152.243 32.5842H153.455L153.201 33.817L153.086 33.4624C153.283 33.1133 153.539 32.8689 153.856 32.7293C154.172 32.5896 154.551 32.5198 154.993 32.5198L154.764 33.68C154.71 33.6746 154.658 33.6719 154.609 33.6719C154.565 33.6666 154.519 33.6639 154.47 33.6639C154.093 33.6639 153.785 33.7552 153.545 33.9378C153.31 34.1204 153.152 34.4159 153.07 34.8241L152.644 36.9189H151.367Z" fill="black" fill-opacity="0.2"/>
<path d="M151.367 36.9189L152.243 32.5842H153.455L153.201 33.817L153.086 33.4624C153.283 33.1133 153.539 32.8689 153.856 32.7293C154.172 32.5896 154.551 32.5198 154.993 32.5198L154.764 33.68C154.71 33.6746 154.658 33.6719 154.609 33.6719C154.565 33.6666 154.519 33.6639 154.47 33.6639C154.093 33.6639 153.785 33.7552 153.545 33.9378C153.31 34.1204 153.152 34.4159 153.07 34.8241L152.644 36.9189H151.367Z" fill="black" fill-opacity="0.2"/>
</g>
<g id="Vector_26">
<path d="M148.31 36.9834C147.863 36.9834 147.472 36.9028 147.14 36.7416C146.807 36.5805 146.547 36.3549 146.362 36.0649C146.182 35.7748 146.092 35.4337 146.092 35.0416C146.092 34.5582 146.206 34.1285 146.436 33.7525C146.665 33.3711 146.979 33.0703 147.377 32.8501C147.781 32.6299 148.239 32.5198 148.752 32.5198C149.205 32.5198 149.595 32.6003 149.923 32.7615C150.256 32.9226 150.512 33.1482 150.692 33.4383C150.878 33.723 150.97 34.064 150.97 34.4615C150.97 34.9396 150.856 35.3693 150.627 35.7506C150.397 36.132 150.084 36.4328 149.685 36.653C149.287 36.8732 148.829 36.9834 148.31 36.9834ZM148.392 35.9521C148.643 35.9521 148.864 35.893 149.055 35.7748C149.251 35.6513 149.404 35.4821 149.513 35.2672C149.623 35.0524 149.677 34.8026 149.677 34.5179C149.677 34.2279 149.59 33.9942 149.415 33.817C149.241 33.6397 148.995 33.5511 148.678 33.5511C148.427 33.5511 148.204 33.6128 148.007 33.7364C147.816 33.8546 147.663 34.0211 147.549 34.2359C147.44 34.4508 147.385 34.7005 147.385 34.9852C147.385 35.2806 147.472 35.517 147.647 35.6942C147.822 35.8661 148.07 35.9521 148.392 35.9521Z" fill="#7F847D"/>
<path d="M148.31 36.9834C147.863 36.9834 147.472 36.9028 147.14 36.7416C146.807 36.5805 146.547 36.3549 146.362 36.0649C146.182 35.7748 146.092 35.4337 146.092 35.0416C146.092 34.5582 146.206 34.1285 146.436 33.7525C146.665 33.3711 146.979 33.0703 147.377 32.8501C147.781 32.6299 148.239 32.5198 148.752 32.5198C149.205 32.5198 149.595 32.6003 149.923 32.7615C150.256 32.9226 150.512 33.1482 150.692 33.4383C150.878 33.723 150.97 34.064 150.97 34.4615C150.97 34.9396 150.856 35.3693 150.627 35.7506C150.397 36.132 150.084 36.4328 149.685 36.653C149.287 36.8732 148.829 36.9834 148.31 36.9834ZM148.392 35.9521C148.643 35.9521 148.864 35.893 149.055 35.7748C149.251 35.6513 149.404 35.4821 149.513 35.2672C149.623 35.0524 149.677 34.8026 149.677 34.5179C149.677 34.2279 149.59 33.9942 149.415 33.817C149.241 33.6397 148.995 33.5511 148.678 33.5511C148.427 33.5511 148.204 33.6128 148.007 33.7364C147.816 33.8546 147.663 34.0211 147.549 34.2359C147.44 34.4508 147.385 34.7005 147.385 34.9852C147.385 35.2806 147.472 35.517 147.647 35.6942C147.822 35.8661 148.07 35.9521 148.392 35.9521Z" fill="black" fill-opacity="0.2"/>
<path d="M148.31 36.9834C147.863 36.9834 147.472 36.9028 147.14 36.7416C146.807 36.5805 146.547 36.3549 146.362 36.0649C146.182 35.7748 146.092 35.4337 146.092 35.0416C146.092 34.5582 146.206 34.1285 146.436 33.7525C146.665 33.3711 146.979 33.0703 147.377 32.8501C147.781 32.6299 148.239 32.5198 148.752 32.5198C149.205 32.5198 149.595 32.6003 149.923 32.7615C150.256 32.9226 150.512 33.1482 150.692 33.4383C150.878 33.723 150.97 34.064 150.97 34.4615C150.97 34.9396 150.856 35.3693 150.627 35.7506C150.397 36.132 150.084 36.4328 149.685 36.653C149.287 36.8732 148.829 36.9834 148.31 36.9834ZM148.392 35.9521C148.643 35.9521 148.864 35.893 149.055 35.7748C149.251 35.6513 149.404 35.4821 149.513 35.2672C149.623 35.0524 149.677 34.8026 149.677 34.5179C149.677 34.2279 149.59 33.9942 149.415 33.817C149.241 33.6397 148.995 33.5511 148.678 33.5511C148.427 33.5511 148.204 33.6128 148.007 33.7364C147.816 33.8546 147.663 34.0211 147.549 34.2359C147.44 34.4508 147.385 34.7005 147.385 34.9852C147.385 35.2806 147.472 35.517 147.647 35.6942C147.822 35.8661 148.07 35.9521 148.392 35.9521Z" fill="black" fill-opacity="0.2"/>
</g>
<g id="Vector_27">
<path d="M143.05 36.919L143.966 32.4312C144.065 31.9585 144.272 31.5826 144.588 31.3032C144.91 31.0186 145.342 30.8762 145.882 30.8762C146.084 30.8762 146.272 30.8977 146.447 30.9407C146.621 30.9783 146.771 31.0374 146.897 31.1179L146.398 32.0203C146.25 31.9183 146.081 31.8672 145.89 31.8672C145.694 31.8672 145.541 31.9209 145.432 32.0284C145.322 32.1304 145.243 32.2943 145.194 32.5198L145.104 32.9227L145.039 33.4303L144.335 36.919H143.05ZM143.033 33.6478L143.23 32.681H146.283L146.086 33.6478H143.033Z" fill="#7F847D"/>
<path d="M143.05 36.919L143.966 32.4312C144.065 31.9585 144.272 31.5826 144.588 31.3032C144.91 31.0186 145.342 30.8762 145.882 30.8762C146.084 30.8762 146.272 30.8977 146.447 30.9407C146.621 30.9783 146.771 31.0374 146.897 31.1179L146.398 32.0203C146.25 31.9183 146.081 31.8672 145.89 31.8672C145.694 31.8672 145.541 31.9209 145.432 32.0284C145.322 32.1304 145.243 32.2943 145.194 32.5198L145.104 32.9227L145.039 33.4303L144.335 36.919H143.05ZM143.033 33.6478L143.23 32.681H146.283L146.086 33.6478H143.033Z" fill="black" fill-opacity="0.2"/>
<path d="M143.05 36.919L143.966 32.4312C144.065 31.9585 144.272 31.5826 144.588 31.3032C144.91 31.0186 145.342 30.8762 145.882 30.8762C146.084 30.8762 146.272 30.8977 146.447 30.9407C146.621 30.9783 146.771 31.0374 146.897 31.1179L146.398 32.0203C146.25 31.9183 146.081 31.8672 145.89 31.8672C145.694 31.8672 145.541 31.9209 145.432 32.0284C145.322 32.1304 145.243 32.2943 145.194 32.5198L145.104 32.9227L145.039 33.4303L144.335 36.919H143.05ZM143.033 33.6478L143.23 32.681H146.283L146.086 33.6478H143.033Z" fill="black" fill-opacity="0.2"/>
</g>
<g id="Vector_28">
<path d="M137.84 36.9834C137.452 36.9834 137.087 36.9404 136.743 36.8544C136.405 36.7685 136.143 36.6611 135.957 36.5322L136.448 35.6217C136.639 35.7453 136.871 35.8446 137.144 35.9198C137.422 35.995 137.701 36.0326 137.979 36.0326C138.279 36.0326 138.497 35.995 138.634 35.9198C138.77 35.8446 138.838 35.7426 138.838 35.6137C138.838 35.5116 138.781 35.4364 138.667 35.3881C138.552 35.3344 138.407 35.2914 138.233 35.2592C138.058 35.2269 137.87 35.1893 137.668 35.1464C137.471 35.1034 137.283 35.0443 137.103 34.9691C136.928 34.8885 136.784 34.7757 136.669 34.6307C136.56 34.4803 136.505 34.2843 136.505 34.0425C136.505 33.7149 136.598 33.4383 136.784 33.2127C136.975 32.9871 137.237 32.8152 137.57 32.697C137.908 32.5789 138.29 32.5198 138.716 32.5198C139.021 32.5198 139.319 32.552 139.608 32.6165C139.897 32.6809 140.143 32.7695 140.345 32.8823L139.886 33.8008C139.679 33.6719 139.461 33.586 139.231 33.543C139.008 33.4947 138.792 33.4705 138.585 33.4705C138.285 33.4705 138.066 33.5135 137.93 33.5994C137.799 33.68 137.733 33.7794 137.733 33.8975C137.733 33.9996 137.788 34.0801 137.897 34.1392C138.012 34.1929 138.156 34.2386 138.331 34.2762C138.506 34.3084 138.694 34.346 138.896 34.389C139.098 34.4266 139.286 34.4857 139.461 34.5663C139.635 34.6415 139.777 34.7516 139.886 34.8966C140.001 35.0362 140.058 35.2269 140.058 35.4686C140.058 35.7963 139.96 36.0756 139.763 36.3066C139.572 36.5322 139.31 36.7014 138.978 36.8142C138.645 36.927 138.265 36.9834 137.84 36.9834Z" fill="#7F847D"/>
<path d="M137.84 36.9834C137.452 36.9834 137.087 36.9404 136.743 36.8544C136.405 36.7685 136.143 36.6611 135.957 36.5322L136.448 35.6217C136.639 35.7453 136.871 35.8446 137.144 35.9198C137.422 35.995 137.701 36.0326 137.979 36.0326C138.279 36.0326 138.497 35.995 138.634 35.9198C138.77 35.8446 138.838 35.7426 138.838 35.6137C138.838 35.5116 138.781 35.4364 138.667 35.3881C138.552 35.3344 138.407 35.2914 138.233 35.2592C138.058 35.2269 137.87 35.1893 137.668 35.1464C137.471 35.1034 137.283 35.0443 137.103 34.9691C136.928 34.8885 136.784 34.7757 136.669 34.6307C136.56 34.4803 136.505 34.2843 136.505 34.0425C136.505 33.7149 136.598 33.4383 136.784 33.2127C136.975 32.9871 137.237 32.8152 137.57 32.697C137.908 32.5789 138.29 32.5198 138.716 32.5198C139.021 32.5198 139.319 32.552 139.608 32.6165C139.897 32.6809 140.143 32.7695 140.345 32.8823L139.886 33.8008C139.679 33.6719 139.461 33.586 139.231 33.543C139.008 33.4947 138.792 33.4705 138.585 33.4705C138.285 33.4705 138.066 33.5135 137.93 33.5994C137.799 33.68 137.733 33.7794 137.733 33.8975C137.733 33.9996 137.788 34.0801 137.897 34.1392C138.012 34.1929 138.156 34.2386 138.331 34.2762C138.506 34.3084 138.694 34.346 138.896 34.389C139.098 34.4266 139.286 34.4857 139.461 34.5663C139.635 34.6415 139.777 34.7516 139.886 34.8966C140.001 35.0362 140.058 35.2269 140.058 35.4686C140.058 35.7963 139.96 36.0756 139.763 36.3066C139.572 36.5322 139.31 36.7014 138.978 36.8142C138.645 36.927 138.265 36.9834 137.84 36.9834Z" fill="black" fill-opacity="0.2"/>
<path d="M137.84 36.9834C137.452 36.9834 137.087 36.9404 136.743 36.8544C136.405 36.7685 136.143 36.6611 135.957 36.5322L136.448 35.6217C136.639 35.7453 136.871 35.8446 137.144 35.9198C137.422 35.995 137.701 36.0326 137.979 36.0326C138.279 36.0326 138.497 35.995 138.634 35.9198C138.77 35.8446 138.838 35.7426 138.838 35.6137C138.838 35.5116 138.781 35.4364 138.667 35.3881C138.552 35.3344 138.407 35.2914 138.233 35.2592C138.058 35.2269 137.87 35.1893 137.668 35.1464C137.471 35.1034 137.283 35.0443 137.103 34.9691C136.928 34.8885 136.784 34.7757 136.669 34.6307C136.56 34.4803 136.505 34.2843 136.505 34.0425C136.505 33.7149 136.598 33.4383 136.784 33.2127C136.975 32.9871 137.237 32.8152 137.57 32.697C137.908 32.5789 138.29 32.5198 138.716 32.5198C139.021 32.5198 139.319 32.552 139.608 32.6165C139.897 32.6809 140.143 32.7695 140.345 32.8823L139.886 33.8008C139.679 33.6719 139.461 33.586 139.231 33.543C139.008 33.4947 138.792 33.4705 138.585 33.4705C138.285 33.4705 138.066 33.5135 137.93 33.5994C137.799 33.68 137.733 33.7794 137.733 33.8975C137.733 33.9996 137.788 34.0801 137.897 34.1392C138.012 34.1929 138.156 34.2386 138.331 34.2762C138.506 34.3084 138.694 34.346 138.896 34.389C139.098 34.4266 139.286 34.4857 139.461 34.5663C139.635 34.6415 139.777 34.7516 139.886 34.8966C140.001 35.0362 140.058 35.2269 140.058 35.4686C140.058 35.7963 139.96 36.0756 139.763 36.3066C139.572 36.5322 139.31 36.7014 138.978 36.8142C138.645 36.927 138.265 36.9834 137.84 36.9834Z" fill="black" fill-opacity="0.2"/>
</g>
<g id="Vector_29">
<path d="M133.781 36.919L134.657 32.5843H135.926L135.05 36.919H133.781ZM135.508 31.98C135.285 31.98 135.105 31.9183 134.968 31.7947C134.832 31.6658 134.764 31.5101 134.764 31.3274C134.764 31.1126 134.84 30.9353 134.993 30.7957C135.151 30.6506 135.356 30.5781 135.607 30.5781C135.83 30.5781 136.01 30.6399 136.147 30.7634C136.289 30.8816 136.36 31.0293 136.36 31.2066C136.36 31.4375 136.281 31.6255 136.122 31.7706C135.97 31.9102 135.765 31.98 135.508 31.98Z" fill="#7F847D"/>
<path d="M133.781 36.919L134.657 32.5843H135.926L135.05 36.919H133.781ZM135.508 31.98C135.285 31.98 135.105 31.9183 134.968 31.7947C134.832 31.6658 134.764 31.5101 134.764 31.3274C134.764 31.1126 134.84 30.9353 134.993 30.7957C135.151 30.6506 135.356 30.5781 135.607 30.5781C135.83 30.5781 136.01 30.6399 136.147 30.7634C136.289 30.8816 136.36 31.0293 136.36 31.2066C136.36 31.4375 136.281 31.6255 136.122 31.7706C135.97 31.9102 135.765 31.98 135.508 31.98Z" fill="black" fill-opacity="0.2"/>
<path d="M133.781 36.919L134.657 32.5843H135.926L135.05 36.919H133.781ZM135.508 31.98C135.285 31.98 135.105 31.9183 134.968 31.7947C134.832 31.6658 134.764 31.5101 134.764 31.3274C134.764 31.1126 134.84 30.9353 134.993 30.7957C135.151 30.6506 135.356 30.5781 135.607 30.5781C135.83 30.5781 136.01 30.6399 136.147 30.7634C136.289 30.8816 136.36 31.0293 136.36 31.2066C136.36 31.4375 136.281 31.6255 136.122 31.7706C135.97 31.9102 135.765 31.98 135.508 31.98Z" fill="black" fill-opacity="0.2"/>
</g>
<g id="Vector_30">
<path d="M125.434 36.9187V31.2788H126.53L129.911 35.3395H129.379V31.2788H130.689V36.9187H129.6L126.211 32.858H126.743V36.9187H125.434Z" fill="#7F847D"/>
<path d="M125.434 36.9187V31.2788H126.53L129.911 35.3395H129.379V31.2788H130.689V36.9187H129.6L126.211 32.858H126.743V36.9187H125.434Z" fill="black" fill-opacity="0.2"/>
<path d="M125.434 36.9187V31.2788H126.53L129.911 35.3395H129.379V31.2788H130.689V36.9187H129.6L126.211 32.858H126.743V36.9187H125.434Z" fill="black" fill-opacity="0.2"/>
</g>
<g id="Vector_31">
<path d="M121.307 37.0154C120.854 37.0154 120.434 36.9429 120.047 36.7979C119.665 36.6528 119.332 36.4487 119.048 36.1855C118.77 35.9223 118.552 35.6135 118.393 35.259C118.24 34.9045 118.164 34.5177 118.164 34.0988C118.164 33.6798 118.24 33.2931 118.393 32.9386C118.552 32.584 118.773 32.2752 119.056 32.012C119.34 31.7488 119.673 31.5447 120.055 31.3997C120.437 31.2546 120.852 31.1821 121.299 31.1821C121.752 31.1821 122.167 31.2546 122.543 31.3997C122.925 31.5447 123.256 31.7488 123.534 32.012C123.818 32.2752 124.039 32.584 124.197 32.9386C124.355 33.2877 124.434 33.6744 124.434 34.0988C124.434 34.5177 124.355 34.9071 124.197 35.267C124.039 35.6215 123.818 35.9304 123.534 36.1936C123.256 36.4514 122.925 36.6528 122.543 36.7979C122.167 36.9429 121.755 37.0154 121.307 37.0154ZM121.299 35.9035C121.556 35.9035 121.79 35.8606 122.003 35.7746C122.221 35.6887 122.412 35.5651 122.576 35.404C122.74 35.2429 122.865 35.0522 122.953 34.8319C123.045 34.6117 123.092 34.3673 123.092 34.0988C123.092 33.8302 123.045 33.5858 122.953 33.3656C122.865 33.1453 122.74 32.9547 122.576 32.7935C122.418 32.6324 122.23 32.5088 122.011 32.4229C121.793 32.337 121.556 32.294 121.299 32.294C121.043 32.294 120.805 32.337 120.587 32.4229C120.374 32.5088 120.186 32.6324 120.022 32.7935C119.859 32.9547 119.73 33.1453 119.637 33.3656C119.55 33.5858 119.507 33.8302 119.507 34.0988C119.507 34.362 119.55 34.6064 119.637 34.8319C119.73 35.0522 119.856 35.2429 120.014 35.404C120.178 35.5651 120.369 35.6887 120.587 35.7746C120.805 35.8606 121.043 35.9035 121.299 35.9035Z" fill="#7F847D"/>
<path d="M121.307 37.0154C120.854 37.0154 120.434 36.9429 120.047 36.7979C119.665 36.6528 119.332 36.4487 119.048 36.1855C118.77 35.9223 118.552 35.6135 118.393 35.259C118.24 34.9045 118.164 34.5177 118.164 34.0988C118.164 33.6798 118.24 33.2931 118.393 32.9386C118.552 32.584 118.773 32.2752 119.056 32.012C119.34 31.7488 119.673 31.5447 120.055 31.3997C120.437 31.2546 120.852 31.1821 121.299 31.1821C121.752 31.1821 122.167 31.2546 122.543 31.3997C122.925 31.5447 123.256 31.7488 123.534 32.012C123.818 32.2752 124.039 32.584 124.197 32.9386C124.355 33.2877 124.434 33.6744 124.434 34.0988C124.434 34.5177 124.355 34.9071 124.197 35.267C124.039 35.6215 123.818 35.9304 123.534 36.1936C123.256 36.4514 122.925 36.6528 122.543 36.7979C122.167 36.9429 121.755 37.0154 121.307 37.0154ZM121.299 35.9035C121.556 35.9035 121.79 35.8606 122.003 35.7746C122.221 35.6887 122.412 35.5651 122.576 35.404C122.74 35.2429 122.865 35.0522 122.953 34.8319C123.045 34.6117 123.092 34.3673 123.092 34.0988C123.092 33.8302 123.045 33.5858 122.953 33.3656C122.865 33.1453 122.74 32.9547 122.576 32.7935C122.418 32.6324 122.23 32.5088 122.011 32.4229C121.793 32.337 121.556 32.294 121.299 32.294C121.043 32.294 120.805 32.337 120.587 32.4229C120.374 32.5088 120.186 32.6324 120.022 32.7935C119.859 32.9547 119.73 33.1453 119.637 33.3656C119.55 33.5858 119.507 33.8302 119.507 34.0988C119.507 34.362 119.55 34.6064 119.637 34.8319C119.73 35.0522 119.856 35.2429 120.014 35.404C120.178 35.5651 120.369 35.6887 120.587 35.7746C120.805 35.8606 121.043 35.9035 121.299 35.9035Z" fill="black" fill-opacity="0.2"/>
<path d="M121.307 37.0154C120.854 37.0154 120.434 36.9429 120.047 36.7979C119.665 36.6528 119.332 36.4487 119.048 36.1855C118.77 35.9223 118.552 35.6135 118.393 35.259C118.24 34.9045 118.164 34.5177 118.164 34.0988C118.164 33.6798 118.24 33.2931 118.393 32.9386C118.552 32.584 118.773 32.2752 119.056 32.012C119.34 31.7488 119.673 31.5447 120.055 31.3997C120.437 31.2546 120.852 31.1821 121.299 31.1821C121.752 31.1821 122.167 31.2546 122.543 31.3997C122.925 31.5447 123.256 31.7488 123.534 32.012C123.818 32.2752 124.039 32.584 124.197 32.9386C124.355 33.2877 124.434 33.6744 124.434 34.0988C124.434 34.5177 124.355 34.9071 124.197 35.267C124.039 35.6215 123.818 35.9304 123.534 36.1936C123.256 36.4514 122.925 36.6528 122.543 36.7979C122.167 36.9429 121.755 37.0154 121.307 37.0154ZM121.299 35.9035C121.556 35.9035 121.79 35.8606 122.003 35.7746C122.221 35.6887 122.412 35.5651 122.576 35.404C122.74 35.2429 122.865 35.0522 122.953 34.8319C123.045 34.6117 123.092 34.3673 123.092 34.0988C123.092 33.8302 123.045 33.5858 122.953 33.3656C122.865 33.1453 122.74 32.9547 122.576 32.7935C122.418 32.6324 122.23 32.5088 122.011 32.4229C121.793 32.337 121.556 32.294 121.299 32.294C121.043 32.294 120.805 32.337 120.587 32.4229C120.374 32.5088 120.186 32.6324 120.022 32.7935C119.859 32.9547 119.73 33.1453 119.637 33.3656C119.55 33.5858 119.507 33.8302 119.507 34.0988C119.507 34.362 119.55 34.6064 119.637 34.8319C119.73 35.0522 119.856 35.2429 120.014 35.404C120.178 35.5651 120.369 35.6887 120.587 35.7746C120.805 35.8606 121.043 35.9035 121.299 35.9035Z" fill="black" fill-opacity="0.2"/>
</g>
<g id="Vector_32">
<path d="M115.838 36.9187V31.2788H117.164V36.9187H115.838Z" fill="#7F847D"/>
<path d="M115.838 36.9187V31.2788H117.164V36.9187H115.838Z" fill="black" fill-opacity="0.2"/>
<path d="M115.838 36.9187V31.2788H117.164V36.9187H115.838Z" fill="black" fill-opacity="0.2"/>
</g>
<g id="Vector_33">
<path d="M111.966 36.9187V32.3423H110.133V31.2788H115.126V32.3423H113.293V36.9187H111.966Z" fill="#7F847D"/>
<path d="M111.966 36.9187V32.3423H110.133V31.2788H115.126V32.3423H113.293V36.9187H111.966Z" fill="black" fill-opacity="0.2"/>
<path d="M111.966 36.9187V32.3423H110.133V31.2788H115.126V32.3423H113.293V36.9187H111.966Z" fill="black" fill-opacity="0.2"/>
</g>
<g id="Vector_34">
<path d="M104.049 36.9187L106.603 31.2788H107.912L110.475 36.9187H109.083L106.988 31.9395H107.511L105.408 36.9187H104.049ZM105.326 35.7102L105.678 34.7191H108.625L108.985 35.7102H105.326Z" fill="#7F847D"/>
<path d="M104.049 36.9187L106.603 31.2788H107.912L110.475 36.9187H109.083L106.988 31.9395H107.511L105.408 36.9187H104.049ZM105.326 35.7102L105.678 34.7191H108.625L108.985 35.7102H105.326Z" fill="black" fill-opacity="0.2"/>
<path d="M104.049 36.9187L106.603 31.2788H107.912L110.475 36.9187H109.083L106.988 31.9395H107.511L105.408 36.9187H104.049ZM105.326 35.7102L105.678 34.7191H108.625L108.985 35.7102H105.326Z" fill="black" fill-opacity="0.2"/>
</g>
<g id="Vector_35">
<path d="M100.722 36.9187L98.25 31.2788H99.6825L101.844 36.2741H101L103.194 31.2788H104.512L102.032 36.9187H100.722Z" fill="#7F847D"/>
<path d="M100.722 36.9187L98.25 31.2788H99.6825L101.844 36.2741H101L103.194 31.2788H104.512L102.032 36.9187H100.722Z" fill="black" fill-opacity="0.2"/>
<path d="M100.722 36.9187L98.25 31.2788H99.6825L101.844 36.2741H101L103.194 31.2788H104.512L102.032 36.9187H100.722Z" fill="black" fill-opacity="0.2"/>
</g>
<g id="Vector_36">
<path d="M95.0632 37.0154C94.6103 37.0154 94.1901 36.9429 93.8026 36.7979C93.4206 36.6528 93.0878 36.4487 92.804 36.1855C92.5257 35.9223 92.3074 35.6135 92.1491 35.259C91.9963 34.9045 91.9199 34.5177 91.9199 34.0988C91.9199 33.6798 91.9963 33.2931 92.1491 32.9386C92.3074 32.584 92.5284 32.2752 92.8122 32.012C93.0959 31.7488 93.4288 31.5447 93.8108 31.3997C94.1928 31.2546 94.6076 31.1821 95.0551 31.1821C95.508 31.1821 95.9227 31.2546 96.2993 31.3997C96.6813 31.5447 97.0114 31.7488 97.2898 32.012C97.5735 32.2752 97.7945 32.584 97.9528 32.9386C98.1111 33.2877 98.1902 33.6744 98.1902 34.0988C98.1902 34.5177 98.1111 34.9071 97.9528 35.267C97.7945 35.6215 97.5735 35.9304 97.2898 36.1936C97.0114 36.4514 96.6813 36.6528 96.2993 36.7979C95.9227 36.9429 95.5107 37.0154 95.0632 37.0154ZM95.0551 35.9035C95.3115 35.9035 95.5462 35.8606 95.759 35.7746C95.9773 35.6887 96.1683 35.5651 96.332 35.404C96.4957 35.2429 96.6213 35.0522 96.7086 34.8319C96.8013 34.6117 96.8477 34.3673 96.8477 34.0988C96.8477 33.8302 96.8013 33.5858 96.7086 33.3656C96.6213 33.1453 96.4957 32.9547 96.332 32.7935C96.1738 32.6324 95.9855 32.5088 95.7672 32.4229C95.5489 32.337 95.3115 32.294 95.0551 32.294C94.7986 32.294 94.5612 32.337 94.3429 32.4229C94.1301 32.5088 93.9418 32.6324 93.7781 32.7935C93.6144 32.9547 93.4861 33.1453 93.3934 33.3656C93.306 33.5858 93.2624 33.8302 93.2624 34.0988C93.2624 34.362 93.306 34.6064 93.3934 34.8319C93.4861 35.0522 93.6116 35.2429 93.7699 35.404C93.9336 35.5651 94.1246 35.6887 94.3429 35.7746C94.5612 35.8606 94.7986 35.9035 95.0551 35.9035Z" fill="#7F847D"/>
<path d="M95.0632 37.0154C94.6103 37.0154 94.1901 36.9429 93.8026 36.7979C93.4206 36.6528 93.0878 36.4487 92.804 36.1855C92.5257 35.9223 92.3074 35.6135 92.1491 35.259C91.9963 34.9045 91.9199 34.5177 91.9199 34.0988C91.9199 33.6798 91.9963 33.2931 92.1491 32.9386C92.3074 32.584 92.5284 32.2752 92.8122 32.012C93.0959 31.7488 93.4288 31.5447 93.8108 31.3997C94.1928 31.2546 94.6076 31.1821 95.0551 31.1821C95.508 31.1821 95.9227 31.2546 96.2993 31.3997C96.6813 31.5447 97.0114 31.7488 97.2898 32.012C97.5735 32.2752 97.7945 32.584 97.9528 32.9386C98.1111 33.2877 98.1902 33.6744 98.1902 34.0988C98.1902 34.5177 98.1111 34.9071 97.9528 35.267C97.7945 35.6215 97.5735 35.9304 97.2898 36.1936C97.0114 36.4514 96.6813 36.6528 96.2993 36.7979C95.9227 36.9429 95.5107 37.0154 95.0632 37.0154ZM95.0551 35.9035C95.3115 35.9035 95.5462 35.8606 95.759 35.7746C95.9773 35.6887 96.1683 35.5651 96.332 35.404C96.4957 35.2429 96.6213 35.0522 96.7086 34.8319C96.8013 34.6117 96.8477 34.3673 96.8477 34.0988C96.8477 33.8302 96.8013 33.5858 96.7086 33.3656C96.6213 33.1453 96.4957 32.9547 96.332 32.7935C96.1738 32.6324 95.9855 32.5088 95.7672 32.4229C95.5489 32.337 95.3115 32.294 95.0551 32.294C94.7986 32.294 94.5612 32.337 94.3429 32.4229C94.1301 32.5088 93.9418 32.6324 93.7781 32.7935C93.6144 32.9547 93.4861 33.1453 93.3934 33.3656C93.306 33.5858 93.2624 33.8302 93.2624 34.0988C93.2624 34.362 93.306 34.6064 93.3934 34.8319C93.4861 35.0522 93.6116 35.2429 93.7699 35.404C93.9336 35.5651 94.1246 35.6887 94.3429 35.7746C94.5612 35.8606 94.7986 35.9035 95.0551 35.9035Z" fill="black" fill-opacity="0.2"/>
<path d="M95.0632 37.0154C94.6103 37.0154 94.1901 36.9429 93.8026 36.7979C93.4206 36.6528 93.0878 36.4487 92.804 36.1855C92.5257 35.9223 92.3074 35.6135 92.1491 35.259C91.9963 34.9045 91.9199 34.5177 91.9199 34.0988C91.9199 33.6798 91.9963 33.2931 92.1491 32.9386C92.3074 32.584 92.5284 32.2752 92.8122 32.012C93.0959 31.7488 93.4288 31.5447 93.8108 31.3997C94.1928 31.2546 94.6076 31.1821 95.0551 31.1821C95.508 31.1821 95.9227 31.2546 96.2993 31.3997C96.6813 31.5447 97.0114 31.7488 97.2898 32.012C97.5735 32.2752 97.7945 32.584 97.9528 32.9386C98.1111 33.2877 98.1902 33.6744 98.1902 34.0988C98.1902 34.5177 98.1111 34.9071 97.9528 35.267C97.7945 35.6215 97.5735 35.9304 97.2898 36.1936C97.0114 36.4514 96.6813 36.6528 96.2993 36.7979C95.9227 36.9429 95.5107 37.0154 95.0632 37.0154ZM95.0551 35.9035C95.3115 35.9035 95.5462 35.8606 95.759 35.7746C95.9773 35.6887 96.1683 35.5651 96.332 35.404C96.4957 35.2429 96.6213 35.0522 96.7086 34.8319C96.8013 34.6117 96.8477 34.3673 96.8477 34.0988C96.8477 33.8302 96.8013 33.5858 96.7086 33.3656C96.6213 33.1453 96.4957 32.9547 96.332 32.7935C96.1738 32.6324 95.9855 32.5088 95.7672 32.4229C95.5489 32.337 95.3115 32.294 95.0551 32.294C94.7986 32.294 94.5612 32.337 94.3429 32.4229C94.1301 32.5088 93.9418 32.6324 93.7781 32.7935C93.6144 32.9547 93.4861 33.1453 93.3934 33.3656C93.306 33.5858 93.2624 33.8302 93.2624 34.0988C93.2624 34.362 93.306 34.6064 93.3934 34.8319C93.4861 35.0522 93.6116 35.2429 93.7699 35.404C93.9336 35.5651 94.1246 35.6887 94.3429 35.7746C94.5612 35.8606 94.7986 35.9035 95.0551 35.9035Z" fill="black" fill-opacity="0.2"/>
</g>
<g id="Vector_37">
<path d="M85.668 36.9187V31.2788H86.7649L90.1456 35.3395H89.6135V31.2788H90.9232V36.9187H89.8345L86.4456 32.858H86.9777V36.9187H85.668Z" fill="#7F847D"/>
<path d="M85.668 36.9187V31.2788H86.7649L90.1456 35.3395H89.6135V31.2788H90.9232V36.9187H89.8345L86.4456 32.858H86.9777V36.9187H85.668Z" fill="black" fill-opacity="0.2"/>
<path d="M85.668 36.9187V31.2788H86.7649L90.1456 35.3395H89.6135V31.2788H90.9232V36.9187H89.8345L86.4456 32.858H86.9777V36.9187H85.668Z" fill="black" fill-opacity="0.2"/>
</g>
<g id="Vector_38">
<path d="M79.0566 36.9187V31.2788H80.1535L83.5342 35.3395H83.0022V31.2788H84.3119V36.9187H83.2232L79.8343 32.858H80.3664V36.9187H79.0566Z" fill="#7F847D"/>
<path d="M79.0566 36.9187V31.2788H80.1535L83.5342 35.3395H83.0022V31.2788H84.3119V36.9187H83.2232L79.8343 32.858H80.3664V36.9187H79.0566Z" fill="black" fill-opacity="0.2"/>
<path d="M79.0566 36.9187V31.2788H80.1535L83.5342 35.3395H83.0022V31.2788H84.3119V36.9187H83.2232L79.8343 32.858H80.3664V36.9187H79.0566Z" fill="black" fill-opacity="0.2"/>
</g>
<g id="Vector_39">
<path d="M76.373 36.9187V31.2788H77.6991V36.9187H76.373Z" fill="#7F847D"/>
<path d="M76.373 36.9187V31.2788H77.6991V36.9187H76.373Z" fill="black" fill-opacity="0.2"/>
<path d="M76.373 36.9187V31.2788H77.6991V36.9187H76.373Z" fill="black" fill-opacity="0.2"/>
</g>
</g>
</g>
</svg>
