<svg width="54" height="54" viewBox="0 0 54 54" fill="none" xmlns="http://www.w3.org/2000/svg">
<g id="Frame" clip-path="url(#clip0_4594_35106)">
<g id="_x31_3_Eco_Energy">
<g id="Group">
<path id="Vector" d="M43.6147 26.8795C43.3766 26.8503 37.7118 26.2018 32.852 28.4265C32.4285 28.6205 32.2423 29.1211 32.436 29.5447C32.6296 29.9673 33.1289 30.1557 33.5541 29.9607C37.0445 28.363 41.138 28.4071 42.7316 28.5007C42.8543 30.587 42.8963 36.9567 39.2593 40.6597C38.9322 40.9921 38.9371 41.5261 39.2692 41.8528C39.6026 42.1794 40.1365 42.1745 40.4623 41.842C45.3988 36.8179 44.3968 27.9894 44.3524 27.6161C44.3051 27.2301 44.0011 26.9257 43.6147 26.8795Z" fill="url(#paint0_linear_4594_35106)"/>
<path id="Vector_2" d="M38.2317 34.1889L28.1321 44.2886C29.1277 44.297 30.427 44.2464 31.8445 44.0269C32.3002 43.9595 32.7304 44.2716 32.8064 44.7357C32.874 45.1913 32.5617 45.6217 32.0976 45.6977C30.3849 45.9592 28.5708 46.0351 26.9423 45.9423V53.1563C26.9423 53.6204 26.5626 54.0001 26.0985 54.0001C25.626 54.0001 25.2548 53.6204 25.2548 53.1563V45.9423C22.192 46.0436 18.7326 45.3601 16.5642 43.1917C13.1723 39.7998 13.8474 33.8092 13.8811 33.5561C13.9233 33.168 14.2271 32.8641 14.6152 32.822C14.8683 32.7883 20.859 32.1048 24.2508 35.5051C24.9089 36.1632 25.4152 36.9225 25.7948 37.7157C26.1914 35.9607 26.858 34.1213 27.9548 32.5014C28.2164 32.1133 28.7395 32.0121 29.1276 32.2736C29.5157 32.5352 29.617 33.0583 29.3554 33.4464C27.5498 36.1126 26.8917 39.8251 26.9929 43.0397L37.0419 32.9991C37.3709 32.67 37.9026 32.67 38.2316 32.9991C38.5608 33.3282 38.5608 33.8598 38.2317 34.1889Z" fill="url(#paint1_linear_4594_35106)"/>
<path id="Vector_3" d="M34.3922 12.3695L24.554 26.7132C24.3347 27.0423 23.9127 27.1688 23.5583 27.0253C23.1871 26.8819 22.9678 26.5107 23.0268 26.1225L24.5118 15.2466L19.4325 15.2382C19.1287 15.2382 18.8419 15.061 18.69 14.791C18.5466 14.5126 18.5634 14.1751 18.7406 13.922L27.9037 0.371359C28.1147 0.0592283 28.5028 -0.0757628 28.8656 0.0423688C29.22 0.1605 29.4563 0.49792 29.4478 0.869174L29.161 11.0448H33.7003C34.0125 11.0448 34.2994 11.222 34.4428 11.4919C34.5862 11.7704 34.5693 12.108 34.3922 12.3695Z" fill="url(#paint2_linear_4594_35106)"/>
<path id="Vector_4" d="M38.9561 3.62889L35.9889 6.02501C35.6273 6.31797 35.5703 6.84893 35.8628 7.21152C36.1541 7.571 36.6837 7.63266 37.0502 7.33762L40.0157 4.9415C40.3783 4.649 40.4351 4.11758 40.1426 3.75499C39.8493 3.39332 39.3195 3.33477 38.9561 3.62889Z" fill="url(#paint3_linear_4594_35106)"/>
<path id="Vector_5" d="M42.7579 12.6987H38.9453C38.4789 12.6987 38.1016 13.0766 38.1016 13.5425C38.1016 14.0085 38.4789 14.3863 38.9453 14.3863H42.7579C43.2243 14.3863 43.6017 14.0085 43.6017 13.5425C43.6017 13.0766 43.2243 12.6987 42.7579 12.6987Z" fill="url(#paint4_linear_4594_35106)"/>
<path id="Vector_6" d="M40.1426 23.3299C40.4351 22.9673 40.3783 22.4359 40.0157 22.1434L37.0502 19.7473C36.6868 19.4548 36.157 19.5104 35.8629 19.8734C35.5704 20.236 35.6272 20.7669 35.989 21.0599L38.9561 23.456C39.3166 23.7479 39.8479 23.6935 40.1426 23.3299Z" fill="url(#paint5_linear_4594_35106)"/>
<path id="Vector_7" d="M14.1806 23.4566L17.1465 21.0605C17.5091 20.7675 17.5655 20.2366 17.2726 19.874C16.9798 19.5114 16.4482 19.4554 16.0861 19.7479L13.1202 22.144C12.7576 22.437 12.7013 22.9679 12.9941 23.3305C13.2867 23.6925 13.8175 23.7498 14.1806 23.4566Z" fill="url(#paint6_linear_4594_35106)"/>
<path id="Vector_8" d="M9.53516 13.5425C9.53516 14.0085 9.91299 14.3863 10.3789 14.3863H14.1915C14.6574 14.3863 15.0353 14.0085 15.0353 13.5425C15.0353 13.0766 14.6574 12.6987 14.1915 12.6987H10.3789C9.91299 12.6987 9.53516 13.0766 9.53516 13.5425Z" fill="url(#paint7_linear_4594_35106)"/>
<path id="Vector_9" d="M17.2731 7.21138C17.5661 6.84879 17.5096 6.31783 17.147 6.02487L14.1807 3.62875C13.8186 3.33706 13.2875 3.39272 12.9942 3.75485C12.7012 4.11744 12.7577 4.6484 13.1203 4.94136L16.0866 7.33748C16.45 7.63091 16.9806 7.57317 17.2731 7.21138Z" fill="url(#paint8_linear_4594_35106)"/>
</g>
</g>
</g>
<defs>
<linearGradient id="paint0_linear_4594_35106" x1="35.8955" y1="23.1168" x2="46.0235" y2="33.5719" gradientUnits="userSpaceOnUse">
<stop stop-color="#D9FF8A"/>
<stop offset="1" stop-color="#97CB63"/>
</linearGradient>
<linearGradient id="paint1_linear_4594_35106" x1="21.0123" y1="26.9153" x2="34.449" y2="46.7249" gradientUnits="userSpaceOnUse">
<stop stop-color="#D9FF8A"/>
<stop offset="1" stop-color="#97CB63"/>
</linearGradient>
<linearGradient id="paint2_linear_4594_35106" x1="23.2516" y1="-6.45547" x2="40.5615" y2="6.86282" gradientUnits="userSpaceOnUse">
<stop stop-color="#D9FF8A"/>
<stop offset="1" stop-color="#97CB63"/>
</linearGradient>
<linearGradient id="paint3_linear_4594_35106" x1="37.0352" y1="2.46776" x2="39.5347" y2="6.19006" gradientUnits="userSpaceOnUse">
<stop stop-color="#D9FF8A"/>
<stop offset="1" stop-color="#97CB63"/>
</linearGradient>
<linearGradient id="paint4_linear_4594_35106" x1="39.7082" y1="12.2965" x2="40.2048" y2="14.4116" gradientUnits="userSpaceOnUse">
<stop stop-color="#D9FF8A"/>
<stop offset="1" stop-color="#97CB63"/>
</linearGradient>
<linearGradient id="paint5_linear_4594_35106" x1="37.0352" y1="18.5865" x2="39.5344" y2="22.3087" gradientUnits="userSpaceOnUse">
<stop stop-color="#D9FF8A"/>
<stop offset="1" stop-color="#97CB63"/>
</linearGradient>
<linearGradient id="paint6_linear_4594_35106" x1="14.166" y1="18.5872" x2="16.6652" y2="22.3092" gradientUnits="userSpaceOnUse">
<stop stop-color="#D9FF8A"/>
<stop offset="1" stop-color="#97CB63"/>
</linearGradient>
<linearGradient id="paint7_linear_4594_35106" x1="11.1418" y1="12.2965" x2="11.6384" y2="14.4116" gradientUnits="userSpaceOnUse">
<stop stop-color="#D9FF8A"/>
<stop offset="1" stop-color="#97CB63"/>
</linearGradient>
<linearGradient id="paint8_linear_4594_35106" x1="14.1661" y1="2.46869" x2="16.6649" y2="6.1908" gradientUnits="userSpaceOnUse">
<stop stop-color="#D9FF8A"/>
<stop offset="1" stop-color="#97CB63"/>
</linearGradient>
<clipPath id="clip0_4594_35106">
<rect width="54" height="54" fill="white"/>
</clipPath>
</defs>
</svg>
