<svg width="43" height="42" viewBox="0 0 43 42" fill="none" xmlns="http://www.w3.org/2000/svg">
<g id="earnings">
<g id="_x31_7_Dollar">
<g id="Group">
<path id="Vector" d="M33.5242 8.36499L36.7657 5.12377C36.955 4.93452 36.955 4.62806 36.7657 4.43881C36.5765 4.24956 36.27 4.24956 36.0807 4.43881L32.8392 7.68003C32.65 7.86927 32.65 8.17574 32.8392 8.36499C33.0284 8.55424 33.3349 8.55424 33.5242 8.36499Z" fill="url(#paint0_linear_6188_1324)"/>
<path id="Vector_2" d="M35.6426 9.99805C35.3752 9.99805 35.1582 10.215 35.1582 10.4824C35.1582 10.7499 35.3752 10.9668 35.6426 10.9668H40.2267C40.4941 10.9668 40.7111 10.7499 40.7111 10.4824C40.7111 10.215 40.4941 9.99805 40.2267 9.99805H35.6426Z" fill="url(#paint1_linear_6188_1324)"/>
<path id="Vector_3" d="M30.7227 0.495117C30.4553 0.495117 30.2383 0.71209 30.2383 0.979512V5.56358C30.2383 5.831 30.4553 6.04798 30.7227 6.04798C30.9901 6.04798 31.2071 5.831 31.2071 5.56358V0.979512C31.2071 0.71209 30.9901 0.495117 30.7227 0.495117Z" fill="url(#paint2_linear_6188_1324)"/>
<path id="Vector_4" d="M19.2104 7.67578C9.88425 7.67578 2.28906 15.2646 2.28906 24.5906C2.28906 33.9167 9.88425 41.5055 19.2104 41.5055C28.5365 41.5055 36.1252 33.9167 36.1252 24.5906C36.1252 15.2646 28.5364 7.67578 19.2104 7.67578ZM19.2104 40.5368C10.4138 40.5368 3.25785 33.3872 3.25785 24.5907C3.25785 15.7942 10.4138 8.64465 19.2104 8.64465C28.0004 8.64465 35.1564 15.7942 35.1564 24.5907C35.1564 33.3872 28.0004 40.5368 19.2104 40.5368Z" fill="url(#paint3_linear_6188_1324)"/>
<path id="Vector_5" d="M19.2112 12.9458C12.7849 12.9458 7.56641 18.1708 7.56641 24.5905C7.56641 31.0103 12.7849 36.2352 19.2112 36.2352C25.6309 36.2352 30.8558 31.0103 30.8558 24.5905C30.8558 18.1708 25.6309 12.9458 19.2112 12.9458ZM19.2112 24.1062C20.6966 24.1062 21.9043 25.3139 21.9043 26.7993C21.9043 28.162 20.9485 29.26 19.6955 29.4926V30.4355C19.6955 30.7003 19.4759 30.9199 19.2112 30.9199C18.9464 30.9199 18.7268 30.7003 18.7268 30.4355V29.5443H17.0023C16.731 29.5443 16.5179 29.3247 16.5179 29.0599C16.5179 28.7886 16.731 28.5755 17.0023 28.5755H19.1982C19.1982 28.5755 19.2047 28.569 19.2112 28.569C19.2176 28.569 19.2176 28.569 19.224 28.5755C20.167 28.569 20.9355 27.794 20.9355 26.8511C20.9355 25.8501 20.1605 25.075 19.2112 25.075C17.7256 25.075 16.5179 23.8673 16.5179 22.3819C16.5179 21.0191 17.4738 19.9147 18.7268 19.6886V18.7457C18.7268 18.4809 18.9464 18.2613 19.2112 18.2613C19.4759 18.2613 19.6955 18.4809 19.6955 18.7457V19.6369H21.4199C21.6847 19.6369 21.9043 19.8565 21.9043 20.1213C21.9043 20.3861 21.6847 20.6057 21.4199 20.6057H19.2112C18.2617 20.6057 17.4867 21.3807 17.4867 22.3301C17.4867 23.3311 18.2617 24.1062 19.2112 24.1062Z" fill="url(#paint4_linear_6188_1324)"/>
</g>
</g>
</g>
<defs>
<linearGradient id="paint0_linear_6188_1324" x1="34.8109" y1="8.50693" x2="33.5632" y2="6.00249" gradientUnits="userSpaceOnUse">
<stop stop-color="#7615C2"/>
<stop offset="1" stop-color="#C397EE"/>
</linearGradient>
<linearGradient id="paint1_linear_6188_1324" x1="37.9458" y1="10.9668" x2="37.8837" y2="10.2529" gradientUnits="userSpaceOnUse">
<stop stop-color="#7615C2"/>
<stop offset="1" stop-color="#C397EE"/>
</linearGradient>
<linearGradient id="paint2_linear_6188_1324" x1="30.7246" y1="6.04798" x2="29.4385" y2="5.59764" gradientUnits="userSpaceOnUse">
<stop stop-color="#7615C2"/>
<stop offset="1" stop-color="#C397EE"/>
</linearGradient>
<linearGradient id="paint3_linear_6188_1324" x1="19.275" y1="41.5055" x2="9.24973" y2="21.3802" gradientUnits="userSpaceOnUse">
<stop stop-color="#7615C2"/>
<stop offset="1" stop-color="#C397EE"/>
</linearGradient>
<linearGradient id="paint4_linear_6188_1324" x1="19.2578" y1="36.2352" x2="12.3553" y2="22.3814" gradientUnits="userSpaceOnUse">
<stop stop-color="#7615C2"/>
<stop offset="1" stop-color="#C397EE"/>
</linearGradient>
</defs>
</svg>
