<svg width="66" height="65" viewBox="0 0 66 65" fill="none" xmlns="http://www.w3.org/2000/svg">
<g id="Car monitoring 1">
<g id="_x32_4_Taxi_Location">
<g id="Group">
<path id="Vector" d="M56.7243 36.8343H58.2649C59.6732 36.8343 60.8238 35.6837 60.8238 34.2754V33.482C60.8238 32.0737 59.6733 30.9231 58.2649 30.9231C56.8566 30.9231 55.706 32.0735 55.706 33.482V35.1812C55.6729 36.6623 54.7803 37.9318 53.5109 38.5136L48.3007 26.4535C47.3288 24.1988 45.3517 22.5061 43.0178 21.9243C35.7249 20.0995 28.3195 20.0995 21.0199 21.9243C18.6859 22.5061 16.709 24.1988 15.737 26.4535L10.5335 38.5136C9.25072 37.9318 8.35812 36.6557 8.33171 35.168V33.482C8.33171 32.0737 7.18786 30.9231 5.77284 30.9231C4.36455 30.9231 3.2207 32.0735 3.2207 33.482V34.2754C3.2207 35.6837 4.36455 36.8343 5.77284 36.8343H7.32002C7.71015 37.9054 8.44406 38.8046 9.40281 39.3998C5.95134 40.656 3.48515 43.9619 3.48515 47.8366C3.48515 50.6069 4.74808 53.093 6.72499 54.7394V59.9695C6.72499 61.887 8.28537 63.4473 10.2029 63.4473H14.1634C16.0809 63.4473 17.6413 61.8868 17.6413 59.9695V56.8222H46.3966V59.9695C46.3966 61.887 47.957 63.4473 49.8745 63.4473H53.835C55.7525 63.4473 57.3129 61.8868 57.3129 59.9695V54.7394C59.2898 53.093 60.5527 50.6069 60.5527 47.8366C60.5527 43.9619 58.0865 40.656 54.6417 39.3998C55.5937 38.8046 56.3342 37.9054 56.7243 36.8343ZM16.9536 26.9825C17.7669 25.1047 19.4 23.6897 21.3373 23.207C28.4253 21.435 35.6125 21.435 42.7005 23.207C44.6378 23.6897 46.2775 25.1046 47.0842 26.9825L52.2084 38.8377C51.838 38.8575 12.0805 38.8509 11.8293 38.8377L16.9536 26.9825ZM59.2303 47.8364C59.2303 52.0614 55.792 55.4997 51.567 55.4997H12.4706C8.24564 55.4997 4.80736 52.0614 4.80736 47.8364C4.80736 43.6114 8.24564 40.1732 12.4706 40.1732H51.567C55.7921 40.1733 59.2303 43.6114 59.2303 47.8364Z" fill="url(#paint0_linear_6188_2728)"/>
<path id="Vector_2" d="M15.082 51.2084C13.5084 52.6167 11.1016 52.4712 9.69982 50.891C8.29813 49.3174 8.43689 46.904 10.004 45.5023C11.5182 44.1601 15.7036 42.5468 17.1912 44.2262C18.692 45.9123 16.6026 49.8595 15.082 51.2084Z" fill="url(#paint1_linear_6188_2728)"/>
<path id="Vector_3" d="M54.3376 50.8978C52.936 52.4781 50.5292 52.6102 48.9555 51.2086C47.4678 49.8862 45.3387 45.9191 46.8463 44.2264C48.3934 42.4808 52.6516 44.2792 54.0335 45.5025C55.6004 46.9042 55.7393 49.3176 54.3376 50.8978Z" fill="url(#paint2_linear_6188_2728)"/>
<path id="Vector_4" d="M42.0786 44.5024H21.962C21.5965 44.5024 21.3008 44.7981 21.3008 45.1636C21.3008 45.5291 21.5965 45.8248 21.962 45.8248H42.0786C42.4441 45.8248 42.7397 45.5291 42.7397 45.1636C42.7397 44.7981 42.4441 44.5024 42.0786 44.5024Z" fill="url(#paint3_linear_6188_2728)"/>
<path id="Vector_5" d="M42.0786 49.8472H21.962C21.5965 49.8472 21.3008 50.1428 21.3008 50.5083C21.3008 50.8738 21.5965 51.1695 21.962 51.1695H42.0786C42.4441 51.1695 42.7397 50.8738 42.7397 50.5083C42.7399 50.1428 42.4441 49.8472 42.0786 49.8472Z" fill="url(#paint4_linear_6188_2728)"/>
<path id="Vector_6" d="M53.5318 1.55273C48.4406 1.55273 44.2949 5.69839 44.2949 10.7896C44.2949 15.7023 52.6524 26.678 53.0095 27.1409C53.1352 27.3062 53.3269 27.3987 53.5318 27.3987C53.7434 27.3987 53.9351 27.3062 54.0607 27.1409C54.4178 26.678 62.7818 15.7023 62.7818 10.7896C62.7818 5.69851 58.6362 1.55273 53.5318 1.55273ZM53.5384 14.3601C51.5747 14.3601 49.9746 12.76 49.9746 10.7963C49.9746 8.83261 51.5747 7.23249 53.5384 7.23249C55.5021 7.23249 57.1022 8.83261 57.1022 10.7963C57.1022 12.76 55.5021 14.3601 53.5384 14.3601Z" fill="url(#paint5_linear_6188_2728)"/>
</g>
</g>
</g>
<defs>
<linearGradient id="paint0_linear_6188_2728" x1="20.0474" y1="10.3324" x2="44.4448" y2="53.1525" gradientUnits="userSpaceOnUse">
<stop stop-color="#D9FF8A"/>
<stop offset="1" stop-color="#91C65C"/>
</linearGradient>
<linearGradient id="paint1_linear_6188_2728" x1="11.3546" y1="41.4409" x2="16.8347" y2="48.856" gradientUnits="userSpaceOnUse">
<stop stop-color="#D9FF8A"/>
<stop offset="1" stop-color="#91C65C"/>
</linearGradient>
<linearGradient id="paint2_linear_6188_2728" x1="48.9518" y1="41.4329" x2="54.4377" y2="48.8488" gradientUnits="userSpaceOnUse">
<stop stop-color="#D9FF8A"/>
<stop offset="1" stop-color="#91C65C"/>
</linearGradient>
<linearGradient id="paint3_linear_6188_2728" x1="27.5634" y1="44.1873" x2="27.6458" y2="45.9321" gradientUnits="userSpaceOnUse">
<stop stop-color="#D9FF8A"/>
<stop offset="1" stop-color="#91C65C"/>
</linearGradient>
<linearGradient id="paint4_linear_6188_2728" x1="27.5634" y1="49.532" x2="27.6458" y2="51.2768" gradientUnits="userSpaceOnUse">
<stop stop-color="#D9FF8A"/>
<stop offset="1" stop-color="#91C65C"/>
</linearGradient>
<linearGradient id="paint5_linear_6188_2728" x1="49.6952" y1="-4.6077" x2="66.7461" y2="11.3308" gradientUnits="userSpaceOnUse">
<stop stop-color="#D9FF8A"/>
<stop offset="1" stop-color="#91C65C"/>
</linearGradient>
</defs>
</svg>
