<svg width="43" height="42" viewBox="0 0 43 42" fill="none" xmlns="http://www.w3.org/2000/svg">
<g id="Frame">
<g id="_x30_9_Guest_List">
<g id="Group">
<path id="Vector" d="M34.6106 7.53636H33.2243V6.14675C33.2243 4.50444 31.8802 3.16902 30.2345 3.16902H28.8181V2.00197C28.8181 1.67111 28.5468 1.40039 28.2153 1.40039C27.8777 1.40039 27.6125 1.67111 27.6125 2.00197V3.16902H24.3636V2.00197C24.3636 1.67111 24.0923 1.40039 23.7608 1.40039C23.4293 1.40039 23.158 1.67111 23.158 2.00197V3.16902H19.9151V2.00197C19.9151 1.67111 19.6439 1.40039 19.3123 1.40039C18.9748 1.40039 18.7096 1.67111 18.7096 2.00197V3.16902H15.4606V2.00197C15.4606 1.67111 15.1895 1.40039 14.8579 1.40039C14.5263 1.40039 14.2551 1.67111 14.2551 2.00197V3.16902H11.0122V2.00197C11.0122 1.67111 10.7409 1.40039 10.4094 1.40039C10.0779 1.40039 9.80662 1.67111 9.80662 2.00197V3.16902H8.3841C6.73857 3.16902 5.40039 4.50444 5.40039 6.14675V32.5493C5.40039 34.1976 6.73857 35.5331 8.3841 35.5331H9.77649V36.9227C9.77649 38.5649 11.1147 39.9004 12.7602 39.9004H34.6106C36.2622 39.9004 37.6004 38.5649 37.6004 36.9227V10.5201C37.6004 8.87185 36.2622 7.53636 34.6106 7.53636ZM32.0187 32.5493C32.0187 33.5298 31.217 34.3299 30.2345 34.3299H8.3841C7.40161 34.3299 6.60596 33.5298 6.60596 32.5493V6.14675C6.60596 5.16623 7.40161 4.37217 8.3841 4.37217H9.80662V5.21431C9.80662 5.54517 10.0778 5.81589 10.4094 5.81589C10.7409 5.81589 11.0122 5.54525 11.0122 5.21431V4.37217H14.2551V5.21431C14.2551 5.54517 14.5263 5.81589 14.8579 5.81589C15.1894 5.81589 15.4606 5.54525 15.4606 5.21431V4.37217H18.7096V5.21431C18.7096 5.54517 18.9748 5.81589 19.3123 5.81589C19.6439 5.81589 19.9151 5.54525 19.9151 5.21431V4.37217H23.158V5.21431C23.158 5.54517 23.4293 5.81589 23.7608 5.81589C24.0923 5.81589 24.3636 5.54525 24.3636 5.21431V4.37217H27.6125V5.21431C27.6125 5.54517 27.8777 5.81589 28.2153 5.81589C28.5468 5.81589 28.8181 5.54525 28.8181 5.21431V4.37217H30.2345C31.217 4.37217 32.0187 5.16623 32.0187 6.14675V32.5493Z" fill="url(#paint0_linear_6188_2708)"/>
<path id="Vector_2" d="M27.4793 10.5005H14.8333C14.485 10.5005 14.2031 10.7827 14.2031 11.1307C14.2031 11.4786 14.485 11.7608 14.8333 11.7608H27.4794C27.8277 11.7608 28.1096 11.4786 28.1096 11.1307C28.1095 10.7827 27.8276 10.5005 27.4793 10.5005Z" fill="url(#paint1_linear_6188_2708)"/>
<path id="Vector_3" d="M11.5894 10.5005H10.9309C10.5826 10.5005 10.3008 10.7827 10.3008 11.1307C10.3008 11.4786 10.5826 11.7608 10.9309 11.7608H11.5894C11.9377 11.7608 12.2196 11.4786 12.2196 11.1307C12.2196 10.7827 11.9377 10.5005 11.5894 10.5005Z" fill="url(#paint2_linear_6188_2708)"/>
<path id="Vector_4" d="M27.4793 14.9478H14.8333C14.485 14.9478 14.2031 15.2299 14.2031 15.5779C14.2031 15.9259 14.485 16.2081 14.8333 16.2081H27.4794C27.8277 16.2081 28.1096 15.9259 28.1096 15.5779C28.1096 15.2299 27.8276 14.9478 27.4793 14.9478Z" fill="url(#paint3_linear_6188_2708)"/>
<path id="Vector_5" d="M11.5894 14.9478H10.9309C10.5826 14.9478 10.3008 15.2299 10.3008 15.5779C10.3008 15.9259 10.5826 16.2081 10.9309 16.2081H11.5894C11.9377 16.2081 12.2196 15.9259 12.2196 15.5779C12.2196 15.2299 11.9377 14.9478 11.5894 14.9478Z" fill="url(#paint4_linear_6188_2708)"/>
<path id="Vector_6" d="M27.4793 19.3955H14.8333C14.485 19.3955 14.2031 19.6777 14.2031 20.0257C14.2031 20.3736 14.485 20.6558 14.8333 20.6558H27.4794C27.8277 20.6558 28.1096 20.3736 28.1096 20.0257C28.1095 19.6776 27.8276 19.3955 27.4793 19.3955Z" fill="url(#paint5_linear_6188_2708)"/>
<path id="Vector_7" d="M11.5894 19.3955H10.9309C10.5826 19.3955 10.3008 19.6777 10.3008 20.0257C10.3008 20.3736 10.5826 20.6558 10.9309 20.6558H11.5894C11.9377 20.6558 12.2196 20.3736 12.2196 20.0257C12.2196 19.6776 11.9377 19.3955 11.5894 19.3955Z" fill="url(#paint6_linear_6188_2708)"/>
<path id="Vector_8" d="M27.4793 23.8438H14.8333C14.485 23.8438 14.2031 24.1259 14.2031 24.4739C14.2031 24.8219 14.485 25.1041 14.8333 25.1041H27.4794C27.8277 25.1041 28.1096 24.8219 28.1096 24.4739C28.1095 24.1259 27.8276 23.8438 27.4793 23.8438Z" fill="url(#paint7_linear_6188_2708)"/>
<path id="Vector_9" d="M11.5894 23.8438H10.9309C10.5826 23.8438 10.3008 24.1259 10.3008 24.4739C10.3008 24.8219 10.5826 25.1041 10.9309 25.1041H11.5894C11.9377 25.1041 12.2196 24.8219 12.2196 24.4739C12.2196 24.1259 11.9377 23.8438 11.5894 23.8438Z" fill="url(#paint8_linear_6188_2708)"/>
<path id="Vector_10" d="M27.4793 28.291H14.8333C14.485 28.291 14.2031 28.5732 14.2031 28.9212C14.2031 29.2692 14.485 29.5513 14.8333 29.5513H27.4794C27.8277 29.5513 28.1096 29.2692 28.1096 28.9212C28.1096 28.5732 27.8276 28.291 27.4793 28.291Z" fill="url(#paint9_linear_6188_2708)"/>
<path id="Vector_11" d="M11.5894 28.291H10.9309C10.5826 28.291 10.3008 28.5732 10.3008 28.9212C10.3008 29.2692 10.5826 29.5513 10.9309 29.5513H11.5894C11.9377 29.5513 12.2196 29.2692 12.2196 28.9212C12.2196 28.5732 11.9377 28.291 11.5894 28.291Z" fill="url(#paint10_linear_6188_2708)"/>
</g>
</g>
</g>
<defs>
<linearGradient id="paint0_linear_6188_2708" x1="14.8065" y1="-7.77614" x2="40.1628" y2="19.9387" gradientUnits="userSpaceOnUse">
<stop stop-color="#D9FF8A"/>
<stop offset="1" stop-color="#91C65C"/>
</linearGradient>
<linearGradient id="paint1_linear_6188_2708" x1="18.2654" y1="10.2001" x2="18.3804" y2="11.8588" gradientUnits="userSpaceOnUse">
<stop stop-color="#D9FF8A"/>
<stop offset="1" stop-color="#91C65C"/>
</linearGradient>
<linearGradient id="paint2_linear_6188_2708" x1="10.8613" y1="10.2001" x2="11.53" y2="11.5307" gradientUnits="userSpaceOnUse">
<stop stop-color="#D9FF8A"/>
<stop offset="1" stop-color="#91C65C"/>
</linearGradient>
<linearGradient id="paint3_linear_6188_2708" x1="18.2654" y1="14.6474" x2="18.3804" y2="16.3061" gradientUnits="userSpaceOnUse">
<stop stop-color="#D9FF8A"/>
<stop offset="1" stop-color="#91C65C"/>
</linearGradient>
<linearGradient id="paint4_linear_6188_2708" x1="10.8613" y1="14.6474" x2="11.53" y2="15.9779" gradientUnits="userSpaceOnUse">
<stop stop-color="#D9FF8A"/>
<stop offset="1" stop-color="#91C65C"/>
</linearGradient>
<linearGradient id="paint5_linear_6188_2708" x1="18.2654" y1="19.0951" x2="18.3804" y2="20.7538" gradientUnits="userSpaceOnUse">
<stop stop-color="#D9FF8A"/>
<stop offset="1" stop-color="#91C65C"/>
</linearGradient>
<linearGradient id="paint6_linear_6188_2708" x1="10.8613" y1="19.0951" x2="11.53" y2="20.4257" gradientUnits="userSpaceOnUse">
<stop stop-color="#D9FF8A"/>
<stop offset="1" stop-color="#91C65C"/>
</linearGradient>
<linearGradient id="paint7_linear_6188_2708" x1="18.2654" y1="23.5433" x2="18.3804" y2="25.2021" gradientUnits="userSpaceOnUse">
<stop stop-color="#D9FF8A"/>
<stop offset="1" stop-color="#91C65C"/>
</linearGradient>
<linearGradient id="paint8_linear_6188_2708" x1="10.8613" y1="23.5433" x2="11.53" y2="24.8739" gradientUnits="userSpaceOnUse">
<stop stop-color="#D9FF8A"/>
<stop offset="1" stop-color="#91C65C"/>
</linearGradient>
<linearGradient id="paint9_linear_6188_2708" x1="18.2654" y1="27.9906" x2="18.3804" y2="29.6493" gradientUnits="userSpaceOnUse">
<stop stop-color="#D9FF8A"/>
<stop offset="1" stop-color="#91C65C"/>
</linearGradient>
<linearGradient id="paint10_linear_6188_2708" x1="10.8613" y1="27.9906" x2="11.53" y2="29.3212" gradientUnits="userSpaceOnUse">
<stop stop-color="#D9FF8A"/>
<stop offset="1" stop-color="#91C65C"/>
</linearGradient>
</defs>
</svg>
