<svg width="65" height="65" viewBox="0 0 65 65" fill="none" xmlns="http://www.w3.org/2000/svg">
<g id="monitoring">
<g id="_x32_5_Line_Chart">
<g id="Group">
<path id="Vector" d="M62.6165 9.76074C62.6165 12.6544 60.2543 15.01 57.3542 15.01C56.3306 15.01 55.3792 14.7147 54.5722 14.203L44.9792 24.0125C45.6025 24.8721 45.9765 25.9351 45.9765 27.0768C45.9765 29.977 43.6078 32.3326 40.7076 32.3326C37.8074 32.3326 35.4517 29.977 35.4517 27.0768C35.4517 25.8628 35.8651 24.7474 36.5607 23.8551L28.5491 15.8434C27.6436 16.5718 26.4953 17.0114 25.2487 17.0114C23.9954 17.0114 22.8471 16.5652 21.9417 15.8304L11.7844 25.9942C12.48 26.8866 12.8998 28.0021 12.8998 29.2225C12.8998 32.1162 10.5377 34.4718 7.63086 34.4718C4.73062 34.4718 2.375 32.1162 2.375 29.2225C2.375 26.3158 4.73062 23.9536 7.63086 23.9536C8.84479 23.9536 9.96019 24.3736 10.8525 25.0625L21.0361 14.879C20.3865 14.0063 19.9994 12.9301 19.9994 11.7557C19.9994 8.84896 22.355 6.48675 25.2487 6.48675C28.1554 6.48675 30.5176 8.84884 30.5176 11.7557C30.5176 12.9367 30.1173 14.026 29.4612 14.8987L37.486 22.9301C38.3718 22.228 39.4939 21.8081 40.7077 21.8081C41.9938 21.8081 43.1749 22.274 44.087 23.0483L53.5488 13.37C52.6564 12.4317 52.0987 11.1587 52.0987 9.76112C52.0987 6.8544 54.4543 4.49219 57.3546 4.49219C60.2543 4.49181 62.6165 6.85402 62.6165 9.76074Z" fill="url(#paint0_linear_6188_1317)"/>
<path id="Vector_2" d="M60.6551 53.8284H58.0174V24.6097C58.0174 24.2488 57.7221 23.9536 57.3613 23.9536C56.9939 23.9536 56.7052 24.2489 56.7052 24.6097V53.8284H41.3707V40.9873C41.3707 40.6264 41.0754 40.3312 40.7146 40.3312C40.3537 40.3312 40.0585 40.6265 40.0585 40.9873V53.8282H25.9116V24.6097C25.9116 24.2488 25.6229 23.9536 25.2555 23.9536C24.8946 23.9536 24.5993 24.2489 24.5993 24.6097V53.8284H8.29381V40.9873C8.29381 40.6264 7.99852 40.3312 7.63771 40.3312C7.27679 40.3312 6.98162 40.6265 6.98162 40.9873V53.8282H4.34379C2.50005 53.8282 1.00391 55.3242 1.00391 57.1681C1.00391 59.0118 2.49992 60.5079 4.34379 60.5079H60.6551C62.4989 60.5079 63.9949 59.0118 63.9949 57.1681C63.995 55.3244 62.499 53.8284 60.6551 53.8284ZM60.6551 59.1957H4.34379C3.22178 59.1957 2.31622 58.2836 2.31622 57.1682C2.31622 56.0528 3.22178 55.1407 4.34379 55.1407H60.6551C61.7705 55.1407 62.6826 56.0527 62.6826 57.1682C62.6827 58.2836 61.7705 59.1957 60.6551 59.1957Z" fill="url(#paint1_linear_6188_1317)"/>
</g>
</g>
</g>
<defs>
<linearGradient id="paint0_linear_6188_1317" x1="32.6166" y1="34.4718" x2="27.4167" y2="13.5006" gradientUnits="userSpaceOnUse">
<stop stop-color="#7615C2"/>
<stop offset="1" stop-color="#C397EE"/>
</linearGradient>
<linearGradient id="paint1_linear_6188_1317" x1="32.6257" y1="60.5079" x2="25.3834" y2="35.4595" gradientUnits="userSpaceOnUse">
<stop stop-color="#7615C2"/>
<stop offset="1" stop-color="#C397EE"/>
</linearGradient>
</defs>
</svg>
