<svg width="54" height="54" viewBox="0 0 54 54" fill="none" xmlns="http://www.w3.org/2000/svg">
<g id="Frame">
<g id="_x31_4_Wallet">
<g id="Group">
<path id="Vector" d="M43.1845 20.589H38.521V14.7499C38.521 13.4481 38.0157 12.2671 37.1971 11.3772C37.5322 10.1578 37.1807 8.89438 36.3128 8.02648L29.9299 1.64361C28.5841 0.297832 26.3979 0.297832 25.0521 1.64361L16.9499 9.74583H11.7425C8.49613 9.74583 5.79898 12.1957 5.59574 15.3212C5.5738 15.6673 5.58477 17.0515 5.58477 47.3949C5.58477 50.6907 8.25988 53.3658 11.5557 53.3658H43.1844C46.0737 53.3658 48.4192 51.0203 48.4192 48.131V25.8293C48.4193 22.94 46.0738 20.589 43.1845 20.589ZM6.69441 15.3925C6.85926 12.8383 9.07294 10.8443 11.7425 10.8443H15.8512L11.5283 15.1672H9.89138C9.58932 15.1672 9.3421 15.4145 9.3421 15.7165C9.3421 16.0186 9.58932 16.2658 9.89138 16.2658H34.5879C34.89 16.2658 35.1372 16.0186 35.1372 15.7165C35.1372 15.4145 34.89 15.1672 34.5879 15.1672H34.0496C36.3457 12.8491 36.3621 12.9096 36.6753 12.4702C37.1422 13.1129 37.4223 13.8983 37.4223 14.7498V20.5889H11.5558C8.74884 20.589 6.50762 18.205 6.69441 15.3925ZM41.8003 48.131C41.8003 50.4106 39.9436 52.2672 37.664 52.2672H11.5558C8.8697 52.2672 6.68344 50.081 6.68344 47.3949V19.1663C7.84792 20.8088 9.73761 21.6876 11.5558 21.6876H37.664C39.9436 21.6876 41.8003 23.5443 41.8003 25.8294V32.064H37.1202C34.4122 32.064 32.204 34.2667 32.204 36.9802C32.204 39.6882 34.4122 41.8964 37.1202 41.8964H41.8003V48.131ZM47.3208 40.7977H37.1202C35.0165 40.7977 33.3026 39.0839 33.3026 36.9801C33.3026 34.8763 35.0165 33.1624 37.1202 33.1624H47.3208V40.7977Z" fill="url(#paint0_linear_4649_3710)"/>
<path id="Vector_2" d="M39.2031 36.9801C39.2031 38.0457 38.3352 38.9136 37.2695 38.9136C36.2038 38.9136 35.3359 38.0457 35.3359 36.9801C35.3359 35.9089 36.2038 35.041 37.2695 35.041C38.3352 35.0409 39.2031 35.9088 39.2031 36.9801Z" fill="url(#paint1_linear_4649_3710)"/>
</g>
</g>
</g>
<defs>
<linearGradient id="paint0_linear_4649_3710" x1="18.0954" y1="-11.9344" x2="52.8998" y2="25.0157" gradientUnits="userSpaceOnUse">
<stop stop-color="#D9FF8A"/>
<stop offset="1" stop-color="#91C65C"/>
</linearGradient>
<linearGradient id="paint1_linear_4649_3710" x1="36.4656" y1="34.118" x2="38.9381" y2="37.3446" gradientUnits="userSpaceOnUse">
<stop stop-color="#D9FF8A"/>
<stop offset="1" stop-color="#91C65C"/>
</linearGradient>
</defs>
</svg>
