<svg width="54" height="54" viewBox="0 0 54 54" fill="none" xmlns="http://www.w3.org/2000/svg">
<g id="Frame" clip-path="url(#clip0_4649_3705)">
<g id="_x33_4_Shape_Builder">
<g id="Group">
<path id="Vector" d="M0.634766 8.39715V28.5742C0.634766 32.8577 4.11618 36.3431 8.39568 36.3431H8.93157C9.38698 36.3431 9.75549 35.9746 9.75549 35.5192C9.75549 35.0638 9.38698 34.6953 8.93157 34.6953H8.39568C5.02448 34.6953 2.2825 31.9493 2.2825 28.5741V8.39715C2.2825 5.02594 5.02448 2.28397 8.39568 2.28397H28.5727C31.9439 2.28397 34.6859 5.02594 34.6859 8.39715V11.5197C34.6859 11.9751 35.0544 12.3436 35.5098 12.3436C35.9652 12.3436 36.3337 11.9751 36.3337 11.5197V8.39715C36.3337 4.11765 32.8523 0.63623 28.5728 0.63623H8.39568C4.11618 0.63623 0.634766 4.11765 0.634766 8.39715Z" fill="url(#paint0_linear_4649_3705)"/>
<path id="Vector_2" d="M45.5944 17.6647H36.3339V14.674C36.3339 14.2209 35.9632 13.8501 35.51 13.8501C35.0569 13.8501 34.6861 14.2208 34.6861 14.674V17.6647H25.4257C21.1416 17.6647 17.6566 21.1497 17.6566 25.4256V34.6943H12.0954C11.6423 34.6943 11.2715 35.065 11.2715 35.5182C11.2715 35.9714 11.6422 36.3421 12.0954 36.3421H17.6566V45.6026C17.6566 49.8868 21.1416 53.3635 25.4175 53.3635H45.5944C49.8785 53.3635 53.3635 49.8868 53.3635 45.6026V25.4256C53.3636 21.1497 49.8785 17.6647 45.5944 17.6647ZM34.6862 28.5728C34.6862 31.9507 31.9427 34.6942 28.573 34.6942H19.3043V25.4255C19.3043 22.0559 22.0479 19.3123 25.4257 19.3123H34.6861V28.5728H34.6862Z" fill="url(#paint1_linear_4649_3705)"/>
</g>
</g>
</g>
<defs>
<linearGradient id="paint0_linear_4649_3705" x1="11.063" y1="-7.87455" x2="33.853" y2="21.9024" gradientUnits="userSpaceOnUse">
<stop stop-color="#D9FF8A"/>
<stop offset="1" stop-color="#91C65C"/>
</linearGradient>
<linearGradient id="paint1_linear_4649_3705" x1="23.5672" y1="4.43201" x2="48.3264" y2="38.9006" gradientUnits="userSpaceOnUse">
<stop stop-color="#D9FF8A"/>
<stop offset="1" stop-color="#91C65C"/>
</linearGradient>
<clipPath id="clip0_4649_3705">
<rect width="54" height="54" fill="white"/>
</clipPath>
</defs>
</svg>
