<svg width="66" height="65" viewBox="0 0 66 65" fill="none" xmlns="http://www.w3.org/2000/svg">
<g id=" request processing">
<g id="_x31_3_User_Security">
<g id="Group">
<path id="Vector" d="M19.5475 20.4126C14.1431 20.4126 9.74609 24.8096 9.74609 30.214C9.74609 35.6086 14.1431 39.996 19.5475 39.996C24.9421 39.996 29.3392 35.6086 29.3392 30.214C29.3392 24.8096 24.9421 20.4126 19.5475 20.4126ZM19.5475 38.059C15.2182 38.059 11.6831 34.5336 11.6831 30.214C11.6831 25.875 15.2182 22.3496 19.5475 22.3496C23.8767 22.3496 27.4021 25.875 27.4021 30.214C27.4021 34.5336 23.8767 38.059 19.5475 38.059Z" fill="url(#paint0_linear_6188_1338)"/>
<path id="Vector_2" d="M31.1593 63.4925H7.92456C3.75022 63.4925 0.864064 59.2601 2.45237 55.4344C5.32888 48.4999 12.0408 44.0254 19.5467 44.0254C27.0527 44.0254 33.7646 48.5096 36.641 55.4538C38.21 59.26 35.3335 63.4925 31.1593 63.4925Z" fill="url(#paint1_linear_6188_1338)"/>
<path id="Vector_3" d="M52.6026 1.50732H43.421C37.1451 1.50732 32.0312 6.61147 32.0312 12.897V23.3183C32.0312 23.8509 32.4671 24.2868 32.9998 24.2868H52.6025C58.8882 24.2868 63.9922 19.173 63.9922 12.897C63.9923 6.61147 58.8883 1.50732 52.6026 1.50732ZM52.6026 22.3499H33.9684V12.8972C33.9684 7.68651 38.2104 3.4445 43.4211 3.4445H52.6027C57.823 3.4445 62.0554 7.68664 62.0554 12.8972C62.0554 18.1077 57.8229 22.3499 52.6026 22.3499Z" fill="url(#paint2_linear_6188_1338)"/>
<path id="Vector_4" d="M52.1867 11.4732C52.1867 13.4393 50.8114 15.0858 48.9809 15.5216V17.5264C48.9809 18.0591 48.545 18.495 48.0124 18.495C47.4699 18.495 47.0438 18.0591 47.0438 17.5264V15.5216C45.2133 15.0858 43.8477 13.4393 43.8477 11.4732C43.8477 9.17773 45.7169 7.29883 48.0124 7.29883C50.3078 7.29883 52.1867 9.17773 52.1867 11.4732Z" fill="url(#paint3_linear_6188_1338)"/>
</g>
</g>
</g>
<defs>
<linearGradient id="paint0_linear_6188_1338" x1="19.5819" y1="39.996" x2="13.7795" y2="28.3445" gradientUnits="userSpaceOnUse">
<stop stop-color="#7615C2"/>
<stop offset="1" stop-color="#C397EE"/>
</linearGradient>
<linearGradient id="paint1_linear_6188_1338" x1="19.6129" y1="63.4925" x2="15.8989" y2="50.0651" gradientUnits="userSpaceOnUse">
<stop stop-color="#7615C2"/>
<stop offset="1" stop-color="#C397EE"/>
</linearGradient>
<linearGradient id="paint2_linear_6188_1338" x1="48.0758" y1="24.2868" x2="42.742" y2="9.26663" gradientUnits="userSpaceOnUse">
<stop stop-color="#7615C2"/>
<stop offset="1" stop-color="#C397EE"/>
</linearGradient>
<linearGradient id="paint3_linear_6188_1338" x1="48.0339" y1="18.495" x2="44.1919" y2="12.7516" gradientUnits="userSpaceOnUse">
<stop stop-color="#7615C2"/>
<stop offset="1" stop-color="#C397EE"/>
</linearGradient>
</defs>
</svg>
