<svg width="37" height="26" viewBox="0 0 37 26" fill="none" xmlns="http://www.w3.org/2000/svg">
<g id="Icon">
<path id="Vector" fill-rule="evenodd" clip-rule="evenodd" d="M7.06054 17.2969C3.03912 16.5179 0 12.9748 0 8.72788C0 3.91038 3.91038 0 8.72788 0C13.5454 0 17.4558 3.91038 17.4558 8.72788C17.4558 15.1478 15.293 19.135 12.7544 21.6275C8.86796 25.4439 4.00092 25.7753 4.00092 25.7753C3.5055 25.8112 3.03571 25.5567 2.79313 25.1245C2.54883 24.694 2.57788 24.1593 2.86488 23.7561C2.86488 23.7561 5.17796 20.5 6.61979 18.0913C6.77013 17.8384 6.92217 17.56 7.06054 17.2969Z" fill="black"/>
<path id="Vector_2" fill-rule="evenodd" clip-rule="evenodd" d="M26.334 17.2969C22.3126 16.5179 19.2734 12.9748 19.2734 8.72788C19.2734 3.91038 23.1838 0 28.0013 0C32.8188 0 36.7292 3.91038 36.7292 8.72788C36.7292 15.1478 34.5664 19.135 32.0279 21.6275C28.1414 25.4439 23.2744 25.7753 23.2744 25.7753C22.7789 25.8112 22.3091 25.5567 22.0666 25.1245C21.824 24.694 21.8513 24.1593 22.1383 23.7561C22.1383 23.7561 24.4514 20.5 25.8932 18.0913C26.0436 17.8384 26.1956 17.56 26.334 17.2969Z" fill="black"/>
</g>
</svg>
