<svg width="24" height="21" viewBox="0 0 24 21" fill="none" xmlns="http://www.w3.org/2000/svg">
<g id="3-Download">
<path id="Vector" d="M12.8125 20.6562H11.1875C8.38615 20.6562 5.69954 19.5434 3.71868 17.5626C1.73783 15.5817 0.625 12.8951 0.625 10.0938C0.625 9.87826 0.710602 9.6716 0.862976 9.51923C1.01535 9.36685 1.22201 9.28125 1.4375 9.28125C1.65299 9.28125 1.85965 9.36685 2.01202 9.51923C2.1644 9.6716 2.25 9.87826 2.25 10.0938C2.25 12.4641 3.19163 14.7374 4.86773 16.4135C6.54384 18.0896 8.81713 19.0312 11.1875 19.0312H12.8125C15.1829 19.0312 17.4562 18.0896 19.1323 16.4135C20.8084 14.7374 21.75 12.4641 21.75 10.0938C21.75 9.87826 21.8356 9.6716 21.988 9.51923C22.1403 9.36685 22.347 9.28125 22.5625 9.28125C22.778 9.28125 22.9847 9.36685 23.137 9.51923C23.2894 9.6716 23.375 9.87826 23.375 10.0938C23.375 11.4808 23.1018 12.8543 22.571 14.1358C22.0402 15.4173 21.2621 16.5817 20.2813 17.5626C19.3005 18.5434 18.1361 19.3214 16.8546 19.8522C15.5731 20.383 14.1996 20.6562 12.8125 20.6562ZM12.8125 13.2462V4.40625C12.8125 4.19076 12.7269 3.9841 12.5745 3.83173C12.4222 3.67935 12.2155 3.59375 12 3.59375C11.7845 3.59375 11.5778 3.67935 11.4255 3.83173C11.2731 3.9841 11.1875 4.19076 11.1875 4.40625V13.2462C11.1875 13.4617 11.2731 13.6684 11.4255 13.8208C11.5778 13.9731 11.7845 14.0587 12 14.0587C12.2155 14.0587 12.4222 13.9731 12.5745 13.8208C12.7269 13.6684 12.8125 13.4617 12.8125 13.2462ZM12.585 14.725L16.6475 10.565C16.7983 10.4098 16.8814 10.2011 16.8783 9.98476C16.8753 9.76839 16.7864 9.56209 16.6313 9.41125C16.4761 9.26041 16.2674 9.17738 16.051 9.18043C15.8346 9.18347 15.6283 9.27235 15.4775 9.4275L12 12.9944L8.5225 9.4275C8.37166 9.27235 8.16536 9.18347 7.94899 9.18043C7.73262 9.17738 7.5239 9.26041 7.36875 9.41125C7.2136 9.56209 7.12472 9.76839 7.12168 9.98476C7.11863 10.2011 7.20166 10.4098 7.3525 10.565L11.415 14.725C11.4908 14.8036 11.5817 14.8662 11.6822 14.9089C11.7827 14.9516 11.8908 14.9736 12 14.9736C12.1092 14.9736 12.2173 14.9516 12.3178 14.9089C12.4183 14.8662 12.5092 14.8036 12.585 14.725ZM12.8125 1.96875V1.15625C12.8125 0.940762 12.7269 0.734099 12.5745 0.581726C12.4222 0.429353 12.2155 0.34375 12 0.34375C11.7845 0.34375 11.5778 0.429353 11.4255 0.581726C11.2731 0.734099 11.1875 0.940762 11.1875 1.15625V1.96875C11.1875 2.18424 11.2731 2.3909 11.4255 2.54327C11.5778 2.69565 11.7845 2.78125 12 2.78125C12.2155 2.78125 12.4222 2.69565 12.5745 2.54327C12.7269 2.3909 12.8125 2.18424 12.8125 1.96875Z" fill="white"/>
</g>
</svg>
