<svg width="86" height="85" viewBox="0 0 86 85" fill="none" xmlns="http://www.w3.org/2000/svg">
<g id="Frame" clip-path="url(#clip0_4739_11228)">
<g id="_x30_5_Renewable_energy">
<g id="Group">
<g id="Group_2">
<path id="Vector" d="M37.695 51.0921C37.3962 51.0921 37.1543 50.85 37.1543 50.5514V46.6832C37.1543 46.3845 37.3964 46.1426 37.695 46.1426C37.9935 46.1426 38.2356 46.3847 38.2356 46.6832V50.5514C38.2356 50.85 37.9935 51.0921 37.695 51.0921Z" fill="#0C1101"/>
</g>
<g id="Group_3">
<path id="Vector_2" d="M80.3158 67.9181C80.0163 68.3418 79.7117 68.7656 79.3996 69.1809C79.2201 69.4195 79.2682 69.7586 79.5068 69.9381C79.7456 70.1183 80.0847 70.0688 80.2639 69.831C80.5829 69.4072 80.8932 68.9745 81.1987 68.5419C81.3711 68.298 81.3132 67.9607 81.0696 67.7884C80.8248 67.6163 80.4882 67.6745 80.3158 67.9181Z" fill="#0C1101"/>
<path id="Vector_3" d="M77.5673 71.4534C75.7643 73.5325 73.7659 75.4309 71.6266 77.0949C71.3908 77.2784 71.3487 77.6181 71.532 77.8537C71.7143 78.0885 72.0536 78.1324 72.2907 77.9486C74.4852 76.2409 76.5357 74.2941 78.3842 72.1616C78.5798 71.9361 78.5557 71.5945 78.3297 71.3989C78.1037 71.2028 77.7625 71.2277 77.5673 71.4534Z" fill="#0C1101"/>
<path id="Vector_4" d="M14.0448 15.5252C14.4098 15.1133 14.7452 14.7517 15.0697 14.4196C15.2784 14.206 15.2741 13.8636 15.0609 13.6549C14.8475 13.4465 14.5054 13.45 14.2959 13.6637C13.9596 14.0083 13.6127 14.3822 13.2356 14.8071C13.0375 15.0306 13.0583 15.3724 13.2816 15.5705C13.503 15.7683 13.8457 15.7495 14.0448 15.5252Z" fill="#0C1101"/>
<path id="Vector_5" d="M17.1092 12.4222C19.0738 10.639 21.1508 9.05702 23.6294 7.53896C23.8837 7.38304 23.964 7.05027 23.8081 6.79554C23.6518 6.54082 23.3189 6.46078 23.0642 6.61687C20.5435 8.16067 18.4049 9.78516 16.3825 11.6219C16.1612 11.8225 16.1448 12.1645 16.3453 12.3855C16.5469 12.6067 16.8883 12.6228 17.1092 12.4222Z" fill="#0C1101"/>
<path id="Vector_6" d="M85.4884 42.7646C84.9781 21.3309 67.2687 3.79883 45.584 3.79883C28.1687 3.79883 12.5445 15.2835 7.40114 31.9461C0.994819 40.9522 -0.964772 48.8465 1.57883 55.4086C5.71853 66.0931 20.1318 69.307 20.7417 69.4367C21.2694 69.5491 21.6154 68.9133 21.2478 68.5326C16.9611 64.0815 19.258 57.3637 20.4433 54.6818C21.3343 52.666 21.9444 50.7714 22.3075 48.881C23.3241 43.5951 22.5412 39.3991 19.9846 36.4101C16.4678 32.2963 10.7061 31.7211 8.6384 31.6519C13.8335 15.7724 28.8565 4.88033 45.584 4.88033C66.3733 4.88033 83.9097 21.9668 84.407 42.7907C84.7835 58.4281 75.8249 72.6985 61.589 79.1525C58.2236 80.6795 54.3392 80.3853 51.2074 78.3652C48.0107 76.3062 46.1031 72.8111 46.1031 69.0218V63.7531C52.3278 63.4372 57.2981 58.2682 57.2981 51.9656V42.3148C58.678 42.1159 59.7463 40.9263 59.7463 39.4944C59.7463 37.9199 58.4659 36.6351 56.8914 36.6351H54.2701V26.3616C54.2701 25.0768 53.2233 24.0301 51.9385 24.0301C50.6538 24.0301 49.607 25.0768 49.607 26.3616V36.6351H41.3839V26.3616C41.3839 25.0768 40.3371 24.0301 39.0523 24.0301C37.7676 24.0301 36.7208 25.0768 36.7208 26.3616V36.6351H34.0995C32.525 36.6351 31.2445 37.9199 31.2445 39.4944C31.2445 40.9263 32.3129 42.1157 33.6928 42.3148V51.9655C33.6928 58.3155 38.7322 63.5065 45.0218 63.7572V69.0216C45.0218 73.1829 47.1154 77.0154 50.6192 79.2735C54.0798 81.5056 58.3492 81.8083 62.0347 80.1387C76.6685 73.503 85.8734 58.8346 85.4884 42.7646ZM50.6883 26.3616C50.6883 25.6738 51.2507 25.1114 51.9384 25.1114C52.6262 25.1114 53.1886 25.6736 53.1886 26.3616V36.6351H50.6883V26.3616ZM37.8021 26.3616C37.8021 25.6738 38.3645 25.1114 39.0523 25.1114C39.7401 25.1114 40.3025 25.6736 40.3025 26.3616V36.6351H37.8021V26.3616ZM34.7741 51.9653V42.3493H56.2166V51.9653C56.2166 57.8784 51.4063 62.6887 45.4932 62.6887C39.5842 62.6887 34.7741 57.8786 34.7741 51.9653Z" fill="#0C1101"/>
<path id="Vector_7" d="M50.3328 51.3248C50.3328 53.9895 48.1613 56.1609 45.4924 56.1609C42.8277 56.1609 40.6562 53.9895 40.6562 51.3248C40.6562 48.6558 42.8277 46.4844 45.4924 46.4844C48.1612 46.4844 50.3328 48.6558 50.3328 51.3248Z" fill="#ABE138"/>
</g>
</g>
</g>
</g>
<defs>
<clipPath id="clip0_4739_11228">
<rect width="85" height="85" fill="white" transform="translate(0.5)"/>
</clipPath>
</defs>
</svg>
