<svg width="14" height="14" viewBox="0 0 14 14" fill="none" xmlns="http://www.w3.org/2000/svg">
<path id="Vector" fill-rule="evenodd" clip-rule="evenodd" d="M0.635811 13.3639C0.760818 13.4889 0.928594 13.5609 1.10223 13.564C1.27586 13.5672 1.44114 13.5012 1.56169 13.3807L12.2825 2.6599L12.3873 8.48644C12.3904 8.66029 12.4625 8.82828 12.5877 8.95344C12.7128 9.07861 12.8808 9.1507 13.0547 9.15385C13.2285 9.157 13.394 9.09097 13.5147 8.97026C13.6354 8.84956 13.7014 8.68408 13.6983 8.51022L13.5639 1.1032C13.5625 1.01708 13.544 0.931488 13.5097 0.85131C13.4753 0.771132 13.4257 0.697949 13.3637 0.635952C13.3017 0.573955 13.2286 0.524362 13.1484 0.490013C13.0682 0.455665 12.9826 0.437236 12.8965 0.435782L5.48946 0.301391C5.40338 0.29983 5.31845 0.315238 5.23951 0.346738C5.16058 0.378239 5.08919 0.425213 5.02942 0.484979C4.90872 0.605683 4.84268 0.771164 4.84584 0.945019C4.84899 1.11887 4.92108 1.28686 5.04624 1.41203C5.17141 1.53719 5.3394 1.60928 5.51325 1.61243L11.3398 1.71722L0.619013 12.438C0.498461 12.5585 0.432506 12.7238 0.435657 12.8975C0.438807 13.0711 0.510805 13.2389 0.635811 13.3639Z" fill="white" fill-opacity="0.75"/>
</svg>
