<svg width="187" height="191" viewBox="0 0 187 191" fill="none" xmlns="http://www.w3.org/2000/svg">
<g id="Vector">
<path d="M7.7675 0.5625H2.3125C1.20793 0.5625 0.3125 1.45793 0.3125 2.5625V8.1575H7.7675V0.5625Z" fill="#0C1101"/>
<path d="M15.2225 0.5625H7.7675V8.1575H15.2225V0.5625Z" fill="#0C1101"/>
<path d="M22.6775 0.5625H15.2225V8.1575H22.6775V0.5625Z" fill="#0C1101"/>
<path d="M30.1325 0.5625H22.6775V8.1575H30.1325V0.5625Z" fill="#0C1101"/>
<path d="M37.5875 0.5625H30.1325V8.1575H37.5875V0.5625Z" fill="#0C1101"/>
<path d="M45.0425 0.5625H37.5875V8.1575H45.0425V0.5625Z" fill="#0C1101"/>
<path d="M52.4975 2.5625C52.4975 1.45793 51.6021 0.5625 50.4975 0.5625H45.0425V8.1575H52.4975V2.5625Z" fill="#0C1101"/>
<path d="M67.4075 2.5625C67.4075 1.45793 66.5121 0.5625 65.4075 0.5625H61.9525C60.8479 0.5625 59.9525 1.45793 59.9525 2.5625V6.1575C59.9525 7.26207 60.8479 8.1575 61.9525 8.1575H67.4075V2.5625Z" fill="#0C1101"/>
<path d="M82.3175 2.5625C82.3175 1.45793 81.4221 0.5625 80.3175 0.5625H76.8625C75.7579 0.5625 74.8625 1.45793 74.8625 2.5625V8.1575H82.3175V2.5625Z" fill="#0C1101"/>
<path d="M104.682 0.5625H99.2275C98.1229 0.5625 97.2275 1.45793 97.2275 2.5625V8.1575H104.682V0.5625Z" fill="#0C1101"/>
<path d="M112.137 0.5625H104.682V8.1575H112.137V0.5625Z" fill="#0C1101"/>
<path d="M119.592 0.5625H112.137V8.1575H119.592V0.5625Z" fill="#0C1101"/>
<path d="M127.048 2.5625C127.048 1.45793 126.152 0.5625 125.048 0.5625H119.592V8.1575H125.048C126.152 8.1575 127.048 7.26207 127.048 6.1575V2.5625Z" fill="#0C1101"/>
<path d="M141.957 0.5625H136.503C135.398 0.5625 134.503 1.45793 134.503 2.5625V8.1575H141.957V0.5625Z" fill="#0C1101"/>
<path d="M149.412 0.5625H141.957V8.1575H149.412V0.5625Z" fill="#0C1101"/>
<path d="M156.868 0.5625H149.412V8.1575H156.868V0.5625Z" fill="#0C1101"/>
<path d="M164.323 0.5625H156.868V8.1575H164.323V0.5625Z" fill="#0C1101"/>
<path d="M171.777 0.5625H164.323V8.1575H171.777V0.5625Z" fill="#0C1101"/>
<path d="M179.232 0.5625H171.777V8.1575H179.232V0.5625Z" fill="#0C1101"/>
<path d="M186.688 2.5625C186.688 1.45793 185.792 0.5625 184.688 0.5625H179.232V8.1575H186.688V2.5625Z" fill="#0C1101"/>
<path d="M7.7675 8.1575H0.3125V15.7525H7.7675V8.1575Z" fill="#0C1101"/>
<path d="M52.4975 8.1575H45.0425L45.0425 15.7525H52.4975V8.1575Z" fill="#0C1101"/>
<path d="M74.8625 8.1575H67.4075V15.7525H74.8625V8.1575Z" fill="#0C1101"/>
<path d="M82.3175 8.1575H74.8625V15.7525H82.3175V8.1575Z" fill="#0C1101"/>
<path d="M89.7725 10.1575C89.7725 9.05293 88.8771 8.1575 87.7725 8.1575H82.3175V15.7525H87.7725C88.8771 15.7525 89.7725 14.8571 89.7725 13.7525V10.1575Z" fill="#0C1101"/>
<path d="M104.682 8.1575H97.2275V15.7525H104.682V8.1575Z" fill="#0C1101"/>
<path d="M112.137 8.1575H104.682V15.7525H110.137C111.242 15.7525 112.137 14.8571 112.137 13.7525V8.1575Z" fill="#0C1101"/>
<path d="M141.957 8.1575H134.503V15.7525H141.957V8.1575Z" fill="#0C1101"/>
<path d="M186.688 8.1575H179.232V15.7525H186.688V8.1575Z" fill="#0C1101"/>
<path d="M7.7675 15.7525H0.3125V23.3475H7.7675V15.7525Z" fill="#0C1101"/>
<path d="M22.6775 15.7525H17.2225C16.1179 15.7525 15.2225 16.6479 15.2225 17.7525V23.3475H22.6775V15.7525Z" fill="#0C1101"/>
<path d="M30.1325 15.7525H22.6775V23.3475H30.1325V15.7525Z" fill="#0C1101"/>
<path d="M37.5875 17.7525C37.5875 16.6479 36.6921 15.7525 35.5875 15.7525H30.1325V23.3475H37.5875V17.7525Z" fill="#0C1101"/>
<path d="M52.4975 15.7525H45.0425V23.3475H52.4975V15.7525Z" fill="#0C1101"/>
<path d="M74.8625 15.7525H67.4075V23.3475H74.8625V15.7525Z" fill="#0C1101"/>
<path d="M82.3175 15.7525H74.8625V23.3475H82.3175V15.7525Z" fill="#0C1101"/>
<path d="M104.682 15.7525H97.2275V23.3475H104.682V15.7525Z" fill="#0C1101"/>
<path d="M127.048 17.7525C127.048 16.6479 126.152 15.7525 125.048 15.7525H121.592C120.488 15.7525 119.592 16.6479 119.592 17.7525V23.3475H125.048C126.152 23.3475 127.048 22.4521 127.048 21.3475V17.7525Z" fill="#0C1101"/>
<path d="M141.957 15.7525H134.503V23.3475H141.957V15.7525Z" fill="#0C1101"/>
<path d="M156.868 15.7525H151.412C150.308 15.7525 149.412 16.6479 149.412 17.7525V23.3475H156.868V15.7525Z" fill="#0C1101"/>
<path d="M164.323 15.7525H156.868V23.3475H164.323V15.7525Z" fill="#0C1101"/>
<path d="M171.777 17.7525C171.777 16.6479 170.882 15.7525 169.777 15.7525H164.323V23.3475H171.777V17.7525Z" fill="#0C1101"/>
<path d="M186.688 15.7525H179.232V23.3475H186.688V15.7525Z" fill="#0C1101"/>
<path d="M7.7675 23.3475H0.3125V30.9425H7.7675V23.3475Z" fill="#0C1101"/>
<path d="M22.6775 23.3475H15.2225V30.9425H22.6775V23.3475Z" fill="#0C1101"/>
<path d="M30.1325 23.3475H22.6775V30.9425H30.1325V23.3475Z" fill="#0C1101"/>
<path d="M37.5875 23.3475H30.1325V30.9425H37.5875V23.3475Z" fill="#0C1101"/>
<path d="M52.4975 23.3475H45.0425V30.9425H52.4975V23.3475Z" fill="#0C1101"/>
<path d="M67.4075 23.3475H61.9525C60.8479 23.3475 59.9525 24.2429 59.9525 25.3475V30.9425H67.4075V23.3475Z" fill="#0C1101"/>
<path d="M89.7725 25.3475C89.7725 24.2429 88.8771 23.3475 87.7725 23.3475H82.3175V28.9425C82.3175 30.0471 83.2129 30.9425 84.3175 30.9425H87.7725C88.8771 30.9425 89.7725 30.0471 89.7725 28.9425V25.3475Z" fill="#0C1101"/>
<path d="M104.682 23.3475H97.2275V28.9425C97.2275 30.0471 98.1229 30.9425 99.2275 30.9425H104.682V23.3475Z" fill="#0C1101"/>
<path d="M112.137 23.3475H104.682V30.9425H112.137V23.3475Z" fill="#0C1101"/>
<path d="M119.592 23.3475H112.137V30.9425H119.592V23.3475Z" fill="#0C1101"/>
<path d="M141.957 23.3475H134.503V30.9425H141.957V23.3475Z" fill="#0C1101"/>
<path d="M156.868 23.3475H149.412V30.9425H156.868V23.3475Z" fill="#0C1101"/>
<path d="M164.323 23.3475H156.868V30.9425H164.323V23.3475Z" fill="#0C1101"/>
<path d="M171.777 23.3475H164.323V30.9425H171.777V23.3475Z" fill="#0C1101"/>
<path d="M186.688 23.3475H179.232V30.9425H186.688V23.3475Z" fill="#0C1101"/>
<path d="M7.7675 30.9425H0.3125V38.5375H7.7675V30.9425Z" fill="#0C1101"/>
<path d="M22.6775 30.9425H15.2225V36.5375C15.2225 37.6421 16.1179 38.5375 17.2225 38.5375H22.6775V30.9425Z" fill="#0C1101"/>
<path d="M30.1325 30.9425H22.6775V38.5375H30.1325V30.9425Z" fill="#0C1101"/>
<path d="M37.5875 30.9425H30.1325V38.5375H35.5875C36.6921 38.5375 37.5875 37.6421 37.5875 36.5375V30.9425Z" fill="#0C1101"/>
<path d="M52.4975 30.9425H45.0425V38.5375H52.4975V30.9425Z" fill="#0C1101"/>
<path d="M67.4075 30.9425H59.9525V38.5375H67.4075V30.9425Z" fill="#0C1101"/>
<path d="M112.137 30.9425H104.682V38.5375H110.137C111.242 38.5375 112.137 37.6421 112.137 36.5375V30.9425Z" fill="#0C1101"/>
<path d="M127.048 32.9425C127.048 31.8379 126.152 30.9425 125.048 30.9425H119.592V38.5375H127.048V32.9425Z" fill="#0C1101"/>
<path d="M141.957 30.9425H134.503V38.5375H141.957V30.9425Z" fill="#0C1101"/>
<path d="M156.868 30.9425H149.412V36.5375C149.412 37.6421 150.308 38.5375 151.412 38.5375H156.868V30.9425Z" fill="#0C1101"/>
<path d="M164.323 30.9425H156.868V38.5375H164.323V30.9425Z" fill="#0C1101"/>
<path d="M171.777 30.9425H164.323V38.5375H169.777C170.882 38.5375 171.777 37.6421 171.777 36.5375V30.9425Z" fill="#0C1101"/>
<path d="M186.688 30.9425H179.232V38.5375H186.688V30.9425Z" fill="#0C1101"/>
<path d="M7.7675 38.5375H0.3125V46.1325H7.7675V38.5375Z" fill="#0C1101"/>
<path d="M52.4975 38.5375H45.0425V46.1325H52.4975V38.5375Z" fill="#0C1101"/>
<path d="M67.4075 38.5375H59.9525V46.1325H67.4075V38.5375Z" fill="#0C1101"/>
<path d="M82.3175 38.5375H76.8625C75.7579 38.5375 74.8625 39.4329 74.8625 40.5375V46.1325H82.3175V38.5375Z" fill="#0C1101"/>
<path d="M89.7725 38.5375H82.3175V46.1325H89.7725V38.5375Z" fill="#0C1101"/>
<path d="M97.2275 38.5375H89.7725V46.1325H97.2275V38.5375Z" fill="#0C1101"/>
<path d="M104.682 38.5375H97.2275V46.1325H104.682V38.5375Z" fill="#0C1101"/>
<path d="M127.048 38.5375H119.592V46.1325H127.048V38.5375Z" fill="#0C1101"/>
<path d="M141.957 38.5375H134.503V46.1325H141.957V38.5375Z" fill="#0C1101"/>
<path d="M186.688 38.5375H179.232V46.1325H186.688V38.5375Z" fill="#0C1101"/>
<path d="M7.7675 46.1325H0.3125V51.7275C0.3125 52.8321 1.20793 53.7275 2.3125 53.7275H7.7675V46.1325Z" fill="#0C1101"/>
<path d="M15.2225 46.1325L7.7675 46.1325V53.7275H15.2225V46.1325Z" fill="#0C1101"/>
<path d="M22.6775 46.1325H15.2225V53.7275H22.6775V46.1325Z" fill="#0C1101"/>
<path d="M30.1325 46.1325H22.6775V53.7275H30.1325V46.1325Z" fill="#0C1101"/>
<path d="M37.5875 46.1325H30.1325V53.7275H37.5875V46.1325Z" fill="#0C1101"/>
<path d="M45.0425 46.1325L37.5875 46.1325V53.7275H45.0425L45.0425 46.1325Z" fill="#0C1101"/>
<path d="M52.4975 46.1325H45.0425L45.0425 53.7275H50.4975C51.6021 53.7275 52.4975 52.8321 52.4975 51.7275V46.1325Z" fill="#0C1101"/>
<path d="M67.4075 46.1325H59.9525V53.7275H67.4075V46.1325Z" fill="#0C1101"/>
<path d="M82.3175 46.1325H74.8625V51.7275C74.8625 52.8321 75.7579 53.7275 76.8625 53.7275H82.3175V46.1325Z" fill="#0C1101"/>
<path d="M97.2275 46.1325H89.7725V53.7275H97.2275V46.1325Z" fill="#0C1101"/>
<path d="M112.137 48.1325C112.137 47.0279 111.242 46.1325 110.137 46.1325L104.682 46.1325V53.7275H110.137C111.242 53.7275 112.137 52.8321 112.137 51.7275V48.1325Z" fill="#0C1101"/>
<path d="M127.048 46.1325H119.592V51.7275C119.592 52.8321 120.488 53.7275 121.592 53.7275H125.048C126.152 53.7275 127.048 52.8321 127.048 51.7275V46.1325Z" fill="#0C1101"/>
<path d="M141.957 46.1325H134.503V51.7275C134.503 52.8321 135.398 53.7275 136.503 53.7275H141.957V46.1325Z" fill="#0C1101"/>
<path d="M149.412 46.1325L141.957 46.1325V53.7275H149.412V46.1325Z" fill="#0C1101"/>
<path d="M156.868 46.1325H149.412V53.7275H156.868V46.1325Z" fill="#0C1101"/>
<path d="M164.323 46.1325H156.868V53.7275H164.323V46.1325Z" fill="#0C1101"/>
<path d="M171.777 46.1325H164.323V53.7275H171.777V46.1325Z" fill="#0C1101"/>
<path d="M179.232 46.1325L171.777 46.1325V53.7275H179.232V46.1325Z" fill="#0C1101"/>
<path d="M186.688 46.1325H179.232V53.7275H184.688C185.792 53.7275 186.688 52.8321 186.688 51.7275V46.1325Z" fill="#0C1101"/>
<path d="M67.4075 53.7275H59.9525V61.3225H67.4075V53.7275Z" fill="#0C1101"/>
<path d="M89.7725 53.7275H82.3175V59.3225C82.3175 60.4271 83.2129 61.3225 84.3175 61.3225H89.7725V53.7275Z" fill="#0C1101"/>
<path d="M97.2275 53.7275H89.7725V61.3225H97.2275V53.7275Z" fill="#0C1101"/>
<path d="M104.682 53.7275H97.2275V61.3225H104.682V53.7275Z" fill="#0C1101"/>
<path d="M7.7675 61.3225H2.3125C1.20793 61.3225 0.3125 62.2179 0.3125 63.3225V66.9175C0.3125 68.0221 1.20793 68.9175 2.3125 68.9175H7.7675V61.3225Z" fill="#0C1101"/>
<path d="M15.2225 61.3225H7.7675V68.9175H15.2225V61.3225Z" fill="#0C1101"/>
<path d="M22.6775 63.3225C22.6775 62.2179 21.7821 61.3225 20.6775 61.3225H15.2225V68.9175H22.6775V63.3225Z" fill="#0C1101"/>
<path d="M37.5875 63.3225C37.5875 62.2179 36.6921 61.3225 35.5875 61.3225H32.1325C31.0279 61.3225 30.1325 62.2179 30.1325 63.3225V68.9175H35.5875C36.6921 68.9175 37.5875 68.0221 37.5875 66.9175V63.3225Z" fill="#0C1101"/>
<path d="M52.4975 63.3225C52.4975 62.2179 51.6021 61.3225 50.4975 61.3225H47.0425C45.9379 61.3225 45.0425 62.2179 45.0425 63.3225V66.9175C45.0425 68.0221 45.9379 68.9175 47.0425 68.9175H52.4975V63.3225Z" fill="#0C1101"/>
<path d="M67.4075 61.3225H59.9525V68.9175H67.4075V61.3225Z" fill="#0C1101"/>
<path d="M74.8625 63.3225C74.8625 62.2179 73.9671 61.3225 72.8625 61.3225H67.4075V68.9175H72.8625C73.9671 68.9175 74.8625 68.0221 74.8625 66.9175V63.3225Z" fill="#0C1101"/>
<path d="M112.137 63.3225C112.137 62.2179 111.242 61.3225 110.137 61.3225H104.682V68.9175H112.137V63.3225Z" fill="#0C1101"/>
<path d="M127.048 61.3225H121.592C120.488 61.3225 119.592 62.2179 119.592 63.3225V68.9175H127.048V61.3225Z" fill="#0C1101"/>
<path d="M134.503 61.3225H127.048V68.9175H134.503V61.3225Z" fill="#0C1101"/>
<path d="M141.957 61.3225H134.503V68.9175H141.957V61.3225Z" fill="#0C1101"/>
<path d="M149.412 61.3225H141.957V68.9175H149.412V61.3225Z" fill="#0C1101"/>
<path d="M156.868 61.3225H149.412V68.9175H156.868V61.3225Z" fill="#0C1101"/>
<path d="M164.323 63.3225C164.323 62.2179 163.427 61.3225 162.323 61.3225H156.868V68.9175H164.323V63.3225Z" fill="#0C1101"/>
<path d="M186.688 63.3225C186.688 62.2179 185.792 61.3225 184.688 61.3225H181.232C180.128 61.3225 179.232 62.2179 179.232 63.3225V68.9175H184.688C185.792 68.9175 186.688 68.0221 186.688 66.9175V63.3225Z" fill="#0C1101"/>
<path d="M22.6775 68.9175H15.2225V76.5125H22.6775V68.9175Z" fill="#0C1101"/>
<path d="M30.1325 68.9175H22.6775V76.5125H28.1325C29.2371 76.5125 30.1325 75.6171 30.1325 74.5125V68.9175Z" fill="#0C1101"/>
<path d="M59.9525 68.9175H52.4975V76.5125H57.9525C59.0571 76.5125 59.9525 75.6171 59.9525 74.5125V68.9175Z" fill="#0C1101"/>
<path d="M104.682 68.9175H99.2275C98.1229 68.9175 97.2275 69.8129 97.2275 70.9175V76.5125H102.682C103.787 76.5125 104.682 75.6171 104.682 74.5125V68.9175Z" fill="#0C1101"/>
<path d="M119.592 68.9175H112.137L112.138 74.5125C112.138 75.6171 113.033 76.5125 114.138 76.5125H119.592V68.9175Z" fill="#0C1101"/>
<path d="M127.048 68.9175H119.592V76.5125H127.048V68.9175Z" fill="#0C1101"/>
<path d="M141.957 68.9175H134.503V76.5125H141.957V68.9175Z" fill="#0C1101"/>
<path d="M156.868 68.9175H149.412V76.5125H156.868V68.9175Z" fill="#0C1101"/>
<path d="M164.323 68.9175H156.868V76.5125H164.323V68.9175Z" fill="#0C1101"/>
<path d="M179.232 68.9175H173.777C172.673 68.9175 171.777 69.8129 171.777 70.9175V76.5125H177.232C178.337 76.5125 179.232 75.6171 179.232 74.5125V68.9175Z" fill="#0C1101"/>
<path d="M15.2225 76.5125H9.7675C8.66293 76.5125 7.7675 77.4079 7.7675 78.5125V84.1075H15.2225V76.5125Z" fill="#0C1101"/>
<path d="M52.4975 76.5125H47.0425C45.9379 76.5125 45.0425 77.4079 45.0425 78.5125V82.1075C45.0425 83.2121 45.9379 84.1075 47.0425 84.1075H50.4975C51.6021 84.1075 52.4975 83.2121 52.4975 82.1075V76.5125Z" fill="#0C1101"/>
<path d="M89.7725 76.5125H84.3175C83.2129 76.5125 82.3175 77.4079 82.3175 78.5125V82.1075C82.3175 83.2121 83.2129 84.1075 84.3175 84.1075H89.7725V76.5125Z" fill="#0C1101"/>
<path d="M97.2275 76.5125H89.7725V84.1075H97.2275V76.5125Z" fill="#0C1101"/>
<path d="M127.048 76.5125H119.592V84.1075H127.048V76.5125Z" fill="#0C1101"/>
<path d="M141.957 76.5125H134.503V84.1075H141.957V76.5125Z" fill="#0C1101"/>
<path d="M149.412 76.5125H141.957V84.1075H149.412V76.5125Z" fill="#0C1101"/>
<path d="M156.868 76.5125H149.412V84.1075H154.868C155.972 84.1075 156.868 83.2121 156.868 82.1075V76.5125Z" fill="#0C1101"/>
<path d="M171.777 76.5125H164.323V82.1075C164.323 83.2121 165.218 84.1075 166.323 84.1075H169.777C170.882 84.1075 171.777 83.2121 171.777 82.1075V76.5125Z" fill="#0C1101"/>
<path d="M15.2225 84.1075H7.7675V91.7025H15.2225V84.1075Z" fill="#0C1101"/>
<path d="M22.6775 84.1075H15.2225V91.7025H22.6775V84.1075Z" fill="#0C1101"/>
<path d="M30.1325 84.1075H22.6775V91.7025H30.1325V84.1075Z" fill="#0C1101"/>
<path d="M37.5875 86.1075C37.5875 85.0029 36.6921 84.1075 35.5875 84.1075H30.1325V91.7025H35.5875C36.6921 91.7025 37.5875 90.8071 37.5875 89.7025V86.1075Z" fill="#0C1101"/>
<path d="M74.8625 86.1075C74.8625 85.0029 73.9671 84.1075 72.8625 84.1075H69.4075C68.3029 84.1075 67.4075 85.0029 67.4075 86.1075V91.7025H74.8625V86.1075Z" fill="#0C1101"/>
<path d="M97.2275 84.1075H89.7725V91.7025H97.2275V84.1075Z" fill="#0C1101"/>
<path d="M112.137 84.1075H106.682C105.578 84.1075 104.682 85.0029 104.682 86.1075V91.7025H112.137V84.1075Z" fill="#0C1101"/>
<path d="M119.592 84.1075H112.137V91.7025H117.592C118.697 91.7025 119.592 90.8071 119.592 89.7025V84.1075Z" fill="#0C1101"/>
<path d="M134.503 84.1075H127.048V91.7025H134.503V84.1075Z" fill="#0C1101"/>
<path d="M141.957 84.1075H134.503V91.7025H141.957V84.1075Z" fill="#0C1101"/>
<path d="M15.2225 91.7025H7.7675V99.2975H15.2225V91.7025Z" fill="#0C1101"/>
<path d="M52.4975 93.7025C52.4975 92.5979 51.6021 91.7025 50.4975 91.7025H47.0425C45.9379 91.7025 45.0425 92.5979 45.0425 93.7025V99.2975H52.4975V93.7025Z" fill="#0C1101"/>
<path d="M67.4075 91.7025H61.9525C60.8479 91.7025 59.9525 92.5979 59.9525 93.7025V99.2975H67.4075V91.7025Z" fill="#0C1101"/>
<path d="M74.8625 91.7025H67.4075V99.2975H74.8625V91.7025Z" fill="#0C1101"/>
<path d="M97.2275 91.7025H89.7725V97.2975C89.7725 98.4021 90.6679 99.2975 91.7725 99.2975H97.2275V91.7025Z" fill="#0C1101"/>
<path d="M112.137 91.7025H104.682V99.2975H110.137C111.242 99.2975 112.137 98.4021 112.137 97.2975V91.7025Z" fill="#0C1101"/>
<path d="M134.503 91.7025H127.048V99.2975H134.503V91.7025Z" fill="#0C1101"/>
<path d="M149.412 91.7025H141.957V99.2975H149.412V91.7025Z" fill="#0C1101"/>
<path d="M156.868 93.7025C156.868 92.5979 155.972 91.7025 154.867 91.7025H149.412V99.2975H156.868V93.7025Z" fill="#0C1101"/>
<path d="M171.777 93.7025C171.777 92.5979 170.882 91.7025 169.777 91.7025H166.323C165.218 91.7025 164.323 92.5979 164.323 93.7025V99.2975H171.777V93.7025Z" fill="#0C1101"/>
<path d="M186.688 93.7025C186.688 92.5979 185.792 91.7025 184.688 91.7025H181.232C180.128 91.7025 179.232 92.5979 179.232 93.7025V99.2975H186.688V93.7025Z" fill="#0C1101"/>
<path d="M7.7675 99.2975H2.3125C1.20793 99.2975 0.3125 100.193 0.3125 101.297V106.892H7.7675V99.2975Z" fill="#0C1101"/>
<path d="M15.2225 99.2975H7.7675V106.892H15.2225V99.2975Z" fill="#0C1101"/>
<path d="M22.6775 99.2975H15.2225V106.892H22.6775V99.2975Z" fill="#0C1101"/>
<path d="M30.1325 101.297C30.1325 100.193 29.2371 99.2975 28.1325 99.2975H22.6775V106.892H28.1325C29.2371 106.892 30.1325 105.997 30.1325 104.892V101.297Z" fill="#0C1101"/>
<path d="M45.0425 99.2975H39.5875C38.4829 99.2975 37.5875 100.193 37.5875 101.297V106.892H45.0425L45.0425 99.2975Z" fill="#0C1101"/>
<path d="M59.9525 99.2975H52.4975V106.892H59.9525V99.2975Z" fill="#0C1101"/>
<path d="M74.8625 99.2975H67.4075V106.892H74.8625V99.2975Z" fill="#0C1101"/>
<path d="M82.3175 101.297C82.3175 100.193 81.4221 99.2975 80.3175 99.2975H74.8625V106.892H80.3175C81.4221 106.892 82.3175 105.997 82.3175 104.892V101.297Z" fill="#0C1101"/>
<path d="M104.682 99.2975H97.2275V106.892H104.682V99.2975Z" fill="#0C1101"/>
<path d="M127.048 99.2975H121.592C120.488 99.2975 119.592 100.193 119.592 101.297V104.892C119.592 105.997 120.488 106.892 121.592 106.892H127.048V99.2975Z" fill="#0C1101"/>
<path d="M134.503 99.2975H127.048V106.892H132.503C133.607 106.892 134.503 105.997 134.503 104.892V99.2975Z" fill="#0C1101"/>
<path d="M149.412 99.2975H141.957V104.892C141.957 105.997 142.853 106.892 143.957 106.892H147.412C148.517 106.892 149.412 105.997 149.412 104.892V99.2975Z" fill="#0C1101"/>
<path d="M164.323 99.2975H156.868V106.892H164.323V99.2975Z" fill="#0C1101"/>
<path d="M171.777 99.2975H164.323V106.892H171.777V99.2975Z" fill="#0C1101"/>
<path d="M186.688 99.2975H179.232V106.892H186.688V99.2975Z" fill="#0C1101"/>
<path d="M7.7675 106.892H0.3125V112.487C0.3125 113.592 1.20793 114.487 2.3125 114.487H5.7675C6.87207 114.487 7.7675 113.592 7.7675 112.487V106.892Z" fill="#0C1101"/>
<path d="M22.6775 106.892H15.2225V114.487H22.6775V106.892Z" fill="#0C1101"/>
<path d="M45.0425 106.892H37.5875V112.487C37.5875 113.592 38.4829 114.487 39.5875 114.487H45.0425V106.892Z" fill="#0C1101"/>
<path d="M52.4975 106.892H45.0425V114.487H52.4975V106.892Z" fill="#0C1101"/>
<path d="M59.9525 106.892H52.4975V114.487H57.9525C59.0571 114.487 59.9525 113.592 59.9525 112.487V106.892Z" fill="#0C1101"/>
<path d="M74.8625 106.892H67.4075V114.487H74.8625V106.892Z" fill="#0C1101"/>
<path d="M104.682 106.892H97.2275V114.487H104.682V106.892Z" fill="#0C1101"/>
<path d="M164.323 106.892H156.868V114.487H164.323V106.892Z" fill="#0C1101"/>
<path d="M179.232 106.892H171.777V114.487H179.232V106.892Z" fill="#0C1101"/>
<path d="M186.688 106.892H179.232V114.487H184.688C185.792 114.487 186.688 113.592 186.688 112.487V106.892Z" fill="#0C1101"/>
<path d="M22.6775 114.487H15.2225V120.082C15.2225 121.187 16.1179 122.082 17.2225 122.082H20.6775C21.7821 122.082 22.6775 121.187 22.6775 120.082V114.487Z" fill="#0C1101"/>
<path d="M74.8625 114.487H67.4075V122.082H74.8625V114.487Z" fill="#0C1101"/>
<path d="M82.3175 116.488C82.3175 115.383 81.4221 114.488 80.3175 114.488L74.8625 114.487V122.082H80.3175C81.4221 122.082 82.3175 121.187 82.3175 120.082V116.488Z" fill="#0C1101"/>
<path d="M104.682 114.487H97.2275V122.082H104.682V114.487Z" fill="#0C1101"/>
<path d="M112.137 116.488C112.137 115.383 111.242 114.488 110.137 114.488L104.682 114.487V122.082H112.137V116.488Z" fill="#0C1101"/>
<path d="M127.048 114.488H121.592C120.488 114.488 119.592 115.383 119.592 116.488V122.082H127.048V114.488Z" fill="#0C1101"/>
<path d="M134.503 116.488C134.503 115.383 133.607 114.488 132.503 114.488H127.048V122.082H134.503V116.488Z" fill="#0C1101"/>
<path d="M149.412 114.488H143.957C142.853 114.488 141.957 115.383 141.957 116.488V122.082H149.412V114.488Z" fill="#0C1101"/>
<path d="M156.868 114.487L149.412 114.488V122.082H156.868V114.487Z" fill="#0C1101"/>
<path d="M164.323 114.487H156.868V122.082H164.323V114.487Z" fill="#0C1101"/>
<path d="M171.777 114.487H164.323V122.082H171.777V114.487Z" fill="#0C1101"/>
<path d="M179.232 114.487H171.777V122.082H179.232V114.487Z" fill="#0C1101"/>
<path d="M37.5875 124.082C37.5875 122.978 36.6921 122.082 35.5875 122.082H32.1325C31.0279 122.082 30.1325 122.978 30.1325 124.082V127.677C30.1325 128.782 31.0279 129.677 32.1325 129.677H35.5875C36.6921 129.677 37.5875 128.782 37.5875 127.677V124.082Z" fill="#0C1101"/>
<path d="M52.4975 124.082C52.4975 122.978 51.6021 122.082 50.4975 122.082H47.0425C45.9379 122.082 45.0425 122.978 45.0425 124.082V127.677C45.0425 128.782 45.9379 129.677 47.0425 129.677H50.4975C51.6021 129.677 52.4975 128.782 52.4975 127.677V124.082Z" fill="#0C1101"/>
<path d="M67.4075 122.082H61.9525C60.8479 122.082 59.9525 122.978 59.9525 124.082V129.677H67.4075V122.082Z" fill="#0C1101"/>
<path d="M97.2275 122.082H91.7725C90.6679 122.082 89.7725 122.978 89.7725 124.082V127.677C89.7725 128.782 90.6679 129.677 91.7725 129.677H97.2275V122.082Z" fill="#0C1101"/>
<path d="M104.682 122.082H97.2275V129.677H104.682V122.082Z" fill="#0C1101"/>
<path d="M112.137 122.082H104.682V129.677H112.137V122.082Z" fill="#0C1101"/>
<path d="M119.592 122.082H112.137V129.677H119.592V122.082Z" fill="#0C1101"/>
<path d="M127.048 122.082H119.592V129.677H127.048V122.082Z" fill="#0C1101"/>
<path d="M134.503 122.082H127.048V129.677H134.503V122.082Z" fill="#0C1101"/>
<path d="M141.957 122.082H134.503V129.677H141.957V122.082Z" fill="#0C1101"/>
<path d="M149.412 122.082H141.957V129.677H149.412V122.082Z" fill="#0C1101"/>
<path d="M156.868 122.082H149.412V129.677H156.868V122.082Z" fill="#0C1101"/>
<path d="M186.688 124.082C186.688 122.978 185.792 122.082 184.688 122.082H179.232V129.677H186.688V124.082Z" fill="#0C1101"/>
<path d="M67.4075 129.677H59.9525V135.273C59.9525 136.377 60.8479 137.273 61.9525 137.273H67.4075V129.677Z" fill="#0C1101"/>
<path d="M74.8625 131.677C74.8625 130.573 73.9671 129.677 72.8625 129.677H67.4075V137.273H74.8625V131.677Z" fill="#0C1101"/>
<path d="M104.682 129.677H97.2275V137.273H104.682V129.677Z" fill="#0C1101"/>
<path d="M112.137 129.677H104.682V137.273H112.137V129.677Z" fill="#0C1101"/>
<path d="M119.592 129.677H112.137V137.273H119.592V129.677Z" fill="#0C1101"/>
<path d="M127.048 129.677H119.592V137.273H127.048V129.677Z" fill="#0C1101"/>
<path d="M156.868 129.677H149.412V137.273H156.868V129.677Z" fill="#0C1101"/>
<path d="M171.777 131.677C171.777 130.573 170.882 129.677 169.777 129.677H166.323C165.218 129.677 164.323 130.573 164.323 131.678V137.273H169.777C170.882 137.273 171.777 136.377 171.777 135.273V131.677Z" fill="#0C1101"/>
<path d="M186.688 129.677H179.232V135.273C179.232 136.377 180.128 137.273 181.232 137.273H184.688C185.792 137.273 186.688 136.377 186.688 135.273V129.677Z" fill="#0C1101"/>
<path d="M7.7675 137.273H2.3125C1.20793 137.273 0.3125 138.168 0.3125 139.273V144.867H7.7675V137.273Z" fill="#0C1101"/>
<path d="M15.2225 137.273H7.7675V144.867H15.2225V137.273Z" fill="#0C1101"/>
<path d="M22.6775 137.273H15.2225V144.867H22.6775V137.273Z" fill="#0C1101"/>
<path d="M30.1325 137.273H22.6775V144.867H30.1325V137.273Z" fill="#0C1101"/>
<path d="M37.5875 137.273H30.1325V144.867H37.5875V137.273Z" fill="#0C1101"/>
<path d="M45.0425 137.273H37.5875V144.867H45.0425V137.273Z" fill="#0C1101"/>
<path d="M52.4975 139.273C52.4975 138.168 51.6021 137.273 50.4975 137.273H45.0425V144.867H52.4975V139.273Z" fill="#0C1101"/>
<path d="M82.3175 139.273C82.3175 138.168 81.4221 137.273 80.3175 137.273H74.8625V144.867H82.3175V139.273Z" fill="#0C1101"/>
<path d="M97.2275 137.273H91.7725C90.6679 137.273 89.7725 138.168 89.7725 139.273V144.867H95.2275C96.3321 144.867 97.2275 143.972 97.2275 142.867V137.273Z" fill="#0C1101"/>
<path d="M112.137 137.273H104.682V142.867C104.682 143.972 105.578 144.867 106.682 144.867H112.137V137.273Z" fill="#0C1101"/>
<path d="M127.048 137.273H119.592V144.867H127.048V137.273Z" fill="#0C1101"/>
<path d="M141.957 139.273C141.957 138.168 141.062 137.273 139.957 137.273H136.503C135.398 137.273 134.503 138.168 134.503 139.273V142.867C134.503 143.972 135.398 144.867 136.503 144.867H139.957C141.062 144.867 141.957 143.972 141.957 142.867V139.273Z" fill="#0C1101"/>
<path d="M156.868 137.273H149.412V144.867H156.868V137.273Z" fill="#0C1101"/>
<path d="M164.323 137.273H156.868V144.867H162.323C163.427 144.867 164.323 143.972 164.323 142.867V137.273Z" fill="#0C1101"/>
<path d="M7.7675 144.867H0.3125V152.462H7.7675V144.867Z" fill="#0C1101"/>
<path d="M52.4975 144.867H45.0425L45.0425 152.462H52.4975V144.867Z" fill="#0C1101"/>
<path d="M74.8625 144.867H69.4075C68.3029 144.867 67.4075 145.763 67.4075 146.867V152.462H74.8625V144.867Z" fill="#0C1101"/>
<path d="M82.3175 144.867H74.8625V152.462H82.3175V144.867Z" fill="#0C1101"/>
<path d="M89.7725 144.867H82.3175V152.462H87.7725C88.8771 152.462 89.7725 151.567 89.7725 150.462V144.867Z" fill="#0C1101"/>
<path d="M119.592 144.867H112.137L112.138 152.462H119.592V144.867Z" fill="#0C1101"/>
<path d="M127.048 144.867H119.592V152.462H127.048V144.867Z" fill="#0C1101"/>
<path d="M156.868 144.867H149.412V152.462H156.868V144.867Z" fill="#0C1101"/>
<path d="M179.232 146.867C179.232 145.763 178.337 144.867 177.232 144.867H173.777C172.673 144.867 171.777 145.763 171.777 146.867V152.462H179.232V146.867Z" fill="#0C1101"/>
<path d="M7.7675 152.462H0.3125V160.057H7.7675V152.462Z" fill="#0C1101"/>
<path d="M22.6775 152.462H17.2225C16.1179 152.462 15.2225 153.358 15.2225 154.462V160.057H22.6775V152.462Z" fill="#0C1101"/>
<path d="M30.1325 152.462H22.6775V160.057H30.1325V152.462Z" fill="#0C1101"/>
<path d="M37.5875 154.462C37.5875 153.358 36.6921 152.462 35.5875 152.462H30.1325V160.057H37.5875V154.462Z" fill="#0C1101"/>
<path d="M52.4975 152.462H45.0425V160.057H52.4975V152.462Z" fill="#0C1101"/>
<path d="M67.4075 152.462H61.9525C60.8479 152.462 59.9525 153.358 59.9525 154.462V158.057C59.9525 159.162 60.8479 160.057 61.9525 160.057H67.4075V152.462Z" fill="#0C1101"/>
<path d="M74.8625 152.462H67.4075V160.057H74.8625V152.462Z" fill="#0C1101"/>
<path d="M104.682 152.462H99.2275C98.1229 152.462 97.2275 153.358 97.2275 154.462V158.057C97.2275 159.162 98.1229 160.057 99.2275 160.057H104.682V152.462Z" fill="#0C1101"/>
<path d="M112.138 152.462H104.682V160.057H112.137L112.138 152.462Z" fill="#0C1101"/>
<path d="M127.048 152.462H119.592V160.057H127.048V152.462Z" fill="#0C1101"/>
<path d="M134.503 152.462H127.048V160.057H134.503V152.462Z" fill="#0C1101"/>
<path d="M141.957 152.462H134.503V160.057H141.957V152.462Z" fill="#0C1101"/>
<path d="M149.412 152.462H141.957V160.057H149.412V152.462Z" fill="#0C1101"/>
<path d="M156.868 152.462H149.412V160.057H154.868C155.972 160.057 156.868 159.162 156.868 158.057V152.462Z" fill="#0C1101"/>
<path d="M171.777 152.462H166.323C165.218 152.462 164.323 153.358 164.323 154.462V160.057H171.777V152.462Z" fill="#0C1101"/>
<path d="M179.232 152.462H171.777V160.057H179.232V152.462Z" fill="#0C1101"/>
<path d="M7.7675 160.057H0.3125V167.652H7.7675V160.057Z" fill="#0C1101"/>
<path d="M22.6775 160.057H15.2225V167.652H22.6775V160.057Z" fill="#0C1101"/>
<path d="M30.1325 160.057H22.6775V167.652H30.1325V160.057Z" fill="#0C1101"/>
<path d="M37.5875 160.057H30.1325V167.652H37.5875V160.057Z" fill="#0C1101"/>
<path d="M52.4975 160.057H45.0425V167.652H52.4975V160.057Z" fill="#0C1101"/>
<path d="M74.8625 160.057H67.4075V167.652H74.8625V160.057Z" fill="#0C1101"/>
<path d="M82.3175 160.057H74.8625V167.652H82.3175V160.057Z" fill="#0C1101"/>
<path d="M89.7725 162.057C89.7725 160.953 88.8771 160.057 87.7725 160.057H82.3175V167.652H89.7725V162.057Z" fill="#0C1101"/>
<path d="M112.137 160.057H104.682V167.652H112.137V160.057Z" fill="#0C1101"/>
<path d="M119.592 160.057H112.137V167.652H119.592V160.057Z" fill="#0C1101"/>
<path d="M171.777 160.057H164.323V167.652H171.777V160.057Z" fill="#0C1101"/>
<path d="M186.688 162.057C186.688 160.953 185.792 160.057 184.688 160.057H179.232V167.652H184.688C185.792 167.652 186.688 166.757 186.688 165.652V162.057Z" fill="#0C1101"/>
<path d="M7.7675 167.652H0.3125V175.247H7.7675V167.652Z" fill="#0C1101"/>
<path d="M22.6775 167.652H15.2225V173.247C15.2225 174.352 16.1179 175.247 17.2225 175.247H22.6775V167.652Z" fill="#0C1101"/>
<path d="M30.1325 167.652H22.6775V175.247H30.1325V167.652Z" fill="#0C1101"/>
<path d="M37.5875 167.652H30.1325V175.247H35.5875C36.6921 175.247 37.5875 174.352 37.5875 173.247V167.652Z" fill="#0C1101"/>
<path d="M52.4975 167.652H45.0425V175.247H52.4975V167.652Z" fill="#0C1101"/>
<path d="M67.4075 167.652H61.9525C60.8479 167.652 59.9525 168.548 59.9525 169.653V175.247H67.4075V167.652Z" fill="#0C1101"/>
<path d="M74.8625 167.652H67.4075V175.247H74.8625V167.652Z" fill="#0C1101"/>
<path d="M89.7725 167.652H82.3175V175.247H89.7725V167.652Z" fill="#0C1101"/>
<path d="M112.137 167.652H104.682V175.247H112.137V167.652Z" fill="#0C1101"/>
<path d="M119.592 167.652H112.137V175.247H119.592V167.652Z" fill="#0C1101"/>
<path d="M127.048 167.652H119.592V175.247H127.048V167.652Z" fill="#0C1101"/>
<path d="M134.503 169.652C134.503 168.548 133.607 167.652 132.503 167.652H127.048V175.247H134.503V169.652Z" fill="#0C1101"/>
<path d="M171.777 167.652H164.323V175.247H171.777V167.652Z" fill="#0C1101"/>
<path d="M179.232 167.652H171.777V175.247H179.232V167.652Z" fill="#0C1101"/>
<path d="M7.7675 175.247H0.3125V182.842H7.7675V175.247Z" fill="#0C1101"/>
<path d="M52.4975 175.247H45.0425V182.842H52.4975V175.247Z" fill="#0C1101"/>
<path d="M67.4075 175.247H59.9525V182.842H67.4075V175.247Z" fill="#0C1101"/>
<path d="M74.8625 175.247H67.4075V182.842H74.8625V175.247Z" fill="#0C1101"/>
<path d="M89.7725 175.247H82.3175V182.842H89.7725V175.247Z" fill="#0C1101"/>
<path d="M104.682 175.247H99.2275C98.1229 175.247 97.2275 176.143 97.2275 177.247V182.842H104.682V175.247Z" fill="#0C1101"/>
<path d="M112.137 175.247H104.682V182.842H112.137V175.247Z" fill="#0C1101"/>
<path d="M127.048 175.247H119.592V182.842H127.048V175.247Z" fill="#0C1101"/>
<path d="M134.503 175.247H127.048V182.842H134.503V175.247Z" fill="#0C1101"/>
<path d="M149.412 175.247H143.957C142.853 175.247 141.957 176.143 141.957 177.247V182.842H149.412V175.247Z" fill="#0C1101"/>
<path d="M156.868 175.247H149.412V182.842H156.868V175.247Z" fill="#0C1101"/>
<path d="M164.323 175.247H156.868V182.842H164.323V175.247Z" fill="#0C1101"/>
<path d="M171.777 175.247H164.323V182.842H171.777V175.247Z" fill="#0C1101"/>
<path d="M179.232 175.247H171.777V182.842H179.232V175.247Z" fill="#0C1101"/>
<path d="M7.7675 182.842H0.3125V188.438C0.3125 189.542 1.20793 190.438 2.3125 190.438H7.7675V182.842Z" fill="#0C1101"/>
<path d="M15.2225 182.842H7.7675V190.438H15.2225V182.842Z" fill="#0C1101"/>
<path d="M22.6775 182.842H15.2225V190.438H22.6775V182.842Z" fill="#0C1101"/>
<path d="M30.1325 182.842H22.6775V190.438H30.1325V182.842Z" fill="#0C1101"/>
<path d="M37.5875 182.842H30.1325V190.438H37.5875V182.842Z" fill="#0C1101"/>
<path d="M45.0425 182.842H37.5875V190.438H45.0425L45.0425 182.842Z" fill="#0C1101"/>
<path d="M52.4975 182.842H45.0425L45.0425 190.438H50.4975C51.6021 190.438 52.4975 189.542 52.4975 188.438V182.842Z" fill="#0C1101"/>
<path d="M67.4075 182.842H59.9525V188.438C59.9525 189.542 60.8479 190.438 61.9525 190.438H65.4075C66.5121 190.438 67.4075 189.542 67.4075 188.438V182.842Z" fill="#0C1101"/>
<path d="M82.3175 182.842H74.8625V188.438C74.8625 189.542 75.7579 190.438 76.8625 190.438H82.3175V182.842Z" fill="#0C1101"/>
<path d="M89.7725 182.842H82.3175V190.438H89.7725V182.842Z" fill="#0C1101"/>
<path d="M97.2275 182.842H89.7725V190.438H95.2275C96.3321 190.438 97.2275 189.542 97.2275 188.438V182.842Z" fill="#0C1101"/>
<path d="M112.137 182.842H104.682V188.438C104.682 189.542 105.578 190.438 106.682 190.438H112.137V182.842Z" fill="#0C1101"/>
<path d="M119.592 182.842H112.137V190.438H117.592C118.697 190.438 119.592 189.542 119.592 188.438V182.842Z" fill="#0C1101"/>
<path d="M141.957 182.842H134.503V188.438C134.503 189.542 135.398 190.438 136.503 190.438H139.957C141.062 190.438 141.957 189.542 141.957 188.438V182.842Z" fill="#0C1101"/>
<path d="M156.868 182.842H149.412V188.438C149.412 189.542 150.308 190.438 151.412 190.438H156.868V182.842Z" fill="#0C1101"/>
<path d="M164.323 182.842H156.868V190.438H164.323V182.842Z" fill="#0C1101"/>
<path d="M171.777 182.842H164.323V190.438H171.777V182.842Z" fill="#0C1101"/>
<path d="M179.232 182.842H171.777V190.438H179.232V182.842Z" fill="#0C1101"/>
<path d="M186.688 184.842C186.688 183.738 185.792 182.842 184.688 182.842H179.232V190.438H184.688C185.792 190.438 186.688 189.542 186.688 188.438V184.842Z" fill="#0C1101"/>
</g>
</svg>
