<svg width="13" height="13" viewBox="0 0 13 13" fill="none" xmlns="http://www.w3.org/2000/svg">
<path id="Vector" d="M11.5708 10.7277C11.4338 10.7198 11.306 10.6578 11.2154 10.5555C11.1247 10.4531 11.0787 10.3188 11.0873 10.1819L11.5674 2.66272L1.10241 11.9316C0.9993 12.0229 0.864376 12.0698 0.727318 12.062C0.590259 12.0541 0.462294 11.9922 0.371572 11.8898C0.28085 11.7873 0.234802 11.6528 0.243561 11.5158C0.252318 11.3788 0.315165 11.2505 0.418272 11.1592L10.8832 1.89031L3.36116 1.45871C3.22764 1.44632 3.10449 1.3826 3.01765 1.28097C2.93081 1.17934 2.88706 1.04774 2.89561 0.913895C2.90417 0.780047 2.96436 0.654402 3.06352 0.563431C3.16267 0.472459 3.29304 0.423265 3.42716 0.42621L12.1972 0.928698C12.3341 0.93663 12.462 0.998572 12.5526 1.10092C12.6433 1.20326 12.6893 1.33764 12.6806 1.47454L12.1202 10.241C12.1114 10.3779 12.0486 10.5061 11.9456 10.5973C11.8425 10.6886 11.7077 10.7355 11.5708 10.7277Z" fill="#0C1101"/>
</svg>
