<svg width="86" height="85" viewBox="0 0 86 85" fill="none" xmlns="http://www.w3.org/2000/svg">
<g id="icon">
<g id="_x30_6_Graph">
<g id="Group">
<path id="Vector" d="M20.8761 64.6682V76.8333C20.8761 80.1056 18.2159 82.766 14.9434 82.766H12.7951C9.52278 82.766 6.875 80.1056 6.875 76.8333V64.6682C6.875 61.4083 9.52278 58.748 12.7951 58.748H14.9434C18.2159 58.748 20.8761 61.4083 20.8761 64.6682Z" fill="black"/>
<path id="Vector_2" d="M34.1525 52.6279H32.0167C28.7444 52.6279 26.084 55.2883 26.084 58.5607V76.8333C26.084 80.1057 28.7444 82.7661 32.0167 82.7661H34.1525C37.4248 82.7661 40.0852 80.1057 40.0852 76.8333V58.5607C40.0852 55.2883 37.4248 52.6279 34.1525 52.6279ZM37.5872 76.8333C37.5872 78.7319 36.0509 80.268 34.1525 80.268H32.0167C30.1182 80.268 28.582 78.7317 28.582 76.8333V58.5607C28.582 56.6621 30.1183 55.126 32.0167 55.126H34.1525C36.0511 55.126 37.5872 56.6623 37.5872 58.5607V76.8333Z" fill="black"/>
<path id="Vector_3" d="M59.296 49.1183V76.8334C59.296 80.1058 56.6356 82.7662 53.3759 82.7662H51.2277C47.9553 82.7662 45.2949 80.1058 45.2949 76.8334V49.1183C45.2949 45.8459 47.9553 43.1855 51.2277 43.1855H53.3759C56.6356 43.1855 59.296 45.8458 59.296 49.1183Z" fill="#ABE138"/>
<path id="Vector_4" d="M72.5842 30.2461H70.4359C67.176 30.2461 64.5156 32.9065 64.5156 36.1788V76.8334C64.5156 80.1057 67.176 82.7661 70.4359 82.7661H72.5842C75.8565 82.7661 78.5169 80.1057 78.5169 76.8334V36.1788C78.5169 32.9065 75.8565 30.2461 72.5842 30.2461ZM76.0188 76.8334C76.0188 78.732 74.4825 80.2681 72.5842 80.2681H70.4359C68.55 80.2681 67.0137 78.7318 67.0137 76.8334V36.1788C67.0137 34.2929 68.55 32.7441 70.4359 32.7441H72.5842C74.4827 32.7441 76.0188 34.2929 76.0188 36.1788V76.8334Z" fill="black"/>
<path id="Vector_5" d="M12.8073 49.9748C13.1714 50.5657 13.9435 50.742 14.5259 50.3822L69.6311 16.3842L68.8173 21.9823C68.7089 22.7315 69.2868 23.4112 70.0553 23.4112C70.6651 23.4112 71.1993 22.9636 71.2896 22.342L72.4776 14.1669C72.5253 13.8389 72.4404 13.5052 72.2422 13.2399C72.044 12.9746 71.7488 12.7983 71.4213 12.7508L63.2455 11.5628C62.5593 11.4665 61.9282 11.9367 61.8294 12.6197C61.7306 13.3021 62.2032 13.9357 62.8856 14.0351L67.5767 14.7166L13.2147 48.2562C12.6275 48.6186 12.445 49.3881 12.8073 49.9748Z" fill="black"/>
<path id="Vector_6" d="M19.5874 26.4783H14.5538C13.864 26.4783 13.3049 27.0376 13.3049 27.7272C13.3049 28.417 13.8642 28.9761 14.5538 28.9761H18.3745V30.8788C18.3745 31.5686 18.9338 32.1278 19.6234 32.1278C20.3132 32.1278 20.8723 31.5685 20.8723 30.8788V28.8493C23.7572 28.2653 25.9367 25.7003 25.9367 22.5475C25.9367 19.0652 23.1033 16.2318 19.6209 16.2318C17.5157 16.2318 15.8026 14.5187 15.8026 12.3012C15.8026 10.196 17.5157 8.48284 19.6209 8.48284H24.6875C25.3773 8.48284 25.9365 7.92354 25.9365 7.23391C25.9365 6.54428 25.3772 5.98497 24.6875 5.98497H20.8723V4.08243C20.8723 3.39264 20.313 2.8335 19.6234 2.8335C18.9336 2.8335 18.3745 3.3928 18.3745 4.08243V6.11147C15.4868 6.69353 13.3047 9.2593 13.3047 12.4138C13.3047 15.8966 16.1381 18.73 19.6209 18.73C21.7262 18.73 23.4386 20.4424 23.4386 22.6599C23.4389 24.5859 21.981 26.4066 19.5874 26.4783Z" fill="black"/>
</g>
</g>
</g>
</svg>
