<svg width="25" height="25" viewBox="0 0 25 25" fill="none" xmlns="http://www.w3.org/2000/svg">
<g id="mdi:ev-plug-tesla">
<path id="Vector" d="M6.5 9.5C6.5 8.95 6.95 8.5 7.5 8.5C8.05 8.5 8.5 8.95 8.5 9.5C8.5 10.05 8.05 10.5 7.5 10.5C6.95 10.5 6.5 10.05 6.5 9.5ZM17.5 10.5C18.05 10.5 18.5 10.05 18.5 9.5C18.5 8.95 18.05 8.5 17.5 8.5C16.95 8.5 16.5 8.95 16.5 9.5C16.5 10.05 16.95 10.5 17.5 10.5ZM22.5 10.43V11.5C22.5 13.8869 21.5518 16.1761 19.864 17.864C18.1761 19.5518 15.8869 20.5 13.5 20.5H11.5C6.53 20.5 2.5 16.5 2.5 11.5V10.43C2.5 7.15 5.15 4.5 8.43 4.5H16.57C19.85 4.5 22.5 7.15 22.5 10.43ZM15 9.5C15 10.163 15.2634 10.7989 15.7322 11.2678C16.2011 11.7366 16.837 12 17.5 12C18.163 12 18.7989 11.7366 19.2678 11.2678C19.7366 10.7989 20 10.163 20 9.5C20 8.83696 19.7366 8.20107 19.2678 7.73223C18.7989 7.26339 18.163 7 17.5 7C16.837 7 16.2011 7.26339 15.7322 7.73223C15.2634 8.20107 15 8.83696 15 9.5ZM5 9.5C5 10.163 5.26339 10.7989 5.73223 11.2678C6.20107 11.7366 6.83696 12 7.5 12C8.16304 12 8.79893 11.7366 9.26777 11.2678C9.73661 10.7989 10 10.163 10 9.5C10 8.83696 9.73661 8.20107 9.26777 7.73223C8.79893 7.26339 8.16304 7 7.5 7C6.83696 7 6.20107 7.26339 5.73223 7.73223C5.26339 8.20107 5 8.83696 5 9.5ZM9.5 17.5C9.5 16.95 9.05 16.5 8.5 16.5C7.95 16.5 7.5 16.95 7.5 17.5C7.5 18.05 7.95 18.5 8.5 18.5C9.05 18.5 9.5 18.05 9.5 17.5ZM14 17.5C14 16.67 13.33 16 12.5 16C11.67 16 11 16.67 11 17.5C11 18.33 11.67 19 12.5 19C13.33 19 14 18.33 14 17.5ZM17.5 17.5C17.5 16.95 17.05 16.5 16.5 16.5C15.95 16.5 15.5 16.95 15.5 17.5C15.5 18.05 15.95 18.5 16.5 18.5C17.05 18.5 17.5 18.05 17.5 17.5ZM20.47 12.16C19.73 13 18.68 13.5 17.5 13.5C15.29 13.5 13.5 11.71 13.5 9.5C13.5 8.3 14.04 7.23 14.88 6.5H10.12C10.96 7.23 11.5 8.3 11.5 9.5C11.5 11.71 9.71 13.5 7.5 13.5C6.93761 13.504 6.381 13.3863 5.86836 13.155C5.35571 12.9237 4.89916 12.5843 4.53 12.16C4.69 13.82 5.43 15.32 6.54 16.44C8.21 15.23 10.26 14.5 12.5 14.5C14.74 14.5 16.79 15.23 18.46 16.44C19.6031 15.2875 20.3132 13.7756 20.47 12.16Z" fill="#0C1101"/>
</g>
</svg>
