<svg width="25" height="25" viewBox="0 0 25 25" fill="none" xmlns="http://www.w3.org/2000/svg">
<g id="mdi:ev-plug-type1">
<g id="Vector">
<path d="M13.5 9.5C13.5 10.6 14.4 11.5 15.5 11.5C16.6 11.5 17.5 10.6 17.5 9.5C17.5 8.4 16.6 7.5 15.5 7.5C14.4 7.5 13.5 8.4 13.5 9.5ZM7.5 9.5C7.5 10.6 8.4 11.5 9.5 11.5C10.6 11.5 11.5 10.6 11.5 9.5C11.5 8.4 10.6 7.5 9.5 7.5C8.4 7.5 7.5 8.4 7.5 9.5ZM9.5 13.7C9.5 13.1 8.9 12.5 8.3 12.5C7.7 12.5 7.1 13.1 7.1 13.7C7.1 14.3 7.7 14.9 8.3 14.9C8.9 14.9 9.5 14.4 9.5 13.7ZM14.5 16.5C14.5 15.4 13.6 14.5 12.5 14.5C11.4 14.5 10.5 15.4 10.5 16.5C10.5 17.6 11.4 18.5 12.5 18.5C13.6 18.5 14.5 17.6 14.5 16.5ZM12.5 4.5C16.9 4.5 20.5 8.1 20.5 12.5C20.5 16.9 16.9 20.5 12.5 20.5C8.1 20.5 4.5 16.9 4.5 12.5C4.5 8.1 8.1 4.5 12.5 4.5ZM12.5 2.5C7 2.5 2.5 7 2.5 12.5C2.5 18 7 22.5 12.5 22.5C18 22.5 22.5 18 22.5 12.5C22.5 7 18 2.5 12.5 2.5ZM18 13.7C18 13 17.4 12.5 16.8 12.5C16.1 12.5 15.6 13.1 15.6 13.7C15.6 14.3 16.2 14.9 16.8 14.9C17.4 15 18 14.4 18 13.7Z" fill="#BEC5B8"/>
<path d="M13.5 9.5C13.5 10.6 14.4 11.5 15.5 11.5C16.6 11.5 17.5 10.6 17.5 9.5C17.5 8.4 16.6 7.5 15.5 7.5C14.4 7.5 13.5 8.4 13.5 9.5ZM7.5 9.5C7.5 10.6 8.4 11.5 9.5 11.5C10.6 11.5 11.5 10.6 11.5 9.5C11.5 8.4 10.6 7.5 9.5 7.5C8.4 7.5 7.5 8.4 7.5 9.5ZM9.5 13.7C9.5 13.1 8.9 12.5 8.3 12.5C7.7 12.5 7.1 13.1 7.1 13.7C7.1 14.3 7.7 14.9 8.3 14.9C8.9 14.9 9.5 14.4 9.5 13.7ZM14.5 16.5C14.5 15.4 13.6 14.5 12.5 14.5C11.4 14.5 10.5 15.4 10.5 16.5C10.5 17.6 11.4 18.5 12.5 18.5C13.6 18.5 14.5 17.6 14.5 16.5ZM12.5 4.5C16.9 4.5 20.5 8.1 20.5 12.5C20.5 16.9 16.9 20.5 12.5 20.5C8.1 20.5 4.5 16.9 4.5 12.5C4.5 8.1 8.1 4.5 12.5 4.5ZM12.5 2.5C7 2.5 2.5 7 2.5 12.5C2.5 18 7 22.5 12.5 22.5C18 22.5 22.5 18 22.5 12.5C22.5 7 18 2.5 12.5 2.5ZM18 13.7C18 13 17.4 12.5 16.8 12.5C16.1 12.5 15.6 13.1 15.6 13.7C15.6 14.3 16.2 14.9 16.8 14.9C17.4 15 18 14.4 18 13.7Z" fill="black" fill-opacity="0.2"/>
</g>
</g>
</svg>
