<svg width="16" height="16" viewBox="0 0 16 16" fill="none" xmlns="http://www.w3.org/2000/svg">
<g id="icon">
<path id="Vector" d="M3.77584 1.19961C3.22545 1.19961 2.82517 1.63049 2.82517 2.11148C2.82517 2.60247 3.25547 3.01334 3.7358 3.01334L7.4284 3.01334L12.1017 2.833L10.2404 4.4864L0.303393 14.4368C0.123266 14.6172 0.0332031 14.8376 0.0332031 15.0681C0.0332031 15.5691 0.493527 16 0.973866 16C1.18401 16 1.42418 15.8998 1.60431 15.7194L11.5313 5.78904L13.1725 3.92521L13.0124 8.81525L13.0124 12.3024C13.0124 12.7734 13.4226 13.2043 13.9029 13.2043C14.3833 13.2043 14.8036 12.8235 14.8036 12.2623L14.8036 2.18159C14.8036 1.58038 14.4133 1.20962 13.8429 1.20962L3.77584 1.19961Z" fill="#0C1101"/>
</g>
</svg>
