<svg width="26" height="26" viewBox="0 0 26 26" fill="none" xmlns="http://www.w3.org/2000/svg">
<g id="Frame" clip-path="url(#clip0_6223_11424)">
<g id="_x34_2_Green_Energy">
<g id="Group">
<path id="Vector" d="M25.7503 14.1456V19.0897C25.7503 20.5928 24.5316 21.8116 23.0285 21.8116H22.0209V25.1875H23.6541C23.8775 25.1875 24.0603 25.3703 24.0603 25.5938C24.0603 25.8213 23.8775 26.0001 23.6541 26.0001H0.656266C0.432811 26.0001 0.25 25.8213 0.25 25.5938C0.25 25.3703 0.432811 25.1875 0.656266 25.1875H2.28939V21.9944C2.28939 21.7709 2.4722 21.5881 2.69566 21.5881C2.91911 21.5881 3.10192 21.7709 3.10192 21.9944V25.1875H21.2085V16.7578C21.2085 16.5344 21.3913 16.3515 21.6147 16.3515C21.8382 16.3515 22.021 16.5344 22.021 16.7578V20.999H23.0285C24.0807 20.999 24.9379 20.1419 24.9379 19.0897V14.1456C24.9379 13.2641 24.7104 12.3866 24.2838 11.6147L23.7232 10.6072C23.4104 11.2856 22.7807 11.7853 22.021 11.9194V14.9378C22.021 15.1613 21.8382 15.3441 21.6148 15.3441C21.3913 15.3441 21.2085 15.1613 21.2085 14.9378V2.94533C21.2085 1.77129 20.2538 0.812531 19.0798 0.812531H5.23061C4.05651 0.812531 3.10187 1.77129 3.10187 2.94533V20.1744C3.10187 20.3979 2.91905 20.5807 2.6956 20.5807C2.47215 20.5807 2.28933 20.3979 2.28933 20.1744V2.94533C2.28939 1.32032 3.60971 0 5.23061 0H19.0797C20.7006 0 22.0209 1.32032 22.0209 2.94533V4.3347C23.1097 4.52563 23.9425 5.47627 23.9425 6.6219V9.36407C24.0563 9.48189 23.8816 9.2422 24.9947 11.2206C25.4903 12.1144 25.7503 13.1259 25.7503 14.1456Z" fill="black"/>
<path id="Vector_2" d="M19.0797 12.9055V3.34914C19.0797 3.12457 18.8978 2.94287 18.6734 2.94287H5.63478C5.41044 2.94287 5.22852 3.12457 5.22852 3.34914V12.9055C5.22852 13.1301 5.41044 13.3118 5.63478 13.3118H18.6735C18.8978 13.3117 19.0797 13.13 19.0797 12.9055ZM18.2672 12.4993H6.04099V3.75535H18.2672V12.4993Z" fill="black"/>
<path id="Vector_3" d="M16.596 21.852C15.2228 23.2211 12.8301 23.6192 10.9897 23.4202C9.76285 23.5501 8.13784 23.2861 7.20344 22.3476C5.8547 20.9989 6.12281 18.6305 6.13498 18.533C6.15528 18.3461 6.30562 18.1999 6.48843 18.1754C6.59001 18.1633 8.95844 17.8951 10.3072 19.2438C10.5184 19.4551 10.689 19.6948 10.8271 19.9467C11.0506 19.061 11.4528 18.1429 12.1678 17.4279C14.1503 15.4454 17.6562 15.8476 17.8024 15.8638C17.9893 15.8841 18.1356 16.0345 18.1599 16.2173C18.1763 16.3676 18.5744 19.8736 16.596 21.852Z" fill="black"/>
<path id="Vector_4" d="M11.1642 8.42756H12.3365L10.8386 10.4334C10.7044 10.6131 10.7412 10.8678 10.9212 11.0023C11.1 11.1358 11.355 11.1 11.4897 10.9198L13.4723 8.26448C13.5643 8.14111 13.5788 7.97648 13.51 7.8392C13.4411 7.70193 13.3005 7.61503 13.1467 7.61503H12.0171L13.4622 5.83412C13.6036 5.65998 13.577 5.40406 13.4028 5.26283C13.2285 5.12161 12.9732 5.14741 12.8313 5.32232L10.8487 7.76537C10.7499 7.88674 10.7299 8.0546 10.7973 8.19582C10.8649 8.33749 11.0075 8.42756 11.1642 8.42756Z" fill="black"/>
</g>
</g>
</g>
<defs>
<clipPath id="clip0_6223_11424">
<rect width="26" height="26" fill="white"/>
</clipPath>
</defs>
</svg>
