<svg width="26" height="26" viewBox="0 0 26 26" fill="none" xmlns="http://www.w3.org/2000/svg">
<g id="Group">
<path id="Vector" d="M25.5938 20.0882C25.3703 20.0882 25.1875 20.271 25.1875 20.4944V21.2297C25.1875 22.2007 24.3953 22.9888 23.4244 22.9888H22.4941C22.5469 21.2053 21.1128 19.7916 19.3944 19.7916C17.676 19.7916 16.2419 21.2053 16.2948 22.9888H10.0832C10.0832 22.9563 10.0872 22.9279 10.0872 22.8954C10.0872 21.181 8.69378 19.7917 6.98348 19.7917C5.26501 19.7917 3.83098 21.2054 3.8838 22.9889H2.57154C1.6006 22.9889 0.812477 22.2007 0.812477 21.2298V18.256C0.812477 17.3298 0.954646 16.4239 1.23904 15.5545C1.30809 15.3432 1.19028 15.1117 0.979054 15.0426C0.767775 14.9736 0.536203 15.0873 0.467148 15.3026C0.158403 16.2532 0 17.2444 0 18.256V21.2297C0 22.6475 1.15375 23.8013 2.57154 23.8013H4.01374C4.40371 25.0729 5.58593 25.9991 6.98342 25.9991C8.38092 25.9991 9.56308 25.0729 9.95311 23.8013H16.4247C16.8147 25.0729 17.9969 25.9991 19.3944 25.9991C20.7919 25.9991 21.974 25.0729 22.3641 23.8013H23.4243C24.8463 23.8013 26 22.6476 26 21.2297V20.4944C26.0001 20.271 25.8172 20.0882 25.5938 20.0882ZM19.3944 25.1866C18.131 25.1866 17.1032 24.1588 17.1032 22.8953C17.1032 21.6319 18.131 20.6041 19.3944 20.6041C20.6579 20.6041 21.6857 21.6319 21.6857 22.8953C21.6857 24.1588 20.6578 25.1866 19.3944 25.1866Z" fill="black"/>
<path id="Vector_2" d="M21.6493 23.2598C21.8518 22.0108 21.0034 20.8342 19.7544 20.6317C18.5055 20.4293 17.3288 21.2776 17.1264 22.5266C16.9239 23.7756 17.7723 24.9522 19.0212 25.1547C20.2702 25.3572 21.4468 24.5088 21.6493 23.2598Z" fill="black"/>
<path id="Vector_3" d="M25.9202 18.5891C25.973 18.841 25.782 19.0806 25.522 19.0806C25.3351 19.0806 25.1686 18.9506 25.1239 18.7597C24.9289 17.87 24.2586 17.1712 23.373 16.9356L18.823 15.7209C18.7052 15.6884 18.6077 15.6072 18.5589 15.4934L17.3442 12.8122C16.5114 10.98 14.6752 9.79372 12.6642 9.79372H5.91229C4.81136 9.79372 3.81196 10.399 3.30011 11.37L2.01637 13.7993C1.91479 13.9984 1.66698 14.0715 1.46793 13.9659C1.27294 13.8643 1.19577 13.6165 1.30136 13.4175L2.5851 10.9881C3.14571 9.91966 4.17352 9.20465 5.3435 9.02589C4.53914 8.19307 3.36099 6.67775 3.36099 4.89834C3.36099 2.24963 5.96911 0.173652 6.08287 0.0883617C6.22909 -0.0294539 6.43631 -0.0294539 6.58254 0.0883617C6.69224 0.173652 9.30036 2.24963 9.30036 4.89834C9.30036 6.64523 8.16691 8.14025 7.36255 8.98119H12.6641C14.996 8.98119 17.1207 10.3543 18.0835 12.479L19.221 14.9856L23.5841 16.1474C24.7623 16.4644 25.6601 17.3988 25.9202 18.5891Z" fill="black"/>
<path id="Vector_4" d="M16.8283 16.0619C16.7511 16.1797 16.6252 16.2488 16.487 16.2488H9.18673C7.85422 16.2488 6.76953 15.1641 6.76953 13.8357C6.76953 12.5032 7.85422 11.4185 9.18673 11.4185H12.6642C14.0414 11.4185 15.2967 12.2269 15.8614 13.4822L16.8568 15.6759C16.9136 15.8019 16.9014 15.9482 16.8283 16.0619Z" fill="black"/>
<path id="Vector_5" d="M10.4336 17.9136V18.3524C10.4336 18.577 10.6153 18.7586 10.8399 18.7586C11.0644 18.7586 11.2461 18.577 11.2461 18.3524V17.9136C11.2461 17.689 11.0644 17.5073 10.8399 17.5073C10.6153 17.5073 10.4336 17.689 10.4336 17.9136Z" fill="black"/>
</g>
</svg>
