<svg width="31" height="30" viewBox="0 0 31 30" fill="none" xmlns="http://www.w3.org/2000/svg">
<g id="Layer_1">
<g id="Group">
<path id="Vector" d="M21.7288 28.5821L7.75672 27.7349C3.77955 25.1825 1.14429 20.7213 1.14429 15.6446C1.14429 7.71627 7.5715 1.28906 15.4999 1.28906C23.4283 1.28906 29.8555 7.71627 29.8555 15.6446C29.8555 21.3411 26.5375 26.2626 21.7288 28.5821Z" fill="#2A428C"/>
<g id="Group_2">
<path id="Vector_2" d="M17.192 13.8646C17.182 13.8502 17.1711 13.8369 17.1608 13.8229L19.3428 13.4358C19.4979 13.4082 19.5536 13.5671 19.415 13.6423L17.5655 14.6468C17.5051 14.44 17.3934 14.1518 17.192 13.8646Z" fill="#4FABF7"/>
</g>
<g id="Group_3">
<path id="Vector_3" d="M14.8274 12.7799C14.642 12.7799 14.4653 12.7916 14.2964 12.8137L14.6967 10.3483C14.7269 10.1625 14.9279 10.1625 14.9581 10.3483L15.3584 12.8137C15.1895 12.7916 15.0128 12.7799 14.8274 12.7799Z" fill="#73C3F9"/>
<path id="Vector_4" d="M14.6741 12.7828C14.835 12.606 14.8274 12.3891 14.8274 12.3891C14.8274 12.3891 14.8274 11.9423 14.8274 11.5908C14.8274 11.355 14.6668 11.237 14.5609 11.1847L14.6967 10.3483C14.7269 10.1625 14.9279 10.1625 14.9581 10.3483L15.3584 12.8137C15.1895 12.7916 15.0128 12.7799 14.8274 12.7799C14.7755 12.7798 14.7245 12.781 14.6741 12.7828Z" fill="#4FABF7"/>
</g>
<g id="Group_4">
<path id="Vector_5" d="M12.124 10.9541L13.6992 12.9494C13.3417 13.0695 13.0328 13.2528 12.7753 13.4999L11.9013 11.0779C11.839 10.9053 12.0104 10.81 12.124 10.9541Z" fill="#73C3F9"/>
</g>
<g id="Group_5">
<path id="Vector_6" d="M10.3132 13.4358L12.4951 13.8229C12.4858 13.8356 12.4759 13.8476 12.4668 13.8605C12.264 14.1486 12.1515 14.4389 12.0906 14.6469L10.241 13.6424C10.1024 13.5671 10.158 13.4082 10.3132 13.4358Z" fill="#73C3F9"/>
</g>
<g id="Group_6">
<path id="Vector_7" d="M15.9564 12.9494L17.5316 10.9541C17.6453 10.8101 17.8166 10.9052 17.7543 11.0779L16.8803 13.4998C16.6229 13.2526 16.3139 13.0694 15.9564 12.9494Z" fill="#4FABF7"/>
</g>
<path id="Vector_8" d="M16.6414 19.0082C16.0196 18.4755 16.1272 17.7368 16.1182 17.6613C16.1308 17.6458 16.2561 17.5289 16.311 17.376L16.3243 17.3389C16.7153 17.1857 17.056 16.8981 17.2408 16.5264L17.5732 17.7502C17.2278 18.1515 16.8919 18.5922 16.6414 19.0082Z" fill="#1E9EF4"/>
<path id="Vector_9" d="M12.6017 18.4662L12.3881 18.2885C12.267 18.1877 12.2237 18.0214 12.28 17.8742C12.365 17.6517 12.4916 17.2863 12.6054 16.8252C12.7943 17.0514 13.0477 17.2273 13.3305 17.3389L13.3438 17.3759C13.4265 17.6061 13.6792 17.7843 13.6908 17.7955C13.6889 17.8269 14.2245 19.6782 13.2699 20.6329L13.2486 20.6542C12.885 20.6951 12.462 20.7828 12.047 20.9205L12.7163 18.8626C12.7627 18.7194 12.7174 18.5624 12.6017 18.4662Z" fill="#4FABF7"/>
<path id="Vector_10" d="M12.6013 18.4662L12.3877 18.2885C12.2666 18.1877 12.2233 18.0214 12.2796 17.8742C12.3646 17.6517 12.4912 17.2863 12.605 16.8252C12.7939 17.0514 13.0473 17.2273 13.33 17.3389L13.3434 17.3759C13.4261 17.6061 13.6788 17.7843 13.6904 17.7955C13.6889 17.8195 14.0003 18.9049 13.7226 19.8418C13.7003 19.7961 13.6843 19.7371 13.6765 19.6615C13.5909 18.8261 12.7159 18.8625 12.7159 18.8625C12.7623 18.7194 12.717 18.5624 12.6013 18.4662Z" fill="#1E9EF4"/>
<path id="Vector_11" d="M14.8279 13.2021C16.9676 13.2021 17.5285 14.6795 17.6631 15.2274C17.6242 15.4461 17.5438 15.6347 17.4418 15.7947C17.325 15.3024 16.8189 13.9091 14.8279 13.9091C12.8369 13.9091 12.3308 15.3024 12.214 15.7947C12.112 15.6347 12.0316 15.4461 11.9927 15.2274C12.1273 14.6795 12.6882 13.2021 14.8279 13.2021Z" fill="#9BD8F9"/>
<path id="Vector_12" d="M15.0524 13.9157C15.0299 13.878 15.0122 13.8559 15.0122 13.8559C15.4852 13.5941 15.1148 13.2217 15.1148 13.2217C15.1186 13.2188 15.1212 13.2158 15.1248 13.2129C17.0195 13.3429 17.535 14.7056 17.6631 15.2271C17.6242 15.4458 17.5438 15.6345 17.4418 15.7945C17.3296 15.3213 16.8569 14.0164 15.0524 13.9157Z" fill="#73C3F9"/>
<path id="Vector_13" d="M14.8275 13.2121C12.6576 13.2121 12.1187 14.7395 11.9983 15.2585C11.9783 15.1585 11.9664 15.0527 11.9664 14.9393C11.9664 14.9393 12.2134 12.7227 14.8275 12.7227C17.4415 12.7227 17.6885 14.9393 17.6885 14.9393C17.6885 15.0527 17.6765 15.1585 17.6567 15.2585C17.5362 14.7395 16.9974 13.2121 14.8275 13.2121Z" fill="#C2E3FC"/>
<path id="Vector_14" d="M15.1155 13.2231C15.1148 13.2224 15.1144 13.222 15.1144 13.222C15.3955 13.0046 15.1537 12.7382 15.151 12.7354C17.462 12.9098 17.6885 14.9398 17.6885 14.9398C17.6885 15.0531 17.6765 15.159 17.6566 15.2589C17.5418 14.7638 17.0449 13.352 15.1155 13.2231Z" fill="#9BD8F9"/>
<path id="Vector_15" d="M14.8272 13.8516C17.2452 13.8516 17.4736 15.9077 17.4736 15.9077C17.4736 16.9929 16.3917 17.4048 16.3917 17.4048L16.3023 17.3976C16.3053 17.3903 16.3085 17.3831 16.3111 17.3758C16.4984 16.855 16.5311 16.1565 16.5338 15.7864C16.5346 15.6934 16.4712 15.6143 16.3796 15.5941C16.0534 15.5219 15.4337 15.3122 14.9479 14.7189C14.8855 14.6427 14.7694 14.6423 14.7065 14.7189C14.2208 15.3122 13.6011 15.5219 13.2749 15.5941C13.1833 15.6144 13.1199 15.6934 13.1206 15.7864C13.1235 16.1564 13.1561 16.8549 13.3434 17.3758C13.346 17.3831 13.3492 17.3903 13.3522 17.3976L13.2628 17.4048C13.2628 17.4048 12.1809 16.9929 12.1809 15.9077C12.1809 15.9077 12.4093 13.8516 14.8272 13.8516Z" fill="#73C3F9"/>
<path id="Vector_16" d="M16.3022 17.3985C16.3052 17.3912 16.3084 17.384 16.3111 17.3767C16.4983 16.8558 16.531 16.1573 16.5338 15.7873C16.5345 15.6943 16.4711 15.6152 16.3795 15.595C16.0683 15.5261 15.4902 15.3312 15.0158 14.7982C14.9779 14.6791 14.9341 14.602 14.9341 14.602C15.3531 14.3004 15.0251 13.8739 15.0122 13.8574C17.2561 13.9597 17.4736 15.9087 17.4736 15.9087C17.4736 16.9939 16.3917 17.4057 16.3917 17.4057L16.3022 17.3985Z" fill="#4FABF7"/>
<path id="Vector_17" d="M13.5973 17.7736C13.8858 18.0074 14.2805 18.1762 14.5446 18.2719C14.7278 18.3383 14.9278 18.3383 15.111 18.2719C15.4237 18.1586 15.9199 17.9428 16.2053 17.6377C16.1403 18.4784 16.6201 18.8784 16.6201 18.8784C16.6201 18.8784 16.608 19.3068 15.7226 20.1921C14.8373 21.0774 13.2095 20.5729 13.2095 20.5729C14.0217 19.7606 13.7014 18.1919 13.5973 17.7736Z" fill="#9BD8F9"/>
<path id="Vector_18" d="M14.5446 18.2719C14.7278 18.3383 14.9278 18.3383 15.111 18.2719C15.4238 18.1586 15.9199 17.9428 16.2053 17.6377C16.1404 18.4784 16.6201 18.8784 16.6201 18.8784C16.6201 18.8784 16.608 19.3068 15.7226 20.1921C15.3867 20.5281 14.9437 20.6637 14.5234 20.7029C14.8288 20.4958 14.91 20.0328 14.8278 19.3623C14.7332 18.5908 13.7277 18.5486 13.7277 18.5486L13.7276 18.5485C13.6959 18.2045 13.6335 17.9192 13.5973 17.7736C13.8859 18.0074 14.2805 18.1762 14.5446 18.2719Z" fill="#73C3F9"/>
<path id="Vector_19" d="M13.257 15.5107C13.5733 15.4407 14.1716 15.2381 14.6408 14.6649C14.7377 14.5466 14.918 14.5466 15.0148 14.6649C15.484 15.238 16.0823 15.4407 16.3986 15.5107C16.5288 15.5395 16.6211 15.6541 16.6201 15.7874C16.6173 16.1551 16.5847 16.8698 16.3923 17.4051C16.2268 17.8655 15.5151 18.1823 15.111 18.3287C14.9279 18.3951 14.7278 18.3951 14.5447 18.3287C14.1405 18.1823 13.4289 17.8655 13.2634 17.4051C13.071 16.8698 13.0384 16.1551 13.0356 15.7874C13.0345 15.6541 13.1269 15.5395 13.257 15.5107Z" fill="#C2E3FC"/>
<path id="Vector_20" d="M14.5864 17.5337L14.6865 17.1012C14.7836 17.004 14.6865 16.9141 14.6865 16.9141L14.9517 16.6439L14.9127 15.5983C15.2504 15.1694 14.9426 14.6159 14.9351 14.6025C14.9647 14.6172 14.9922 14.6378 15.0148 14.6655C15.484 15.2386 16.0823 15.4413 16.3986 15.5113C16.5288 15.5401 16.6211 15.6546 16.6201 15.7879C16.6173 16.1557 16.5847 16.8704 16.3923 17.4057C16.2268 17.8661 15.5151 18.1829 15.111 18.3293C14.9279 18.3957 14.7278 18.3957 14.5447 18.3293C14.4913 18.3099 14.4324 18.2874 14.3702 18.2622C14.7357 18.1336 14.5864 17.5337 14.5864 17.5337Z" fill="#9BD8F9"/>
<g id="Group_7">
<path id="Vector_21" d="M14.6859 16.9136H14.9497C15.0408 16.9136 15.1272 16.8742 15.1871 16.8056C15.2469 16.737 15.2741 16.646 15.2617 16.5558L15.1557 15.7826C15.1395 15.6643 15.0303 15.5816 14.9121 15.5977C14.7938 15.614 14.711 15.723 14.7272 15.8414L14.8149 16.481H14.6859C14.5664 16.481 14.4696 16.5778 14.4696 16.6973C14.4697 16.8167 14.5665 16.9136 14.6859 16.9136Z" fill="#73C3F9"/>
</g>
<g id="Group_8">
<path id="Vector_22" d="M14.586 17.5331H15.0689C15.1884 17.5331 15.2852 17.4363 15.2852 17.3169C15.2852 17.1974 15.1884 17.1006 15.0689 17.1006H14.586C14.4665 17.1006 14.3697 17.1974 14.3697 17.3169C14.3697 17.4363 14.4665 17.5331 14.586 17.5331Z" fill="#73C3F9"/>
</g>
<path id="Vector_23" d="M9.96235 22.7012C9.85014 23.45 9.78112 24.4549 9.99212 25.3539C10.2344 26.3861 10.3863 27.7252 10.3528 29.0492C9.43876 28.698 8.56934 28.2569 7.75636 27.7351C8.76563 26.0349 9.5185 23.8544 9.96235 22.7012Z" fill="#73C3F9"/>
<path id="Vector_24" d="M8.50173 26.3131C9.14181 24.9529 9.63575 23.5486 9.96229 22.7002C9.85009 23.449 9.78106 24.454 9.99212 25.353C10.2344 26.3852 10.3863 27.7242 10.3528 29.0482C9.92134 28.8825 9.50016 28.6959 9.08983 28.4911C9.32831 28.2054 9.331 27.7221 9.24317 27.14C9.16401 26.6154 8.75731 26.3986 8.50173 26.3131Z" fill="#4FABF7"/>
<path id="Vector_25" d="M9.87817 25.3538C9.70736 24.6262 9.7202 23.8295 9.79074 23.1549C9.93992 22.7575 10.064 22.4303 10.1615 22.2104C10.5123 21.4191 11.4736 20.9958 12.2238 20.7793C12.2443 21.0505 12.297 21.3867 12.412 21.7846C12.9679 23.7083 14.5106 25.538 15.7068 26.7344C16.4766 27.5042 17.4004 28.5481 18.1572 29.7539C17.2959 29.9151 16.4079 30.0003 15.4998 30.0003C13.643 30.0003 11.8685 29.6478 10.2396 29.0059C10.2687 27.696 10.1178 26.3748 9.87817 25.3538Z" fill="#9BD8F9"/>
<path id="Vector_26" d="M15.309 26.8425C15.3199 26.7082 15.3904 26.5921 15.4941 26.5186C15.566 26.5925 15.637 26.6646 15.7068 26.7344C16.4766 27.5042 17.4004 28.5482 18.1572 29.7539C17.2959 29.9152 16.4079 30.0004 15.4998 30.0004C14.5116 30.0004 13.5471 29.8996 12.6151 29.7095C14.8494 29.3622 15.2454 27.6255 15.309 26.8425Z" fill="#73C3F9"/>
<path id="Vector_27" d="M15.722 20.1348C16.4125 19.4443 16.5718 19.0318 16.6085 18.8837L16.6195 18.8782C16.6195 18.8782 17.0689 18.1252 17.9723 17.184C18.0827 17.0688 18.1405 16.913 18.1277 16.7539C18.125 16.7202 18.1227 16.6831 18.121 16.6436L18.2125 16.7093C18.2254 17.2543 18.307 18.0441 18.4443 18.7432C18.7798 20.4517 19.5484 22.3223 21.2671 22.0304C21.3034 22.0242 21.3397 22.0168 21.376 22.0091C21.3463 22.046 21.3149 22.0813 21.2813 22.1148C20.609 22.7871 21.5154 24.6872 20.5381 26.0954C20.3899 26.3089 20.3956 26.5925 20.5592 26.7945C20.5592 26.7945 18.0828 24.1424 16.0551 23.0572C14.6831 22.3229 13.949 21.3152 13.8167 20.6339C14.3711 20.6975 15.1836 20.6732 15.722 20.1348Z" fill="#4FABF7"/>
<path id="Vector_28" d="M17.8403 23.8798C19.0988 23.2281 19.1345 21.6799 19.1016 21.1076C19.0966 21.0196 19.1189 20.9337 19.1629 20.8594C19.6208 21.6636 20.2904 22.1965 21.2671 22.0305C21.3034 22.0244 21.3397 22.017 21.376 22.0093C21.3463 22.0461 21.3149 22.0815 21.2813 22.115C20.609 22.7873 21.5154 24.6874 20.5381 26.0955C20.3899 26.3091 20.3956 26.5927 20.5592 26.7946C20.5592 26.7946 19.1785 25.3161 17.6348 24.1152C17.6723 24.0155 17.743 23.9302 17.8403 23.8798Z" fill="#1E9EF4"/>
<path id="Vector_29" d="M13.209 20.5728L13.2828 20.5361C13.3821 20.562 13.5751 20.6063 13.8169 20.634C14.0703 21.3461 14.6833 22.2088 16.0554 22.9431C18.083 24.0283 20.5595 26.7946 20.5595 26.7946C20.8719 27.1801 21.3616 27.8384 21.7285 28.5819C20.5847 29.1336 19.3565 29.5378 18.0686 29.7705C17.5066 28.8777 16.7275 27.8761 15.646 26.7946C12.8302 23.9788 12.2267 21.8896 12.1386 20.8043C12.7273 20.6255 13.209 20.5728 13.209 20.5728Z" fill="#73C3F9"/>
<path id="Vector_30" d="M15.646 26.7941C15.5719 26.7201 15.5002 26.6468 15.4292 26.5738C15.5003 26.4994 15.5971 26.4493 15.7061 26.4372C17.3774 26.252 17.5918 24.8677 17.6051 24.266C17.6069 24.187 17.6289 24.1109 17.6676 24.0449C19.198 25.2736 20.5595 26.7942 20.5595 26.7942C20.8719 27.1797 21.3616 27.838 21.7285 28.5815C20.5847 29.1332 19.3565 29.5374 18.0686 29.7701C17.5065 28.8772 16.7274 27.8756 15.646 26.7941Z" fill="#4FABF7"/>
<path id="Vector_31" d="M22.1711 17.8785C21.5193 18.17 20.9256 18.0142 20.8734 18.0122C20.868 17.0368 20.9779 16.0284 21.0467 14.8945C21.5204 15.4471 22.4883 16.7324 22.4883 18.0094L22.4038 18.0364C22.3956 17.8863 22.2697 17.8345 22.1711 17.8785Z" fill="#1E9EF4"/>
<path id="Vector_32" d="M20.9578 18.0119C19.9202 17.6767 19.3028 16.231 19.0237 15.3845C19.0218 15.3784 19.0188 15.373 19.0165 15.3671C19.2245 14.3647 19.0478 12.8659 19.3223 11.8909C19.5299 11.1535 19.6474 10.4064 19.709 9.91478C19.7492 9.59439 19.7266 9.27061 19.6547 8.95578C19.4569 8.08895 19.4989 6.97766 19.7003 6.35229C19.7443 6.21541 19.8707 6.12207 20.0146 6.12207C20.1965 6.12207 20.344 6.26955 20.344 6.45148V8.97359C20.344 9.21963 20.5434 9.41908 20.7895 9.41908H21.425C21.4326 10.0871 21.5259 12.8707 21.205 14.5279C21.025 15.4569 20.9702 16.8888 20.9578 18.0119Z" fill="#9BD8F9"/>
<path id="Vector_33" d="M19.6571 10.2891C19.9737 10.3218 20.4639 10.4571 20.4639 10.9829C20.4639 11.7592 20.0391 14.5131 20.0391 15.436C20.0391 16.2817 19.8544 16.4929 19.4967 16.5223C19.2865 16.1191 19.1302 15.7079 19.0235 15.3843C19.0215 15.3781 19.0185 15.3728 19.0162 15.3669C19.2243 14.3645 19.0475 12.8656 19.322 11.8906C19.4821 11.3218 19.5885 10.7477 19.6571 10.2891Z" fill="#C2E3FC"/>
<path id="Vector_34" d="M18.1285 16.7616C18.1283 16.7591 18.1285 16.7567 18.1283 16.7541C18.1019 16.4265 18.1089 15.8111 18.4238 15.2165C18.5581 14.963 18.9342 14.9982 19.024 15.2705C19.396 16.3989 20.3689 18.5916 22.1369 17.8006C22.2962 17.7293 22.4778 17.8352 22.4887 18.0094C22.5161 18.4511 22.4751 19.1868 21.9887 19.6563C21.8731 19.7678 21.8106 19.9232 21.8189 20.0836C21.8438 20.5669 21.8226 21.5743 21.282 22.1149C18.3143 22.619 18.1344 16.9835 18.1285 16.7616Z" fill="#73C3F9"/>
<path id="Vector_35" d="M21.8189 20.0833C21.8438 20.5666 21.8226 21.574 21.282 22.1146C20.274 22.2858 19.5879 21.7484 19.1207 20.9557C19.1418 20.8865 19.1793 20.8226 19.2316 20.7702C19.776 20.2248 19.3181 19.1692 19.7406 18.7466C20.1952 18.2921 19.7435 16.838 19.7407 16.8291C20.2716 17.6515 21.0555 18.284 22.1369 17.8002C22.2962 17.7289 22.4778 17.8349 22.4887 18.0091C22.5161 18.4507 22.4751 19.1864 21.9887 19.6559C21.8731 19.7675 21.8106 19.9229 21.8189 20.0833Z" fill="#4FABF7"/>
<path id="Vector_36" d="M20.7327 9.47627H21.4495C21.4918 9.47627 21.5325 9.47 21.5713 9.45898V9.80117C21.5713 10.0664 21.3563 10.2813 21.0911 10.2813C20.8259 10.2813 20.6109 10.0664 20.6109 9.80117V9.45898C20.6497 9.47 20.6904 9.47627 20.7327 9.47627Z" fill="#4FABF7"/>
<path id="Vector_37" d="M20.769 10.1565C21.2926 10.0575 21.0911 9.5334 21.0911 9.5334C21.1037 9.51441 21.1154 9.49537 21.1265 9.47627H21.4495C21.4918 9.47627 21.5325 9.47 21.5713 9.45898V9.80117C21.5713 10.0664 21.3563 10.2813 21.0911 10.2813C20.967 10.2814 20.8542 10.2339 20.769 10.1565Z" fill="#1E9EF4"/>
<path id="Vector_38" d="M20.7323 9.53355H21.449C21.6951 9.53355 21.8945 9.3341 21.8945 9.08807V5.18555H20.2868V9.08807C20.2868 9.3341 20.4862 9.53355 20.7323 9.53355Z" fill="#73C3F9"/>
<path id="Vector_39" d="M21.8945 9.08807C21.8945 9.3341 21.695 9.53355 21.449 9.53355H21.0906C21.5268 8.87484 21.0906 8.16 21.0906 8.16V5.80283C21.3245 5.56898 21.0906 5.27361 21.0906 5.27361L21.1668 5.18555H21.8945V9.08807H21.8945Z" fill="#4FABF7"/>
<path id="Vector_40" d="M21.1265 5.80273H21.8329C22.0301 5.80273 22.1914 5.95578 22.1914 6.14281V7.81982C22.1914 8.00686 22.03 8.1599 21.8329 8.1599H21.1265C20.9293 8.1599 20.768 8.00686 20.768 7.81982V6.14281C20.768 5.95578 20.9294 5.80273 21.1265 5.80273Z" fill="#C2E3FC"/>
<path id="Vector_41" d="M21.4797 7.81982V6.14281C21.4797 5.95666 21.3198 5.80426 21.1239 5.80285C21.1248 5.80285 21.1256 5.80273 21.1266 5.80273H21.8329C22.0301 5.80273 22.1914 5.95578 22.1914 6.14281V7.81982C22.1914 8.00686 22.03 8.1599 21.8329 8.1599H21.1266C21.1256 8.1599 21.1248 8.15979 21.1239 8.15979C21.3199 8.15838 21.4797 8.00604 21.4797 7.81982Z" fill="#9BD8F9"/>
<path id="Vector_42" d="M20.0871 4.68373H22.094C22.1678 4.68373 22.2412 4.67834 22.3139 4.66797C22.3223 4.70383 22.3281 4.74057 22.3281 4.77895C22.3281 5.05234 22.1065 5.27395 21.8331 5.27395H20.3481C20.0747 5.27395 19.8531 5.05234 19.8531 4.77895C19.8531 4.74057 19.859 4.70383 19.8673 4.66797C19.9399 4.67834 20.0134 4.68373 20.0871 4.68373Z" fill="#4FABF7"/>
<g id="Group_9">
<path id="Vector_43" d="M21.2785 4.80115C21.2785 4.76066 21.2735 4.72182 21.2668 4.68373H22.094C22.1678 4.68373 22.2412 4.67834 22.3139 4.66797C22.3223 4.70383 22.3281 4.74057 22.3281 4.77895C22.3281 5.05234 22.1065 5.27395 21.8331 5.27395H21.0823C21.2013 5.16543 21.2785 4.99434 21.2785 4.80115Z" fill="#1E9EF4"/>
</g>
<path id="Vector_44" d="M21.9218 2.99365H20.2617C19.9948 2.77891 19.8125 2.44024 19.8125 1.97436C19.8125 1.16946 20.234 0.462991 20.8683 0.0637329C21.0049 -0.0222241 21.1785 -0.0207593 21.3149 0.0652563C21.9915 0.491702 22.4058 1.25465 22.3655 2.08563C22.3458 2.4918 22.1712 2.79502 21.9218 2.99365Z" fill="#FFDD40"/>
<path id="Vector_45" d="M22.3664 2.0858C22.3467 2.49197 22.1721 2.79525 21.9228 2.99383H21.1864V1.91559C21.5706 1.53139 21.2488 1.02297 21.2488 1.02297C21.7058 0.657285 21.3159 0.0654297 21.3159 0.0654297C21.9924 0.491875 22.4068 1.25482 22.3664 2.0858Z" fill="#FFB332"/>
<path id="Vector_46" d="M21.7633 2.99319H20.4208C20.2832 2.84343 20.1943 2.63372 20.1943 2.36173C20.1943 1.797 20.49 1.30142 20.9351 1.02128C21.0309 0.960987 21.1526 0.961983 21.2484 1.02233C21.723 1.32151 22.0137 1.85683 21.9854 2.43978C21.9741 2.67304 21.8893 2.85732 21.7633 2.99319Z" fill="#FFB332"/>
<path id="Vector_47" d="M21.9854 2.4399C21.974 2.67316 21.8893 2.85744 21.7633 2.99326H21.1859V1.91508C21.5701 1.53088 21.2484 1.02246 21.2484 1.02246C21.723 1.32164 22.0137 1.85695 21.9854 2.4399Z" fill="#FF9100"/>
<path id="Vector_48" d="M21.5745 2.99352H20.61C20.5723 2.91863 20.5498 2.82904 20.5498 2.72363C20.5498 2.38285 20.7282 2.08373 20.9968 1.91469C21.0547 1.8783 21.1281 1.87889 21.1859 1.91533C21.4723 2.09592 21.6478 2.41894 21.6307 2.77074C21.6266 2.85564 21.6065 2.92988 21.5745 2.99352Z" fill="#FF4155"/>
<path id="Vector_49" d="M19.2756 3.14025C19.263 3.03227 19.3448 2.93652 19.4535 2.93652H22.7276C22.8364 2.93652 22.9181 3.03227 22.9055 3.14025C22.8541 3.58053 23.1182 3.70809 23.1182 4.1217C23.1182 4.3573 22.9146 4.51199 22.7111 4.60779C22.5185 4.69838 22.3068 4.74045 22.094 4.74045H20.0871C19.8744 4.74045 19.6625 4.69838 19.4701 4.60779C19.2665 4.51199 19.0629 4.3573 19.0629 4.1217C19.0629 3.70809 19.327 3.58053 19.2756 3.14025Z" fill="#9BD8F9"/>
<path id="Vector_50" d="M21.6284 4.17104C21.6284 3.68535 21.3972 3.53559 21.4422 3.01861C21.4447 2.99008 21.4424 2.96248 21.4372 2.93652H22.7276C22.8364 2.93652 22.9181 3.03227 22.9055 3.14025C22.8541 3.58053 23.1182 3.70809 23.1182 4.1217C23.1182 4.3573 22.9146 4.51199 22.7111 4.60779C22.5185 4.69838 22.3068 4.74045 22.0939 4.74045H21.2739C21.4515 4.62789 21.6284 4.4466 21.6284 4.17104Z" fill="#73C3F9"/>
<path id="Vector_51" d="M19.0634 3.90527H23.1187C23.2382 3.90527 23.335 4.00213 23.335 4.12154C23.335 4.24102 23.2382 4.33781 23.1187 4.33781H19.0634C18.9439 4.33781 18.8471 4.24102 18.8471 4.12154C18.8471 4.00207 18.9439 3.90527 19.0634 3.90527Z" fill="#C2E3FC"/>
<path id="Vector_52" d="M15.5001 1.28906C15.6343 1.28906 15.7678 1.29123 15.901 1.29492C16.8771 3.1974 17.9591 6.62338 14.1021 8.02119C8.62762 10.0051 6.77594 13.9697 7.79447 17.5141C8.67244 20.5693 7.95385 24.527 4.23912 24.5484C2.30172 22.1013 1.14461 19.0083 1.14461 15.6448C1.14455 7.71627 7.57176 1.28906 15.5001 1.28906Z" fill="#3C58A0"/>
<path id="Vector_53" d="M24.2582 12.067C24.2582 9.92229 26.0512 8.52061 27.4856 7.74219C28.9829 10.0088 29.8555 12.7244 29.8555 15.6443C29.8555 20.2846 27.6536 24.4105 24.2379 27.0346C23.4457 25.7901 22.73 23.5624 24.2581 20.9536C26.1918 17.6526 24.2582 15.6413 24.2582 12.067Z" fill="#3C58A0"/>
<path id="Vector_54" d="M20.7605 2.4557C20.7605 2.5801 20.8613 2.68094 20.9857 2.68094C21.1101 2.68094 21.2109 2.5801 21.2109 2.4557C21.2109 2.33131 21.1101 2.23047 20.9857 2.23047C20.8613 2.23047 20.7605 2.33131 20.7605 2.4557Z" fill="#FF7186"/>
</g>
</g>
</svg>
