<svg width="13" height="25" viewBox="0 0 13 25" fill="none" xmlns="http://www.w3.org/2000/svg">
<g id="Icon">
<path id="Vector" fill-rule="evenodd" clip-rule="evenodd" d="M10.6932 2.92501C12.0071 3.17952 13 4.3371 13 5.72464C13 7.29859 11.7224 8.57617 10.1485 8.57617C8.57451 8.57617 7.29693 7.29859 7.29693 5.72464C7.29693 3.62715 8.00353 2.32445 8.83293 1.51012C10.1027 0.263238 11.6928 0.154959 11.6928 0.154959C11.8547 0.143238 12.0082 0.2264 12.0874 0.367609C12.1673 0.508261 12.1578 0.682959 12.064 0.81468C12.064 0.81468 11.3083 1.87849 10.8372 2.66547C10.7881 2.74808 10.7384 2.83905 10.6932 2.92501Z" fill="url(#paint0_linear_9489_4720)"/>
<path id="Vector_2" fill-rule="evenodd" clip-rule="evenodd" d="M3.99008 2.92501C5.30394 3.17952 6.29688 4.3371 6.29688 5.72464C6.29688 7.29859 5.01929 8.57617 3.44534 8.57617C1.87138 8.57617 0.593802 7.29859 0.593802 5.72464C0.593802 3.62715 1.30041 2.32445 2.1298 1.51012C3.39957 0.263238 4.98971 0.154959 4.98971 0.154959C5.15157 0.143238 5.30506 0.2264 5.38432 0.367609C5.46357 0.508261 5.45464 0.682959 5.36088 0.81468C5.36088 0.81468 4.60515 1.87849 4.13408 2.66547C4.08497 2.74808 4.03529 2.83905 3.99008 2.92501Z" fill="url(#paint1_linear_9489_4720)"/>
</g>
<defs>
<linearGradient id="paint0_linear_9489_4720" x1="12.6339" y1="8.57617" x2="6.59335" y2="8.22253" gradientUnits="userSpaceOnUse">
<stop stop-color="#CFF0AD"/>
<stop offset="1" stop-color="#A6E675"/>
</linearGradient>
<linearGradient id="paint1_linear_9489_4720" x1="5.9308" y1="8.57617" x2="-0.109779" y2="8.22253" gradientUnits="userSpaceOnUse">
<stop stop-color="#CFF0AD"/>
<stop offset="1" stop-color="#A6E675"/>
</linearGradient>
</defs>
</svg>
