<svg width="30" height="29" viewBox="0 0 30 29" fill="none" xmlns="http://www.w3.org/2000/svg">
<g id="Group 4951">
<path id="Vector" d="M14.5887 28.9996C22.6458 28.9996 29.1774 22.5078 29.1774 14.4998C29.1774 6.49178 22.6458 0 14.5887 0C6.53159 0 0 6.49178 0 14.4998C0 22.5078 6.53159 28.9996 14.5887 28.9996Z" fill="url(#paint0_linear_8528_125076)"/>
<g id="Group" opacity="0.16">
<path id="Vector_2" d="M14.5887 0C6.53143 0 0 6.49162 0 14.4998C0 22.508 6.53143 28.9996 14.5887 28.9996C22.646 28.9996 29.1774 22.508 29.1774 14.4998C29.1774 6.49162 22.646 0 14.5887 0ZM14.5887 28.4626C6.83025 28.4626 0.540359 22.211 0.540359 14.4998C0.540359 6.78856 6.83025 0.537065 14.5887 0.537065C22.3472 0.537065 28.6371 6.78862 28.6371 14.4998C28.6371 22.211 22.3472 28.4626 14.5887 28.4626Z" fill="url(#paint1_linear_8528_125076)"/>
</g>
<path id="Vector_3" d="M17.5453 17.7221H10.4941H7.96003H6.48495C5.89058 17.7221 5.4043 17.2388 5.4043 16.6481C5.4043 16.0573 5.89058 15.574 6.48495 15.574H9.28923L13.32 9.06517L12.0502 7.00834C11.7369 6.50352 11.8936 5.84297 12.4015 5.5315C12.9094 5.22004 13.574 5.37577 13.8874 5.88059L14.5898 7.01377L15.2921 5.88065C15.6055 5.37583 16.2701 5.2201 16.778 5.53157C17.2859 5.84303 17.4426 6.50358 17.1293 7.0084L15.8595 9.06523L14.5898 11.1113L11.8233 15.574H16.2972C16.9942 16.0573 17.4697 16.8307 17.5453 17.7221ZM22.6946 15.574H19.8903L19.3662 14.7308L16.3242 9.81164C15.7569 10.3486 15.4002 11.1059 15.4002 11.949C15.4002 12.1424 15.4164 12.3249 15.4542 12.5075L16.5565 14.2851L17.3562 15.5739L18.6854 17.7221L20.6954 20.9711C20.8954 21.2987 21.2519 21.4813 21.614 21.4813C21.8085 21.4813 22.003 21.4276 22.1813 21.3202C22.6892 21.0087 22.8459 20.3481 22.5325 19.8433L21.2195 17.7221H22.6946C23.289 17.7221 23.7753 17.2387 23.7753 16.648C23.7753 16.0573 23.2889 15.574 22.6946 15.574ZM7.55472 18.3773L6.64698 19.8434C6.33361 20.3482 6.49029 21.0088 6.99821 21.3202C7.17652 21.4276 7.371 21.4813 7.56554 21.4813C7.92758 21.4813 8.28415 21.2987 8.4841 20.9711L9.89976 18.6834C9.45667 18.4095 8.93259 18.2591 8.37601 18.2591C8.08968 18.2591 7.81409 18.2967 7.55472 18.3773Z" fill="url(#paint2_linear_8528_125076)"/>
</g>
<defs>
<linearGradient id="paint0_linear_8528_125076" x1="14.5888" y1="29.0011" x2="14.5888" y2="0.00169047" gradientUnits="userSpaceOnUse">
<stop stop-color="#3871E9"/>
<stop offset="1" stop-color="#61C5F6"/>
</linearGradient>
<linearGradient id="paint1_linear_8528_125076" x1="14.5888" y1="29.0011" x2="14.5888" y2="0.00169047" gradientUnits="userSpaceOnUse">
<stop/>
<stop offset="0.36" stop-opacity="0"/>
</linearGradient>
<linearGradient id="paint2_linear_8528_125076" x1="14.5898" y1="21.4829" x2="14.5898" y2="5.37278" gradientUnits="userSpaceOnUse">
<stop stop-color="#E2EFF6"/>
<stop offset="1" stop-color="white"/>
</linearGradient>
</defs>
</svg>
