<svg width="14" height="25" viewBox="0 0 14 25" fill="none" xmlns="http://www.w3.org/2000/svg">
<g id="Icon">
<path id="Vector" fill-rule="evenodd" clip-rule="evenodd" d="M2.30679 21.3836C0.992931 21.1291 0 19.9715 0 18.584C0 17.01 1.27758 15.7324 2.85154 15.7324C4.42549 15.7324 5.70307 17.01 5.70307 18.584C5.70307 20.6814 4.99647 21.9841 4.16707 22.7985C2.8973 24.0454 1.30716 24.1536 1.30716 24.1536C1.1453 24.1654 0.991815 24.0822 0.912559 23.941C0.832745 23.8003 0.842233 23.6256 0.936001 23.4939C0.936001 23.4939 1.69172 22.4301 2.16279 21.6431C2.21191 21.5605 2.26158 21.4695 2.30679 21.3836Z" fill="url(#paint0_linear_9489_4716)"/>
<path id="Vector_2" fill-rule="evenodd" clip-rule="evenodd" d="M10.0099 21.3836C8.69606 21.1291 7.70313 19.9715 7.70312 18.584C7.70312 17.01 8.98071 15.7324 10.5547 15.7324C12.1286 15.7324 13.4062 17.01 13.4062 18.584C13.4062 20.6814 12.6996 21.9841 11.8702 22.7985C10.6004 24.0454 9.01029 24.1536 9.01029 24.1536C8.84843 24.1654 8.69494 24.0822 8.61568 23.941C8.53643 23.8003 8.54536 23.6256 8.63913 23.4939C8.63913 23.4939 9.39485 22.4301 9.86592 21.6431C9.91503 21.5605 9.96471 21.4695 10.0099 21.3836Z" fill="url(#paint1_linear_9489_4716)"/>
</g>
<defs>
<linearGradient id="paint0_linear_9489_4716" x1="0.366076" y1="15.7324" x2="6.40665" y2="16.0861" gradientUnits="userSpaceOnUse">
<stop stop-color="#CFF0AD"/>
<stop offset="1" stop-color="#A6E675"/>
</linearGradient>
<linearGradient id="paint1_linear_9489_4716" x1="8.0692" y1="15.7324" x2="14.1098" y2="16.0861" gradientUnits="userSpaceOnUse">
<stop stop-color="#CFF0AD"/>
<stop offset="1" stop-color="#A6E675"/>
</linearGradient>
</defs>
</svg>
