<svg width="40" height="40" viewBox="0 0 40 40" fill="none" xmlns="http://www.w3.org/2000/svg">
<g id="Layer_1" clip-path="url(#clip0_8480_50291)">
<g id="_x31_72">
<path id="Vector" d="M37.2683 21.7193C36.9622 15.2607 35.4754 10.1647 29.2177 6.28878C24.1594 3.15716 17.3278 2.66547 10.6708 4.88614C10.2305 3.44464 9.85519 1.95085 9.48404 0.495127C8.94041 0.291941 8.39679 0.0887177 7.85316 -0.114506C7.85367 -0.113211 7.85395 -0.111877 7.85446 -0.110581C7.61006 -0.221679 7.33763 -0.121829 7.2221 0.0996162C5.50962 3.35951 3.88231 7.68383 2.18962 10.9049C2.06126 11.1493 2.17567 11.4456 2.43365 11.55C5.95614 12.9724 9.28227 13.9858 12.663 14.9832C12.8181 15.029 12.9883 14.9907 13.1125 14.8885C13.1168 14.908 13.1229 14.9274 13.1271 14.9469C13.4615 14.4795 13.7959 14.0121 14.1305 13.5446C13.5649 12.4381 13.0027 11.3415 12.4391 10.2411C20.7698 7.09172 31.0171 11.0018 35.9313 20.6805C36.0712 21.0702 36.2045 21.4649 36.3242 21.8699C36.4815 22.4004 37.2946 22.2715 37.2683 21.7193ZM3.28244 10.8768C4.71627 8.05851 6.10305 4.53319 7.5226 1.62816C7.96107 3.14217 8.46261 4.74716 8.83875 6.01258C8.91814 6.27696 9.2165 6.42294 9.4849 6.315C21.4642 1.52746 34.1438 6.12456 35.9829 18.3074C34.1047 14.4058 31.1217 11.3616 27.081 9.23063C21.9416 6.52039 16.0345 7.07418 10.4372 8.73981C10.145 8.8268 10.0076 9.15403 10.158 9.41659C10.8531 10.6196 11.4911 12.256 12.0457 13.8211C9.1499 12.9596 6.27922 12.0615 3.28244 10.8768Z" fill="url(#paint0_linear_8480_50291)"/>
<path id="Vector_2" d="M36.6733 27.9409C33.1219 26.6014 29.7707 25.6631 26.3643 24.7418C26.0039 24.6428 25.6386 24.9724 25.7907 25.3762C25.7286 25.8979 25.4857 26.3986 25.0969 26.7639C25.5594 27.5007 25.9573 28.3275 26.3233 29.161C16.8483 32.4042 6.91014 27.3132 3.70939 18.8542C3.64513 18.821 2.51606 18.2381 2.1974 18.0736C2.19897 18.0784 2.20085 18.0832 2.20242 18.0879C1.86314 18.0011 1.58114 18.2677 1.60272 18.5691C2.06507 25.0192 3.67418 30.0798 10.0241 33.8112C15.1285 36.8115 21.9227 37.1616 28.4897 34.8327C29.0777 36.4564 29.7332 38.0164 30.3067 39.6537C30.6826 39.717 31.0585 39.7803 31.4345 39.8436C31.4073 39.7561 31.38 39.6689 31.3527 39.5814C31.5786 39.8613 32.0099 39.8054 32.1627 39.498C33.7928 36.2052 35.3177 31.8417 36.933 28.5805C37.0547 28.335 36.935 28.0402 36.6733 27.9409ZM31.8252 37.9768C31.3677 36.5267 30.851 35.0021 30.4031 33.6234C30.3195 33.3637 30.0192 33.222 29.75 33.3357C22.9754 36.2245 15.7874 36.1043 10.5222 33.0101C5.69546 30.1731 3.76828 26.4929 2.97031 21.9512C4.94266 25.8088 7.9984 28.7842 12.0893 30.8212C16.5835 33.0607 22.03 33.0973 28.74 30.9334C29.0309 30.8396 29.1593 30.5076 29.0028 30.2499C28.277 29.0604 27.6001 27.4398 27.0092 25.8893C29.9275 26.6855 32.8195 27.519 35.8408 28.6336C34.4675 31.5015 33.1785 35.03 31.8252 37.9768Z" fill="url(#paint1_linear_8480_50291)"/>
<path id="Vector_3" d="M31.3724 5.33327L32.0255 1.85731C32.0732 1.60306 31.8994 1.35918 31.6378 1.31223C31.3768 1.27016 31.1253 1.43418 31.0776 1.68903L30.4239 5.16499C30.3762 5.41924 30.55 5.66312 30.8116 5.71007C31.0867 5.75558 31.3262 5.57842 31.3724 5.33327Z" fill="url(#paint2_linear_8480_50291)"/>
<path id="Vector_4" d="M33.6906 6.58737L35.9578 2.7529C36.0901 2.52853 36.0105 2.24257 35.7802 2.11332C35.5488 1.98528 35.2545 2.06149 35.1222 2.28586L32.855 6.12155C32.7226 6.34531 32.8023 6.63188 33.0331 6.76053C33.2627 6.88883 33.558 6.81248 33.6906 6.58737Z" fill="url(#paint3_linear_8480_50291)"/>
<path id="Vector_5" d="M38.8776 5.75133C38.6994 5.55683 38.3939 5.54342 38.1976 5.71475C37.2221 6.56407 36.1092 7.23293 34.8902 7.70179C34.6431 7.79691 34.522 8.06884 34.6199 8.30967C34.7188 8.5529 35.0018 8.6666 35.2453 8.57246C36.5702 8.06274 37.7798 7.33597 38.8399 6.41226C39.0382 6.23971 39.0551 5.94339 38.8776 5.75133Z" fill="url(#paint4_linear_8480_50291)"/>
</g>
</g>
<defs>
<linearGradient id="paint0_linear_8480_50291" x1="3.66865" y1="2.18832" x2="22.1494" y2="3.26924" gradientUnits="userSpaceOnUse">
<stop stop-color="#92D839"/>
<stop offset="1" stop-color="#84BE4A"/>
</linearGradient>
<linearGradient id="paint1_linear_8480_50291" x1="3.14426" y1="20.3539" x2="21.7505" y2="21.4795" gradientUnits="userSpaceOnUse">
<stop stop-color="#92D839"/>
<stop offset="1" stop-color="#84BE4A"/>
</linearGradient>
<linearGradient id="paint2_linear_8480_50291" x1="30.4865" y1="1.76817" x2="31.3401" y2="1.77982" gradientUnits="userSpaceOnUse">
<stop stop-color="#92D839"/>
<stop offset="1" stop-color="#84BE4A"/>
</linearGradient>
<linearGradient id="paint3_linear_8480_50291" x1="32.9319" y1="2.5515" x2="34.6361" y2="2.59446" gradientUnits="userSpaceOnUse">
<stop stop-color="#92D839"/>
<stop offset="1" stop-color="#84BE4A"/>
</linearGradient>
<linearGradient id="paint4_linear_8480_50291" x1="34.7784" y1="5.9108" x2="37.1016" y2="6.03765" gradientUnits="userSpaceOnUse">
<stop stop-color="#92D839"/>
<stop offset="1" stop-color="#84BE4A"/>
</linearGradient>
<clipPath id="clip0_8480_50291">
<rect width="40" height="40" fill="white"/>
</clipPath>
</defs>
</svg>
