<svg width="40" height="46" viewBox="0 0 40 46" fill="none" xmlns="http://www.w3.org/2000/svg">
<g id="_x31_06">
<path id="Vector" d="M9.36622 36.2746C9.29432 34.8468 8.14376 33.7759 6.70557 33.7759C5.26738 33.7759 4.04492 34.9182 4.04492 36.4174C4.04492 37.9167 5.19547 39.059 6.70557 39.059C8.21567 39.059 9.36622 37.9167 9.36622 36.4174C9.36622 36.346 9.36622 36.346 9.36622 36.2746ZM7.49658 37.7739C7.20894 37.8453 6.9213 37.7739 6.70557 37.7025C6.20221 37.4169 5.91457 36.9172 5.84266 36.4174C5.84266 36.0605 5.98648 35.3465 6.27412 34.9896C6.41793 34.9182 6.63366 34.9182 6.77748 34.9182C7.6404 34.9182 8.35949 35.6321 8.35949 36.4888C8.28758 36.9886 7.99994 37.5597 7.49658 37.7739Z" fill="url(#paint0_linear_8480_50265)"/>
<path id="Vector_2" d="M33.8151 9.14546C35.469 9.14546 36.8353 7.78899 36.8353 6.14695C36.8353 4.50491 35.469 3.14844 33.8151 3.14844C32.1612 3.21983 30.7949 4.50491 30.7949 6.14695C30.7949 7.78899 32.1612 9.14546 33.8151 9.14546ZM35.6848 6.14695C35.6848 7.00367 35.1814 7.64621 34.3904 7.93178C34.1028 7.93178 33.8151 7.86039 33.5994 7.78899C33.0241 7.50342 32.5927 6.86088 32.5208 6.21834C32.4488 5.78998 32.6646 4.86187 33.096 4.43351C33.3118 4.36212 33.5275 4.29073 33.8151 4.29073C34.8219 4.29073 35.6848 5.14745 35.6848 6.14695Z" fill="url(#paint1_linear_8480_50265)"/>
<path id="Vector_3" d="M0.018325 9.78825C-0.0535845 10.0738 0.0902345 10.3594 0.377872 10.5022L3.75762 11.6445H3.90144C4.11717 11.6445 4.33289 11.5017 4.4048 11.2875C4.47671 11.0019 4.33289 10.7164 4.04526 10.5736L0.66551 9.43128C0.377872 9.35989 0.0902345 9.50267 0.018325 9.78825Z" fill="url(#paint2_linear_8480_50265)"/>
<path id="Vector_4" d="M3.46973 4.86185C3.254 4.64767 2.96637 4.57627 2.67873 4.79045C2.463 5.00463 2.39109 5.29021 2.60682 5.57578L4.97983 8.5029C5.05174 8.64569 5.26747 8.71708 5.41129 8.71708C5.55511 8.71708 5.62702 8.64569 5.77084 8.57429C5.98656 8.36011 6.05847 8.07454 5.84275 7.78897L3.46973 4.86185Z" fill="url(#paint3_linear_8480_50265)"/>
<path id="Vector_5" d="M7.27882 2.71973C6.99119 2.71973 6.70355 2.93391 6.70355 3.21948C6.55973 4.43316 6.70355 5.71824 7.0631 6.93192C7.13501 7.1461 7.35074 7.36028 7.56646 7.36028H7.71028C7.99792 7.28889 8.14174 7.00332 8.06983 6.71774C7.78219 5.57545 7.71028 4.43316 7.78219 3.29087C7.78219 3.0053 7.56646 2.71973 7.27882 2.71973Z" fill="url(#paint4_linear_8480_50265)"/>
<path id="Vector_6" d="M3.68479 31.9914C3.61288 32.0628 3.54097 32.1342 3.39716 32.1342C3.32525 32.2055 3.18143 32.2055 3.10952 32.2769C2.10278 32.8481 1.31178 33.8476 0.952233 34.9185C0.305047 36.7747 0.736504 38.8451 1.59942 40.5585C2.46233 42.272 3.82861 43.7712 5.19489 45.1991C5.55444 45.5561 5.9859 45.9844 6.41735 45.913C6.7769 45.8416 6.99263 45.6275 7.28027 45.3419C7.28027 45.2705 7.35218 45.2705 7.35218 45.1991C7.42409 45.1277 7.496 45.0563 7.56791 44.9849C8.57464 43.6285 10.0847 41.6294 11.0915 39.7732C11.6667 39.9874 12.6016 40.273 13.033 40.4158C13.7521 40.7013 14.3993 40.9155 15.1184 41.0583C17.9229 41.7722 20.8712 41.8436 23.6756 41.1297C25.8329 40.6299 27.9183 39.6304 29.716 38.3454C32.5924 36.7747 34.9654 34.4901 36.6912 31.7058C38.3452 28.9215 39.2081 25.7088 39.2081 22.4247C39.2081 19.212 38.3452 16.1421 36.7632 13.3577C38.4171 11.0018 39.9991 8.14604 39.9991 6.36121C39.9991 2.86295 37.1227 0.0786133 33.6711 0.0786133C32.3048 0.0786133 31.0823 0.506972 30.0037 1.2209C29.1408 1.64926 28.4217 2.3632 27.8464 3.29131C27.4868 3.93385 27.1992 4.57638 27.0554 5.29032C23.6756 4.21942 19.9363 4.14802 16.4128 5.00474C13.033 5.4331 9.7971 6.93236 7.28027 9.21694C4.18816 12.0727 2.17469 16.0707 1.59942 20.2115C1.09605 24.2809 1.88706 28.4217 3.68479 31.9914ZM18.7139 8.71719C19.0015 9.21694 19.2892 9.71669 19.2892 10.2164C19.2892 10.5734 19.1453 10.9304 18.8577 11.2159C18.5701 11.5015 18.2105 11.6443 17.851 11.6443C17.4195 11.6443 16.9161 11.4301 16.4847 11.2159C16.3409 11.1446 16.1251 11.0732 15.9813 11.0018C14.9027 10.5734 13.9679 10.6448 13.3207 11.1446C12.8173 11.5729 12.6735 12.1441 12.5297 12.6438C12.3858 13.0722 12.3139 13.4291 12.0982 13.6433C11.7387 13.9289 11.1634 13.8575 10.7319 13.6433C10.3005 13.4291 9.94092 12.9294 9.72519 12.2155C9.43755 11.2873 9.58137 10.2164 10.0128 9.50251C10.0847 9.35973 10.0847 9.21694 10.0847 9.07415C10.5881 8.64579 11.1634 8.28883 11.7387 7.93186C13.7521 6.78957 15.9094 6.00425 18.1386 5.64728V6.28982V6.57539C17.9948 7.43211 18.3543 8.07465 18.7139 8.71719ZM11.8106 30.9919C12.242 31.1346 12.6735 31.1346 13.1049 31.1346H13.6802C14.1117 31.206 14.3993 31.3488 14.5431 31.7058C14.9746 32.7053 14.4712 34.4901 13.8959 35.2755C13.4645 35.918 12.8892 36.3463 12.1701 36.6319C12.1701 36.6319 12.1701 36.5605 12.1701 36.4891C12.1701 33.4906 9.65328 30.9919 6.63308 30.9919C6.27353 30.9919 5.91399 31.0633 5.55444 31.1346C4.61962 29.2784 3.97243 27.1366 3.68479 24.852C5.12298 25.6374 6.70499 26.1371 8.14318 25.2804C9.078 24.7093 9.50946 23.7812 9.86901 22.853L9.94092 22.6389C10.2286 21.9249 10.5162 21.211 11.0196 20.7112C11.451 20.2829 12.242 19.9973 12.7454 20.3543C13.1768 20.6399 13.2488 21.3538 13.1049 21.8535C12.8892 22.4247 12.4578 22.9958 11.9544 23.567C11.0196 24.6379 10.1566 25.7802 9.86901 27.1366C9.65328 28.7073 10.3005 30.4921 11.8106 30.9919ZM6.84881 44.4138C6.7769 44.4852 6.70499 44.4852 6.63308 44.4852C6.56117 44.4852 6.48926 44.4852 6.48926 44.4138C3.82861 40.9869 2.17469 38.0598 2.17469 36.7033C2.17469 34.2759 4.18816 32.2769 6.63308 32.2769C9.078 32.2769 11.0915 34.2759 11.0915 36.7033C11.0915 38.0598 9.50946 40.9155 6.84881 44.4138ZM26.7677 38.6309C26.6958 38.5595 26.6239 38.5595 26.4801 38.4881C24.7543 38.274 23.2442 37.9884 22.1655 37.0603C21.5903 36.5605 21.2307 35.7038 21.3026 34.9185C21.3026 34.5615 21.4464 33.9904 21.9498 33.6334C22.2374 33.4192 22.597 33.3478 23.0284 33.2051C23.5318 33.0623 24.0352 32.9195 24.4666 32.5625C25.8329 31.563 25.761 29.564 24.97 28.2075C24.3228 27.1366 23.2442 26.4227 22.2374 25.7088L21.806 25.4232C20.7993 24.7093 19.7925 23.8525 19.433 22.7103C18.9296 20.854 20.5116 18.9978 21.2307 18.2839C21.8779 17.6413 23.1723 16.6418 24.3947 16.9988C25.1138 17.213 25.6891 17.9269 26.1206 19.1406C26.2644 19.569 26.4082 19.9973 26.552 20.4257C26.8396 21.3538 27.1273 22.2819 27.6307 23.1386C28.3497 24.4237 29.716 25.7088 31.4419 25.6374H31.8014C32.089 25.6374 32.3048 25.566 32.4486 25.6374C32.952 25.8516 32.88 26.7083 32.6643 27.2794L32.5924 27.4936C32.3048 28.3503 31.9452 29.4212 32.5924 30.2779C33.1677 31.1346 34.1744 31.3488 35.6845 30.9919L35.6126 31.0633C33.743 34.7043 30.5789 37.2031 26.7677 38.6309ZM38.9924 6.504C38.9924 7.78908 37.8418 10.2164 35.7564 13.1436V13.215C35.2531 14.0003 34.6059 14.7856 34.0306 15.5709C33.9587 15.6423 33.8149 15.7137 33.8149 15.7137C33.8149 15.7137 33.6711 15.7137 33.5991 15.5709C30.4351 11.5015 28.5655 8.14604 28.5655 6.504C28.5655 3.64827 30.9385 1.2923 33.8149 1.2923C36.6912 1.2923 38.9924 3.57688 38.9924 6.504ZM27.1273 8.5744C27.8464 11.2873 30.0037 13.4291 31.5857 15.6423C31.9452 16.2135 32.4486 16.7132 33.0958 16.9274C34.3901 17.2844 35.2531 16.0707 35.7564 14.9998C35.9002 14.857 35.9722 14.6428 36.116 14.5C37.4823 16.9988 38.2013 19.7117 38.2013 22.5675C38.2013 25.209 37.6261 27.7792 36.4755 30.0637C36.3317 29.9924 36.1879 29.9924 36.0441 29.9924C35.1811 30.2779 34.0306 30.4921 33.6711 29.8496C33.3834 29.4212 33.5991 28.7073 33.8149 27.9933L33.8868 27.7792C34.2463 26.6369 34.1025 25.2804 33.0239 24.7807C32.5924 24.6379 32.2329 24.6379 31.8733 24.7093C31.8014 24.7093 31.6576 24.7093 31.5857 24.7093C30.2913 24.7807 29.2846 23.7098 28.7093 22.7103C28.2778 21.9249 27.9902 21.0682 27.7026 20.2115C27.5587 19.7831 27.4149 19.2834 27.2711 18.855C26.6958 17.3558 25.9048 16.4277 24.8981 16.0707C23.6037 15.6423 22.0936 16.1421 20.6554 17.5699C18.8577 19.3548 18.0667 21.2824 18.5701 22.9958C19.0015 24.4951 20.224 25.4946 21.3026 26.2799L21.7341 26.5655C22.6689 27.208 23.6037 27.8506 24.179 28.7787C24.7543 29.7068 24.8262 31.0633 23.9633 31.7058C23.6756 31.92 23.3161 32.0628 22.8846 32.1342C22.4532 32.2769 21.9498 32.4197 21.5183 32.7053C20.8712 33.1337 20.4397 33.919 20.4397 34.7757C20.3678 35.8466 20.8712 37.0603 21.6622 37.7742C22.5251 38.5595 23.6756 38.9879 24.7543 39.2021C23.8914 39.4163 23.0284 39.559 22.1655 39.6304C18.8577 39.9874 15.478 39.3449 12.4578 37.7742C13.4645 37.4172 14.3993 36.7747 14.9746 35.918C15.6937 34.9185 16.4128 32.7053 15.7656 31.2774C15.478 30.5635 14.8308 30.1351 14.0398 30.0637C13.824 30.0637 13.6083 30.0637 13.3926 29.9924C13.033 29.9924 12.6735 29.9924 12.3858 29.8496C11.451 29.564 11.0196 28.2789 11.2353 27.2794C11.451 26.1371 12.242 25.209 13.1049 24.2095C13.6083 23.6384 14.1117 22.9958 14.3993 22.1391C14.6869 21.2824 14.5431 20.1401 13.6802 19.4976C12.6735 18.7836 11.3072 19.1406 10.5162 19.9973C9.86901 20.6399 9.50946 21.4966 9.22182 22.2819L9.14991 22.4961C8.86228 23.21 8.50273 23.9953 7.85554 24.4237C6.70499 25.1376 5.12298 24.3523 3.82861 23.6384C3.7567 22.4247 3.7567 21.1396 3.90052 19.9259C4.33198 16.2135 6.05781 12.858 8.79037 10.2878C8.64655 11.0018 8.71846 11.7871 8.93419 12.501C9.22182 13.4291 9.72519 14.2145 10.4443 14.5714C10.8038 14.7856 11.3072 14.9284 11.7387 14.9284C12.1701 14.9284 12.6016 14.7856 13.033 14.5C13.5364 14.0717 13.6802 13.5005 13.824 13.0008C13.9679 12.5724 14.0398 12.2155 14.2555 12.0013C14.6869 11.6443 15.5499 11.9299 15.8375 12.0013C15.9813 12.0727 16.1251 12.1441 16.269 12.2155C16.7723 12.4296 17.4195 12.7152 18.0667 12.7152C18.7139 12.7152 19.3611 12.4296 19.7925 11.9299C20.2959 11.4301 20.5116 10.7876 20.5116 10.1451C20.5116 9.35973 20.1521 8.71719 19.7925 8.14604C19.5049 7.64629 19.2892 7.14654 19.2892 6.64679C19.2892 6.57539 19.2892 6.43261 19.2892 6.28982C19.2892 6.07564 19.2892 5.71867 19.3611 5.57589C19.433 5.57589 19.5768 5.5045 19.6487 5.4331C22.1655 5.21892 24.7543 5.5045 27.1273 6.36121C26.8396 7.21793 26.9116 7.93186 27.1273 8.5744Z" fill="url(#paint5_linear_8480_50265)"/>
</g>
<defs>
<linearGradient id="paint0_linear_8480_50265" x1="4.27696" y1="34.3298" x2="7.08178" y2="34.4349" gradientUnits="userSpaceOnUse">
<stop stop-color="#92D839"/>
<stop offset="1" stop-color="#84BE4A"/>
</linearGradient>
<linearGradient id="paint1_linear_8480_50265" x1="31.0583" y1="3.77716" x2="34.2422" y2="3.89655" gradientUnits="userSpaceOnUse">
<stop stop-color="#92D839"/>
<stop offset="1" stop-color="#84BE4A"/>
</linearGradient>
<linearGradient id="paint2_linear_8480_50265" x1="0.192869" y1="9.64702" x2="2.5149" y2="9.81839" gradientUnits="userSpaceOnUse">
<stop stop-color="#92D839"/>
<stop offset="1" stop-color="#84BE4A"/>
</linearGradient>
<linearGradient id="paint3_linear_8480_50265" x1="2.62902" y1="5.08635" x2="4.47267" y2="5.14553" gradientUnits="userSpaceOnUse">
<stop stop-color="#92D839"/>
<stop offset="1" stop-color="#84BE4A"/>
</linearGradient>
<linearGradient id="paint4_linear_8480_50265" x1="6.71122" y1="3.20624" x2="7.47105" y2="3.21501" gradientUnits="userSpaceOnUse">
<stop stop-color="#92D839"/>
<stop offset="1" stop-color="#84BE4A"/>
</linearGradient>
<linearGradient id="paint5_linear_8480_50265" x1="2.35684" y1="4.88466" x2="23.1104" y2="5.54806" gradientUnits="userSpaceOnUse">
<stop stop-color="#92D839"/>
<stop offset="1" stop-color="#84BE4A"/>
</linearGradient>
</defs>
</svg>
