<svg width="32" height="32" viewBox="0 0 32 32" fill="none" xmlns="http://www.w3.org/2000/svg">
<g id="icon">
<path id="Vector" d="M20 27.1798L18.115 25.2948C17.7256 24.9055 17.0944 24.9055 16.705 25.2948C16.3156 25.6842 16.3156 26.3155 16.705 26.7048L20 29.9998L27.295 22.7048C27.6844 22.3155 27.6844 21.6842 27.295 21.2948C26.9056 20.9055 26.2744 20.9055 25.885 21.2948L20 27.1798Z" fill="black"/>
<path id="Vector_2" d="M10 28V10H22V18C22 18.5523 22.4477 19 23 19C23.5523 19 24 18.5523 24 18V6C23.9995 5.46973 23.7886 4.96133 23.4136 4.58637C23.0387 4.21141 22.5303 4.00053 22 4H10C9.46973 4.00053 8.96133 4.21141 8.58637 4.58637C8.21141 4.96133 8.00053 5.46973 8 6V28C8.00053 28.5303 8.21141 29.0387 8.58637 29.4136C8.96133 29.7886 9.46973 29.9995 10 30H13C13.5523 30 14 29.5523 14 29C14 28.4477 13.5523 28 13 28H10ZM10 6H22V8H10V6Z" fill="black"/>
</g>
</svg>
