<svg width="40" height="40" viewBox="0 0 40 40" fill="none" xmlns="http://www.w3.org/2000/svg">
<g id="Layer_1">
<g id="_x32_0">
<path id="Vector" d="M32.2311 12.9998C32.308 9.84597 30.9234 6.69212 28.6926 4.38443C27.5388 3.23058 26.2311 2.3075 24.7695 1.69212C23.308 1.07674 21.6926 0.769043 20.0772 0.769043C18.4618 0.769043 16.8465 1.07674 15.3849 1.69212C13.9234 2.3075 12.5388 3.23058 11.3849 4.38443C9.07722 6.6152 7.76953 9.84597 7.76953 12.9998C7.76953 14.6152 8.07722 16.2306 8.69261 17.6921C9.30799 19.1537 10.2311 20.5383 11.2311 21.6152C13.0003 23.6921 14.308 26.2306 14.9234 28.9229C14.7695 28.9229 14.5388 28.9229 14.308 28.9229C13.4618 29.0767 12.8465 29.9998 12.9234 30.846C12.9234 31.2306 13.1541 31.6921 13.4618 31.9998C13.0772 32.3844 12.8465 33.0767 13.0003 33.6152C13.0772 34.0767 13.308 34.4614 13.6926 34.769C13.8465 34.9229 14.0772 34.9998 14.308 35.0767C14.3849 35.0767 14.5388 35.1537 14.6157 35.1537H15.4618C15.5388 35.5383 15.6157 35.9229 15.7695 36.2306C16.0003 36.769 16.3849 37.3075 16.7695 37.769C17.6157 38.6152 18.9234 39.1537 20.1541 39.1537C21.3849 39.1537 22.6157 38.6152 23.5388 37.769C24.2311 37.0767 24.6926 36.1537 24.8465 35.1537H25.0772H25.5388C26.2311 35.1537 26.9234 34.6921 27.2311 34.0767C27.4618 33.6921 27.4618 33.1537 27.3849 32.769C27.308 32.4613 27.1541 32.2306 26.9234 31.9998C27.308 31.5383 27.5388 30.9998 27.3849 30.3844C27.2311 29.4614 26.3849 28.769 25.5388 28.846H25.0772C25.6926 26.0767 27.0003 23.4614 28.9234 21.3844C30.9234 19.3075 32.308 16.1537 32.2311 12.9998ZM22.4618 36.769C21.7695 37.3075 20.9234 37.6921 20.0772 37.6152C19.2311 37.6152 18.3849 37.3075 17.6926 36.6921C17.2311 36.3075 16.8465 35.769 16.6157 35.1537H16.6926L20.3849 35.2306H23.6157C23.308 35.846 22.9234 36.3844 22.4618 36.769ZM25.3849 33.846C25.308 33.846 23.9234 33.769 24.0003 33.769L20.308 33.6921L16.6157 33.769L14.8465 33.846H14.6926H14.6157C14.5388 33.846 14.4618 33.769 14.3849 33.769C14.2311 33.6921 14.1541 33.5383 14.0772 33.3844C14.0003 33.0767 14.0772 32.769 14.3849 32.6152C14.4618 32.6152 14.6157 32.6152 14.6926 32.6921L16.5388 32.769L20.2311 32.846L23.9234 32.769C24.0003 32.769 25.3849 32.6921 25.308 32.6921H25.3849C25.6157 32.6921 25.6157 32.6921 25.6926 32.6152C25.8465 32.769 26.0003 32.9229 26.0003 33.0767C26.0772 33.4613 25.7695 33.846 25.3849 33.846ZM25.3849 29.846C25.7695 29.9229 26.0772 30.2306 26.0772 30.5383C26.0772 30.9229 25.7695 31.2306 25.4618 31.2306H25.308C25.2311 31.2306 23.8465 31.1537 23.9234 31.1537L20.2311 31.0767L16.5388 31.1537L14.6926 31.2306C14.3849 31.2306 14.0772 30.9998 14.0003 30.6921C13.9234 30.3844 14.0772 29.9998 14.4618 29.846C14.6157 29.769 14.9234 29.769 15.2311 29.769L16.1541 29.6921C16.5388 29.6921 16.9234 29.6152 17.308 29.6152L21.0003 29.4614C21.8465 29.5383 22.6157 29.6152 23.4618 29.6921L25.3849 29.846ZM24.8465 28.9229L23.5388 28.9998C22.6926 29.0767 21.9234 29.1537 21.0772 29.2306L17.3849 29.0767C17.0003 29.0767 16.6157 28.9998 16.2311 28.9998L15.6157 28.9229C15.1541 25.9998 13.9234 23.1537 12.0772 20.846C10.0772 18.6152 9.07722 15.846 9.15415 12.9998C9.23107 10.1537 10.4618 7.38443 12.4618 5.38443C14.4618 3.46135 17.2311 2.3075 20.0772 2.3075C22.9234 2.3075 25.6926 3.46135 27.7695 5.38443C29.8465 7.38443 31.0772 10.1537 31.1541 12.9998C31.2311 14.4614 31.0003 15.9229 30.4618 17.2306C30.0003 18.6152 29.1541 19.846 28.2311 20.9998C26.3849 23.3075 25.2311 26.0767 24.8465 28.9229Z" fill="url(#paint0_linear_8480_50279)"/>
<path id="Vector_2" d="M13.4617 7.23047C12.8463 7.92278 12.3079 8.76893 12.0771 9.69201C11.7694 10.6151 11.6925 11.5382 11.9232 12.4612C12.3079 11.6151 12.6925 10.9228 13.154 10.2305C14.0002 8.92278 15.0002 7.76893 16.3079 6.69201C16.9232 6.15354 17.6156 5.76893 18.3848 5.23047C16.8463 4.92278 14.8463 5.61508 13.4617 7.23047Z" fill="url(#paint1_linear_8480_50279)"/>
</g>
</g>
<defs>
<linearGradient id="paint0_linear_8480_50279" x1="8.8363" y1="4.79324" x2="21.7423" y2="5.09949" gradientUnits="userSpaceOnUse">
<stop stop-color="#92D839"/>
<stop offset="1" stop-color="#84BE4A"/>
</linearGradient>
<linearGradient id="paint1_linear_8480_50279" x1="12.0767" y1="5.92472" x2="15.5542" y2="6.04167" gradientUnits="userSpaceOnUse">
<stop stop-color="#92D839"/>
<stop offset="1" stop-color="#84BE4A"/>
</linearGradient>
</defs>
</svg>
